<svg xmlns="http://www.w3.org/2000/svg" width="359" height="111" fill="none"><g filter="url(#a)"><path fill="#FBE477" fill-rule="evenodd" d="M355 52.25a103.1 103.1 0 0 1-36.922 2.675c-10.042-1.247-19.824-3.914-29.091-8.005l-14.688 42.934c13.443 9.557 29.613 14.349 45.958 12.625 9.041-.954 17.74-3.812 25.694-8.49-5.171-4.438-10.342-8.877-15.513-13.114 8.169-9.677 16.338-19.15 24.562-28.625" clip-rule="evenodd"/></g><g filter="url(#b)"><path fill="#FBE477" fill-rule="evenodd" d="M4 52.25a103.1 103.1 0 0 0 36.921 2.675c10.042-1.247 19.825-3.914 29.091-8.005L84.7 89.854c-13.443 9.557-29.613 14.349-45.958 12.625-9.041-.954-17.74-3.812-25.694-8.49 5.17-4.438 10.342-8.877 15.513-13.114C20.392 71.198 12.224 61.725 4 52.25" clip-rule="evenodd"/></g><path fill="#F7E799" fill-rule="evenodd" d="M33.169 18.819a2929 2929 0 0 1 21.221-4.99c-.065 1.164.102 2.576.268 3.492 1.166-1.386 2.332-2.772 3.499-3.99 14.88-2.608 29.762-5.047 44.644-7.487a153 153 0 0 1 2.832 2.879c.833-1.215 1.666-2.38 2.499-3.544A574 574 0 0 1 173.599.688c8.889-.097 17.876.023 27.182.342 18.588.636 36.911 2.3 55.278 4.648-.5.554-.882 1.442-1.5 2.329 2.499-.61 5.264-1.22 7.497-1.83l9.162 1.33c1.222 1.216 2.443 2.329 3.665 3.494 1.055-.745 2.11-1.664 3.165-2.496l46.81 9.814-11.994 56.555-9.162-.832c-.999-.888-1.999-1.775-2.999-2.42-.999.627-1.999 1.2-2.998 1.92-15.659-1.92-31.318-4.324-46.977-6.486l-.333-3.493c-.887 1.275-1.888 2.55-2.832 3.825-4.886-.378-9.773-.998-14.659-1.497-.667-.907-1.333-2.44-1.999-3.659-.556 1.22-1.111 2.752-1.666 3.66l-20.823-1.165c-1.13-.998-2.332-1.996-3.499-2.994.056 1.188.327 2.107.167 3.16a358 358 0 0 0-15.159-1.164 325 325 0 0 0-13.494-.5c-11.19-.17-22.761.401-34.649 1.664-.5-1.386-.905-2.772-1.5-4.158l-4.164 4.99c-13.382.887-26.765 1.774-40.032 2.822-1.114-1.015-2.114-2.378-2.966-3.487-.258 1.164-.37 2.328-.48 3.493l-9.496.831-3.665-3.327q-1.998 2.413-3.998 4.824l-29.319 3.993C42.03 56.188 37.5 37.504 33.17 18.819" clip-rule="evenodd"/><path fill="#881E11" d="M97.902 47.94q-3.277 3.598-9.84 4.01-4.607.29-9.338-3.19-4.41-3.269-4.92-11.252-.431-6.755 3.212-11.261 3.68-4.509 9.247-4.858 4.184-.263 6.765 1.54 2.31 1.782 2.45 3.97.076 1.19-.524 2.036-.791.898-2.518 1.006-1.766.111-2.4-1.968-.124-1.957 1.005-2.376-.09-.803-1.562-1.52-1.842-1.08-4.106-.937-2.725.171-5.2 3.063-2.912 3.882-2.542 9.678.495 7.753 4.171 10.99 3.76 3.348 8.327 3.061 4.299-.27 7.2-2.533zm9.556-19.867q3.301-.207 5.341 1.553 2.979 3.204 3.166 6.12.205 3.225-1.352 5.982-1.177 2.078-4.449 3.362-1.208.384-2.129.442-5.183.325-8.028-5.006a10.4 10.4 0 0 1-.748-3.268l-.017-.268q-.249-3.877 2.661-6.603a5.4 5.4 0 0 1 2.678-.9q1.035-1.299 2.877-1.414m-2.31 1.84q.089 1.383 1.154 1.778.633-.348 1.017-.372.614-.039.817.72-.004.538-.57.729l-.686.12q-2.04.051-2.473-2.504-.827.322-1.49 1.404-1.002 2.414-.818 5.292.287 4.491 3.016 6.786 1.366.877 2.71.793 2.61-.164 4.125-2.379 1.369-2.706 1.19-5.508l-.015-.23q-.331-3.37-2.179-5.76-1.72-1.587-3.884-1.682-1.958.123-1.914.814m18.344.583q1.76-2 2.051-2.287a6.4 6.4 0 0 1 1.733-1.226 5.4 5.4 0 0 1 1.933-.507q1.611-.102 2.822.747 1.25.847 2.209 2.598 1.314-2.356 2.574-3.13 1.3-.774 2.72-.864 1.382-.087 2.462.54 1.119.622 1.836 2.196.492 1.049.641 3.39l.76 11.898q.167 2.61 3.374 3.333l-.132.355q-2.918.183-4.631-.71-1.555-1.407-1.737-3.052l-.743-11.63q-.135-2.11-.69-2.962-.845-1.14-2.456-1.04-.96.06-1.885.658-.887.595-1.892 2.354l.561 8.79q.114 1.764.332 2.175.258.408.814.68.555.235 1.86.154l.044.69-8.675.545-.044-.69q1.42-.09 1.938-.43.516-.38.663-1.082.096-.314-.002-1.85l-.471-7.37q-.136-2.11-.808-2.993-1.382-1.107-2.84-1.016-1.036.065-2 .665-1.483.902-2.262 1.992l.589 9.211q.108 1.688.37 2.174.262.484.74.724.476.2 1.895.112l.044.69-8.521.536-.044-.69q1.19-.075 1.636-.335.481-.3.678-.852.194-.59.093-2.163l-.42-6.564q-.182-2.84-.386-3.636-.194-.605-.477-.818t-.782-.182q-.537.033-1.25.348l-.312-.674 5.049-2.398.806-.05zm27.268-11.578q.768-.048 1.342.494.61.501.661 1.307.05.767-.49 1.38a1.72 1.72 0 0 1-1.268.657 1.9 1.9 0 0 1-1.418-.489 1.9 1.9 0 0 1-.624-1.31q-.051-.806.452-1.376a1.9 1.9 0 0 1 1.345-.663m2.619 6.001.88 13.78q.104 1.611.329 2.136.265.523.743.763.477.24 1.706.163l.044.69-8.329.524-.044-.691q1.266-.08 1.674-.337.405-.294.601-.847.231-.593.129-2.204l-.569-8.905-.237-1.295q-.194-.605-.476-.818-.283-.213-.783-.182-.537.034-1.249.348l-.049-.767 4.785-2.305zm22.546 18.122q.18 2.801 3.156 3.54l-.132.354q-2.61.165-4.631-.71-1.555-1.405-1.775-3.049l-.827-12.935q-.403-2.094-1.077-2.976-.996-1.133-2.455-1.04-1.037.064-2 .665-1.485.902-2.262 1.991l.588 9.212q.108 1.689.37 2.173.263.485.74.724.476.202 1.896.112l.044.691-8.521.536-.044-.691q1.19-.075 1.635-.334.483-.3.678-.852.194-.59.093-2.164l-.419-6.563q-.181-2.84-.387-3.637-.192-.604-.476-.818t-.782-.182q-.538.034-1.25.349l-.313-.674 5.05-2.399.806-.05.233 3.646q1.76-1.998 2.05-2.287a6.4 6.4 0 0 1 1.733-1.226 5.4 5.4 0 0 1 1.933-.507q1.612-.101 3.13.729 1.796.965 2.279 3.71zm18.009-22.596 1.458-.091.062.96q-1.42.089-1.383 1.28l1.074 16.812q.584 9.135-9.319 9.757-3.225.202-3.853-1.8l-.027-.423q-.05-1.385 1.365-1.55l.499-.032q.883-.054 3.03 1.583.602.385 1.064.357 2.456-.155 3.717-2.738.339-1.332.187-3.712l-.179-2.801q-2.073 1.941-4.683 2.105-5.68.357-8.123-5.887a9.8 9.8 0 0 1-.464-2.437q-.27-4.222 3.284-7.72 2.025-1.477 4.29-1.619l.076-.005q2.802-.175 4.712 1.361l-.039-.614q.613-2.465 3.252-2.786m-12.122 9.933q1.24 8.555 5.77 8.27 2.61-.165 3.89-3.058l-.359-5.603q-.174-2.725-3.09-5.548-1.59-.748-2.434-.695-2.112.132-3.099 2.16-.864 1.558-.678 4.474m45.712-15.622-.969 10.145-.651-.06q-.189-2.066-.876-3.366-.649-1.297-2.051-2.395-1.398-1.136-3.006-1.286-1.839-.172-3.154 1.056-1.314 1.229-1.475 2.913a4 4 0 0 0 .539 2.445q.925 1.632 4.774 4.62 3.088 2.454 4.166 3.714a7.4 7.4 0 0 1 1.62 2.856 7.8 7.8 0 0 1 .382 3.28q-.308 3.216-2.636 5.354-2.33 2.138-5.623 1.829a9.4 9.4 0 0 1-1.896-.372q-.525-.165-2.186-.977-1.623-.81-2.082-.852-.46-.045-.757.238-.26.285-.675 3.026l-.613-.057 1.046-10.95.613.058q.212 3.032.854 4.406.644 1.335 2.12 2.479 1.475 1.142 3.389 1.322 2.183.205 3.578-1.055 1.433-1.256 1.613-3.132.098-1.033-.297-2.152-.396-1.119-1.303-2.131-.631-.678-3.5-2.994-2.832-2.314-4.02-3.622-1.147-1.344-1.697-2.864a8 8 0 0 1-.344-3.277q.292-3.063 2.454-5.062 2.165-2.036 5.228-1.75 1.877.177 3.262 1.04 1.167.73 2.026 1.04.726-.317 1.496-3.528zm11.636 11.792q3.293.31 5.028 2.365 2.436 3.628 2.157 6.538-.306 3.216-2.282 5.696-1.493 1.868-4.926 2.628-1.255.19-2.174.104-5.169-.485-7.135-6.193a10.4 10.4 0 0 1-.222-3.343l.026-.268q.37-3.867 3.674-6.106a5.4 5.4 0 0 1 2.788-.472q1.228-1.122 3.066-.949m-2.574 1.458q-.13 1.38.859 1.935.68-.245 1.063-.21.612.059.693.838-.09.533-.679.632l-.696.012q-2.023-.267-2.046-2.857-.867.189-1.694 1.154-1.371 2.228-1.646 5.099-.428 4.479 1.904 7.17 1.21 1.08 2.55 1.206 2.604.244 4.452-1.707 1.78-2.46 2.047-5.255l.022-.23q.207-3.379-1.24-6.026-1.447-1.836-3.57-2.267-1.953-.183-2.019.506m21.606.329q3.293.309 5.028 2.365 2.436 3.628 2.157 6.537-.306 3.216-2.282 5.696-1.493 1.869-4.926 2.628-1.254.192-2.174.105-5.169-.485-7.135-6.194a10.4 10.4 0 0 1-.222-3.342l.026-.268q.37-3.867 3.674-6.107a5.4 5.4 0 0 1 2.788-.472q1.228-1.12 3.066-.948m-2.573 1.458q-.132 1.379.858 1.935.68-.245 1.063-.21.612.058.693.838-.09.533-.679.632l-.696.012q-2.023-.266-2.046-2.858-.867.189-1.694 1.155-1.371 2.227-1.646 5.099-.428 4.479 1.904 7.17 1.21 1.08 2.55 1.205 2.604.244 4.452-1.706 1.78-2.46 2.047-5.255l.022-.23q.207-3.38-1.24-6.026-1.447-1.836-3.57-2.267-1.953-.183-2.018.506m27.664 20.212q-.267 2.795 2.556 3.987l-.186.33q-2.604-.245-4.462-1.423-1.312-1.63-1.27-3.287l1.232-12.902q-.066-2.13-.591-3.108-.806-1.272-2.261-1.41-1.034-.096-2.081.346-1.608.66-2.549 1.615l-.878 9.189q-.16 1.684.021 2.203.183.52.616.83.438.274 1.855.407l-.066.689-8.501-.798.066-.69q1.186.113 1.668-.075.523-.22.805-.735.285-.553.434-2.123l.626-6.546q.27-2.834.194-3.652-.095-.627-.341-.882t-.744-.301q-.536-.05-1.289.149l-.202-.714 5.367-1.582.804.075-.348 3.637q2.056-1.7 2.388-1.939a6.4 6.4 0 0 1 1.906-.941 5.4 5.4 0 0 1 1.989-.2q1.608.15 2.976 1.207 1.62 1.233 1.663 4.019z"/><defs><filter id="a" width="88.393" height="63.597" x="270.453" y="46.92" color-interpolation-filters="sRGB" filterUnits="userSpaceOnUse"><feFlood flood-opacity="0" result="BackgroundImageFix"/><feColorMatrix in="SourceAlpha" result="hardAlpha" values="0 0 0 0 0 0 0 0 0 0 0 0 0 0 0 0 0 0 127 0"/><feOffset dy="3.846"/><feGaussianBlur stdDeviation="1.923"/><feComposite in2="hardAlpha" operator="out"/><feColorMatrix values="0 0 0 0 0 0 0 0 0 0 0 0 0 0 0 0 0 0 0.25 0"/><feBlend in2="BackgroundImageFix" result="effect1_dropShadow_1770_3544"/><feBlend in="SourceGraphic" in2="effect1_dropShadow_1770_3544" result="shape"/></filter><filter id="b" width="88.393" height="63.597" x=".154" y="46.92" color-interpolation-filters="sRGB" filterUnits="userSpaceOnUse"><feFlood flood-opacity="0" result="BackgroundImageFix"/><feColorMatrix in="SourceAlpha" result="hardAlpha" values="0 0 0 0 0 0 0 0 0 0 0 0 0 0 0 0 0 0 127 0"/><feOffset dy="3.846"/><feGaussianBlur stdDeviation="1.923"/><feComposite in2="hardAlpha" operator="out"/><feColorMatrix values="0 0 0 0 0 0 0 0 0 0 0 0 0 0 0 0 0 0 0.25 0"/><feBlend in2="BackgroundImageFix" result="effect1_dropShadow_1770_3544"/><feBlend in="SourceGraphic" in2="effect1_dropShadow_1770_3544" result="shape"/></filter></defs></svg>