<svg xmlns="http://www.w3.org/2000/svg" width="555" height="48" fill="none"><path fill="#fff" d="M9.357 8.952v12.576h7.008q2.736 0 3.648-.816 1.2-1.104 1.344-3.792h.864v11.04h-.864q-.336-2.304-.672-2.976-.384-.816-1.392-1.296-.96-.48-2.928-.48H9.357V33.72q0 2.112.192 2.592.192.432.672.72.48.24 1.776.24h5.376q2.736 0 3.936-.384t2.352-1.488q0-2.112-1.344-4.704l2.352.048L27.741 39H.333v-.864h1.104q1.152 0 2.16-.528.72-.384 1.008-1.104.288-.768.288-3.12V23.208h-3.36v-1.632h3.36V11.208Q4.893 9.72 4.27 9q-.864-.912-2.832-.912H.333v-.864h24.48l.384 6.96h-.912q-.528-2.496-1.152-3.408-.576-.96-1.728-1.488-.96-.336-3.312-.336zm43.985-7.584q5.52-1.104 6.528.96.288 2.4-1.392 6.336L47.15 39h-1.92L34.766 12.216q-.816-2.064-1.152-2.496a3.4 3.4 0 0 0-1.296-1.152q-.768-.384-2.016-.48v-.864h11.472v.864q-1.968.192-2.544.72t-.576 1.344q0 1.152.96 3.6l7.104 18.192 6.624-18q2.976-8.496 2.976-9.552 0-.624-.624-1.248-.576-.624-1.968-.912-.144 0-.384-.048zm18.474 7.584v12.576h7.008q2.736 0 3.648-.816 1.2-1.104 1.344-3.792h.864v11.04h-.864q-.336-2.304-.672-2.976-.384-.816-1.392-1.296-.96-.48-2.928-.48h-7.008V33.72q0 2.112.192 2.592.192.432.672.72.48.24 1.776.24h5.376q2.736 0 3.936-.384T86.12 35.4q0-2.112-1.344-4.704l2.352.048L90.2 39H62.792v-.864h1.104q1.152 0 2.16-.528.72-.384 1.008-1.104.288-.768.288-3.12V23.208h-3.36v-1.632h3.36V11.208q0-1.488-.624-2.208-.864-.912-2.832-.912h-1.104v-.864h24.48l.384 6.96h-.912q-.528-2.496-1.152-3.408-.576-.96-1.728-1.488-.96-.336-3.312-.336zm20.608-1.728h8.64l17.328 22.368V7.752q.192-3.072 2.688-4.512 2.304-1.152 5.952-.528v.864h-1.104q-2.016 0-2.88 1.2-.528.864-.528 3.408v31.344h-.816l-20.496-25.584V33.48q0 2.928.672 3.648.864 1.008 2.736 1.008h1.104V39H92.856v-.96h1.105q2.015 0 2.88-.816.624-.816.624-4.08v-22.08q-.48-1.248-1.008-1.776-.864-.816-1.968-1.008-.672-.192-2.065-.192zm60.767-.768.048 7.968h-.912q-.24-1.92-.72-2.736-.72-1.296-1.92-1.92t-3.168-.624h-4.464V43.08q0 2.352.624 2.88.864.912 2.256.912h1.104v1.056h-12.528v-1.056h1.152q1.44.048 2.352-.96.528-.72.528-2.832V9.144h-3.84q-2.208 0-3.168.336-1.2.432-2.064 1.632t-1.008 3.312h-.912V6.456h.912v.768h24.864v-.768zm22.854-2.544v12.72h-.816q-.48-2.544-1.488-4.08-.96-1.536-2.832-2.736-1.872-1.248-3.888-1.248-2.304 0-3.792 1.68t-1.488 3.792q0 1.632.96 2.976 1.344 1.92 6.48 5.184 4.128 2.688 5.616 4.128a9.26 9.26 0 0 1 2.352 3.36 9.7 9.7 0 0 1 .864 4.032q0 4.032-2.64 6.96t-6.768 2.928q-1.248 0-2.4-.24-.672-.144-2.832-.96-2.112-.816-2.688-.816t-.912.384q-.288.384-.48 3.84h-.768V32.088h.768q.624 3.744 1.584 5.376.96 1.584 2.928 2.832t4.368 1.248q2.736 0 4.32-1.728 1.632-1.728 1.632-4.08 0-1.296-.624-2.64t-1.872-2.496q-.864-.768-4.704-3.312-3.792-2.544-5.424-4.032-1.584-1.536-2.448-3.36-.816-1.872-.816-4.032 0-3.84 2.448-6.576 2.448-2.784 6.288-2.784 2.352 0 4.176.912 1.536.768 2.64 1.056.864-.48 1.44-4.56zm33.517 27.216L203.226 13.8l-4.896 13.248zm-12.864-4.656 7.296-19.968h.72l9.456 26.448q1.152 3.168 2.064 4.128.96.912 2.64 1.056V39h-10.752v-.864q1.632-.096 2.208-.624t.576-1.344q0-1.008-.528-2.736l-.144-.432-12.432-4.464-1.776 4.848q-.672 1.824-.672 2.736 0 .768.576 1.344.576.528 2.592.672V39h-8.592v-.864q1.68-.336 2.208-.912 1.008-1.152 2.304-4.56l1.728-4.752-6-2.16 2.736-.672zm24.005-19.248h8.64l17.328 22.368V7.752q.192-3.072 2.688-4.512 2.304-1.152 5.952-.528v.864h-1.104q-2.016 0-2.88 1.2-.528.864-.528 3.408v31.344h-.816l-20.496-25.584V33.48q0 2.928.672 3.648.864 1.008 2.736 1.008h1.104V39h-12.864v-.96h1.104q2.016 0 2.88-.816.624-.816.624-4.08v-22.08q-.48-1.248-1.008-1.776-.864-.816-1.968-1.008-.672-.192-2.064-.192zm42.478 29.472q2.64.672 4.416.672 4.848 0 8.016-3.792 3.168-3.84 3.168-10.416t-3.168-10.368T267.453 9q-1.872 0-4.272 1.92zm20.304-13.728q0 6.672-3.456 11.136-4.032 4.8-11.616 4.896h-13.296v-.864h1.056q1.776 0 2.496-1.248.528-.864.528-3.504V12.84q0-2.928-.576-3.744-.816-1.008-2.448-1.008h-1.056v-.864h8.016v2.064q3.648-2.064 8.112-2.064 5.232 0 9.792 6.192 2.448 4.56 2.448 9.552m31.775 8.16L308.924 13.8l-4.896 13.248zm-12.864-4.656 7.296-19.968h.72l9.456 26.448q1.152 3.168 2.064 4.128.96.912 2.64 1.056V39H313.82v-.864q1.632-.096 2.208-.624t.576-1.344q0-1.008-.528-2.736l-.144-.432-12.432-4.464-1.776 4.848q-.672 1.824-.672 2.736 0 .768.576 1.344.576.528 2.592.672V39h-8.592v-.864q1.68-.336 2.208-.912 1.008-1.152 2.304-4.56l1.728-4.752-6-2.16 2.736-.672zm54.148 14.736q-4.368 4.224-12.576 4.224-5.76 0-11.376-4.704-5.232-4.416-5.232-14.4 0-8.448 4.896-13.776 4.944-5.328 11.904-5.328 5.232 0 8.304 2.448 2.736 2.4 2.736 5.136 0 1.488-.816 2.496-1.056 1.056-3.216 1.056-2.208 0-2.832-2.64 0-2.448 1.44-2.88-.048-1.008-1.824-2.016-2.208-1.488-5.04-1.488-3.408 0-6.72 3.408-3.936 4.608-3.936 11.856 0 9.696 4.32 14.016 4.416 4.464 10.128 4.464 5.376 0 9.168-2.592zm28.748-34.752.048 7.968h-.912q-.24-1.92-.72-2.736-.72-1.296-1.92-1.92t-3.168-.624h-4.464V43.08q0 2.352.624 2.88.864.912 2.256.912h1.104v1.056h-12.528v-1.056h1.152q1.44.048 2.352-.96.528-.72.528-2.832V9.144h-3.84q-2.208 0-3.168.336-1.2.432-2.064 1.632t-1.008 3.312h-.912V6.456h.912v.768h24.864v-.768zm16.806 31.68V39h-13.584v-.864h1.104q1.968 0 2.88-1.152.576-.768.576-3.6V12.84q0-2.4-.336-3.168-.24-.624-.96-1.008a4.3 4.3 0 0 0-2.16-.576h-1.104v-.864h13.584v.864h-1.152q-1.968 0-2.832 1.152-.624.768-.624 3.6v20.544q0 2.4.336 3.168.24.576.96 1.008a4.3 4.3 0 0 0 2.16.576zm25.92-36.768q5.52-1.104 6.528.96.288 2.4-1.392 6.336L421.826 39h-1.92l-10.464-26.784q-.816-2.064-1.152-2.496a3.4 3.4 0 0 0-1.296-1.152q-.768-.384-2.016-.48v-.864h11.472v.864q-1.968.192-2.544.72t-.576 1.344q0 1.152.96 3.6l7.104 18.192 6.624-18q2.976-8.496 2.976-9.552 0-.624-.624-1.248-.576-.624-1.968-.912-.144 0-.384-.048zm23.225 36.768V39h-13.584v-.864h1.104q1.968 0 2.88-1.152.576-.768.576-3.6V12.84q0-2.4-.336-3.168-.24-.624-.96-1.008a4.3 4.3 0 0 0-2.16-.576h-1.104v-.864h13.584v.864h-1.152q-1.968 0-2.832 1.152-.624.768-.624 3.6v20.544q0 2.4.336 3.168.24.576.96 1.008a4.3 4.3 0 0 0 2.16.576zm29.809-31.68.048 7.968h-.912q-.24-1.92-.72-2.736-.72-1.296-1.92-1.92t-3.168-.624h-4.464V43.08q0 2.352.624 2.88.864.912 2.256.912h1.104v1.056h-12.528v-1.056h1.152q1.44.048 2.352-.96.528-.72.528-2.832V9.144h-3.84q-2.208 0-3.168.336-1.2.432-2.064 1.632t-1.008 3.312h-.912V6.456h.912v.768h24.864v-.768zm16.806 31.68V39h-13.584v-.864h1.104q1.968 0 2.88-1.152.576-.768.576-3.6V12.84q0-2.4-.336-3.168-.24-.624-.96-1.008a4.3 4.3 0 0 0-2.16-.576h-1.104v-.864h13.584v.864h-1.152q-1.968 0-2.832 1.152-.624.768-.624 3.6v20.544q0 2.4.336 3.168.24.576.96 1.008a4.3 4.3 0 0 0 2.16.576zM510.53 8.952v12.576h7.008q2.736 0 3.648-.816 1.2-1.104 1.344-3.792h.864v11.04h-.864q-.336-2.304-.672-2.976-.384-.816-1.392-1.296-.96-.48-2.928-.48h-7.008V33.72q0 2.112.192 2.592.192.432.672.72.48.24 1.776.24h5.376q2.736 0 3.936-.384t2.352-1.488q0-2.112-1.344-4.704l2.352.048L528.914 39h-27.408v-.864h1.104q1.152 0 2.16-.528.72-.384 1.008-1.104.288-.768.288-3.12V23.208h-3.36v-1.632h3.36V11.208q0-1.488-.624-2.208-.864-.912-2.832-.912h-1.104v-.864h24.48l.384 6.96h-.912q-.528-2.496-1.152-3.408-.576-.96-1.728-1.488-.96-.336-3.312-.336zm41.537-5.04v12.72h-.816q-.48-2.544-1.488-4.08-.96-1.536-2.832-2.736-1.872-1.248-3.888-1.248-2.304 0-3.792 1.68t-1.488 3.792q0 1.632.96 2.976 1.344 1.92 6.48 5.184 4.128 2.688 5.616 4.128a9.26 9.26 0 0 1 2.352 3.36 9.7 9.7 0 0 1 .864 4.032q0 4.032-2.64 6.96t-6.768 2.928q-1.248 0-2.4-.24-.672-.144-2.832-.96-2.112-.816-2.688-.816t-.912.384q-.288.384-.48 3.84h-.768V32.088h.768q.624 3.744 1.584 5.376.96 1.584 2.928 2.832t4.368 1.248q2.736 0 4.32-1.728 1.632-1.728 1.632-4.08 0-1.296-.624-2.64t-1.872-2.496q-.864-.768-4.704-3.312-3.792-2.544-5.424-4.032-1.584-1.536-2.448-3.36-.816-1.872-.816-4.032 0-3.84 2.448-6.576 2.448-2.784 6.288-2.784 2.352 0 4.176.912 1.536.768 2.64 1.056.864-.48 1.44-4.56z"/></svg>