<svg xmlns="http://www.w3.org/2000/svg" width="360" height="286" fill="none"><g filter="url(#a)"><path fill="url(#b)" d="m112.987 214.142-4.575 6.436c7.637.367 12.297-2.285 15.046-8.721a21.6 21.6 0 0 1 10.973-11.778c10.612-5.052 21.069-10.452 31.516-15.669.293 3.11.867 6.604.815 10.048-.002.906-1.579 2.334-2.655 2.605-5.629 1.39-10.937 3.151-13.703 9.002-.393.729-2.101 1.599-2.738 1.323-4.288-1.858-5.831 1.004-7.467 3.937a34.24 34.24 0 0 1-12.221 12.864 18.7 18.7 0 0 0-6.244 7.007l7.414-3.49.925 1.527-7.356 4.881c3.07 6.83 6.792 7.829 11.618 2.734a45.4 45.4 0 0 0 7.783-10.479c4.699-9.377 12.884-12.717 22.399-14.091 4.171-.594 8.501-.395 12.541-1.424 2.49-.7 4.623-2.316 5.968-4.524 7.706-14.977 16.786-28.848 29.863-39.747a28 28 0 0 1 4.465-2.536l1.65 1.475c-1.62 3.008-2.892 6.292-4.964 8.946s-4.835 4.516-6.799 7.626c3.273-1.166 6.607-2.178 9.811-3.504a44.46 44.46 0 0 1 22.904-2.871 13.02 13.02 0 0 1 11.187 8.892c2.794 7.443 2.256 14.949.164 22.446-.504 1.819-1.09 3.604-1.7 5.619l28.135-15.146c8.418 8.528 2.726 19.581 5.5 30.265 3.588-5.63 6.24-10.736 9.78-15.108a100.5 100.5 0 0 1 14.312-14.956c5.719-4.658 11.191-3.334 16.018 2.474.668.813 1.45 1.621 2.335 2.607 5.387-6.075 6.942-13.376 8.58-20.543 2.728-11.898 8.334-22.466 14.813-32.598.91-1.422 3.533-1.855 5.452-2.48 1.079-.358 2.316-.189 3.634-.85a24.88 24.88 0 0 0-17.062-6.386c-5.028.088-10.051.477-15.074.435-2.71-.023-5.801.025-8.065-1.173-6.631-3.507-12.772-2.46-19.024.64-2.305 1.135-4.581 2.341-6.857 3.525l-.958-2.452 4.656-2.931a88 88 0 0 0-8.033-5.136c-.746-.402-2.324.638-3.443 1.174-1.734.835-3.33 2.319-5.125 2.59-2.688.409-4.098 1.198-4.105 4.168-.007.815-1.449 2.072-2.441 2.334a102 102 0 0 1-13.778 2.979 11.7 11.7 0 0 1-6.89-1.589c-5.74-3.392-6.399-6.113-2.99-11.884a66 66 0 0 1 6.386-8.523 1940 1940 0 0 1 20.435-24.039c2.042-2.372 4.41-4.468 6.626-6.69l1.559.906-2.499 7.388.616.52 9.493-8.396c.736-7.156.866-7.273 7.264-2.72a16.3 16.3 0 0 0-.407-2.94c-2.33-6.518-1.055-11.924 4.282-16.61 1.258-1.103 2.168-4.804 1.473-5.466-1.419-1.35-4.017-1.888-6.154-1.967-3.077-.121-6.17.689-9.238.716-3.434.007-6.414.115-9.46 2.543-3.045 2.428-7.257 3.508-10.798 5.46-1.804.984-3.264 2.586-4.882 3.903l.64 1.174 6.314.009c-5.536 6.536-10.362 12.903-15.894 18.57a114 114 0 0 1-15.795 13.436c-2.414 1.707-6.095 1.968-9.252 2.179-1.445.095-4.401-1.874-4.288-2.31a19.3 19.3 0 0 1 3.231-6.939c.766-.97 2.978-.784 5.509-1.333-3.437-3.621-9.954-4.115-8.74-10.659l-3.907 3.677c-1.719-2.23-2.835-5.95-6.746-2.717.715 1.115 1.443 2.27 2.386 3.785l-4.758 1.273c-.052 3.709 6.263 5.42 3.309 10.142-9.532-.648-18.269-3.963-26.555-8.218-5.363-2.757-8.302-7.88-8.686-13.88-.468-7.141-.461-14.546 3.602-20.75 4.628-7.048 4.903-14.971 5.855-22.795a4.87 4.87 0 0 0-1.728-3.63c-12.709-10.298-25.417-20.597-38.343-30.615-3.351-2.59-7.508-4.157-11.316-6.208a7.8 7.8 0 0 0-.698 1.48c4.422 3.888 1.999 6.784-1.238 9.772-8.088 7.45-17.177 12.736-28.364 13.619-5.298.406-10.598.713-15.882 1.237-.878.07-1.632 1.056-2.424 1.624.794.83 1.688 1.556 2.662 2.165 4.027 1.85 8.895 2.692 12.04 5.46 9.495 8.356 10.319 22.534 2.476 32.571-2.536 3.289-5.666 6.202-8.458 9.33-1.037 1.144-1.955 2.375-2.933 3.573l.604 1.364c3.016-.586 6.014-1.181 9.047-1.758 4.294-.76 8.576-1.847 12.902-2.114 8.444-.514 11.936 4.032 8.769 11.901-2.342 5.782-5.823 11.093-8.802 16.62l.991 1.076 4.42-2.041c8.839-4.083 17.864-5.367 27.361-2.107a17.54 17.54 0 0 1 12.019 12.891c1.342 5.312 1.718 10.877 2.539 16.295l1.482 10.309c5.344-11.108 16.428-9.58 23.336-15.787l1.553 1.943c-2.054 2.21-3.8 4.874-6.229 6.528-3.035 2.08-6.61 3.415-10.016 4.93-6.395 2.812-11.91 6.475-15.975 12.334-2.778 3.943-8.443 5.401-9.485 11.154-.179 1.009-3.538 1.41-5.808 2.277 1.269 3.106-.857 4.259-3.794 6.094-6.28 3.913-11.773 9.136-17.873 13.29-20.058 13.749-40.153 27.445-60.452 40.843-15.56 10.269-31.491 20.017-44.804 33.243-5.262 5.225-9.856 11.142-14.618 16.858-.918 1.108-1.17 2.786-.777 4.911 3.941-3.206 8.094-6.209 11.832-9.635 16.009-14.593 34.119-26.351 52.677-37.359 9.327-5.501 19.08-10.396 28.832-15.103 5.558-2.677 11.601-4.363 17.564-6.557"/></g><defs><linearGradient id="b" x1="232.734" x2="102.379" y1="64.175" y2="187.734" gradientUnits="userSpaceOnUse"><stop stop-color="#FFF5D1"/><stop offset="1" stop-color="#FFC626"/></linearGradient><filter id="a" width="358.863" height="284.486" x=".603" y=".61" color-interpolation-filters="sRGB" filterUnits="userSpaceOnUse"><feFlood flood-opacity="0" result="BackgroundImageFix"/><feColorMatrix in="SourceAlpha" result="hardAlpha" values="0 0 0 0 0 0 0 0 0 0 0 0 0 0 0 0 0 0 127 0"/><feOffset dy="1"/><feGaussianBlur stdDeviation=".65"/><feComposite in2="hardAlpha" operator="out"/><feColorMatrix values="0 0 0 0 0 0 0 0 0 0 0 0 0 0 0 0 0 0 0.46 0"/><feBlend in2="BackgroundImageFix" result="effect1_dropShadow_1099_2757"/><feBlend in="SourceGraphic" in2="effect1_dropShadow_1099_2757" result="shape"/></filter></defs></svg>