<svg xmlns="http://www.w3.org/2000/svg" width="37" height="37" fill="none" viewBox="0 0 37 37"><path fill="#281f65" d="M28.048 11.16a2.13 2.13 0 1 1-.008-4.262 2.13 2.13 0 0 1 .008 4.262"/><path fill="#281f65" fill-rule="evenodd" d="M18.602 27.641a9.117 9.117 0 1 1-.033-18.232 9.117 9.117 0 0 1 .033 18.232m-.029-15.034a5.919 5.919 0 1 0 .024 11.837 5.919 5.919 0 0 0-.024-11.837" clip-rule="evenodd"/><path fill="#281f65" fill-rule="evenodd" d="M6.924 1.726c1.128-.442 2.418-.744 4.308-.834 1.893-.09 2.498-.111 7.319-.12 4.822-.01 5.427.009 7.32.093 1.89.082 3.181.38 4.31.817a8.7 8.7 0 0 1 3.15 2.04 8.7 8.7 0 0 1 2.053 3.142c.441 1.129.744 2.418.834 4.308.09 1.893.111 2.498.12 7.32.01 4.82-.01 5.425-.093 7.32-.082 1.889-.38 3.18-.817 4.31a8.7 8.7 0 0 1-2.04 3.149 8.7 8.7 0 0 1-3.142 2.054c-1.128.44-2.418.743-4.307.833-1.894.09-2.498.111-7.32.12-4.821.01-5.426-.009-7.32-.092-1.89-.083-3.18-.38-4.31-.817a8.7 8.7 0 0 1-3.15-2.042 8.7 8.7 0 0 1-2.053-3.14c-.442-1.13-.743-2.419-.833-4.308-.09-1.894-.112-2.5-.121-7.32-.01-4.821.01-5.426.092-7.32.084-1.89.38-3.18.817-4.311a8.7 8.7 0 0 1 2.042-3.149 8.7 8.7 0 0 1 3.141-2.053m1.217 30.66c.627.241 1.567.529 3.298.604 1.873.081 2.434.099 7.173.09 4.742-.009 5.303-.029 7.175-.117 1.73-.082 2.67-.373 3.294-.617a5.5 5.5 0 0 0 2.04-1.332 5.5 5.5 0 0 0 1.325-2.044c.241-.627.528-1.568.604-3.299.082-1.872.1-2.433.09-7.174-.009-4.74-.029-5.301-.118-7.174-.082-1.73-.372-2.67-.617-3.294a5.5 5.5 0 0 0-1.332-2.04 5.5 5.5 0 0 0-2.045-1.324c-.625-.243-1.566-.529-3.296-.604-1.873-.083-2.434-.1-7.175-.09-4.74.009-5.301.028-7.173.117-1.731.082-2.67.372-3.296.617a5.5 5.5 0 0 0-2.04 1.332A5.5 5.5 0 0 0 4.726 8.08c-.24.626-.53 1.567-.604 3.297-.082 1.873-.1 2.435-.09 7.175.008 4.74.029 5.302.117 7.174.08 1.73.374 2.67.617 3.296a5.5 5.5 0 0 0 1.332 2.039 5.5 5.5 0 0 0 2.044 1.324" clip-rule="evenodd"/></svg>