<svg width="359" height="111" viewBox="0 0 359 111" fill="none" xmlns="http://www.w3.org/2000/svg">
<g filter="url(#filter0_d_1770_3544)">
<path fill-rule="evenodd" clip-rule="evenodd" d="M355 52.25C342.89 55.3771 330.418 56.2618 318.078 54.9255C308.036 53.6779 298.254 51.0114 288.987 46.9204C284.091 61.2316 279.195 75.5431 274.299 89.8544C287.742 99.4111 303.912 104.203 320.257 102.479C329.298 101.525 337.997 98.6673 345.951 93.9897C340.78 89.5507 335.609 85.1116 330.438 80.8747C338.607 71.1984 346.776 61.7242 355 52.25Z" fill="#FBE477"/>
</g>
<g filter="url(#filter1_d_1770_3544)">
<path fill-rule="evenodd" clip-rule="evenodd" d="M3.99963 52.25C16.1089 55.3771 28.5815 56.2618 40.9215 54.9255C50.9632 53.6779 60.7457 51.0114 70.0124 46.9204C74.9084 61.2316 79.8044 75.5431 84.7004 89.8544C71.257 99.4111 55.087 104.203 38.7423 102.479C29.7009 101.525 21.0023 98.6673 13.048 93.9897C18.2189 89.5507 23.3901 85.1116 28.5614 80.8747C20.3925 71.1984 12.2236 61.7242 3.99963 52.25Z" fill="#FBE477"/>
</g>
<path fill-rule="evenodd" clip-rule="evenodd" d="M33.1689 18.8185C40.1654 17.1551 47.1619 15.4916 54.3903 13.8282C54.325 14.9928 54.4915 16.4054 54.6581 17.3215C55.8243 15.9353 56.9902 14.5491 58.1565 13.3308C73.0379 10.7233 87.9194 8.28378 102.801 5.84422C103.745 6.78676 104.689 7.7293 105.633 8.72259C106.466 7.50766 107.299 6.34311 108.132 5.17893C129.988 2.42594 151.813 0.925928 173.599 0.687868C182.488 0.590853 191.475 0.710997 200.781 1.02965C219.369 1.66585 237.692 3.33078 256.059 5.6778C255.559 6.23228 255.177 7.11959 254.559 8.00654C257.058 7.39683 259.823 6.78676 262.056 6.17668C265.11 6.62034 268.164 7.06401 271.218 7.50766C272.44 8.72259 273.661 9.83602 274.883 11.0006C275.938 10.2562 276.993 9.33714 278.048 8.50542C293.651 11.7767 309.255 15.048 324.858 18.3193C320.86 37.1708 316.862 56.022 312.864 74.8735C309.81 74.5963 306.756 74.319 303.702 74.0418C302.703 73.1545 301.703 72.2675 300.703 71.622C299.704 72.2488 298.704 72.822 297.705 73.5429C282.046 71.622 266.387 69.2179 250.728 67.0556C250.617 65.8914 250.506 64.7268 250.395 63.5626C249.508 64.838 248.507 66.113 247.563 67.3884C242.677 67.0101 237.79 66.3903 232.904 65.8914C232.237 64.9839 231.571 63.4518 230.905 62.232C230.349 63.4518 229.794 64.9839 229.239 65.8914C222.298 65.5033 215.357 65.1149 208.416 64.7268C207.286 63.7291 206.084 62.7309 204.917 61.7328C204.973 62.9205 205.244 63.8395 205.084 64.8932C200.006 64.3951 195.036 64.0138 189.925 63.7291C185.328 63.4727 180.947 63.2959 176.431 63.2298C165.241 63.0593 153.67 63.6302 141.782 64.8932C141.282 63.5071 140.877 62.1209 140.282 60.735C138.894 62.3981 137.506 64.0615 136.118 65.725C122.736 66.6119 109.353 67.4992 96.0855 68.5473C94.9715 67.5324 93.9722 66.1686 93.1203 65.0597C92.8616 66.2238 92.7503 67.3884 92.6394 68.5526C89.4744 68.8298 86.3091 69.1071 83.1441 69.3843C81.9226 68.2753 80.701 67.1664 79.4791 66.0574C78.1467 67.6656 76.8138 69.2735 75.481 70.8813C65.7083 72.2123 55.9353 73.5429 46.1622 74.8735C42.0293 56.1884 37.4997 37.5036 33.1689 18.8185Z" fill="#F7E799"/>
<path d="M97.9024 47.9409C95.7177 50.3389 92.4374 51.6753 88.0616 51.9501C84.9909 52.1429 81.8784 51.0796 78.7242 48.76C75.7845 46.5812 74.1446 42.8306 73.8045 37.5084C73.5167 33.0049 74.5871 29.2511 77.0157 26.247C79.4699 23.2412 82.5522 21.6218 86.2627 21.3888C89.0519 21.2136 91.3071 21.7271 93.0282 22.9292C94.5686 24.1169 95.3854 25.4401 95.4786 26.8986C95.5293 27.6918 95.3543 28.3707 94.9536 28.9354C94.4266 29.5337 93.5874 29.869 92.4358 29.9413C91.2587 30.0152 90.4589 29.359 90.0363 27.9726C89.9529 26.6676 90.2876 25.8759 91.0406 25.5973C90.9807 25.0616 90.4601 24.5548 89.479 24.0769C88.2512 23.3576 86.8824 23.0454 85.3726 23.1402C83.5558 23.2543 81.8226 24.2752 80.173 26.2028C78.2316 28.791 77.3844 32.017 77.6313 35.8807C77.9617 41.0494 79.3519 44.7129 81.8022 46.8712C84.3085 49.103 87.0842 50.1232 90.1293 49.932C92.9954 49.752 95.395 48.9076 97.3283 47.3989L97.9024 47.9409ZM107.458 28.073C109.659 27.9347 111.439 28.4524 112.799 29.6258C114.785 31.7618 115.84 33.8021 115.965 35.7468C116.102 37.8962 115.651 39.8898 114.613 41.7276C113.828 43.1128 112.345 44.2336 110.164 45.0899C109.359 45.346 108.649 45.4933 108.035 45.5319C104.58 45.7489 101.904 44.0801 100.007 40.5255C99.58 39.4733 99.3306 38.3843 99.2586 37.2584L99.2415 36.9898C99.0763 34.4054 99.9634 32.2046 101.903 30.3872C102.716 29.848 103.609 29.5479 104.581 29.4868C105.271 28.6214 106.23 28.1501 107.458 28.073ZM105.148 29.9136C105.207 30.8348 105.592 31.4272 106.302 31.6908C106.724 31.4588 107.063 31.3348 107.319 31.3187C107.728 31.293 108.001 31.5328 108.136 32.0381C108.133 32.398 107.943 32.6411 107.566 32.7676L106.88 32.8877C105.52 32.9217 104.696 32.0872 104.407 30.384C103.856 30.5985 103.359 31.0664 102.917 31.7878C102.249 33.3969 101.976 35.161 102.099 37.0801C102.29 40.0738 103.296 42.3357 105.115 43.8656C106.026 44.4506 106.929 44.715 107.825 44.6588C109.565 44.5495 110.94 43.7566 111.95 42.2802C112.863 40.476 113.259 38.6399 113.14 36.772L113.125 36.5417C112.904 34.2948 112.178 32.3751 110.946 30.7826C109.799 29.7243 108.504 29.1633 107.062 29.0998C105.756 29.1818 105.119 29.453 105.148 29.9136ZM123.492 30.4956C124.666 29.1631 125.349 28.4008 125.543 28.2088C126.075 27.6873 126.652 27.2785 127.276 26.9825C127.925 26.6848 128.569 26.5159 129.209 26.4757C130.283 26.4082 131.224 26.6574 132.031 27.2233C132.864 27.7876 133.6 28.6534 134.24 29.8206C135.116 28.2499 135.974 27.2069 136.814 26.6917C137.681 26.1748 138.587 25.8867 139.534 25.8272C140.455 25.7694 141.276 25.949 141.996 26.3662C142.742 26.7818 143.354 27.5141 143.832 28.563C144.16 29.2618 144.373 30.3916 144.473 31.9525L145.233 43.8507C145.345 45.5907 146.469 46.7018 148.607 47.1842L148.475 47.5392C146.53 47.6614 144.986 47.4244 143.844 46.8282C142.807 45.8913 142.229 44.8744 142.107 43.7773L141.364 32.1477C141.274 30.7404 141.044 29.7529 140.674 29.1853C140.111 28.4242 139.292 28.0775 138.218 28.145C137.578 28.1851 136.95 28.4044 136.333 28.8028C135.742 29.1996 135.111 29.9843 134.441 31.1567L135.002 39.9461C135.078 41.1231 135.188 41.8484 135.334 42.1218C135.506 42.3936 135.777 42.6206 136.148 42.8028C136.518 42.9594 137.138 43.0104 138.008 42.9558L138.052 43.6466L129.377 44.1915L129.333 43.5006C130.28 43.4411 130.926 43.2978 131.271 43.0706C131.615 42.8178 131.836 42.4571 131.934 41.9885C131.998 41.779 131.997 41.1625 131.932 40.139L131.461 32.7697C131.371 31.3624 131.101 30.3645 130.653 29.7761C129.732 29.0376 128.785 28.6988 127.813 28.7599C127.122 28.8033 126.456 29.025 125.813 29.425C124.824 30.0266 124.07 30.6905 123.551 31.4168L124.14 40.6283C124.212 41.7542 124.335 42.4786 124.51 42.8016C124.685 43.1246 124.931 43.366 125.25 43.5259C125.567 43.6601 126.199 43.6975 127.145 43.638L127.189 44.3289L118.668 44.8641L118.624 44.1732C119.417 44.1234 119.963 44.0121 120.26 43.8392C120.581 43.6392 120.807 43.3553 120.938 42.9874C121.067 42.594 121.098 41.8727 121.031 40.8236L120.611 34.2604C120.49 32.3669 120.361 31.1547 120.225 30.6238C120.096 30.2208 119.937 29.9482 119.748 29.8059C119.559 29.6636 119.299 29.6029 118.966 29.6238C118.608 29.6463 118.191 29.7624 117.716 29.972L117.404 29.2981L122.453 26.9L123.259 26.8494L123.492 30.4956ZM150.76 18.918C151.272 18.8858 151.719 19.0504 152.102 19.4117C152.508 19.7458 152.729 20.1816 152.763 20.7189C152.796 21.2307 152.633 21.6905 152.273 22.0984C151.94 22.5047 151.517 22.724 151.005 22.7561C150.468 22.7899 149.995 22.6269 149.587 22.2672C149.204 21.9059 148.996 21.4693 148.963 20.9576C148.929 20.4202 149.079 19.9612 149.415 19.5805C149.774 19.1725 150.223 18.9517 150.76 18.918ZM153.379 24.9192L154.259 38.6981C154.328 39.7728 154.438 40.4852 154.588 40.8354C154.765 41.184 155.012 41.4382 155.331 41.5981C155.649 41.7579 156.218 41.8121 157.037 41.7607L157.081 42.4515L148.752 42.9747L148.708 42.2838C149.552 42.2307 150.11 42.1186 150.382 41.9474C150.652 41.7506 150.852 41.4683 150.983 41.1004C151.137 40.7054 151.18 39.9705 151.112 38.8958L150.543 29.9913L150.306 28.696C150.177 28.293 150.018 28.0204 149.83 27.8781C149.641 27.7358 149.38 27.6751 149.047 27.696C148.689 27.7185 148.272 27.8346 147.798 28.0443L147.749 27.2766L152.534 24.9722L153.379 24.9192ZM175.925 43.0406C176.045 44.9085 177.097 46.0885 179.081 46.5804L178.949 46.9355C177.209 47.0448 175.665 46.8078 174.318 46.2245C173.281 45.2876 172.69 44.2715 172.543 43.176L171.716 30.2415C171.447 28.8454 171.088 27.8532 170.639 27.2648C169.975 26.5101 169.156 26.1633 168.184 26.2244C167.493 26.2678 166.826 26.4895 166.184 26.8895C165.194 27.4911 164.44 28.1551 163.922 28.8813L164.51 38.0928C164.582 39.2187 164.706 39.9431 164.88 40.2661C165.055 40.5891 165.302 40.8305 165.62 40.9904C165.937 41.1246 166.569 41.162 167.516 41.1025L167.56 41.7934L159.039 42.3286L158.995 41.6377C159.788 41.5879 160.333 41.4766 160.63 41.3038C160.952 41.1038 161.178 40.8198 161.308 40.4519C161.437 40.0585 161.468 39.3372 161.401 38.2881L160.982 31.7249C160.861 29.8314 160.732 28.6192 160.595 28.0883C160.467 27.6853 160.308 27.4127 160.119 27.2704C159.93 27.1281 159.669 27.0674 159.337 27.0883C158.978 27.1108 158.562 27.2269 158.087 27.4366L157.774 26.7626L162.824 24.3645L163.63 24.3139L163.863 27.9601C165.036 26.6276 165.72 25.8653 165.913 25.6734C166.445 25.1518 167.023 24.743 167.646 24.447C168.295 24.1493 168.939 23.9804 169.579 23.9402C170.654 23.8727 171.697 24.1155 172.709 24.6685C173.906 25.3127 174.666 26.5495 174.988 28.3789L175.925 43.0406ZM193.934 20.4453L195.392 20.3537L195.454 21.3133C194.507 21.3727 194.046 21.7999 194.071 22.5947L195.145 39.4058C195.535 45.4957 192.428 48.7479 185.826 49.1626C183.676 49.2976 182.392 48.6974 181.973 47.3622L181.946 46.94C181.912 46.0172 182.368 45.5005 183.311 45.3899L183.81 45.3585C184.399 45.3216 185.409 45.849 186.84 46.9409C187.242 47.1982 187.596 47.3173 187.904 47.298C189.541 47.1951 190.78 46.2824 191.621 44.5597C191.847 43.672 191.909 42.435 191.808 40.8485L191.629 38.0467C190.247 39.3409 188.686 40.0427 186.946 40.152C183.159 40.3898 180.451 38.4276 178.823 34.2652C178.568 33.4848 178.413 32.6725 178.359 31.8281C178.179 29.0134 179.274 26.4399 181.643 24.1074C182.993 23.1235 184.423 22.5841 185.933 22.4893L186.009 22.4844C187.877 22.3671 189.448 22.8208 190.721 23.8455L190.682 23.2314C191.091 21.5873 192.174 20.6586 193.934 20.4453ZM181.812 30.3781C182.639 36.0808 184.562 38.8373 187.582 38.6477C189.322 38.5384 190.619 37.5193 191.472 35.5903L191.113 29.9866C190.997 28.1699 189.967 26.3206 188.023 24.4389C186.963 23.9403 186.152 23.7086 185.589 23.744C184.181 23.8324 183.148 24.5524 182.49 25.9039C181.914 26.942 181.688 28.4334 181.812 30.3781Z" fill="#881E11"/>
<path d="M227.524 14.7568L226.555 24.9024L225.904 24.8413C225.778 23.4646 225.486 22.3427 225.028 21.4756C224.595 20.6109 223.912 19.8128 222.977 19.0812C222.045 18.3242 221.043 17.8953 219.971 17.7947C218.745 17.6796 217.694 18.0316 216.817 18.8507C215.941 19.6697 215.449 20.6407 215.342 21.7638C215.259 22.6316 215.438 23.4468 215.881 24.2094C216.498 25.2974 218.089 26.8375 220.655 28.8295C222.714 30.4649 224.102 31.7026 224.821 32.5426C225.567 33.3595 226.107 34.3115 226.441 35.3987C226.803 36.4628 226.93 37.5564 226.823 38.6794C226.618 40.8234 225.739 42.608 224.187 44.0331C222.634 45.4583 220.76 46.0678 218.564 45.8617C217.901 45.7994 217.269 45.6757 216.668 45.4905C216.318 45.3804 215.589 45.0545 214.482 44.5127C213.4 43.9734 212.706 43.6893 212.4 43.6606C212.094 43.6318 211.841 43.7112 211.643 43.8986C211.47 44.0884 211.245 45.0974 210.968 46.9255L210.355 46.868L211.401 35.9183L212.014 35.9758C212.155 37.9978 212.44 39.4667 212.868 40.3824C213.298 41.2726 214.004 42.0987 214.988 42.8605C215.971 43.6224 217.101 44.0632 218.377 44.1831C219.832 44.3197 221.025 43.9681 221.955 43.1283C222.911 42.2909 223.448 41.2469 223.568 39.9963C223.633 39.3071 223.535 38.5896 223.271 37.8438C223.007 37.098 222.573 36.3877 221.968 35.7128C221.547 35.2613 220.381 34.2633 218.468 32.7188C216.58 31.1767 215.24 29.9693 214.448 29.0966C213.683 28.2008 213.118 27.2464 212.751 26.2333C212.412 25.1972 212.298 24.1048 212.407 22.9562C212.602 20.9143 213.42 19.2271 214.861 17.8944C216.304 16.5363 218.047 15.9531 220.089 16.1448C221.34 16.2622 222.428 16.6089 223.351 17.1849C224.129 17.67 224.804 18.0167 225.377 18.2249C225.861 18.0128 226.36 16.8364 226.873 14.6956L227.524 14.7568ZM239.16 26.5492C241.355 26.7553 243.031 27.5436 244.188 28.9141C245.812 31.3327 246.531 33.512 246.345 35.4518C246.141 37.5957 245.38 39.4944 244.063 41.1477C243.068 42.3934 241.426 43.2694 239.137 43.7756C238.3 43.9031 237.576 43.9381 236.963 43.8805C233.517 43.557 231.139 41.4924 229.828 37.6868C229.573 36.5812 229.499 35.467 229.606 34.3439L229.632 34.0759C229.878 31.498 231.103 29.4627 233.306 27.9698C234.195 27.5639 235.124 27.4065 236.094 27.4976C236.913 26.7503 237.934 26.4342 239.16 26.5492ZM236.586 28.0073C236.499 28.9262 236.785 29.5711 237.445 29.9421C237.898 29.7787 238.253 29.7089 238.508 29.7329C238.916 29.7712 239.147 30.0504 239.201 30.5705C239.141 30.9254 238.915 31.136 238.522 31.2021L237.826 31.214C236.477 31.0359 235.796 30.0835 235.78 28.3566C235.202 28.4825 234.637 28.8673 234.086 29.5109C233.172 30.996 232.623 32.6956 232.44 34.6099C232.155 37.5962 232.789 39.9864 234.344 41.7804C235.151 42.5 236.001 42.9017 236.894 42.9856C238.63 43.1486 240.114 42.5797 241.346 41.2789C242.533 39.6392 243.215 37.8877 243.393 36.0244L243.415 35.7947C243.553 33.5414 243.14 31.5326 242.175 29.7681C241.21 28.5444 240.02 27.7889 238.605 27.5015C237.303 27.3793 236.63 27.5479 236.586 28.0073ZM258.192 28.3359C260.387 28.542 262.063 29.3303 263.22 30.7008C264.844 33.1194 265.563 35.2986 265.377 37.2384C265.173 39.3824 264.412 41.281 263.095 42.9343C262.1 44.1801 260.458 45.056 258.169 45.5622C257.333 45.6897 256.608 45.7247 255.995 45.6672C252.549 45.3437 250.171 43.2791 248.86 39.4734C248.605 38.3679 248.531 37.2536 248.638 36.1306L248.664 35.8626C248.91 33.2847 250.135 31.2493 252.338 29.7565C253.227 29.3506 254.156 29.1932 255.126 29.2842C255.945 28.537 256.966 28.2209 258.192 28.3359ZM255.619 29.794C255.531 30.7129 255.817 31.3578 256.477 31.7288C256.93 31.5653 257.285 31.4956 257.54 31.5195C257.948 31.5579 258.179 31.8371 258.233 32.3571C258.173 32.7121 257.947 32.9226 257.554 32.9888L256.858 33.0006C255.509 32.8226 254.828 31.8701 254.812 30.1432C254.234 30.2692 253.669 30.654 253.118 31.2976C252.204 32.7826 251.655 34.4823 251.472 36.3966C251.187 39.3828 251.821 41.773 253.376 43.5671C254.183 44.2867 255.033 44.6884 255.926 44.7723C257.662 44.9352 259.146 44.3663 260.378 43.0656C261.565 41.4258 262.247 39.6743 262.425 37.8111L262.447 37.5814C262.585 35.3281 262.172 33.3192 261.207 31.5547C260.242 30.331 259.052 29.5755 257.637 29.2882C256.335 29.166 255.662 29.3346 255.619 29.794ZM283.283 50.0058C283.105 51.869 283.957 53.198 285.839 53.9927L285.653 54.3229C283.917 54.1599 282.43 53.6855 281.191 52.8997C280.316 51.8132 279.893 50.7176 279.921 49.6129L281.153 36.7107C281.109 35.2901 280.912 34.2544 280.562 33.6035C280.025 32.7547 279.271 32.2848 278.301 32.1937C277.612 32.129 276.918 32.2442 276.22 32.5392C275.148 32.9794 274.298 33.5176 273.671 34.1541L272.793 43.3426C272.686 44.4656 272.693 45.2002 272.814 45.5464C272.936 45.8926 273.141 46.1694 273.43 46.3768C273.722 46.5587 274.34 46.694 275.285 46.7827L275.219 47.4718L266.718 46.6738L266.784 45.9847C267.575 46.059 268.131 46.0339 268.452 45.9095C268.801 45.762 269.069 45.5168 269.257 45.1738C269.447 44.8054 269.591 44.0979 269.691 43.0514L270.317 36.5046C270.497 34.6158 270.562 33.3987 270.511 32.8531C270.448 32.4351 270.334 32.1412 270.17 31.9713C270.006 31.8013 269.758 31.7008 269.426 31.6697C269.069 31.6361 268.639 31.6859 268.137 31.819L267.935 31.1047L273.302 29.5226L274.106 29.5981L273.758 33.2352C275.129 32.102 275.925 31.4556 276.146 31.2961C276.754 30.8639 277.389 30.5501 278.052 30.3548C278.74 30.1618 279.403 30.0953 280.041 30.1552C281.113 30.2559 282.105 30.658 283.017 31.3617C284.097 32.1842 284.652 33.5239 284.68 35.3807L283.283 50.0058Z" fill="#881E11"/>
<defs>
<filter id="filter0_d_1770_3544" x="270.453" y="46.9204" width="88.3927" height="63.5967" filterUnits="userSpaceOnUse" color-interpolation-filters="sRGB">
<feFlood flood-opacity="0" result="BackgroundImageFix"/>
<feColorMatrix in="SourceAlpha" type="matrix" values="0 0 0 0 0 0 0 0 0 0 0 0 0 0 0 0 0 0 127 0" result="hardAlpha"/>
<feOffset dy="3.84598"/>
<feGaussianBlur stdDeviation="1.92299"/>
<feComposite in2="hardAlpha" operator="out"/>
<feColorMatrix type="matrix" values="0 0 0 0 0 0 0 0 0 0 0 0 0 0 0 0 0 0 0.25 0"/>
<feBlend mode="normal" in2="BackgroundImageFix" result="effect1_dropShadow_1770_3544"/>
<feBlend mode="normal" in="SourceGraphic" in2="effect1_dropShadow_1770_3544" result="shape"/>
</filter>
<filter id="filter1_d_1770_3544" x="0.153655" y="46.9204" width="88.3927" height="63.5967" filterUnits="userSpaceOnUse" color-interpolation-filters="sRGB">
<feFlood flood-opacity="0" result="BackgroundImageFix"/>
<feColorMatrix in="SourceAlpha" type="matrix" values="0 0 0 0 0 0 0 0 0 0 0 0 0 0 0 0 0 0 127 0" result="hardAlpha"/>
<feOffset dy="3.84598"/>
<feGaussianBlur stdDeviation="1.92299"/>
<feComposite in2="hardAlpha" operator="out"/>
<feColorMatrix type="matrix" values="0 0 0 0 0 0 0 0 0 0 0 0 0 0 0 0 0 0 0.25 0"/>
<feBlend mode="normal" in2="BackgroundImageFix" result="effect1_dropShadow_1770_3544"/>
<feBlend mode="normal" in="SourceGraphic" in2="effect1_dropShadow_1770_3544" result="shape"/>
</filter>
</defs>
</svg>
