<svg width="37" height="37" viewBox="0 0 37 37" fill="none" xmlns="http://www.w3.org/2000/svg">
<path d="M28.0476 11.1596C26.8717 11.1619 25.9156 10.2098 25.9133 9.03395C25.911 7.85806 26.8631 6.90194 28.0395 6.89964C29.216 6.89734 30.1721 7.85 30.1744 9.02589C30.1761 10.2018 29.224 11.1573 28.0476 11.1596Z" fill="#281F65"/>
<path fill-rule="evenodd" clip-rule="evenodd" d="M18.6021 27.641C13.5678 27.6508 9.47814 23.5778 9.46838 18.5423C9.45858 13.508 13.5327 9.41766 18.567 9.40788C23.6024 9.3981 27.6926 13.4734 27.7024 18.5072C27.7122 23.5427 23.6369 27.6312 18.6021 27.641ZM18.5733 12.607C15.3057 12.6128 12.6606 15.2677 12.6663 18.536C12.6727 21.8047 15.3282 24.4493 18.5957 24.443C21.8645 24.4367 24.5096 21.7823 24.5033 18.5135C24.4969 15.2447 21.8415 12.6007 18.5733 12.607Z" fill="#281F65"/>
<path fill-rule="evenodd" clip-rule="evenodd" d="M6.92446 1.72608C8.05202 1.28426 9.34236 0.981653 11.2316 0.892485C13.1254 0.801599 13.73 0.780881 18.5509 0.771681C23.3729 0.76248 23.9775 0.780878 25.8713 0.864869C27.7611 0.946558 29.052 1.24456 30.1819 1.68178C31.3508 2.13223 32.3426 2.73859 33.3309 3.7229C34.3193 4.70836 34.9279 5.69671 35.3841 6.86396C35.8254 7.99268 36.1279 9.2819 36.2177 11.1723C36.3074 13.0655 36.3293 13.6696 36.3385 18.4911C36.3477 23.312 36.3281 23.9172 36.2453 25.8122C36.163 27.7008 35.8656 28.9924 35.4284 30.1217C34.9768 31.2906 34.3716 32.2824 33.3873 33.2708C32.403 34.2597 31.4135 34.8678 30.2463 35.3246C29.1176 35.7652 27.8284 36.0678 25.9392 36.1581C24.0454 36.2479 23.4407 36.2692 18.6182 36.2784C13.7979 36.2876 13.1933 36.2692 11.2995 36.1857C9.40967 36.1029 8.11818 35.8055 6.98889 35.3688C5.81994 34.9167 4.82816 34.312 3.83982 33.3271C2.85092 32.3423 2.24172 31.3533 1.78611 30.1861C1.34429 29.0579 1.04281 27.7682 0.952506 25.8795C0.862195 23.9851 0.840916 23.3799 0.831719 18.559C0.822486 13.7375 0.841481 13.1334 0.92431 11.2396C1.00774 9.34921 1.30401 8.05825 1.74123 6.92782C2.19281 5.75941 2.798 4.76819 3.78346 3.77928C4.76776 2.79094 5.75723 2.18112 6.92446 1.72608ZM8.14121 32.386C8.76768 32.627 9.70767 32.9147 11.4387 32.99C13.3118 33.0711 13.8727 33.089 18.6124 33.0798C23.3539 33.0711 23.9148 33.051 25.7873 32.963C27.5166 32.8807 28.4566 32.5896 29.0813 32.3457C29.9103 32.0218 30.5006 31.6347 31.1207 31.0139C31.7408 30.3909 32.1246 29.7989 32.4456 28.9699C32.6872 28.3429 32.9743 27.4023 33.0496 25.6712C33.1319 23.7992 33.1491 23.2378 33.1399 18.4968C33.1313 13.757 33.1112 13.1956 33.022 11.323C32.9403 9.59311 32.6498 8.65309 32.4053 8.02891C32.0814 7.19878 31.6954 6.60969 31.073 5.98895C30.4505 5.36821 29.8585 4.98564 29.0284 4.66464C28.4031 4.42245 27.4619 4.13595 25.7321 4.06059C23.859 3.97833 23.2975 3.96163 18.5566 3.97085C13.8169 3.98005 13.256 3.99903 11.3835 4.08763C9.65303 4.16988 8.71416 4.46041 8.08825 4.70491C7.25985 5.02879 6.66962 5.41366 6.0489 6.0367C5.42931 6.65973 5.0456 7.25055 4.72461 8.08126C4.48416 8.70718 4.19477 9.64834 4.12057 11.3782C4.03887 13.2514 4.02162 13.8129 4.03083 18.5526C4.03947 23.2936 4.05959 23.8551 4.14761 25.7265C4.22872 27.4575 4.52152 28.3964 4.76488 29.0229C5.08876 29.8507 5.47478 30.4409 6.09666 31.0617C6.71969 31.6801 7.31165 32.065 8.14121 32.386Z" fill="#281F65"/>
</svg>
