<svg width="45" height="218" viewBox="0 0 45 218" fill="none" xmlns="http://www.w3.org/2000/svg">
<circle cx="-63" cy="108" r="108" fill="url(#paint0_linear_1010_1786)"/>
<g filter="url(#filter0_d_1010_1786)">
<path d="M2.81004 144.834L15.2058 99.5305C12.5592 98.7626 10.317 96.9441 8.97249 94.4751C7.628 92.0062 7.29135 89.089 8.03659 86.3654L-14.3231 79.8774C-14.6922 81.2264 -15.316 82.4873 -16.1588 83.588C-17.0016 84.6886 -18.0469 85.6075 -19.2349 86.2922C-20.423 86.9769 -21.7306 87.4139 -23.083 87.5782C-24.4354 87.7426 -25.8061 87.6311 -27.1168 87.2501C-28.4276 86.8704 -29.6529 86.2286 -30.7228 85.3613C-31.7926 84.4941 -32.686 83.4184 -33.3518 82.1957C-34.0176 80.9731 -34.4428 79.6274 -34.6031 78.2357C-34.7634 76.844 -34.6557 75.4336 -34.286 74.0849L-110.337 52.0178C-110.398 52.4416 -110.485 52.861 -110.597 53.2735C-111.344 55.9973 -113.111 58.304 -115.51 59.6865C-117.909 61.0691 -120.744 61.4143 -123.391 60.6462L-123.71 60.5536L-136.109 105.871L-135.791 105.964C-133.35 106.671 -131.246 108.274 -129.877 110.47C-128.507 112.666 -127.967 115.302 -128.358 117.879L-52.3068 139.946C-51.516 137.276 -49.7403 135.031 -47.3602 133.693C-44.9801 132.355 -42.1851 132.03 -39.5742 132.788C-36.9633 133.545 -34.7442 135.325 -33.3927 137.746C-32.0412 140.167 -31.6647 143.036 -32.3439 145.739L-9.98418 152.227C-9.61659 150.876 -8.99396 149.613 -8.15188 148.511C-7.30981 147.408 -6.26481 146.487 -5.07661 145.801C-3.8884 145.114 -2.5803 144.675 -1.22705 144.51C0.126191 144.344 1.49803 144.454 2.81004 144.834Z" fill="#95D2FF"/>
</g>
<g clip-path="url(#clip0_1010_1786)">
<g filter="url(#filter1_d_1010_1786)">
<path d="M0.668341 153.242L5.03073 106.39C2.2936 106.12 -0.227252 104.741 -1.97726 102.559C-3.72725 100.376 -4.56305 97.5669 -4.30079 94.7501L-27.4251 92.4668C-27.555 93.862 -27.9507 95.2171 -28.5897 96.4547C-29.2286 97.6924 -30.0983 98.7883 -31.1489 99.6799C-32.1996 100.572 -33.4107 101.241 -34.7131 101.651C-36.0154 102.061 -37.3835 102.203 -38.7391 102.068C-40.0946 101.935 -41.4114 101.528 -42.6141 100.871C-43.8169 100.214 -44.882 99.3191 -45.7486 98.2381C-46.6152 97.1571 -47.2664 95.911 -47.6648 94.5709C-48.0632 93.2309 -48.2011 91.8232 -48.0706 90.4283L-126.722 82.6623C-126.709 83.0905 -126.722 83.5192 -126.761 83.9457C-127.025 86.7628 -128.365 89.3568 -130.486 91.1572C-132.608 92.9577 -135.338 93.8173 -138.075 93.5469L-138.405 93.5144L-142.769 140.381L-142.439 140.414C-139.915 140.662 -137.568 141.854 -135.84 143.764C-134.113 145.673 -133.125 148.168 -133.064 150.776L-54.4126 158.542C-54.0962 155.769 -52.7371 153.235 -50.6265 151.482C-48.5159 149.728 -45.8218 148.896 -43.1216 149.162C-40.4214 149.429 -37.93 150.774 -36.1814 152.908C-34.4328 155.042 -33.5661 157.796 -33.7671 160.58L-10.6428 162.864C-10.5146 161.467 -10.1203 160.111 -9.48239 158.871C-8.84447 157.632 -7.97544 156.534 -6.92498 155.64C-5.87451 154.747 -4.6632 154.075 -3.36029 153.664C-2.05739 153.252 -0.688417 153.109 0.668341 153.242Z" fill="url(#paint1_linear_1010_1786)"/>
<path d="M-125.82 84.0379C-125.81 83.9267 -125.802 83.8152 -125.795 83.7038L-49.0596 91.2806C-49.0762 92.4824 -48.9138 93.682 -48.5708 94.836C-48.1376 96.2929 -47.4291 97.6497 -46.4846 98.8278C-45.5401 100.006 -44.3777 100.983 -43.0635 101.701C-41.9135 102.33 -40.6673 102.749 -39.3804 102.941L-38.8268 103.01C-37.3439 103.157 -35.8478 103.002 -34.4248 102.554C-33.0018 102.106 -31.6809 101.374 -30.5358 100.403C-29.3908 99.4309 -28.4439 98.2384 -27.7492 96.8929C-27.1989 95.8268 -26.8181 94.6805 -26.6122 93.497L-5.28909 95.6024C-5.32592 98.3381 -4.4232 101.016 -2.713 103.149C-1.00628 105.278 1.37793 106.705 4.00616 107.195L-0.188966 152.251C-1.35979 152.237 -2.52759 152.407 -3.64954 152.761C-5.07289 153.21 -6.39434 153.944 -7.53901 154.917C-8.68379 155.891 -9.6298 157.087 -10.3233 158.434C-10.8725 159.501 -11.252 160.648 -11.4567 161.832L-32.7963 159.725C-32.8119 157.024 -33.7422 154.398 -35.4523 152.311C-37.3585 149.984 -40.0795 148.512 -43.0343 148.221C-45.989 147.929 -48.9323 148.841 -51.2329 150.752C-53.2967 152.467 -54.6941 154.864 -55.2078 157.513L-132.172 149.913C-132.411 147.39 -133.446 145.004 -135.141 143.131C-136.886 141.202 -139.214 139.943 -141.742 139.551L-137.55 94.5306C-134.764 94.6499 -132.028 93.7091 -129.873 91.8806C-127.561 89.9188 -126.106 87.0972 -125.82 84.0389L-125.82 84.0379Z" stroke="#8ACDFF" stroke-width="1.89142"/>
</g>
</g>
<g filter="url(#filter2_d_1010_1786)">
<path d="M34.0299 180.649C33.6349 180.478 29.0555 178.397 28.1826 173.533C27.5266 169.867 29.2305 166.106 32.5482 163.923C30.9302 164.237 28.2623 164.783 24.9938 165.568C11.5104 168.815 4.14047 170.686 -0.197861 176.576C-1.04247 177.728 -2.28423 179.718 -3.04187 182.748L7.89617 181.177C7.84273 182.853 7.83854 184.6 7.89617 186.414C8.04405 191.059 8.58177 195.683 9.50367 200.238L28.5557 196.17C27.8965 195.563 25.5167 193.219 25.5105 189.848C25.5073 185.794 28.9319 181.887 34.0299 180.649Z" fill="#E0F2FF"/>
</g>
<g filter="url(#filter3_d_1010_1786)">
<path d="M8.83279 180.109C8.83279 180.109 11.0322 180.302 11.0322 181.817C11.0249 189.849 10.9841 198.038 11.0804 206.227C11.1024 208.038 10.0079 208.44 8.68094 208.689C-0.163971 210.351 -8.95755 212.442 -17.8842 213.497C-43.8261 216.559 -69.8602 216.588 -95.9183 214.788C-110.549 213.776 -127.05 211.186 -135.835 208.336C-136.192 208.226 -136.506 208.006 -136.73 207.707C-136.953 207.408 -137.076 207.046 -137.08 206.673V181.83C-136.503 181.085 -135.746 180.497 -134.881 180.119C-132.96 179.306 -130.999 179.862 -130.572 179.971C-126.249 181.06 -82.4378 185.798 -59.9721 185.151C-43.8973 184.689 2.43451 180.285 5.91277 179.808C6.25421 179.761 7.5058 179.571 8.83279 180.109Z" fill="#E0F2FF"/>
</g>
<path d="M-0.452417 190.15L0.167974 195.124L-0.156091 195.164C-0.315979 194.611 -0.579591 194.095 -0.932837 193.641C-1.28176 193.241 -1.71155 192.92 -2.19378 192.699C-2.68324 192.446 -3.23622 192.343 -3.78383 192.402C-4.06707 192.428 -4.34119 192.516 -4.58663 192.659C-4.83206 192.803 -5.04275 192.999 -5.20366 193.233C-5.53536 193.679 -5.68545 194.234 -5.62355 194.786C-5.57764 195.205 -5.39765 195.598 -5.11035 195.907C-4.69676 196.367 -3.7624 196.946 -2.29592 197.635C-1.11694 198.205 -0.299842 198.644 0.147794 198.967C0.594438 199.287 0.97047 199.695 1.25248 200.166C1.5345 200.638 1.71646 201.162 1.78703 201.707C1.93064 202.716 1.67106 203.741 1.0645 204.56C0.449162 205.413 -0.416692 205.906 -1.53305 206.04C-1.85899 206.079 -2.18804 206.086 -2.51532 206.06C-2.91323 206.002 -3.30733 205.92 -3.69557 205.815C-4.29578 205.669 -4.67406 205.603 -4.83042 205.621C-4.89814 205.624 -4.96415 205.643 -5.02338 205.676C-5.08262 205.709 -5.13351 205.756 -5.17214 205.811C-5.24527 205.921 -5.25746 206.43 -5.2087 207.338L-5.52016 207.372C-5.71771 205.581 -5.91441 203.791 -6.11028 202.003L-5.80135 201.968C-5.52646 202.928 -5.23602 203.603 -4.93003 203.993C-4.5773 204.42 -4.12829 204.757 -3.61991 204.977C-3.05155 205.241 -2.41958 205.339 -1.79784 205.258C-1.06145 205.174 -0.503691 204.879 -0.124567 204.375C0.0582719 204.14 0.192362 203.87 0.269871 203.583C0.347381 203.295 0.366749 202.995 0.326846 202.699C0.277146 202.342 0.147883 201.999 -0.0514374 201.698C-0.281041 201.35 -0.576618 201.05 -0.921485 200.815C-1.17368 200.643 -1.85459 200.287 -2.95035 199.742C-4.04611 199.198 -4.8279 198.751 -5.29949 198.405C-5.75088 198.082 -6.13292 197.672 -6.42299 197.199C-6.70106 196.731 -6.87322 196.208 -6.92737 195.666C-7.04989 194.715 -6.8065 193.752 -6.24646 192.974C-5.97829 192.588 -5.62853 192.265 -5.22193 192.029C-4.81533 191.793 -4.36184 191.649 -3.89354 191.608C-3.32633 191.53 -2.74886 191.585 -2.20639 191.768C-1.85411 191.901 -1.489 191.997 -1.11693 192.054C-0.905092 191.902 -0.789505 191.285 -0.770171 190.202L-0.452417 190.15Z" fill="#1253A0"/>
<g filter="url(#filter4_d_1010_1786)">
<path d="M34.0299 35.3507C33.6349 35.5224 29.0555 37.6034 28.1826 42.4671C27.5266 46.1327 29.2305 49.8935 32.5482 52.0771C30.9302 51.763 28.2623 51.2173 24.9938 50.4318C11.5104 47.1852 4.14047 45.3137 -0.197861 39.4236C-1.04247 38.2716 -2.28423 36.2817 -3.04187 33.2519L7.89617 34.8228C7.84273 33.1471 7.83854 31.4002 7.89617 29.5863C8.04405 24.9413 8.58177 20.317 9.50367 15.7619L28.5557 19.8296C27.8965 20.4371 25.5167 22.7809 25.5105 26.1522C25.5073 30.2063 28.9319 34.1128 34.0299 35.3507Z" fill="#E0F2FF"/>
</g>
<g filter="url(#filter5_d_1010_1786)">
<path d="M8.83279 35.891C8.83279 35.891 11.0322 35.6976 11.0322 34.1833C11.0249 26.1514 10.9841 17.9618 11.0804 9.77325C11.1024 7.96205 10.0079 7.55968 8.68094 7.31093C-0.163971 5.64918 -8.95755 3.55788 -17.8842 2.50335C-43.8261 -0.558876 -69.8602 -0.588139 -95.9183 1.21157C-110.549 2.2243 -127.05 4.81413 -135.835 7.66419C-136.192 7.77384 -136.506 7.994 -136.73 8.29288C-136.953 8.59176 -137.076 8.95389 -137.08 9.32699V34.1697C-136.503 34.915 -135.746 35.5033 -134.881 35.8805C-132.96 36.6936 -130.999 36.1376 -130.572 36.0289C-126.249 34.9399 -82.4378 30.2024 -59.9721 30.8493C-43.8973 31.3112 2.43451 35.7154 5.91277 36.192C6.25421 36.239 7.5058 36.4292 8.83279 35.891Z" fill="#E0F2FF"/>
</g>
<defs>
<filter id="filter0_d_1010_1786" x="-136.614" y="52.0178" width="152.324" height="101.217" filterUnits="userSpaceOnUse" color-interpolation-filters="sRGB">
<feFlood flood-opacity="0" result="BackgroundImageFix"/>
<feColorMatrix in="SourceAlpha" type="matrix" values="0 0 0 0 0 0 0 0 0 0 0 0 0 0 0 0 0 0 127 0" result="hardAlpha"/>
<feOffset dy="0.504378"/>
<feGaussianBlur stdDeviation="0.252189"/>
<feComposite in2="hardAlpha" operator="out"/>
<feColorMatrix type="matrix" values="0 0 0 0 0 0 0 0 0 0 0 0 0 0 0 0 0 0 0.25 0"/>
<feBlend mode="normal" in2="BackgroundImageFix" result="effect1_dropShadow_1010_1786"/>
<feBlend mode="normal" in="SourceGraphic" in2="effect1_dropShadow_1010_1786" result="shape"/>
</filter>
<filter id="filter1_d_1010_1786" x="-143.273" y="82.6624" width="148.808" height="81.2099" filterUnits="userSpaceOnUse" color-interpolation-filters="sRGB">
<feFlood flood-opacity="0" result="BackgroundImageFix"/>
<feColorMatrix in="SourceAlpha" type="matrix" values="0 0 0 0 0 0 0 0 0 0 0 0 0 0 0 0 0 0 127 0" result="hardAlpha"/>
<feOffset dy="0.504378"/>
<feGaussianBlur stdDeviation="0.252189"/>
<feComposite in2="hardAlpha" operator="out"/>
<feColorMatrix type="matrix" values="0 0 0 0 0 0 0 0 0 0 0 0 0 0 0 0 0 0 0.25 0"/>
<feBlend mode="normal" in2="BackgroundImageFix" result="effect1_dropShadow_1010_1786"/>
<feBlend mode="normal" in="SourceGraphic" in2="effect1_dropShadow_1010_1786" result="shape"/>
</filter>
<filter id="filter2_d_1010_1786" x="-3.16796" y="163.923" width="38.0805" height="37.4503" filterUnits="userSpaceOnUse" color-interpolation-filters="sRGB">
<feFlood flood-opacity="0" result="BackgroundImageFix"/>
<feColorMatrix in="SourceAlpha" type="matrix" values="0 0 0 0 0 0 0 0 0 0 0 0 0 0 0 0 0 0 127 0" result="hardAlpha"/>
<feOffset dx="0.378284" dy="0.630473"/>
<feGaussianBlur stdDeviation="0.252189"/>
<feComposite in2="hardAlpha" operator="out"/>
<feColorMatrix type="matrix" values="0 0 0 0 0 0 0 0 0 0 0 0 0 0 0 0 0 0 0.25 0"/>
<feBlend mode="normal" in2="BackgroundImageFix" result="effect1_dropShadow_1010_1786"/>
<feBlend mode="normal" in="SourceGraphic" in2="effect1_dropShadow_1010_1786" result="shape"/>
</filter>
<filter id="filter3_d_1010_1786" x="-137.08" y="179.685" width="149.548" height="38.0808" filterUnits="userSpaceOnUse" color-interpolation-filters="sRGB">
<feFlood flood-opacity="0" result="BackgroundImageFix"/>
<feColorMatrix in="SourceAlpha" type="matrix" values="0 0 0 0 0 0 0 0 0 0 0 0 0 0 0 0 0 0 127 0" result="hardAlpha"/>
<feOffset dx="0.882662" dy="1.26095"/>
<feGaussianBlur stdDeviation="0.252189"/>
<feComposite in2="hardAlpha" operator="out"/>
<feColorMatrix type="matrix" values="0 0 0 0 0 0 0 0 0 0 0 0 0 0 0 0 0 0 0.25 0"/>
<feBlend mode="normal" in2="BackgroundImageFix" result="effect1_dropShadow_1010_1786"/>
<feBlend mode="normal" in="SourceGraphic" in2="effect1_dropShadow_1010_1786" result="shape"/>
</filter>
<filter id="filter4_d_1010_1786" x="-3.16796" y="15.762" width="38.0805" height="37.45" filterUnits="userSpaceOnUse" color-interpolation-filters="sRGB">
<feFlood flood-opacity="0" result="BackgroundImageFix"/>
<feColorMatrix in="SourceAlpha" type="matrix" values="0 0 0 0 0 0 0 0 0 0 0 0 0 0 0 0 0 0 127 0" result="hardAlpha"/>
<feOffset dx="0.378284" dy="0.630473"/>
<feGaussianBlur stdDeviation="0.252189"/>
<feComposite in2="hardAlpha" operator="out"/>
<feColorMatrix type="matrix" values="0 0 0 0 0 0 0 0 0 0 0 0 0 0 0 0 0 0 0.25 0"/>
<feBlend mode="normal" in2="BackgroundImageFix" result="effect1_dropShadow_1010_1786"/>
<feBlend mode="normal" in="SourceGraphic" in2="effect1_dropShadow_1010_1786" result="shape"/>
</filter>
<filter id="filter5_d_1010_1786" x="-137.08" y="0.000244141" width="149.548" height="38.0805" filterUnits="userSpaceOnUse" color-interpolation-filters="sRGB">
<feFlood flood-opacity="0" result="BackgroundImageFix"/>
<feColorMatrix in="SourceAlpha" type="matrix" values="0 0 0 0 0 0 0 0 0 0 0 0 0 0 0 0 0 0 127 0" result="hardAlpha"/>
<feOffset dx="0.882662" dy="1.26095"/>
<feGaussianBlur stdDeviation="0.252189"/>
<feComposite in2="hardAlpha" operator="out"/>
<feColorMatrix type="matrix" values="0 0 0 0 0 0 0 0 0 0 0 0 0 0 0 0 0 0 0.25 0"/>
<feBlend mode="normal" in2="BackgroundImageFix" result="effect1_dropShadow_1010_1786"/>
<feBlend mode="normal" in="SourceGraphic" in2="effect1_dropShadow_1010_1786" result="shape"/>
</filter>
<linearGradient id="paint0_linear_1010_1786" x1="-62.9369" y1="33.5412" x2="-62.9369" y2="232.014" gradientUnits="userSpaceOnUse">
<stop stop-color="#2493E5"/>
<stop offset="1" stop-color="#95D2FF"/>
</linearGradient>
<linearGradient id="paint1_linear_1010_1786" x1="-71.7948" y1="100.95" x2="-51.3195" y2="202.813" gradientUnits="userSpaceOnUse">
<stop stop-color="#E0F2FF"/>
<stop offset="1" stop-color="#8ACDFF"/>
</linearGradient>
<clipPath id="clip0_1010_1786">
<rect width="144.014" height="68.3886" fill="white" transform="matrix(0.995161 0.0982612 -0.0927079 0.995693 -137.297 81.6182)"/>
</clipPath>
</defs>
</svg>
