<svg width="216" height="218" viewBox="0 0 216 218" fill="none" xmlns="http://www.w3.org/2000/svg">
<circle cx="108" cy="108" r="108" fill="url(#paint0_linear_1010_1881)"/>
<g filter="url(#filter0_d_1010_1881)">
<path d="M120.818 98.5652C122.316 96.5782 122.499 94.3676 121.245 92.0979C120.804 91.3137 120.515 90.4554 120.392 89.5667C120.208 87.9382 121.612 86.8287 123.216 87.2843C124.398 87.6218 125.486 88.2589 125.597 89.592C125.729 91.2035 125.627 92.8362 125.627 94.3676C127.462 93.5238 128.362 91.0727 127.573 88.6301C126.651 85.774 123.438 84.1541 120.712 85.1623C117.985 86.1706 116.991 88.9592 118.262 91.8743C118.463 92.3257 118.689 92.7687 118.89 93.2201C119.606 94.8147 119.602 96.4136 118.574 97.8606C117.688 99.0454 116.726 100.173 115.694 101.236C115.118 101.785 114.507 102.297 113.863 102.767C116.961 102.573 119.112 100.826 120.818 98.5652Z" fill="#D2EBBB"/>
</g>
<path d="M65.5692 116.022C63.8 113.65 59.2348 111.855 53.6174 111.353C46.2096 110.692 39.7437 112.533 36.7101 114.303C29.4975 118.488 38.4793 124.105 39.0309 124.442C46.6678 129.057 60.3846 129.465 62.2386 129.499" stroke="url(#paint1_linear_1010_1881)" stroke-width="6.30473" stroke-miterlimit="10"/>
<path d="M145.135 116.022C146.904 113.65 151.469 111.855 157.086 111.353C164.494 110.692 170.96 112.533 173.993 114.303C181.206 118.488 172.228 124.105 171.672 124.442C164.036 129.057 150.319 129.465 148.465 129.499" stroke="#B1EB7A" stroke-width="6.30473" stroke-miterlimit="10"/>
<g filter="url(#filter1_d_1010_1881)">
<path d="M169.349 167.552C169.019 167.744 168.651 167.871 168.268 167.926C167.885 167.982 167.494 167.964 167.118 167.875C162.174 166.727 161.736 152.118 161.572 148.174C161.058 136.085 158.418 114.809 150.683 74.8431L155.597 74.0176C162.044 126.019 165.981 147.472 168.528 155.065C169.219 157.127 172.301 165.594 169.349 167.552Z" fill="#D2EBBB"/>
</g>
<path d="M164.06 124.203L158.123 125.464V131.895C158.482 131.872 159.607 131.758 161.226 131.483C162.846 131.208 164.897 130.507 165.751 130.256L164.06 124.203Z" fill="#B1EB7A"/>
<g filter="url(#filter2_d_1010_1881)">
<path d="M155.274 91.8865C159.176 88.7235 161.661 84.1413 162.182 79.1478C162.702 74.1543 161.216 69.1586 158.051 65.2596C154.885 61.3607 150.299 58.878 145.302 58.3576C140.304 57.8373 135.304 59.3218 131.402 62.4848C130.823 62.9571 130.272 63.4624 129.751 63.9984L153.453 93.1838C154.085 92.7874 154.693 92.3542 155.274 91.8865Z" fill="#D2EBBB"/>
<path d="M131.282 62.3376C135.224 59.1431 140.274 57.6441 145.322 58.1697C150.369 58.6953 155 61.2027 158.198 65.1404C161.395 69.0782 162.895 74.1243 162.369 79.1677C161.843 84.2109 159.334 88.8385 155.393 92.033V92.0339C154.806 92.5063 154.192 92.9441 153.554 93.3445L153.412 93.4333L153.307 93.3035L129.605 64.1179L129.498 63.9871L129.615 63.8669C130.141 63.3258 130.698 62.8155 131.282 62.3386V62.3376Z" stroke="#D2EBBB" stroke-width="0.378284"/>
</g>
<path d="M153.326 93.1978C155.661 91.4066 152.427 83.2937 146.102 75.077C139.777 66.8603 132.756 61.6514 130.421 63.4426C128.086 65.2338 131.321 73.3467 137.646 81.5634C143.971 89.7801 150.991 94.989 153.326 93.1978Z" fill="#97D85B" stroke="#D2EBBB" stroke-width="1.13485" stroke-miterlimit="10"/>
<g filter="url(#filter3_d_1010_1881)">
<path d="M92.7271 79.1241C79.4062 79.9705 74.491 81.2105 69.9786 83.3856C63.2439 86.6315 62.2346 89.6319 61.9631 90.8846C61.3906 93.5507 62.5696 95.8317 62.8834 96.4326C65.0039 100.512 70.1652 102.78 76.0559 102.586C75.7669 102.995 75.4165 103.358 75.0168 103.661C73.3773 104.924 71.583 105.973 69.6775 106.784C61.5602 110.131 56.883 117.626 54.3087 125.874C52.3912 132.018 52.7409 137.971 57.3466 147.709C59.6121 152.649 62.9428 157.029 67.1009 160.536C65.4554 163.392 63.8099 166.177 62.2365 169C61.5682 170.117 61.0263 171.305 60.6207 172.542C60.0185 174.594 60.8879 176.46 62.8641 177.167C64.0844 177.61 65.3895 177.771 66.681 177.637C69.4292 177.281 71.3461 175.445 72.7329 173.236C74.1197 171.027 75.3029 168.619 76.5243 166.388C96.0031 174.687 115.541 174.704 135.253 166.308C135.393 166.651 135.563 167.061 135.737 167.468C136.92 170.214 138.209 172.901 140.338 175.064C142.382 177.142 144.761 178.322 147.785 177.561C150.423 176.896 151.725 174.835 150.877 172.237C150.406 170.802 149.579 169.478 148.846 168.14C147.433 165.601 145.974 163.062 144.566 160.591C144.745 160.375 144.795 160.299 144.859 160.235C156.233 149.232 160.472 142.852 157.661 127.275C156.104 118.646 151.299 111.938 143.296 107.846C141.693 107.029 139.904 106.496 138.402 105.552C137.158 104.834 136.033 103.926 135.069 102.861C140.213 102.014 144.162 100.745 146.676 97.2959C147.431 96.2591 148.988 94.3336 148.89 91.714C148.807 90.6135 148.499 89.5417 147.983 88.5655C144.887 82.8609 131.566 80.2075 131.566 80.2075C122.88 78.4809 115.938 78.5147 106.481 78.5782C100.48 78.6417 96.4465 78.8914 92.7271 79.1241Z" fill="url(#paint2_linear_1010_1881)"/>
</g>
<g filter="url(#filter4_d_1010_1881)">
<path d="M143.62 92.1544C143.416 95.5848 125.778 97.3231 122.333 97.6953C116.508 98.3207 112.172 98.2632 104.999 98.1711C97.9368 98.0934 90.8863 97.6167 83.8871 96.7437C74.546 95.5925 68.2798 94.7483 67.9761 92.6686C67.6723 90.5888 73.7388 88.1714 76.4351 87.12C79.5682 85.896 87.9315 82.9644 105.686 83.2407C118.027 83.4325 125.346 85.025 127.805 85.6005C131.986 86.5752 143.787 89.3226 143.62 92.1544Z" fill="url(#paint3_linear_1010_1881)"/>
<path d="M105.7 82.2947C118.122 82.4878 125.51 84.0917 128.021 84.6794H128.02C130.105 85.1654 134.143 86.1056 137.645 87.2849C139.389 87.8724 141.052 88.5363 142.284 89.2566C142.898 89.6153 143.455 90.0159 143.862 90.4656C144.266 90.9124 144.605 91.5036 144.564 92.2097V92.2107C144.513 93.0591 143.939 93.6859 143.351 94.1218C142.74 94.5742 141.927 94.962 141.025 95.3005C139.21 95.9811 136.814 96.5439 134.366 97.0017C129.458 97.9197 124.148 98.4505 122.435 98.6355H122.434C116.545 99.2678 112.155 99.209 104.988 99.1169V99.116C97.89 99.0378 90.8039 98.5598 83.7698 97.6824V97.6814C79.1153 97.1078 75.1637 96.604 72.3381 95.9773C70.9303 95.665 69.735 95.3088 68.8528 94.866C68.0135 94.4447 67.1868 93.8079 67.0403 92.8054C66.8929 91.7966 67.531 90.9593 68.1418 90.3835C68.7966 89.7665 69.693 89.1912 70.6262 88.6794C72.5027 87.6504 74.7472 86.7631 76.0911 86.239L76.762 85.9832C80.4346 84.6146 88.9397 82.0339 105.7 82.2947Z" stroke="#97D85B" stroke-width="1.89142"/>
</g>
<g filter="url(#filter5_d_1010_1881)">
<path d="M108.459 81.3785L108.402 81.3862C107.06 77.9369 107.502 75.7993 110.036 73.2573C110.763 72.5265 111.577 71.8746 112.269 71.0977C113.076 70.2284 113.794 69.279 114.41 68.2641C115.999 65.4513 115.658 63.373 113.287 61.1713C112.193 60.1579 110.9 59.3603 109.848 58.3122C108.946 57.4465 108.19 56.4392 107.609 55.3298C106.787 53.6656 107.339 51.938 107.944 50.3121C108.55 48.6862 109.319 47.1542 109.889 45.526C110.637 43.3357 109.815 41.4028 107.798 40.2644C106.942 39.7742 105.99 39.4805 105.009 39.4041C104.029 39.3278 103.044 39.4708 102.125 39.8229C97.358 41.5027 93.7168 44.6928 90.8005 48.754C90.3283 49.4506 89.9864 50.2282 89.7915 51.0486C89.2116 53.3393 90.4222 56.0838 92.3158 56.7633C92.7827 56.9323 93.3767 56.7353 93.9141 56.7058C93.8419 56.1744 93.9453 55.5284 93.6754 55.1365C92.1356 52.8908 92.2736 50.5621 93.5499 48.4019C95.9742 44.3059 99.9026 42.3515 104.4 41.5292C106.206 41.1963 107.628 42.5175 107.923 44.3731C108.219 46.2288 107.546 47.8348 106.533 49.3309C105.652 50.6275 104.661 51.8627 103.917 53.2352C102.279 56.2654 103.044 58.6055 106.049 60.238C106.958 60.7319 107.883 61.1944 108.746 61.7561C110.146 62.6553 110.855 63.9899 110.564 65.6747C110.427 66.6204 110.137 67.537 109.706 68.3882C108.859 69.8864 107.931 71.3367 106.926 72.7324C104.93 75.5462 103.908 78.4382 106.31 81.8197C107.041 82.6318 107.802 83.5526 108.566 84.5782C109.391 85.6863 110.096 86.7562 110.698 87.7567C110.136 85.5087 109.063 83.5118 108.459 81.3785Z" fill="#D2EBBB"/>
</g>
<g filter="url(#filter6_d_1010_1881)">
<path d="M76.7722 63.5617C75.2057 64.0018 74.2026 65.7987 74.2953 67.4098C74.3541 68.2928 74.699 69.1299 75.2773 69.7934C75.8556 70.4568 76.6356 70.9102 77.4983 71.0843C78.6717 71.3415 79.9056 71.3494 81.0768 71.6176C81.7704 71.7631 82.4224 72.0603 82.9868 72.4881C83.5511 72.9158 84.0141 73.4637 84.3428 74.093C84.6715 74.7223 84.8579 75.4176 84.8889 76.1297C84.9199 76.8418 84.7948 77.5533 84.5222 78.2138C83.8046 74.746 82.2556 73.3745 78.8614 73.0613C77.996 73.0107 77.1346 72.9113 76.2812 72.7635C75.0517 72.5157 73.9476 71.8502 73.154 70.8785C72.3603 69.9068 71.9253 68.6879 71.9218 67.4261C71.9183 66.1642 72.3465 64.936 73.1347 63.9471C73.9229 62.9583 75.0231 62.269 76.2512 61.9945C77.9328 61.5954 79.5105 62.2514 80.0898 63.3585C79.0772 63.3985 77.8608 63.2525 76.7722 63.5617Z" fill="#D2EBBB"/>
</g>
<path d="M101.124 83.9574C101.064 85.9601 100.225 87.8603 98.7857 89.2538C97.346 90.6472 95.4194 91.424 93.4159 91.4187C91.4123 91.4134 89.4898 90.6265 88.0575 89.2255C86.6253 87.8244 85.7962 85.9198 85.7467 83.9168C85.7214 82.8893 85.9022 81.8672 86.2785 80.9108C86.6548 79.9543 87.2189 79.083 87.9376 78.3483C88.6563 77.6136 89.515 77.0304 90.4629 76.6331C91.4108 76.2358 92.4287 76.0325 93.4564 76.0352C94.4842 76.0379 95.501 76.2466 96.4468 76.6489C97.3926 77.0511 98.2482 77.6389 98.963 78.3774C99.6778 79.1159 100.237 79.9902 100.609 80.9486C100.98 81.907 101.155 82.93 101.124 83.9574Z" fill="url(#paint4_radial_1010_1881)"/>
<path d="M128.109 89.0017C128.065 90.4627 127.446 91.8489 126.384 92.8655C125.322 93.882 123.901 94.4487 122.423 94.4448C120.945 94.441 119.526 93.8669 118.47 92.8448C117.413 91.8228 116.802 90.4333 116.765 88.9721C116.746 88.2226 116.88 87.4769 117.157 86.7792C117.435 86.0815 117.851 85.4459 118.381 84.9099C118.912 84.3739 119.545 83.9484 120.244 83.6586C120.944 83.3688 121.694 83.2205 122.453 83.2224C123.211 83.2244 123.961 83.3766 124.659 83.6701C125.356 83.9636 125.988 84.3924 126.515 84.9311C127.042 85.4698 127.455 86.1076 127.729 86.8068C128.003 87.5059 128.132 88.2523 128.109 89.0017Z" fill="url(#paint5_radial_1010_1881)"/>
<path d="M90.6603 88.2317C92.0261 88.7291 93.6318 89.4171 95.9919 88.3173C97.4147 87.6543 98.3968 85.9621 98.651 85.2641" stroke="#EFFEE2" stroke-width="1.13485" stroke-linecap="round" stroke-linejoin="round"/>
<path d="M120.417 92.1037C121.413 92.4665 122.584 92.9682 124.305 92.1662C125.343 91.6827 126.059 90.4486 126.245 89.9396" stroke="#EFFEE2" stroke-width="1.13485" stroke-linecap="round" stroke-linejoin="round"/>
<g filter="url(#filter7_d_1010_1881)">
<path d="M120.391 111.35C121.384 113.172 122.384 113.763 123.152 113.942C123.544 114.035 124.232 114.103 125.034 114.568C125.408 114.786 125.702 114.985 125.894 115.379C126.012 115.632 126.109 115.894 126.181 116.164C126.245 116.395 126.267 116.617 126.47 116.77C126.73 116.964 127.132 116.909 127.419 116.807C128.121 116.563 128.39 115.792 128.487 115.515C128.823 114.55 128.503 113.665 128.37 113.35C128.759 113.604 129.088 113.94 129.334 114.334C129.618 114.798 129.783 115.324 129.815 115.866C129.883 116.704 129.615 116.939 129.566 117.829C129.521 118.449 129.606 119.071 129.815 119.656C130.426 121.258 131.726 121.127 132.578 122.783C132.902 123.411 132.622 123.248 133.232 125.077C133.494 125.862 133.65 126.683 133.963 127.449C134.086 127.719 134.15 128.013 134.149 128.31C134.148 128.606 134.082 128.899 133.957 129.168C133.612 129.968 133.572 130.867 133.846 131.694C134.056 132.341 134.558 132.5 135.114 132.109C135.178 132.065 135.244 132.023 135.322 131.972C135.063 132.709 134.879 133.47 134.772 134.243C134.759 134.336 134.747 134.436 134.736 134.532C134.614 134.514 134.489 134.49 134.362 134.463C133.396 134.245 132.491 133.812 131.717 133.196C131.834 133.19 131.927 133.195 132.018 133.179C132.428 133.116 132.543 132.842 132.268 132.533C132.126 132.375 131.956 132.244 131.767 132.147C131.47 131.991 131.189 131.808 130.927 131.599C131.034 131.579 131.139 131.548 131.239 131.506C131.425 131.427 131.696 131.309 131.816 131.04C131.935 130.771 131.856 130.477 131.78 130.302C131.656 129.985 131.481 129.691 131.263 129.431C130.755 128.758 130.11 128.201 129.37 127.794C129.503 128.398 129.434 128.818 129.339 129.103C129.28 129.278 129.169 129.528 129.03 130.002C128.979 130.164 128.94 130.33 128.915 130.498C128.832 131.001 128.97 131.437 129.389 131.737C129.72 131.975 130.084 132.168 130.424 132.376C129.803 132.587 129.136 132.624 128.496 132.481C127.727 132.3 127.039 131.87 126.537 131.26C126.654 131.239 126.766 131.2 126.87 131.145C127.069 131.036 127.234 130.875 127.347 130.679C127.497 130.421 127.577 130.13 127.58 129.832C127.642 128.639 127.673 128.041 127.463 127.583C127.166 126.931 126.669 126.587 126.157 126.237C125.373 125.698 124.928 125.404 124.425 125.307C124.612 125.172 124.881 124.841 125.709 124.894C126.077 124.916 126.435 125.022 126.755 125.204C126.65 125.032 126.53 124.87 126.397 124.718C126.162 124.438 125.879 124.202 125.562 124.022C125.174 123.812 124.742 123.694 124.301 123.679L125.114 123.32C124.904 122.633 124.537 122.003 124.041 121.482C123.78 121.21 122.713 120.118 121.007 120.049C120.686 120.036 119.204 120.013 118.148 121.015C117.814 121.331 117.614 121.666 117.356 122.091C116.936 122.789 116.758 123.35 116.56 123.974C116.556 123.986 116.275 124.875 116.353 125.405C116.37 125.525 116.393 125.658 116.394 125.662C116.438 125.808 116.468 125.958 116.483 126.109C116.514 126.257 116.542 126.403 116.569 126.547C120.114 128.814 123.523 131.294 127.166 133.391C129.599 134.793 132.915 137.235 136.16 141.722C135.764 141.392 133.422 139.507 130.113 139.918C127.418 140.252 125.772 141.897 125.32 142.382C125.283 142.206 124.666 139.517 122.043 138.556C119.782 137.725 117.834 138.843 117.578 138.996C117.67 138.006 117.529 137.008 117.168 136.081C116.807 135.154 116.236 134.323 115.498 133.654C114.954 134.81 114.698 135.125 114.548 135.911C114.393 136.617 114.418 137.351 114.619 138.045C114.939 139.09 115.6 139.711 115.925 140.007C116.585 140.593 117.38 141.008 118.239 141.217C118.261 141.221 118.721 141.31 119.638 141.471C119.925 141.521 120.284 141.585 120.747 141.675C121.335 141.787 121.63 141.839 121.727 141.869C124.493 142.718 125.975 145.332 125.96 145.313C125.658 144.893 125.225 144.583 124.729 144.434C124.477 144.364 123.894 144.202 123.582 144.517C123.271 144.831 123.436 145.41 123.456 145.478C123.643 146.117 124.244 146.404 124.744 146.727C125.574 147.296 126.289 148.015 126.854 148.847C127.244 149.442 127.711 150.714 126.662 153.367C126.648 152.708 126.557 152.052 126.393 151.413C126.278 150.969 126.128 150.534 125.944 150.114C126.067 150.394 125.516 151.26 125.42 151.511C125.196 152.107 125.043 152.728 124.963 153.36C124.925 153.567 124.925 153.779 124.963 153.986C125.117 154.638 125.979 154.855 126.317 155.389C126.904 156.32 126.267 157.667 126.016 158.196C125.407 159.483 124.336 160.093 123.903 160.31C124.966 159.781 125.4 157.972 124.675 157.046C124.924 157.365 123.514 159.393 123.318 159.652C122.654 160.536 121.822 161.282 120.871 161.848C119.03 162.935 116.952 163.168 114.858 162.902C114.28 162.842 113.709 162.726 113.155 162.554C112.704 162.409 112.267 162.224 111.849 162.002L113.492 162.27C112.405 162.094 111.198 161.506 110.255 160.955C108.839 160.128 107.833 159.012 106.995 157.625L106.769 157.217L108.177 157.883C107.489 155.337 107.459 152.816 107.754 150.18L106.716 150.765C106.749 150.871 106.782 150.977 106.811 151.085L106.48 150.897L106.149 151.085C106.177 150.977 106.21 150.871 106.242 150.765L105.205 150.18C105.5 152.816 105.47 155.337 104.782 157.883L106.191 157.217L105.964 157.625C105.126 159.012 104.121 160.128 102.704 160.955C101.761 161.506 100.553 162.094 99.4661 162.27L101.111 162.002C100.693 162.224 100.255 162.409 99.804 162.554C99.2493 162.726 98.6786 162.842 98.1008 162.902C96.007 163.168 93.9291 162.935 92.0881 161.848C91.137 161.282 90.3059 160.536 89.6418 159.652C89.445 159.393 88.0359 157.366 88.2834 157.046C87.5589 157.972 87.9933 159.781 89.0569 160.31C88.623 160.093 87.551 159.483 86.9426 158.196C86.6916 157.667 86.055 156.32 86.6428 155.389C86.9806 154.855 87.8424 154.638 87.9963 153.986C88.0341 153.779 88.0341 153.567 87.9963 153.36C87.9163 152.728 87.763 152.107 87.5393 151.511C87.4432 151.26 86.892 150.394 87.0159 150.114C86.831 150.534 86.6802 150.969 86.5657 151.413C86.4014 152.052 86.3113 152.708 86.2971 153.367C85.2488 150.714 85.7148 149.443 86.1047 148.847C86.6694 148.015 87.3855 147.296 88.2151 146.727C88.7151 146.404 89.3155 146.117 89.5022 145.478C89.5227 145.41 89.6879 144.831 89.3762 144.517C89.0645 144.202 88.4826 144.364 88.2307 144.434C87.7341 144.583 87.3012 144.893 86.9993 145.313C86.9834 145.333 88.466 142.718 91.2327 141.869C91.3298 141.839 91.6246 141.787 92.2122 141.675C92.6757 141.585 93.0332 141.521 93.3206 141.471C94.2378 141.31 94.6986 141.221 94.7209 141.217C95.5793 141.008 96.3734 140.593 97.0334 140.007C97.3582 139.711 98.021 139.09 98.3401 138.045C98.5419 137.351 98.5666 136.617 98.4114 135.911C98.2612 135.125 98.0051 134.81 97.4612 133.654C96.7236 134.323 96.1522 135.154 95.7913 136.081C95.4304 137.008 95.2896 138.006 95.3811 138.996C95.1265 138.844 93.1784 137.725 90.9163 138.556C88.2941 139.517 87.6766 142.205 87.6399 142.382C87.188 141.898 85.5412 140.252 82.8469 139.918C79.5376 139.508 77.1962 141.392 76.7991 141.722C80.0443 137.235 83.3606 134.793 85.7932 133.391C89.437 131.294 92.8451 128.814 96.3909 126.547C96.417 126.403 96.4451 126.257 96.4768 126.109C96.4911 125.958 96.5211 125.808 96.5657 125.662C96.5664 125.658 96.5893 125.524 96.6067 125.405C96.6844 124.876 96.4047 123.989 96.3997 123.974C96.2018 123.35 96.0237 122.789 95.6038 122.091C95.3453 121.665 95.1448 121.331 94.8108 121.015C93.7549 120.013 92.2742 120.036 91.9524 120.049C90.2457 120.118 89.1785 121.211 88.9172 121.482C88.4213 122.003 88.054 122.633 87.845 123.32L88.6584 123.679C88.2172 123.694 87.7853 123.812 87.3977 124.022C87.08 124.202 86.7974 124.438 86.5627 124.718C86.4298 124.87 86.3097 125.032 86.2043 125.204C86.5246 125.022 86.8825 124.916 87.2502 124.894C88.0787 124.841 88.3478 125.172 88.5344 125.307C88.0315 125.404 87.5868 125.698 86.802 126.237C86.2907 126.587 85.793 126.931 85.4954 127.583C85.2856 128.041 85.3176 128.639 85.3792 129.832C85.3822 130.13 85.4627 130.421 85.6125 130.679C85.7256 130.875 85.8903 131.036 86.0891 131.145C86.1934 131.2 86.3059 131.239 86.4221 131.26C85.9209 131.87 85.2327 132.3 84.4631 132.481C83.8232 132.624 83.1559 132.587 82.5354 132.376C82.8759 132.168 83.2394 131.975 83.5706 131.737C83.9895 131.437 84.1272 131.001 84.0442 130.498C84.0194 130.33 83.9809 130.164 83.9299 130.002C83.7909 129.528 83.6791 129.278 83.6204 129.103C83.5252 128.818 83.4557 128.398 83.5881 127.794C82.8491 128.201 82.2048 128.759 81.6965 129.431C81.4784 129.691 81.3035 129.985 81.1799 130.302C81.1034 130.477 81.0244 130.771 81.1438 131.04C81.2632 131.309 81.5334 131.427 81.72 131.506C81.82 131.548 81.9254 131.579 82.0325 131.599C81.7707 131.808 81.4892 131.991 81.1926 132.147C81.0033 132.244 80.8325 132.375 80.6907 132.533C80.4157 132.842 80.5312 133.116 80.9417 133.179C81.032 133.195 81.1251 133.19 81.2424 133.196C80.4679 133.812 79.5632 134.245 78.5969 134.463C78.4692 134.49 78.3451 134.514 78.2239 134.532C78.2127 134.436 78.2008 134.336 78.1877 134.243C78.0809 133.47 77.8966 132.709 77.6379 131.972C77.7153 132.023 77.7816 132.065 77.8459 132.109C78.4012 132.5 78.9036 132.341 79.1135 131.694C79.3875 130.867 79.3477 129.968 79.0022 129.168C78.8771 128.899 78.8119 128.606 78.8108 128.31C78.8097 128.013 78.8723 127.719 78.9954 127.449C79.3089 126.683 79.4646 125.862 79.7268 125.077C80.3368 123.249 80.0566 123.411 80.3801 122.783C81.233 121.127 82.5336 121.258 83.1448 119.656C83.3534 119.071 83.4381 118.449 83.3938 117.829C83.3443 116.939 83.0767 116.704 83.1448 115.866C83.1765 115.324 83.3415 114.798 83.6252 114.334C83.8713 113.94 84.2002 113.604 84.5891 113.35C84.4565 113.665 84.1361 114.55 84.4729 115.515C84.57 115.792 84.8379 116.563 85.5393 116.807C85.8267 116.909 86.2292 116.964 86.4895 116.77C86.6929 116.617 86.7142 116.395 86.7786 116.164C86.8505 115.894 86.9471 115.632 87.0657 115.379C87.2579 114.985 87.5518 114.786 87.925 114.568C88.7274 114.103 89.416 114.035 89.8079 113.942C90.5758 113.763 91.5758 113.172 92.5686 111.35C92.4706 112.104 92.239 112.835 91.884 113.508C91.7571 113.756 91.6104 113.993 91.4456 114.218C91.2202 114.525 90.9608 114.806 90.6721 115.056C92.0409 114.378 93.5411 114.007 95.0686 113.967C95.6432 113.954 96.2179 113.99 96.7864 114.074C96.3488 114.089 95.9143 114.154 95.4915 114.268C95.2258 114.338 94.9656 114.429 94.7131 114.538C96.1891 115.049 97.1455 115.382 97.8108 115.607C97.947 115.654 98.1808 115.732 98.4934 115.854C99.0746 116.078 99.6428 116.335 100.195 116.624L98.2551 116.588C98.8241 116.879 99.3768 117.2 99.9104 117.552C100.043 117.637 100.174 117.726 100.303 117.815C100.667 117.442 101.057 117.094 101.472 116.773C100.727 116.044 99.8585 115.775 99.6663 115.72C99.454 114.973 99.0622 114.289 98.5256 113.728C97.0084 112.161 94.8467 112.204 94.0227 112.286C93.8316 112.326 93.7162 112.347 93.7161 112.326C93.6997 112.227 96.0597 111.554 98.8792 111.415C101.234 111.301 103.008 111.614 104.532 111.894C105.186 112.014 105.835 112.157 106.48 112.317C107.124 112.157 107.773 112.014 108.427 111.894C109.952 111.614 111.724 111.301 114.079 111.415C116.899 111.554 119.259 112.227 119.242 112.326C119.242 112.347 119.128 112.326 118.937 112.286C118.113 112.204 115.951 112.161 114.434 113.728C113.897 114.289 113.505 114.973 113.293 115.72C113.101 115.775 112.231 116.043 111.486 116.773C111.9 117.094 112.291 117.442 112.656 117.815C112.785 117.725 112.916 117.637 113.049 117.552C113.583 117.2 114.135 116.879 114.704 116.588L112.765 116.624C113.317 116.335 113.885 116.078 114.466 115.854C114.778 115.733 115.011 115.654 115.148 115.607C115.813 115.382 116.77 115.049 118.246 114.538C117.994 114.429 117.734 114.338 117.468 114.268C117.045 114.154 116.611 114.089 116.173 114.074C116.742 113.99 117.316 113.954 117.891 113.967C119.418 114.007 120.919 114.378 122.287 115.056C121.999 114.806 121.739 114.525 121.514 114.218C121.349 113.993 121.202 113.756 121.075 113.508C120.72 112.835 120.489 112.104 120.391 111.35ZM106.48 136.846C106.258 137.43 105.986 137.995 105.665 138.532C104.943 139.772 104.002 140.871 102.888 141.776C102.637 142.129 102.259 142.639 101.792 143.246C100.343 145.117 99.3947 146.245 98.1409 147.333C97.1208 148.209 95.9393 148.88 94.6633 149.308C95.8537 148.694 96.8574 147.773 97.5686 146.641C96.7112 146.867 95.8931 147.222 95.1428 147.693C94.5028 148.097 92.9694 149.091 92.0764 151.018C91.9234 151.344 90.4938 154.567 92.2434 157.441C92.7196 158.226 93.3714 158.89 94.1477 159.382C97.1542 161.231 100.382 160.033 101.006 159.729C102.273 159.11 103.299 157.894 103.853 156.617C104.426 155.289 104.568 153.858 104.484 152.429C104.454 151.716 104.339 151.01 104.142 150.324C103.62 150.504 103.15 150.777 102.664 151.016C103.114 150.099 103.235 149.056 103.008 148.061C102.781 147.066 102.218 146.178 101.414 145.547C102.798 145.96 104.044 146.738 105.022 147.798C105.641 148.477 106.133 149.258 106.48 150.103C106.827 149.258 107.318 148.477 107.938 147.798C108.915 146.738 110.161 145.96 111.544 145.547C110.741 146.178 110.178 147.066 109.95 148.061C109.723 149.056 109.845 150.099 110.295 151.016C109.809 150.777 109.338 150.504 108.817 150.324C108.62 151.01 108.506 151.716 108.476 152.429C108.392 153.858 108.534 155.289 109.107 156.617C109.66 157.894 110.686 159.11 111.953 159.729C112.578 160.033 115.806 161.23 118.812 159.382C119.588 158.89 120.24 158.226 120.716 157.441C122.466 154.567 121.036 151.344 120.883 151.018C119.99 149.091 118.457 148.097 117.817 147.693C117.066 147.222 116.248 146.867 115.391 146.641C116.102 147.773 117.105 148.694 118.295 149.308C117.019 148.88 115.839 148.209 114.819 147.333C113.565 146.245 112.615 145.117 111.166 143.246C110.7 142.639 110.323 142.129 110.072 141.776C108.958 140.871 108.016 139.772 107.294 138.532C106.974 137.995 106.702 137.43 106.48 136.846Z" fill="#62A721"/>
</g>
<g filter="url(#filter8_d_1010_1881)">
<path d="M205.03 180.649C204.635 180.478 200.056 178.397 199.183 173.533C198.527 169.867 200.231 166.106 203.548 163.923C201.93 164.237 199.262 164.783 195.994 165.568C182.511 168.815 175.141 170.686 170.802 176.576C169.958 177.728 168.716 179.718 167.958 182.748L178.896 181.177C178.843 182.853 178.839 184.6 178.896 186.414C179.044 191.059 179.582 195.683 180.504 200.238L199.556 196.17C198.897 195.563 196.517 193.219 196.511 189.848C196.507 185.794 199.932 181.887 205.03 180.649Z" fill="#D2EBBB"/>
</g>
<g filter="url(#filter9_d_1010_1881)">
<path d="M10.9705 180.649C11.3655 180.478 15.945 178.397 16.8169 173.533C17.474 169.867 15.769 166.106 12.4522 163.923C14.0703 164.237 16.7341 164.783 20.0058 165.568C33.4896 168.815 40.866 170.686 45.1992 176.576C46.0438 177.728 47.2856 179.718 48.0423 182.748L37.1049 181.177C37.1584 182.853 37.1626 184.6 37.1049 186.414C36.956 191.059 36.4183 195.683 35.4974 200.238L16.4449 196.17C17.103 195.563 19.4839 193.219 19.4891 189.848C19.4965 185.794 16.0676 181.887 10.9705 180.649Z" fill="#D2EBBB"/>
</g>
<g filter="url(#filter10_d_1010_1881)">
<path d="M179.833 180.109C179.833 180.109 182.032 180.302 182.032 181.817C182.025 189.849 181.984 198.038 182.08 206.227C182.102 208.038 181.008 208.44 179.681 208.689C170.836 210.351 162.043 212.442 153.116 213.497C127.174 216.559 101.14 216.588 75.0817 214.788C60.4512 213.776 43.9502 211.186 35.165 208.336C34.8076 208.226 34.4943 208.006 34.2705 207.707C34.0467 207.408 33.9238 207.046 33.9197 206.673V181.83C34.4975 181.085 35.2538 180.497 36.1191 180.119C38.04 179.306 40.0006 179.862 40.4279 179.971C44.7514 181.06 88.5622 185.798 111.028 185.151C127.103 184.689 173.435 180.285 176.913 179.808C177.254 179.761 178.506 179.571 179.833 180.109Z" fill="#D2EBBB"/>
</g>
<path d="M46.9944 192.258L46.4308 196.979C47.1747 197.067 47.9191 197.154 48.6639 197.24C49.1809 197.3 49.5689 197.234 49.8278 197.042C50.0867 196.849 50.2968 196.425 50.4582 195.77L50.7899 195.806C50.6394 197.17 50.4868 198.533 50.3322 199.895L49.998 199.86C50.0384 199.386 50.0131 199.034 49.9198 198.802C49.8335 198.58 49.6818 198.39 49.4848 198.256C49.2071 198.099 48.8969 198.007 48.5782 197.988C47.8334 197.904 47.0877 197.816 46.3413 197.725C46.0689 199.998 45.7953 202.273 45.5204 204.548C45.4473 205.166 45.4422 205.576 45.5065 205.78C45.5676 205.954 45.6835 206.104 45.8369 206.207C46.0843 206.368 46.3656 206.471 46.659 206.507L47.1104 206.558L47.0726 206.886C45.2938 206.679 43.5155 206.463 41.7375 206.238L41.7792 205.913L42.2104 205.968C42.724 206.032 43.1179 205.933 43.3919 205.672C43.5525 205.504 43.6786 205.059 43.7702 204.337C44.0501 202.062 44.3296 199.787 44.6087 197.514L43.4033 197.363C43.4335 197.111 43.4646 196.863 43.4966 196.62L44.6957 196.768C44.847 195.534 44.9988 194.3 45.1509 193.066C45.189 192.815 45.1826 192.559 45.132 192.31C45.0817 192.133 44.9681 191.981 44.813 191.883C44.5809 191.709 44.3069 191.598 44.0186 191.563L43.5987 191.51C43.6126 191.402 43.6252 191.293 43.6391 191.184C46.6401 191.564 49.6428 191.916 52.6473 192.242C52.5884 193.124 52.5296 194.007 52.4707 194.89L52.1593 194.855C52.0592 194.28 51.9235 193.852 51.752 193.569C51.5832 193.291 51.3422 193.064 51.0547 192.912C50.763 192.758 50.3006 192.644 49.6676 192.572C48.7757 192.471 47.8847 192.366 46.9944 192.258Z" fill="#056A12"/>
<path d="M57.2473 193.38C57.0901 194.969 56.9321 196.557 56.7732 198.146C57.6735 198.236 58.5738 198.323 59.4741 198.407C60.176 198.474 60.6539 198.415 60.9078 198.228C61.2441 197.976 61.4601 197.514 61.5559 196.841L61.8876 196.87C61.7632 198.266 61.6371 199.662 61.5093 201.059L61.1751 201.029C61.1407 200.44 61.0881 200.056 61.0175 199.876C60.9234 199.646 60.7523 199.455 60.5333 199.337C60.2912 199.192 59.918 199.096 59.4111 199.049C58.5099 198.965 57.6088 198.878 56.7076 198.787C56.5765 200.115 56.4445 201.443 56.3117 202.771C56.2587 203.305 56.2511 203.633 56.2902 203.752C56.3312 203.876 56.4141 203.982 56.5248 204.051C56.6433 204.131 56.8707 204.187 57.2069 204.219C57.9055 204.287 58.6041 204.354 59.3026 204.419C60.0012 204.485 60.5169 204.485 60.8498 204.419C61.2046 204.334 61.5353 204.169 61.817 203.936C61.8649 203.402 61.7438 202.792 61.4538 202.106L62.3642 202.204C62.671 203.283 62.9791 204.362 63.2885 205.441C59.7217 205.136 56.1566 204.794 52.5931 204.417L52.6284 204.089L53.0584 204.134C53.3508 204.167 53.6467 204.129 53.9209 204.022C54.1099 203.953 54.2657 203.814 54.3572 203.635C54.4518 203.456 54.53 203.068 54.5905 202.474C54.7225 201.189 54.8544 199.904 54.9864 198.618L53.6927 198.473L53.757 197.854L55.0507 197.989C55.1861 196.679 55.3206 195.369 55.4542 194.059C55.4933 193.681 55.4416 193.398 55.3017 193.198C55.1066 192.946 54.7586 192.794 54.2576 192.741L53.8427 192.699L53.8768 192.371C56.9871 192.701 60.0974 193.003 63.2078 193.276C63.1792 194.16 63.151 195.043 63.1233 195.924L62.7728 195.894C62.6929 195.251 62.5874 194.804 62.4563 194.554C62.3144 194.293 62.0992 194.079 61.8371 193.938C61.6001 193.831 61.1814 193.751 60.5838 193.695C59.4699 193.595 58.3578 193.49 57.2473 193.38Z" fill="#056A12"/>
<path d="M67.0825 200.956C68.2233 198.503 69.351 196.047 70.4657 193.587L70.7406 193.607C71.6989 197.044 72.6811 200.478 73.6874 203.91C73.9328 204.732 74.1699 205.27 74.3986 205.523C74.6639 205.794 75.0169 205.963 75.3947 205.998C75.3884 206.108 75.3808 206.218 75.3745 206.328C73.9724 206.243 72.571 206.15 71.1705 206.048C71.1781 205.938 71.1869 205.828 71.1945 205.718C71.6207 205.725 71.9149 205.666 72.0772 205.542C72.1543 205.484 72.2176 205.409 72.2625 205.323C72.3075 205.238 72.3328 205.143 72.3369 205.046C72.3425 204.69 72.2971 204.335 72.202 203.992C72.1869 203.937 72.1717 203.881 72.1579 203.825C70.5842 203.152 69.016 202.469 67.4533 201.774C67.1759 202.369 66.8972 202.965 66.6173 203.56C66.4063 204.009 66.2915 204.348 66.273 204.579C66.265 204.673 66.2774 204.768 66.3094 204.858C66.3414 204.947 66.3922 205.029 66.4584 205.097C66.5971 205.249 66.927 205.364 67.4482 205.441L67.423 205.769C66.3041 205.685 65.1857 205.594 64.0676 205.498C64.0765 205.388 64.0853 205.28 64.0954 205.17C64.5392 205.122 64.836 205.03 64.9856 204.895C65.2714 204.625 65.6173 204.073 66.0234 203.237C66.2957 202.654 66.5677 202.071 66.8392 201.487C66.0826 201.15 65.3307 200.814 64.5834 200.478L65.6627 200.312L67.0825 200.956ZM71.941 203.099C71.2685 200.847 70.6107 198.594 69.9676 196.34C69.2169 197.971 68.4603 199.601 67.6979 201.228C69.1043 201.855 70.5169 202.478 71.9359 203.096L71.941 203.099Z" fill="#056A12"/>
<path d="M84.6023 193.443L84.3791 198.284L84.0651 198.269C84.0032 197.716 83.8372 197.181 83.5759 196.69C83.3091 196.253 82.9534 195.877 82.5318 195.587C82.1074 195.266 81.5984 195.078 81.0678 195.044C80.7941 195.023 80.5189 195.061 80.262 195.158C80.005 195.255 79.7725 195.407 79.5812 195.604C79.1959 195.976 78.9653 196.48 78.9356 197.015C78.9104 197.422 79.0174 197.827 79.2407 198.168C79.5585 198.672 80.3542 199.377 81.6365 200.274C82.6642 201.01 83.3691 201.565 83.7423 201.942C84.115 202.32 84.406 202.77 84.5973 203.266C84.7887 203.761 84.8762 204.29 84.8545 204.821C84.8251 205.808 84.4084 206.743 83.6944 207.426C82.9698 208.135 82.0665 208.463 80.9846 208.409C80.6684 208.394 80.3545 208.347 80.0477 208.268C79.6793 208.148 79.3184 208.006 78.9671 207.843C78.4199 207.604 78.0714 207.481 77.9218 207.472C77.8566 207.465 77.7907 207.473 77.7289 207.494C77.6671 207.516 77.6111 207.552 77.5649 207.598C77.4809 207.692 77.3863 208.175 77.2812 209.047L76.9799 209.03C77.0833 207.289 77.1862 205.549 77.2888 203.809L77.5876 203.827C77.6936 204.785 77.8617 205.476 78.092 205.899C78.3575 206.362 78.7291 206.756 79.1764 207.049C79.6727 207.394 80.2571 207.59 80.861 207.615C81.5756 207.653 82.1539 207.462 82.5961 207.044C82.8085 206.849 82.9801 206.615 83.1008 206.353C83.2216 206.092 83.2892 205.809 83.2997 205.522C83.3108 205.173 83.244 204.825 83.1043 204.505C82.9436 204.135 82.7118 203.801 82.4221 203.52C82.2077 203.315 81.6231 202.864 80.6681 202.167C79.7132 201.471 79.0407 200.918 78.6506 200.509C78.274 200.128 77.9777 199.675 77.7793 199.177C77.5893 198.685 77.5105 198.157 77.5485 197.631C77.5851 196.704 77.9733 195.826 78.6342 195.176C78.9521 194.851 79.3374 194.601 79.7628 194.443C80.1881 194.285 80.6432 194.222 81.0956 194.259C81.6464 194.279 82.1851 194.427 82.6692 194.69C82.9827 194.874 83.3144 195.025 83.6591 195.14C83.8852 195.029 84.0954 194.46 84.2896 193.432L84.6023 193.443Z" fill="#056A12"/>
<path d="M96.1699 194.816L96.117 197.851L95.7664 197.842C95.716 197.353 95.6319 197.003 95.5142 196.793C95.3545 196.478 95.1048 196.217 94.7968 196.044C94.421 195.86 94.0071 195.767 93.5888 195.773L91.8789 195.721C91.7402 200.028 91.6036 204.334 91.4691 208.641C91.4506 209.239 91.5208 209.607 91.6797 209.746C91.7924 209.867 91.9292 209.963 92.0811 210.028C92.2331 210.093 92.397 210.126 92.5624 210.124L92.9974 210.137C92.9974 210.27 92.9886 210.405 92.9848 210.539C91.3405 210.491 89.6954 210.436 88.0494 210.374C88.0494 210.239 88.0608 210.105 88.0658 209.971L88.5185 209.989C88.69 210.007 88.8634 209.987 89.026 209.929C89.1885 209.871 89.3361 209.778 89.4579 209.656C89.6025 209.479 89.684 209.122 89.7025 208.586C89.8522 204.277 90.0039 199.97 90.1577 195.663L88.6875 195.609C88.1226 195.588 87.7178 195.615 87.4694 195.69C87.1431 195.798 86.8578 196.003 86.6523 196.279C86.4186 196.574 86.2719 196.989 86.2122 197.523L85.8617 197.508C85.9062 196.499 85.9483 195.489 85.9878 194.476L86.3358 194.491L86.3232 194.783C89.4932 194.918 92.6632 195.024 95.8333 195.101C95.8333 195.003 95.8333 194.906 95.8396 194.808L96.1699 194.816Z" fill="#056A12"/>
<path d="M102.979 202.063C101.96 200.437 100.952 198.808 99.9528 197.176L99.8267 205.148C99.8385 205.928 99.9058 206.411 100.028 206.596C100.102 206.713 100.203 206.811 100.323 206.879C100.443 206.948 100.579 206.986 100.717 206.989H101.055V207.301C99.7334 207.281 98.4115 207.258 97.0892 207.231L97.0968 206.902L97.4536 206.91C97.9664 206.91 98.2775 206.69 98.3867 206.251C98.4464 203.113 98.5053 199.975 98.5633 196.836C98.5734 196.332 98.4876 195.982 98.3111 195.77C98.1365 195.593 97.9036 195.485 97.6554 195.465H97.3427C97.3427 195.356 97.3427 195.246 97.349 195.136C98.2241 195.155 99.0996 195.171 99.9755 195.185C101.073 197.007 102.181 198.825 103.302 200.64C104.582 198.848 105.849 197.052 107.101 195.251C108.037 195.251 108.973 195.251 109.911 195.251C109.911 195.342 109.911 195.434 109.911 195.525H109.551C109.122 195.525 108.822 195.677 108.651 195.982C108.54 196.178 108.486 196.613 108.486 197.299V208.123C108.486 208.867 108.555 209.329 108.694 209.51C108.97 209.888 109.367 210.04 109.884 209.965L109.941 210.148C109.072 210.443 108.342 210.34 107.749 209.839C107.522 209.616 107.343 209.348 107.223 209.052C107.104 208.757 107.046 208.44 107.054 208.121L107.081 197.115C105.923 198.771 104.752 200.422 103.57 202.068L102.979 202.063Z" fill="#056A12"/>
<path d="M112.477 202.567C113.401 200.024 114.311 197.479 115.207 194.932H115.481C116.734 198.273 118.009 201.609 119.307 204.942C119.623 205.738 119.907 206.253 120.157 206.486C120.444 206.734 120.81 206.871 121.19 206.873L121.197 207.202C119.793 207.237 118.39 207.265 116.987 207.288C116.987 207.178 116.987 207.069 116.987 206.959C117.412 206.928 117.699 206.844 117.847 206.707C117.919 206.642 117.975 206.562 118.012 206.473C118.05 206.384 118.067 206.288 118.063 206.191C118.037 205.836 117.962 205.486 117.838 205.152C117.818 205.098 117.798 205.044 117.779 204.989C116.152 204.451 114.532 203.904 112.917 203.35C112.692 203.968 112.467 204.586 112.241 205.203C112.069 205.668 111.989 206.016 111.989 206.247C111.988 206.342 112.008 206.437 112.048 206.524C112.087 206.611 112.145 206.688 112.217 206.751C112.368 206.89 112.707 206.974 113.233 207.003C113.233 207.113 113.233 207.223 113.233 207.332C112.113 207.343 110.991 207.35 109.869 207.354V207.025C110.307 206.941 110.594 206.824 110.732 206.674C110.992 206.381 111.289 205.8 111.622 204.931C111.843 204.328 112.063 203.723 112.281 203.117C111.502 202.849 110.724 202.579 109.948 202.307L111.008 202.046L112.477 202.567ZM117.495 204.273C116.635 202.088 115.785 199.902 114.944 197.716C114.338 199.406 113.726 201.094 113.107 202.782C114.566 203.286 116.028 203.783 117.495 204.273Z" fill="#056A12"/>
<path d="M129.272 193.564C129.338 195.176 129.404 196.79 129.47 198.405L129.156 198.417C129.045 197.872 128.831 197.352 128.526 196.887C128.223 196.474 127.836 196.13 127.391 195.878C126.94 195.596 126.417 195.452 125.886 195.464C125.611 195.467 125.341 195.53 125.094 195.649C124.847 195.767 124.629 195.939 124.456 196.151C124.101 196.554 123.913 197.077 123.929 197.613C123.939 198.021 124.08 198.414 124.332 198.735C124.693 199.212 125.545 199.843 126.899 200.627C127.988 201.271 128.735 201.764 129.141 202.106C129.546 202.45 129.875 202.874 130.109 203.351C130.342 203.829 130.475 204.349 130.498 204.88C130.556 205.863 130.225 206.83 129.576 207.572C128.916 208.343 128.044 208.747 126.962 208.786C126.646 208.799 126.33 208.779 126.018 208.727C125.64 208.639 125.268 208.529 124.903 208.398C124.338 208.207 123.98 208.115 123.83 208.119C123.765 208.117 123.7 208.131 123.64 208.158C123.581 208.185 123.528 208.225 123.486 208.275C123.406 208.375 123.354 208.864 123.33 209.743L123.028 209.752C122.979 208.009 122.93 206.267 122.883 204.524L123.182 204.517C123.371 205.462 123.597 206.135 123.859 206.534C124.163 206.973 124.567 207.334 125.038 207.586C125.563 207.886 126.162 208.031 126.766 208.004C127.48 207.979 128.04 207.739 128.444 207.284C128.639 207.072 128.789 206.824 128.887 206.553C128.985 206.282 129.027 205.994 129.013 205.707C128.994 205.358 128.898 205.018 128.73 204.712C128.538 204.357 128.278 204.043 127.965 203.789C127.734 203.602 127.112 203.204 126.101 202.594C125.09 201.983 124.373 201.492 123.951 201.121C123.544 200.773 123.209 200.347 122.968 199.869C122.737 199.397 122.612 198.881 122.602 198.356C122.559 197.43 122.87 196.522 123.471 195.816C123.758 195.464 124.12 195.179 124.53 194.983C124.94 194.786 125.388 194.683 125.843 194.68C126.394 194.65 126.945 194.75 127.452 194.97C127.781 195.126 128.124 195.247 128.478 195.333C128.694 195.203 128.854 194.617 128.958 193.577L129.272 193.564Z" fill="#056A12"/>
<path d="M140.919 193.934C140.989 194.942 141.059 195.951 141.129 196.96L140.779 196.981C140.687 196.5 140.573 196.158 140.437 195.959C140.251 195.658 139.98 195.42 139.658 195.274C139.267 195.124 138.847 195.068 138.431 195.109C137.861 195.143 137.291 195.176 136.722 195.206C136.959 199.508 137.196 203.811 137.432 208.113C137.465 208.71 137.567 209.07 137.738 209.195C137.861 209.304 138.005 209.387 138.161 209.438C138.317 209.489 138.482 209.507 138.645 209.491L139.079 209.467C139.086 209.601 139.094 209.735 139.103 209.868C137.459 209.964 135.814 210.052 134.17 210.132L134.151 209.729L134.604 209.707C134.776 209.71 134.947 209.675 135.104 209.604C135.261 209.533 135.4 209.428 135.51 209.296C135.636 209.105 135.691 208.743 135.663 208.207C135.44 203.903 135.218 199.599 134.996 195.294L133.526 195.369C132.962 195.395 132.56 195.457 132.319 195.554C132.003 195.69 131.737 195.919 131.556 196.211C131.349 196.524 131.239 196.95 131.226 197.488L130.875 197.503L130.749 194.477L131.098 194.462C131.098 194.559 131.106 194.656 131.111 194.753C134.279 194.614 137.447 194.446 140.613 194.249L140.594 193.956L140.919 193.934Z" fill="#056A12"/>
<path d="M145.31 194.584C145.425 196.177 145.539 197.77 145.653 199.362C146.555 199.298 147.457 199.231 148.358 199.161C149.062 199.107 149.522 198.966 149.745 198.741C150.031 198.438 150.165 197.944 150.147 197.26L150.479 197.233L150.809 201.425L150.475 201.451C150.342 200.875 150.225 200.505 150.125 200.343C149.993 200.131 149.792 199.972 149.556 199.893C149.293 199.791 148.908 199.76 148.401 199.799C147.499 199.869 146.597 199.936 145.694 200.001L145.981 203.995C146.019 204.529 146.067 204.853 146.126 204.964C146.188 205.079 146.287 205.168 146.407 205.216C146.537 205.274 146.771 205.291 147.109 205.267L149.207 205.108C149.918 205.052 150.426 204.963 150.73 204.841C151.065 204.696 151.363 204.477 151.601 204.2C151.558 203.665 151.334 203.085 150.932 202.457L151.846 202.401C152.332 203.409 152.819 204.418 153.307 205.427C149.739 205.732 146.169 206.001 142.598 206.233C142.591 206.123 142.583 206.013 142.577 205.905L143.008 205.876C143.301 205.86 143.585 205.773 143.838 205.624C144.012 205.522 144.142 205.359 144.202 205.167C144.264 204.974 144.275 204.58 144.234 203.983L143.969 200.116L142.671 200.204L142.63 199.584L143.927 199.497C143.837 198.183 143.747 196.869 143.657 195.556C143.634 195.183 143.538 194.91 143.37 194.738C143.134 194.522 142.765 194.431 142.264 194.464L141.842 194.492C141.835 194.382 141.828 194.273 141.821 194.163C144.938 193.961 148.054 193.73 151.168 193.471L151.534 196.1L151.185 196.129C150.997 195.508 150.817 195.088 150.646 194.868C150.461 194.634 150.213 194.458 149.931 194.363C149.678 194.298 149.253 194.289 148.654 194.336C147.539 194.421 146.424 194.504 145.31 194.584Z" fill="#056A12"/>
<path d="M162.584 204.561C161.099 202.815 159.628 201.062 158.171 199.304C157.948 199.366 157.721 199.408 157.491 199.43L156.987 199.477C157.094 200.629 157.202 201.782 157.31 202.935C157.38 203.692 157.506 204.151 157.688 204.314C157.925 204.566 158.257 204.664 158.68 204.624L159.129 204.581C159.14 204.689 159.151 204.799 159.162 204.909C157.531 205.067 155.901 205.216 154.271 205.358L154.243 205.03L154.673 204.992C155.16 204.949 155.489 204.755 155.659 204.409C155.754 204.205 155.771 203.763 155.709 203.083C155.474 200.485 155.239 197.887 155.005 195.289C154.936 194.532 154.82 194.065 154.655 193.888C154.424 193.653 154.095 193.554 153.668 193.592L153.247 193.628L153.218 193.3C154.274 193.208 155.33 193.113 156.385 193.014L156.453 193.742C157.766 193.142 158.779 192.859 159.499 192.916C160.204 192.998 160.864 193.305 161.382 193.79C161.878 194.252 162.187 194.88 162.252 195.555C162.339 196.258 162.168 196.968 161.771 197.554C161.371 198.142 160.714 198.601 159.799 198.929C161.294 200.746 162.803 202.557 164.327 204.364C165.159 205.305 166.117 205.856 167.202 206.017L167.251 206.122C165.623 206.305 164.314 206.011 163.322 205.239L162.584 204.561ZM156.93 198.87L157.412 198.826C158.484 198.723 159.273 198.417 159.777 197.907C160.018 197.677 160.201 197.395 160.314 197.083C160.427 196.77 160.465 196.436 160.427 196.106C160.385 195.487 160.137 194.899 159.722 194.438C159.32 194.007 158.759 193.826 158.038 193.896C157.511 194.034 157.003 194.237 156.525 194.5L156.93 198.87Z" fill="#056A12"/>
<path d="M172.095 190.024C172.294 191.627 172.495 193.23 172.695 194.832L172.383 194.871C172.226 194.337 171.97 193.837 171.626 193.399C171.289 193.012 170.875 192.702 170.409 192.487C169.936 192.244 169.401 192.144 168.872 192.202C168.599 192.227 168.334 192.312 168.097 192.451C167.86 192.59 167.656 192.779 167.5 193.005C167.181 193.436 167.037 193.973 167.097 194.506C167.14 194.912 167.315 195.292 167.594 195.59C167.992 196.036 168.898 196.592 170.312 197.26C171.447 197.811 172.242 198.238 172.674 198.547C173.106 198.856 173.47 199.25 173.742 199.706C174.015 200.162 174.191 200.669 174.259 201.195C174.399 202.171 174.149 203.162 173.563 203.954C172.968 204.778 172.132 205.254 171.056 205.383C170.741 205.421 170.423 205.428 170.107 205.404C169.724 205.347 169.345 205.268 168.972 205.168C168.392 205.026 168.027 204.964 167.877 204.98C167.812 204.984 167.748 205.002 167.691 205.034C167.634 205.066 167.584 205.111 167.547 205.165C167.476 205.271 167.465 205.762 167.513 206.64L167.213 206.674C167.019 204.941 166.825 203.209 166.633 201.478L166.93 201.444C167.198 202.368 167.479 203.021 167.774 203.401C168.114 203.812 168.546 204.137 169.035 204.35C169.583 204.606 170.194 204.701 170.794 204.622C171.507 204.538 172.045 204.253 172.409 203.765C172.586 203.538 172.715 203.277 172.79 202.999C172.865 202.721 172.884 202.431 172.845 202.146C172.798 201.8 172.673 201.469 172.48 201.177C172.259 200.84 171.974 200.549 171.64 200.323C171.388 200.156 170.738 199.818 169.681 199.286C168.623 198.754 167.866 198.329 167.411 197.995C166.977 197.683 166.609 197.288 166.329 196.834C166.059 196.382 165.891 195.877 165.837 195.353C165.718 194.433 165.952 193.503 166.493 192.749C166.751 192.376 167.089 192.065 167.481 191.837C167.873 191.608 168.311 191.469 168.763 191.428C169.311 191.352 169.869 191.406 170.393 191.583C170.734 191.711 171.087 191.803 171.447 191.859C171.651 191.711 171.763 191.114 171.781 190.069L172.095 190.024Z" fill="#056A12"/>
<g filter="url(#filter11_d_1010_1881)">
<path d="M10.9702 35.3507C11.3653 35.5224 15.9446 37.6034 16.8175 42.4671C17.4735 46.1327 15.7696 49.8935 12.4519 52.0771C14.0699 51.763 16.7379 51.2173 20.0063 50.4318C33.4897 47.1852 40.8596 45.3137 45.198 39.4236C46.0426 38.2716 47.2844 36.2817 48.042 33.2519L37.104 34.8228C37.1574 33.1471 37.1616 31.4002 37.104 29.5863C36.9561 24.9413 36.4184 20.317 35.4965 15.7619L16.4445 19.8296C17.1036 20.4371 19.4834 22.7809 19.4897 26.1522C19.4928 30.2063 16.0683 34.1128 10.9702 35.3507Z" fill="#D2EBBB"/>
</g>
<g filter="url(#filter12_d_1010_1881)">
<path d="M205.03 35.3507C204.635 35.5224 200.055 37.6034 199.183 42.4671C198.526 46.1327 200.231 49.8935 203.548 52.0771C201.93 51.763 199.266 51.2173 195.994 50.4318C182.511 47.1852 175.134 45.3137 170.801 39.4236C169.956 38.2716 168.715 36.2817 167.958 33.2519L178.895 34.8228C178.842 33.1471 178.838 31.4002 178.895 29.5863C179.044 24.9414 179.582 20.3171 180.503 15.7619L199.555 19.8296C198.897 20.4371 196.516 22.7809 196.511 26.1522C196.504 30.2063 199.933 34.1128 205.03 35.3507Z" fill="#D2EBBB"/>
</g>
<g filter="url(#filter13_d_1010_1881)">
<path d="M36.1675 35.891C36.1675 35.891 33.9681 35.6976 33.9681 34.1832C33.9754 26.1514 34.0163 17.9618 33.9199 9.77324C33.8979 7.96203 34.9924 7.55966 36.3194 7.31092C45.1643 5.64917 53.9579 3.55787 62.8845 2.50334C88.8264 -0.558884 114.86 -0.588144 140.919 1.21157C155.549 2.2243 172.05 4.81412 180.835 7.66419C181.193 7.77384 181.506 7.994 181.73 8.29288C181.954 8.59176 182.077 8.95389 182.081 9.32699L182.081 34.1697C181.503 34.915 180.747 35.5033 179.881 35.8805C177.96 36.6936 176 36.1376 175.572 36.0289C171.249 34.9399 127.438 30.2024 104.972 30.8493C88.8976 31.3112 42.5658 35.7154 39.0875 36.192C38.7461 36.239 37.4945 36.4292 36.1675 35.891Z" fill="#D2EBBB"/>
</g>
<path d="M61.2823 17.8111C64.3363 20.1867 67.3386 22.5959 70.2892 25.0388C70.7848 25.5217 71.4241 25.7273 72.2008 25.6579C72.7438 25.61 73.2957 25.3326 73.8564 24.8257L73.9094 24.9518C73.5412 25.7487 73.086 26.209 72.5438 26.3325C71.842 26.4802 71.1315 26.583 70.4166 26.6402C69.7861 26.6982 69.0396 26.3729 68.1544 25.6655C65.4468 23.3924 62.6937 21.1484 59.8952 18.9333C60.0634 20.338 60.2281 21.7431 60.3895 23.1486C60.4736 23.8388 60.5757 24.2877 60.6959 24.4953C60.8017 24.6677 60.958 24.8033 61.1436 24.8837C61.4345 25.0152 61.7557 25.0653 62.0729 25.0287L62.513 24.9783L62.5546 25.3566C60.6858 25.5659 58.818 25.7886 56.9509 26.0249L56.9043 25.6529L57.3645 25.5949C57.908 25.5268 58.285 25.3137 58.4994 24.9518C58.6263 24.713 58.6406 24.1872 58.5422 23.3743C58.1841 20.4321 57.8256 17.4857 57.4667 14.5351C57.3826 13.8466 57.2763 13.3914 57.1476 13.1695C57.0527 12.9966 56.896 12.866 56.7088 12.8038C56.4064 12.677 56.0755 12.6334 55.7505 12.6777L55.2751 12.7383L55.2297 12.3575C57.1632 12.1137 59.0941 11.8833 61.0225 11.6665L61.0641 12.0447L60.6102 12.0964C60.2871 12.1341 59.9776 12.2482 59.7074 12.4293C59.5217 12.5574 59.3876 12.7474 59.3291 12.9652C59.2669 13.1897 59.2757 13.639 59.3556 14.3132C59.5102 15.6422 59.6657 16.9717 59.8221 18.3016C61.2781 16.5203 62.753 14.7491 64.2468 12.9879C64.3785 12.7673 64.4437 12.5134 64.4346 12.2566C64.4242 12.1785 64.3961 12.1038 64.3524 12.0382C64.3087 11.9727 64.2505 11.918 64.1824 11.8783C64.0202 11.7774 63.7806 11.7425 63.4637 11.7736L63.1396 11.8077C63.1258 11.6816 63.1132 11.5555 63.0993 11.4294C64.5704 11.2722 66.0415 11.1222 67.5126 10.9792C67.5252 11.1053 67.5366 11.2314 67.5492 11.3575C67.2781 11.3788 67.0117 11.44 66.7586 11.5391C66.5215 11.645 66.287 11.9275 66.0575 12.3814C64.4443 14.1829 62.8526 15.9928 61.2823 17.8111Z" fill="#056A12"/>
<path d="M77.9794 9.751C79.3097 9.65517 80.7598 10.1848 82.3057 11.3398C83.7584 12.8529 84.5187 14.3913 84.607 15.9561C84.7162 17.6419 84.3482 19.3244 83.5453 20.8108C82.9614 21.9305 81.848 22.8283 80.2075 23.5067C79.6993 23.6937 79.1691 23.8149 78.6301 23.8673C76.0161 24.0577 73.9734 22.7476 72.459 19.913C72.0862 18.9988 71.8573 18.0324 71.7806 17.0481C71.5965 14.9486 72.2283 13.1505 73.7036 11.6651C74.2317 11.2757 74.8459 11.0193 75.4941 10.9174C76.1499 10.2347 77.0353 9.81915 77.9794 9.751ZM76.1221 11.7269C76.2217 12.2893 76.5621 12.6663 77.1396 12.8618C77.3755 12.7067 77.6408 12.6019 77.9189 12.5541C78.2493 12.5305 78.4657 12.7306 78.5683 13.1543C78.5599 13.4334 78.2379 13.665 77.6024 13.8491C76.6138 13.9222 75.9712 13.2543 75.6744 11.8454C75.2423 12.0186 74.8582 12.3956 74.5219 12.9765C74.0302 14.3247 73.8454 15.7657 73.981 17.1944C74.1764 19.5586 74.9797 21.3429 76.3768 22.5559C77.0753 23.0023 77.7672 23.2007 78.4523 23.1511C79.7687 23.0552 80.7977 22.4214 81.5391 21.2496C82.2202 19.838 82.5243 18.2741 82.4218 16.7102C82.3341 15.1347 81.8444 13.608 80.9994 12.2754C80.1067 11.2074 79.0134 10.7181 77.7285 10.8102C76.7034 10.8859 76.1675 11.1923 76.1221 11.7269Z" fill="#056A12"/>
<path d="M85.5338 9.63382C86.836 9.5632 88.1389 9.49932 89.4427 9.44215C92.1983 12.5525 94.8947 15.6922 97.5317 18.8614L97.2896 9.40433C97.3266 8.51494 97.7166 7.85126 98.4598 7.41329C99.1508 7.06443 100.051 6.97028 101.162 7.13084C101.162 7.25693 101.162 7.38303 101.162 7.50912L100.658 7.51795C100.046 7.52888 99.6135 7.71045 99.3588 8.06268C99.2037 8.31487 99.1356 8.81042 99.1508 9.54429L99.4383 23.1285L99.0814 23.136C96.0097 19.5062 92.8574 15.9121 89.6243 12.3537C89.7487 15.1732 89.8748 17.993 90.0026 20.8134C90.0396 21.6582 90.1611 22.1802 90.367 22.3795C90.6318 22.6594 91.0374 22.7884 91.5838 22.7666L92.068 22.7464C92.068 22.8725 92.0769 22.9986 92.0819 23.1247C90.2056 23.1978 88.3293 23.2844 86.453 23.3844C86.4455 23.2457 86.4392 23.107 86.4316 22.9683L86.9145 22.9431C87.5034 22.9128 87.9233 22.7754 88.1591 22.527C88.3272 22.2824 88.3899 21.6889 88.347 20.7465C88.1948 17.5605 88.0418 14.3741 87.888 11.1873C87.7763 10.9077 87.609 10.6538 87.3962 10.4408C87.1375 10.224 86.8211 10.0877 86.4858 10.0487C86.1761 9.99904 85.8615 9.98761 85.5489 10.0146C85.5464 9.88222 85.5401 9.75739 85.5338 9.63382Z" fill="#056A12"/>
<path d="M110.61 7.60234C110.6 9.44079 110.589 11.2788 110.578 13.1164L110.207 13.1139C110.066 12.3792 109.85 11.7908 109.556 11.3486C109.219 10.8613 108.781 10.4523 108.271 10.1494C107.749 9.80722 107.138 9.62371 106.514 9.62111C106.192 9.61321 105.873 9.67507 105.578 9.80242C105.283 9.92977 105.019 10.1196 104.805 10.3588C104.383 10.8014 104.149 11.3912 104.154 12.003C104.157 12.4687 104.312 12.9207 104.597 13.2892C105.002 13.8415 105.975 14.5817 107.503 15.5223C108.732 16.2978 109.564 16.8968 110.009 17.3053C110.451 17.7169 110.803 18.2162 111.042 18.7713C111.281 19.3265 111.401 19.9253 111.396 20.5295C111.404 21.6465 110.981 22.7237 110.217 23.5382C109.443 24.3805 108.46 24.7991 107.261 24.7991C106.91 24.8 106.559 24.7662 106.215 24.6982C105.798 24.5849 105.389 24.4485 104.988 24.2897C104.365 24.0577 103.969 23.9433 103.801 23.9467C103.728 23.943 103.655 23.9565 103.588 23.986C103.521 24.0156 103.462 24.0604 103.415 24.1169C103.325 24.2296 103.258 24.7852 103.215 25.7839H102.881L102.805 19.8348H103.143C103.34 20.9141 103.581 21.685 103.866 22.1473C104.197 22.6524 104.641 23.0734 105.163 23.3768C105.737 23.7321 106.4 23.9163 107.075 23.9076C107.872 23.9076 108.505 23.658 108.974 23.1586C109.434 22.6867 109.689 22.0523 109.684 21.3933C109.68 20.9963 109.588 20.605 109.414 20.2484C109.214 19.8368 108.934 19.469 108.59 19.1665C108.338 18.9445 107.647 18.4641 106.517 17.7328C105.388 17.0014 104.577 16.4214 104.095 15.9889C103.635 15.5846 103.259 15.0935 102.988 14.5438C102.728 14.0031 102.592 13.4113 102.589 12.8113C102.555 11.7505 102.939 10.7187 103.658 9.93761C104.386 9.13312 105.335 8.72584 106.495 8.72205C107.147 8.7075 107.794 8.84161 108.386 9.11421C108.767 9.30551 109.166 9.45964 109.576 9.57445C109.838 9.43743 110.058 8.77964 110.238 7.60107L110.61 7.60234Z" fill="#056A12"/>
<path d="M126.26 7.0286C126.26 7.1547 126.249 7.28079 126.244 7.40689L125.739 7.38545C125.376 7.37032 125.046 7.58594 124.752 8.03232C124.461 8.39547 124.306 8.87589 124.282 9.47232C124.183 12.0362 124.084 14.6002 123.985 17.1641C123.932 18.536 123.686 19.6234 123.246 20.4262C122.814 21.2218 122.16 21.8752 121.364 22.3075C120.548 22.7589 119.51 22.9691 118.252 22.938C117.034 22.88 116.141 22.6387 115.573 22.2142C114.86 21.7958 114.318 21.1382 114.043 20.3581C113.764 19.6225 113.618 18.8434 113.611 18.0568C113.644 15.5946 113.677 13.1328 113.711 10.6715C113.688 10.2125 113.562 9.89852 113.333 9.72955C113.104 9.56267 112.836 9.45914 112.555 9.42945H112.05V9.05116C113.848 9.06713 115.644 9.09571 117.44 9.13691C117.44 9.263 117.433 9.38909 117.431 9.51519L116.926 9.50384C116.391 9.49249 116.005 9.59715 115.77 9.81403C115.6 10.0783 115.507 10.385 115.503 10.6992C115.463 12.9462 115.423 15.1928 115.383 17.439C115.353 19.2043 115.731 20.4114 116.518 21.0604C117.106 21.6556 117.725 21.9611 118.374 21.9771C119.554 22.0074 120.547 21.6493 121.361 20.8977C121.912 19.891 122.211 18.7664 122.235 17.6193C122.33 14.8528 122.425 12.0871 122.52 9.32226C122.564 8.12941 123.195 7.24675 124.414 6.68311C125.274 6.71589 125.889 6.83316 126.26 7.0286Z" fill="#056A12"/>
<path d="M133.557 17.5991C132.485 15.6917 131.397 13.7881 130.292 11.8883C130.133 14.9086 129.972 17.9282 129.811 20.9469C129.792 21.8346 129.847 22.3861 129.976 22.6013C130.052 22.7379 130.161 22.8534 130.293 22.9371C130.425 23.0208 130.576 23.0701 130.733 23.0804L131.111 23.1018L131.092 23.4549C129.614 23.3708 128.137 23.2952 126.66 23.2279L126.677 22.8497L127.077 22.8673C127.652 22.8816 128.008 22.642 128.145 22.1486L128.671 11.4469C128.699 10.8787 128.61 10.4714 128.405 10.2251C128.202 10.0148 127.931 9.88383 127.641 9.85561L127.271 9.83922C127.278 9.71313 127.283 9.58703 127.289 9.46094C128.324 9.50717 129.359 9.55803 130.393 9.61351C131.616 11.7344 132.819 13.8604 134.002 15.9914C135.584 14.0335 137.187 12.085 138.811 10.1456C139.919 10.2297 141.024 10.3138 142.129 10.3978C142.121 10.5025 142.113 10.6059 142.104 10.7093L141.693 10.6765C141.188 10.6361 140.821 10.7811 140.591 11.1115C140.443 11.3221 140.338 11.8151 140.28 12.5893L139.335 24.881C139.269 25.7217 139.305 26.2534 139.442 26.4761C139.714 26.9276 140.138 27.1352 140.713 27.099L140.758 27.3109C139.775 27.5631 138.982 27.3853 138.371 26.7699C138.137 26.4947 137.961 26.1751 137.852 25.8302C137.744 25.4854 137.706 25.1223 137.741 24.7625C138.046 20.598 138.351 16.434 138.655 12.2703C137.165 14.0533 135.694 15.8434 134.242 17.6407L133.557 17.5991Z" fill="#056A12"/>
<path d="M152.175 9.90233L151.6 15.3837L151.236 15.3446C151.169 14.5998 151.011 13.9912 150.761 13.5187C150.473 13.0003 150.077 12.5501 149.599 12.1985C149.112 11.8073 148.522 11.5648 147.9 11.4999C147.581 11.4602 147.257 11.4904 146.95 11.5884C146.644 11.6863 146.362 11.8498 146.125 12.0674C145.658 12.466 145.365 13.0318 145.309 13.6436C145.266 14.1074 145.376 14.5725 145.623 14.9675C145.974 15.5564 146.87 16.3886 148.3 17.4756C149.446 18.3671 150.218 19.0429 150.621 19.4931C151.023 19.9467 151.325 20.4788 151.509 21.0556C151.694 21.6324 151.756 22.2413 151.692 22.8434C151.589 23.9566 151.062 24.9876 150.22 25.7234C149.366 26.48 148.345 26.8053 147.15 26.6906C146.8 26.6571 146.454 26.5891 146.117 26.4875C145.714 26.3334 145.32 26.157 144.936 25.9592C144.337 25.6679 143.954 25.5166 143.787 25.5015C143.714 25.4907 143.64 25.497 143.57 25.52C143.5 25.543 143.437 25.582 143.385 25.6339C143.286 25.7364 143.165 26.2829 143.022 27.2731L142.689 27.2441C142.857 25.2678 143.025 23.2923 143.193 21.3177L143.531 21.3467C143.62 22.4395 143.785 23.2301 144.024 23.7185C144.303 24.253 144.703 24.7147 145.192 25.0665C145.728 25.4777 146.37 25.7267 147.043 25.7839C147.837 25.8613 148.493 25.6751 149.009 25.2253C149.514 24.8014 149.831 24.195 149.891 23.5382C149.927 23.1426 149.874 22.744 149.735 22.3718C149.576 21.9417 149.334 21.5473 149.021 21.2118C148.789 20.9596 148.151 20.4211 147.096 19.5813C146.04 18.7416 145.291 18.0871 144.855 17.6092C144.436 17.162 144.109 16.6367 143.893 16.0633C143.688 15.4988 143.611 14.8959 143.667 14.298C143.738 13.2386 144.221 12.2492 145.014 11.5428C145.819 10.814 146.803 10.5013 147.958 10.611C148.61 10.6613 149.241 10.8587 149.806 11.1885C150.167 11.4174 150.55 11.61 150.949 11.7635C151.223 11.6525 151.505 11.0195 151.802 9.8645L152.175 9.90233Z" fill="#056A12"/>
<path d="M159.211 25.6477C159.194 25.7737 159.179 25.8998 159.163 26.0196C157.192 25.7674 155.22 25.5329 153.247 25.316L153.288 24.9377L153.77 24.9907C154.341 25.0563 154.778 24.939 155.083 24.6389C155.277 24.4388 155.421 23.9319 155.515 23.1182C155.858 20.1701 156.201 17.2216 156.545 14.2727C156.629 13.5842 156.632 13.1218 156.553 12.8856C156.491 12.6829 156.356 12.5103 156.174 12.4014C155.892 12.2061 155.564 12.0867 155.222 12.0547L154.726 11.9992L154.767 11.6272C156.807 11.8542 158.846 12.0967 160.884 12.3548C160.869 12.4809 160.854 12.607 160.837 12.733L160.319 12.6675C159.731 12.5935 159.286 12.7061 158.985 13.0054C158.772 13.203 158.617 13.7073 158.517 14.5185C158.161 17.4658 157.804 20.4122 157.446 23.3578C157.361 24.0463 157.355 24.5065 157.427 24.7385C157.493 24.9355 157.621 25.1058 157.792 25.224C158.059 25.4225 158.374 25.5481 158.704 25.5884L159.211 25.6477Z" fill="#056A12"/>
<defs>
<filter id="filter0_d_1010_1881" x="113.359" y="84.8616" width="15.0052" height="18.9143" filterUnits="userSpaceOnUse" color-interpolation-filters="sRGB">
<feFlood flood-opacity="0" result="BackgroundImageFix"/>
<feColorMatrix in="SourceAlpha" type="matrix" values="0 0 0 0 0 0 0 0 0 0 0 0 0 0 0 0 0 0 127 0" result="hardAlpha"/>
<feOffset dy="0.504378"/>
<feGaussianBlur stdDeviation="0.252189"/>
<feComposite in2="hardAlpha" operator="out"/>
<feColorMatrix type="matrix" values="0 0 0 0 0 0 0 0 0 0 0 0 0 0 0 0 0 0 0.25 0"/>
<feBlend mode="normal" in2="BackgroundImageFix" result="effect1_dropShadow_1010_1881"/>
<feBlend mode="normal" in="SourceGraphic" in2="effect1_dropShadow_1010_1881" result="shape"/>
</filter>
<filter id="filter1_d_1010_1881" x="150.179" y="74.0176" width="20.9317" height="94.9492" filterUnits="userSpaceOnUse" color-interpolation-filters="sRGB">
<feFlood flood-opacity="0" result="BackgroundImageFix"/>
<feColorMatrix in="SourceAlpha" type="matrix" values="0 0 0 0 0 0 0 0 0 0 0 0 0 0 0 0 0 0 127 0" result="hardAlpha"/>
<feOffset dy="0.504378"/>
<feGaussianBlur stdDeviation="0.252189"/>
<feComposite in2="hardAlpha" operator="out"/>
<feColorMatrix type="matrix" values="0 0 0 0 0 0 0 0 0 0 0 0 0 0 0 0 0 0 0.25 0"/>
<feBlend mode="normal" in2="BackgroundImageFix" result="effect1_dropShadow_1010_1881"/>
<feBlend mode="normal" in="SourceGraphic" in2="effect1_dropShadow_1010_1881" result="shape"/>
</filter>
<filter id="filter2_d_1010_1881" x="128.741" y="57.8774" width="34.4249" height="36.8134" filterUnits="userSpaceOnUse" color-interpolation-filters="sRGB">
<feFlood flood-opacity="0" result="BackgroundImageFix"/>
<feColorMatrix in="SourceAlpha" type="matrix" values="0 0 0 0 0 0 0 0 0 0 0 0 0 0 0 0 0 0 127 0" result="hardAlpha"/>
<feOffset dy="0.504378"/>
<feGaussianBlur stdDeviation="0.252189"/>
<feComposite in2="hardAlpha" operator="out"/>
<feColorMatrix type="matrix" values="0 0 0 0 0 0 0 0 0 0 0 0 0 0 0 0 0 0 0.25 0"/>
<feBlend mode="normal" in2="BackgroundImageFix" result="effect1_dropShadow_1010_1881"/>
<feBlend mode="normal" in="SourceGraphic" in2="effect1_dropShadow_1010_1881" result="shape"/>
</filter>
<filter id="filter3_d_1010_1881" x="52.7075" y="78.5569" width="106.298" height="100.245" filterUnits="userSpaceOnUse" color-interpolation-filters="sRGB">
<feFlood flood-opacity="0" result="BackgroundImageFix"/>
<feColorMatrix in="SourceAlpha" type="matrix" values="0 0 0 0 0 0 0 0 0 0 0 0 0 0 0 0 0 0 127 0" result="hardAlpha"/>
<feOffset dy="0.504378"/>
<feGaussianBlur stdDeviation="0.252189"/>
<feComposite in2="hardAlpha" operator="out"/>
<feColorMatrix type="matrix" values="0 0 0 0 0 0 0 0 0 0 0 0 0 0 0 0 0 0 0.25 0"/>
<feBlend mode="normal" in2="BackgroundImageFix" result="effect1_dropShadow_1010_1881"/>
<feBlend mode="normal" in="SourceGraphic" in2="effect1_dropShadow_1010_1881" result="shape"/>
</filter>
<filter id="filter4_d_1010_1881" x="65.5683" y="81.3311" width="80.4496" height="19.7968" filterUnits="userSpaceOnUse" color-interpolation-filters="sRGB">
<feFlood flood-opacity="0" result="BackgroundImageFix"/>
<feColorMatrix in="SourceAlpha" type="matrix" values="0 0 0 0 0 0 0 0 0 0 0 0 0 0 0 0 0 0 127 0" result="hardAlpha"/>
<feOffset dy="0.504378"/>
<feGaussianBlur stdDeviation="0.252189"/>
<feComposite in2="hardAlpha" operator="out"/>
<feColorMatrix type="matrix" values="0 0 0 0 0 0 0 0 0 0 0 0 0 0 0 0 0 0 0.25 0"/>
<feBlend mode="normal" in2="BackgroundImageFix" result="effect1_dropShadow_1010_1881"/>
<feBlend mode="normal" in="SourceGraphic" in2="effect1_dropShadow_1010_1881" result="shape"/>
</filter>
<filter id="filter5_d_1010_1881" x="89.1411" y="39.384" width="26.7475" height="49.3813" filterUnits="userSpaceOnUse" color-interpolation-filters="sRGB">
<feFlood flood-opacity="0" result="BackgroundImageFix"/>
<feColorMatrix in="SourceAlpha" type="matrix" values="0 0 0 0 0 0 0 0 0 0 0 0 0 0 0 0 0 0 127 0" result="hardAlpha"/>
<feOffset dy="0.504378"/>
<feGaussianBlur stdDeviation="0.252189"/>
<feComposite in2="hardAlpha" operator="out"/>
<feColorMatrix type="matrix" values="0 0 0 0 0 0 0 0 0 0 0 0 0 0 0 0 0 0 0.25 0"/>
<feBlend mode="normal" in2="BackgroundImageFix" result="effect1_dropShadow_1010_1881"/>
<feBlend mode="normal" in="SourceGraphic" in2="effect1_dropShadow_1010_1881" result="shape"/>
</filter>
<filter id="filter6_d_1010_1881" x="71.4174" y="61.877" width="13.9806" height="17.3457" filterUnits="userSpaceOnUse" color-interpolation-filters="sRGB">
<feFlood flood-opacity="0" result="BackgroundImageFix"/>
<feColorMatrix in="SourceAlpha" type="matrix" values="0 0 0 0 0 0 0 0 0 0 0 0 0 0 0 0 0 0 127 0" result="hardAlpha"/>
<feOffset dy="0.504378"/>
<feGaussianBlur stdDeviation="0.252189"/>
<feComposite in2="hardAlpha" operator="out"/>
<feColorMatrix type="matrix" values="0 0 0 0 0 0 0 0 0 0 0 0 0 0 0 0 0 0 0.25 0"/>
<feBlend mode="normal" in2="BackgroundImageFix" result="effect1_dropShadow_1010_1881"/>
<feBlend mode="normal" in="SourceGraphic" in2="effect1_dropShadow_1010_1881" result="shape"/>
</filter>
<filter id="filter7_d_1010_1881" x="76.4208" y="111.35" width="60.1179" height="52.5355" filterUnits="userSpaceOnUse" color-interpolation-filters="sRGB">
<feFlood flood-opacity="0" result="BackgroundImageFix"/>
<feColorMatrix in="SourceAlpha" type="matrix" values="0 0 0 0 0 0 0 0 0 0 0 0 0 0 0 0 0 0 127 0" result="hardAlpha"/>
<feOffset dy="0.504378"/>
<feGaussianBlur stdDeviation="0.189142"/>
<feComposite in2="hardAlpha" operator="out"/>
<feColorMatrix type="matrix" values="0 0 0 0 0 0 0 0 0 0 0 0 0 0 0 0 0 0 0.25 0"/>
<feBlend mode="normal" in2="BackgroundImageFix" result="effect1_dropShadow_1010_1881"/>
<feBlend mode="normal" in="SourceGraphic" in2="effect1_dropShadow_1010_1881" result="shape"/>
</filter>
<filter id="filter8_d_1010_1881" x="167.832" y="163.923" width="38.0805" height="37.4503" filterUnits="userSpaceOnUse" color-interpolation-filters="sRGB">
<feFlood flood-opacity="0" result="BackgroundImageFix"/>
<feColorMatrix in="SourceAlpha" type="matrix" values="0 0 0 0 0 0 0 0 0 0 0 0 0 0 0 0 0 0 127 0" result="hardAlpha"/>
<feOffset dx="0.378284" dy="0.630473"/>
<feGaussianBlur stdDeviation="0.252189"/>
<feComposite in2="hardAlpha" operator="out"/>
<feColorMatrix type="matrix" values="0 0 0 0 0 0 0 0 0 0 0 0 0 0 0 0 0 0 0.25 0"/>
<feBlend mode="normal" in2="BackgroundImageFix" result="effect1_dropShadow_1010_1881"/>
<feBlend mode="normal" in="SourceGraphic" in2="effect1_dropShadow_1010_1881" result="shape"/>
</filter>
<filter id="filter9_d_1010_1881" x="10.8444" y="163.923" width="38.0805" height="37.4503" filterUnits="userSpaceOnUse" color-interpolation-filters="sRGB">
<feFlood flood-opacity="0" result="BackgroundImageFix"/>
<feColorMatrix in="SourceAlpha" type="matrix" values="0 0 0 0 0 0 0 0 0 0 0 0 0 0 0 0 0 0 127 0" result="hardAlpha"/>
<feOffset dx="0.378284" dy="0.630473"/>
<feGaussianBlur stdDeviation="0.252189"/>
<feComposite in2="hardAlpha" operator="out"/>
<feColorMatrix type="matrix" values="0 0 0 0 0 0 0 0 0 0 0 0 0 0 0 0 0 0 0.25 0"/>
<feBlend mode="normal" in2="BackgroundImageFix" result="effect1_dropShadow_1010_1881"/>
<feBlend mode="normal" in="SourceGraphic" in2="effect1_dropShadow_1010_1881" result="shape"/>
</filter>
<filter id="filter10_d_1010_1881" x="33.9197" y="179.685" width="149.548" height="38.0808" filterUnits="userSpaceOnUse" color-interpolation-filters="sRGB">
<feFlood flood-opacity="0" result="BackgroundImageFix"/>
<feColorMatrix in="SourceAlpha" type="matrix" values="0 0 0 0 0 0 0 0 0 0 0 0 0 0 0 0 0 0 127 0" result="hardAlpha"/>
<feOffset dx="0.882662" dy="1.26095"/>
<feGaussianBlur stdDeviation="0.252189"/>
<feComposite in2="hardAlpha" operator="out"/>
<feColorMatrix type="matrix" values="0 0 0 0 0 0 0 0 0 0 0 0 0 0 0 0 0 0 0.25 0"/>
<feBlend mode="normal" in2="BackgroundImageFix" result="effect1_dropShadow_1010_1881"/>
<feBlend mode="normal" in="SourceGraphic" in2="effect1_dropShadow_1010_1881" result="shape"/>
</filter>
<filter id="filter11_d_1010_1881" x="10.8441" y="15.762" width="38.0805" height="37.45" filterUnits="userSpaceOnUse" color-interpolation-filters="sRGB">
<feFlood flood-opacity="0" result="BackgroundImageFix"/>
<feColorMatrix in="SourceAlpha" type="matrix" values="0 0 0 0 0 0 0 0 0 0 0 0 0 0 0 0 0 0 127 0" result="hardAlpha"/>
<feOffset dx="0.378284" dy="0.630473"/>
<feGaussianBlur stdDeviation="0.252189"/>
<feComposite in2="hardAlpha" operator="out"/>
<feColorMatrix type="matrix" values="0 0 0 0 0 0 0 0 0 0 0 0 0 0 0 0 0 0 0.25 0"/>
<feBlend mode="normal" in2="BackgroundImageFix" result="effect1_dropShadow_1010_1881"/>
<feBlend mode="normal" in="SourceGraphic" in2="effect1_dropShadow_1010_1881" result="shape"/>
</filter>
<filter id="filter12_d_1010_1881" x="167.832" y="15.762" width="38.0805" height="37.45" filterUnits="userSpaceOnUse" color-interpolation-filters="sRGB">
<feFlood flood-opacity="0" result="BackgroundImageFix"/>
<feColorMatrix in="SourceAlpha" type="matrix" values="0 0 0 0 0 0 0 0 0 0 0 0 0 0 0 0 0 0 127 0" result="hardAlpha"/>
<feOffset dx="0.378284" dy="0.630473"/>
<feGaussianBlur stdDeviation="0.252189"/>
<feComposite in2="hardAlpha" operator="out"/>
<feColorMatrix type="matrix" values="0 0 0 0 0 0 0 0 0 0 0 0 0 0 0 0 0 0 0.25 0"/>
<feBlend mode="normal" in2="BackgroundImageFix" result="effect1_dropShadow_1010_1881"/>
<feBlend mode="normal" in="SourceGraphic" in2="effect1_dropShadow_1010_1881" result="shape"/>
</filter>
<filter id="filter13_d_1010_1881" x="33.9196" y="0.000244141" width="149.548" height="38.0805" filterUnits="userSpaceOnUse" color-interpolation-filters="sRGB">
<feFlood flood-opacity="0" result="BackgroundImageFix"/>
<feColorMatrix in="SourceAlpha" type="matrix" values="0 0 0 0 0 0 0 0 0 0 0 0 0 0 0 0 0 0 127 0" result="hardAlpha"/>
<feOffset dx="0.882662" dy="1.26095"/>
<feGaussianBlur stdDeviation="0.252189"/>
<feComposite in2="hardAlpha" operator="out"/>
<feColorMatrix type="matrix" values="0 0 0 0 0 0 0 0 0 0 0 0 0 0 0 0 0 0 0.25 0"/>
<feBlend mode="normal" in2="BackgroundImageFix" result="effect1_dropShadow_1010_1881"/>
<feBlend mode="normal" in="SourceGraphic" in2="effect1_dropShadow_1010_1881" result="shape"/>
</filter>
<linearGradient id="paint0_linear_1010_1881" x1="108.063" y1="27.2997" x2="108.063" y2="266.249" gradientUnits="userSpaceOnUse">
<stop stop-color="#62A721"/>
<stop offset="1" stop-color="#D2EBBB"/>
</linearGradient>
<linearGradient id="paint1_linear_1010_1881" x1="49.7443" y1="111.215" x2="49.7443" y2="129.499" gradientUnits="userSpaceOnUse">
<stop stop-color="#B1EB7A"/>
<stop offset="1" stop-color="#C8EBA7"/>
</linearGradient>
<linearGradient id="paint2_linear_1010_1881" x1="127.503" y1="107.231" x2="92.982" y2="184.781" gradientUnits="userSpaceOnUse">
<stop stop-color="#B1EB7A"/>
<stop offset="1" stop-color="#D2EBBB"/>
</linearGradient>
<linearGradient id="paint3_linear_1010_1881" x1="71.4501" y1="90.7836" x2="142.962" y2="110.026" gradientUnits="userSpaceOnUse">
<stop stop-color="#97D85B"/>
<stop offset="1" stop-color="#507230"/>
</linearGradient>
<radialGradient id="paint4_radial_1010_1881" cx="0" cy="0" r="1" gradientUnits="userSpaceOnUse" gradientTransform="translate(92.3928 82.333) rotate(61.0728) scale(6.18864 6.19347)">
<stop stop-color="#B1EB7A" stop-opacity="0"/>
<stop offset="1" stop-color="#D2EBBB"/>
</radialGradient>
<radialGradient id="paint5_radial_1010_1881" cx="0" cy="0" r="1" gradientUnits="userSpaceOnUse" gradientTransform="translate(121.668 87.8168) rotate(60.801) scale(4.52658 4.55693)">
<stop stop-color="#B1EB7A" stop-opacity="0"/>
<stop offset="1" stop-color="#D2EBBB"/>
</radialGradient>
</defs>
</svg>
