<svg width="45" height="218" viewBox="0 0 45 218" fill="none" xmlns="http://www.w3.org/2000/svg">
<circle cx="108" cy="108" r="108" fill="url(#paint0_linear_1010_2102)"/>
<g filter="url(#filter0_d_1010_2102)">
<path d="M68.3856 88.5973C66.2846 89.1032 64.3464 89.5057 62.4517 90.0443C58.2062 91.2411 55.3343 93.825 54.4439 98.313C54.0747 100.173 53.7979 102.056 53.3092 103.883C53.1518 104.498 52.4786 104.971 52.0389 105.515C51.5991 104.999 50.9802 104.547 50.7576 103.949C50.4862 103.209 50.611 102.317 50.459 101.539C48.9335 93.4986 45.7412 90.6046 36.1862 88.6245C35.6052 87.0687 35.9961 86.1058 37.8149 85.9045C38.0809 85.9045 38.3578 85.7903 38.6129 85.7413C47.7499 84.093 50.0518 81.4927 50.763 71.9511C52.0986 71.2113 53.0758 71.2222 53.2658 73.1262C53.2658 73.3981 53.3038 73.6701 53.3418 73.9367C54.3951 81.9388 56.963 84.5609 64.9599 85.7685C68.353 86.2799 68.353 86.2799 68.3856 88.5973Z" fill="#EDC0FF"/>
<path d="M51.7063 71.6157C51.9817 71.5443 52.2223 71.5382 52.4241 71.6069C52.7716 71.7255 53.0347 72.0796 53.1584 72.8003L53.2024 73.1265C53.2024 73.2651 53.2124 73.4035 53.2268 73.5405L53.2795 73.9458C53.8066 77.9499 54.7143 80.6231 56.5022 82.4448C58.2902 84.2665 60.9486 85.2262 64.9504 85.8306C65.7997 85.9586 66.4336 86.0541 66.9084 86.1616C67.3842 86.2693 67.6908 86.3874 67.8928 86.5542C68.0914 86.7182 68.1952 86.9354 68.2512 87.2603C68.3061 87.5783 68.3127 87.9912 68.3206 88.5464C66.2414 89.046 64.316 89.4492 62.4348 89.9839C60.3043 90.5845 58.5141 91.534 57.1448 92.8999C55.7753 94.2661 54.8294 96.0456 54.3821 98.3003C54.0121 100.165 53.7361 102.042 53.2483 103.867V103.868C53.1737 104.159 52.9754 104.421 52.7336 104.683C52.5129 104.922 52.2508 105.166 52.0374 105.419C51.8264 105.18 51.5781 104.948 51.3625 104.719C51.1264 104.468 50.9234 104.213 50.8167 103.926C50.6847 103.566 50.6479 103.167 50.6262 102.754C50.6101 102.448 50.6021 102.132 50.5667 101.828L50.5208 101.527C49.7569 97.501 48.574 94.7515 46.3762 92.7622C44.1854 90.7792 40.9946 89.5592 36.2336 88.5698C35.956 87.8122 35.92 87.216 36.1555 86.7866C36.3932 86.3533 36.9199 86.0671 37.8215 85.9673L37.8206 85.9663C37.96 85.9655 38.1 85.9363 38.2336 85.9019C38.3719 85.8662 38.5002 85.8272 38.6252 85.8032L38.6243 85.8022C43.1939 84.9779 46.073 83.9141 47.8948 81.8481C49.7117 79.7875 50.4658 76.7426 50.8225 71.9907C51.1428 71.8152 51.4391 71.6851 51.7063 71.6157Z" stroke="#D584F5" stroke-width="0.126095"/>
</g>
<g filter="url(#filter1_d_1010_2102)">
<path d="M10.9702 180.776C11.3653 180.604 15.9448 178.523 16.8167 173.659C17.4737 169.994 15.7687 166.233 12.452 164.049C14.07 164.364 16.7339 164.909 20.0055 165.695C33.4893 168.941 40.8657 170.813 45.199 176.703C46.0436 177.855 47.2854 179.845 48.042 182.875L37.1047 181.304C37.1581 182.979 37.1623 184.726 37.1047 186.54C36.9558 191.185 36.4181 195.809 35.4972 200.365L16.4446 196.297C17.1027 195.689 19.4837 193.346 19.4889 189.974C19.4962 185.92 16.0674 182.014 10.9702 180.776Z" fill="#EDC0FF"/>
</g>
<g filter="url(#filter2_d_1010_2102)">
<path d="M179.833 180.109C179.833 180.109 182.032 180.303 182.032 181.817C182.025 189.849 181.984 198.039 182.08 206.227C182.102 208.038 181.008 208.441 179.681 208.69C170.836 210.351 162.042 212.443 153.116 213.497C127.174 216.559 101.14 216.589 75.0815 214.789C60.451 213.776 43.9499 211.186 35.1647 208.336C34.8073 208.227 34.4941 208.006 34.2703 207.708C34.0464 207.409 33.9236 207.047 33.9194 206.674V181.831C34.4972 181.086 35.2536 180.497 36.1189 180.12C38.0397 179.307 40.0004 179.863 40.4277 179.972C44.7512 181.061 88.562 185.798 111.028 185.151C127.103 184.689 173.434 180.285 176.913 179.808C177.254 179.761 178.506 179.571 179.833 180.109Z" fill="#EDC0FF"/>
</g>
<path d="M49.6673 201.827C49.6535 201.939 49.6409 202.053 49.6283 202.165C47.7965 201.953 45.9648 201.731 44.1331 201.499C44.1469 201.387 44.1621 201.275 44.1759 201.162L44.6223 201.218C45.1519 201.285 45.5583 201.184 45.8416 200.913C46.0207 200.731 46.1556 200.271 46.2464 199.533C46.5742 196.855 46.9025 194.176 47.2312 191.497C47.3077 190.872 47.3144 190.452 47.2514 190.236C47.1987 190.054 47.0807 189.897 46.9197 189.795C46.6788 189.614 46.3943 189.5 46.0951 189.463L45.6601 189.409C45.6739 189.296 45.6878 189.184 45.7029 189.071C47.4884 189.302 49.2769 189.52 51.0683 189.726C51.0544 189.839 51.0418 189.951 51.0292 190.065L50.5639 190.012C50.0461 189.951 49.6552 190.058 49.3912 190.331C49.2029 190.513 49.065 190.972 48.9776 191.71L48.0256 199.749C47.9512 200.379 47.9462 200.794 48.013 201.01C48.0759 201.19 48.1959 201.344 48.3547 201.45C48.6037 201.631 48.8952 201.744 49.2008 201.778L49.6673 201.827Z" fill="#8B2DB0"/>
<g filter="url(#filter3_d_1010_2102)">
<path d="M10.9702 35.2244C11.3653 35.3962 15.9448 37.4772 16.8167 42.3409C17.4737 46.0064 15.7687 49.7673 12.452 51.9509C14.07 51.6367 16.7339 51.0911 20.0055 50.3056C33.4893 47.059 40.8657 45.1874 45.199 39.2974C46.0436 38.1454 47.2854 36.1555 48.042 33.1257L37.1047 34.6966C37.1581 33.0209 37.1623 31.274 37.1047 29.4601C36.9558 24.8152 36.4181 20.1909 35.4972 15.6357L16.4446 19.7034C17.1027 20.3109 19.4837 22.6547 19.4889 26.026C19.4962 30.0801 16.0674 33.9865 10.9702 35.2244Z" fill="#EDC0FF"/>
</g>
<g filter="url(#filter4_d_1010_2102)">
<path d="M179.833 35.8907C179.833 35.8907 182.032 35.6974 182.032 34.183C182.025 26.1512 181.984 17.9616 182.08 9.77301C182.102 7.9618 181.008 7.55943 179.681 7.31069C170.836 5.64894 162.042 3.55764 153.116 2.5031C127.174 -0.55912 101.14 -0.588383 75.0815 1.21133C60.451 2.22405 43.9499 4.81388 35.1647 7.66394C34.8073 7.7736 34.4941 7.99376 34.2703 8.29263C34.0464 8.59151 33.9236 8.95364 33.9194 9.32674V34.1694C34.4972 34.9147 35.2536 35.5031 36.1189 35.8803C38.0397 36.6934 40.0004 36.1374 40.4277 36.0287C44.7512 34.9397 88.562 30.2021 111.028 30.8491C127.103 31.311 173.434 35.7152 176.913 36.1917C177.254 36.2388 178.506 36.429 179.833 35.8907Z" fill="#EDC0FF"/>
</g>
<defs>
<filter id="filter0_d_1010_2102" x="35.4324" y="71.4956" width="33.4575" height="35.0285" filterUnits="userSpaceOnUse" color-interpolation-filters="sRGB">
<feFlood flood-opacity="0" result="BackgroundImageFix"/>
<feColorMatrix in="SourceAlpha" type="matrix" values="0 0 0 0 0 0 0 0 0 0 0 0 0 0 0 0 0 0 127 0" result="hardAlpha"/>
<feOffset dy="0.504378"/>
<feGaussianBlur stdDeviation="0.252189"/>
<feComposite in2="hardAlpha" operator="out"/>
<feColorMatrix type="matrix" values="0 0 0 0 0 0 0 0 0 0 0 0 0 0 0 0 0 0 0.25 0"/>
<feBlend mode="normal" in2="BackgroundImageFix" result="effect1_dropShadow_1010_2102"/>
<feBlend mode="normal" in="SourceGraphic" in2="effect1_dropShadow_1010_2102" result="shape"/>
</filter>
<filter id="filter1_d_1010_2102" x="10.8441" y="164.049" width="38.0805" height="37.4503" filterUnits="userSpaceOnUse" color-interpolation-filters="sRGB">
<feFlood flood-opacity="0" result="BackgroundImageFix"/>
<feColorMatrix in="SourceAlpha" type="matrix" values="0 0 0 0 0 0 0 0 0 0 0 0 0 0 0 0 0 0 127 0" result="hardAlpha"/>
<feOffset dx="0.378284" dy="0.630473"/>
<feGaussianBlur stdDeviation="0.252189"/>
<feComposite in2="hardAlpha" operator="out"/>
<feColorMatrix type="matrix" values="0 0 0 0 0 0 0 0 0 0 0 0 0 0 0 0 0 0 0.25 0"/>
<feBlend mode="normal" in2="BackgroundImageFix" result="effect1_dropShadow_1010_2102"/>
<feBlend mode="normal" in="SourceGraphic" in2="effect1_dropShadow_1010_2102" result="shape"/>
</filter>
<filter id="filter2_d_1010_2102" x="33.9194" y="179.685" width="149.548" height="38.0808" filterUnits="userSpaceOnUse" color-interpolation-filters="sRGB">
<feFlood flood-opacity="0" result="BackgroundImageFix"/>
<feColorMatrix in="SourceAlpha" type="matrix" values="0 0 0 0 0 0 0 0 0 0 0 0 0 0 0 0 0 0 127 0" result="hardAlpha"/>
<feOffset dx="0.882662" dy="1.26095"/>
<feGaussianBlur stdDeviation="0.252189"/>
<feComposite in2="hardAlpha" operator="out"/>
<feColorMatrix type="matrix" values="0 0 0 0 0 0 0 0 0 0 0 0 0 0 0 0 0 0 0.25 0"/>
<feBlend mode="normal" in2="BackgroundImageFix" result="effect1_dropShadow_1010_2102"/>
<feBlend mode="normal" in="SourceGraphic" in2="effect1_dropShadow_1010_2102" result="shape"/>
</filter>
<filter id="filter3_d_1010_2102" x="10.8441" y="15.6357" width="38.0805" height="37.45" filterUnits="userSpaceOnUse" color-interpolation-filters="sRGB">
<feFlood flood-opacity="0" result="BackgroundImageFix"/>
<feColorMatrix in="SourceAlpha" type="matrix" values="0 0 0 0 0 0 0 0 0 0 0 0 0 0 0 0 0 0 127 0" result="hardAlpha"/>
<feOffset dx="0.378284" dy="0.630473"/>
<feGaussianBlur stdDeviation="0.252189"/>
<feComposite in2="hardAlpha" operator="out"/>
<feColorMatrix type="matrix" values="0 0 0 0 0 0 0 0 0 0 0 0 0 0 0 0 0 0 0.25 0"/>
<feBlend mode="normal" in2="BackgroundImageFix" result="effect1_dropShadow_1010_2102"/>
<feBlend mode="normal" in="SourceGraphic" in2="effect1_dropShadow_1010_2102" result="shape"/>
</filter>
<filter id="filter4_d_1010_2102" x="33.9194" y="0" width="149.548" height="38.0805" filterUnits="userSpaceOnUse" color-interpolation-filters="sRGB">
<feFlood flood-opacity="0" result="BackgroundImageFix"/>
<feColorMatrix in="SourceAlpha" type="matrix" values="0 0 0 0 0 0 0 0 0 0 0 0 0 0 0 0 0 0 127 0" result="hardAlpha"/>
<feOffset dx="0.882662" dy="1.26095"/>
<feGaussianBlur stdDeviation="0.252189"/>
<feComposite in2="hardAlpha" operator="out"/>
<feColorMatrix type="matrix" values="0 0 0 0 0 0 0 0 0 0 0 0 0 0 0 0 0 0 0.25 0"/>
<feBlend mode="normal" in2="BackgroundImageFix" result="effect1_dropShadow_1010_2102"/>
<feBlend mode="normal" in="SourceGraphic" in2="effect1_dropShadow_1010_2102" result="shape"/>
</filter>
<linearGradient id="paint0_linear_1010_2102" x1="108.063" y1="-70.5499" x2="108.063" y2="183.278" gradientUnits="userSpaceOnUse">
<stop stop-color="#9021BB"/>
<stop offset="1" stop-color="#D584F5"/>
</linearGradient>
</defs>
</svg>
