<svg width="216" height="218" viewBox="0 0 216 218" fill="none" xmlns="http://www.w3.org/2000/svg">
<circle cx="108" cy="108" r="108" fill="url(#paint0_linear_1006_1983)"/>
<g filter="url(#filter0_d_1006_1983)">
<rect x="33.9194" y="59.6213" width="72.3357" height="106.554" rx="5.80035" transform="rotate(-6.8911 33.9194 59.6213)" fill="url(#paint1_linear_1006_1983)"/>
</g>
<g filter="url(#filter1_d_1006_1983)">
<rect x="43.882" y="68.0066" width="54.7564" height="89.8121" rx="3.78284" transform="rotate(-7.14777 43.882 68.0066)" fill="#C33523"/>
</g>
<g filter="url(#filter2_d_1006_1983)">
<rect x="122.548" y="44.3853" width="72.3357" height="106.554" rx="5.80035" transform="rotate(14.1705 122.548 44.3853)" fill="url(#paint2_linear_1006_1983)"/>
<rect x="123.279" y="45.6103" width="70.3182" height="104.537" rx="4.79159" transform="rotate(14.1705 123.279 45.6103)" stroke="#C33523" stroke-width="2.01751"/>
</g>
<g filter="url(#filter3_d_1006_1983)">
<rect x="128.495" y="55.0728" width="54.7564" height="89.8121" rx="3.78284" transform="rotate(14.1705 128.495 55.0728)" fill="#C33523"/>
</g>
<g filter="url(#filter4_d_1006_1983)">
<path d="M131.618 81.2997C131.361 80.6658 129.909 80.5089 127.263 80.829C128.579 79.2759 130.233 78.042 132.101 77.2209C133.969 76.3997 136 76.0128 138.043 76.0893C137.6 75.6337 137.097 75.2406 136.547 74.9212C135.561 74.355 134.453 74.0328 133.316 73.9817C135.997 73.5527 138.716 73.4099 141.428 73.5558C143.273 73.6573 145.416 73.7881 148.114 74.5759C151.345 75.5211 153.894 76.9569 153.847 77.0663C153.841 77.09 153.714 77.0344 153.503 76.9349C152.571 76.6109 150.076 75.9586 147.883 77.3474C147.105 77.8475 146.461 78.529 146.008 79.333C145.677 79.348 143.707 79.4704 142.423 81.0903C141.919 81.7355 141.598 82.5036 141.492 83.3149C142.167 82.8224 142.885 82.3921 143.637 82.0293C144.151 81.7862 144.678 81.5708 145.216 81.3839C145.932 81.1261 146.662 80.9077 147.402 80.7297L145.144 80.232C145.864 80.0514 146.594 79.912 147.33 79.8144C147.726 79.7615 148.019 79.736 148.189 79.7201C149.023 79.6449 150.225 79.5258 152.078 79.3459C151.815 79.1497 151.539 78.973 151.251 78.8172C150.792 78.5683 150.306 78.3723 149.803 78.2329C150.485 78.2937 151.162 78.4118 151.824 78.5862C153.584 79.0574 155.221 79.9047 156.62 81.0689C156.354 80.7004 156.131 80.3033 155.955 79.8851C155.826 79.5794 155.722 79.264 155.644 78.942C155.419 78.0652 155.353 77.156 155.449 76.2569C156.094 78.6403 157.09 79.6009 157.93 80.0224C158.359 80.239 159.138 80.5093 159.94 81.2707C160.312 81.6263 160.598 81.9374 160.711 82.4461C160.779 82.7715 160.817 83.1021 160.825 83.434C160.836 83.7188 160.799 83.9809 160.993 84.214C161.241 84.5114 161.722 84.5598 162.084 84.5214C162.965 84.4348 163.489 83.6183 163.679 83.3246C164.337 82.3024 164.212 81.191 164.146 80.7893C164.526 81.1922 164.814 81.6722 164.99 82.1961C165.19 82.8111 165.235 83.4654 165.122 84.1012C164.968 85.0887 164.593 85.2853 164.288 86.3003C164.065 87.0044 163.991 87.7473 164.07 88.4821C164.334 90.5042 165.877 90.7143 166.407 92.8661C166.608 93.6826 166.327 93.4161 166.527 95.7005C166.613 96.6806 166.566 97.6732 166.717 98.6461C166.785 98.9924 166.777 99.3491 166.693 99.6917C166.609 100.034 166.452 100.355 166.233 100.631C165.61 101.46 165.315 102.488 165.403 103.52C165.467 104.327 166.004 104.651 166.757 104.353C166.844 104.319 166.932 104.289 167.036 104.252C166.532 105.032 166.107 105.86 165.769 106.725C165.728 106.829 165.686 106.94 165.646 107.048C165.511 106.993 165.373 106.931 165.233 106.865C164.173 106.344 163.244 105.591 162.517 104.664C162.655 104.689 162.762 104.722 162.871 104.728C163.365 104.77 163.574 104.485 163.341 104.051C163.22 103.829 163.059 103.63 162.867 103.466C162.566 103.203 162.291 102.912 162.045 102.597C162.175 102.605 162.305 102.598 162.433 102.576C162.671 102.537 163.017 102.477 163.23 102.199C163.443 101.921 163.433 101.559 163.393 101.335C163.337 100.935 163.217 100.547 163.037 100.185C162.634 99.2659 162.041 98.4418 161.297 97.766C161.283 98.5013 161.086 98.9674 160.897 99.2702C160.78 99.4573 160.581 99.7145 160.288 100.224C160.184 100.397 160.094 100.578 160.018 100.765C159.783 101.323 159.821 101.865 160.223 102.329C160.541 102.696 160.909 103.021 161.247 103.356C160.468 103.428 159.685 103.284 158.982 102.941C158.14 102.517 157.461 101.829 157.049 100.984C157.19 100.992 157.331 100.978 157.468 100.943C157.728 100.873 157.964 100.733 158.15 100.538C158.395 100.282 158.569 99.9667 158.655 99.6233C159.058 98.2608 159.26 97.5788 159.144 96.9909C158.98 96.1548 158.499 95.6193 158.003 95.0723C157.243 94.2309 156.809 93.7672 156.253 93.5142C156.507 93.4101 156.91 93.1029 157.857 93.3938C158.277 93.5224 158.662 93.7449 158.983 94.0443C158.909 93.816 158.815 93.5944 158.703 93.3818C158.508 92.9935 158.246 92.6429 157.927 92.3465C157.536 91.9947 157.069 91.7383 156.561 91.5975L157.603 91.4094C157.551 90.5565 157.3 89.7269 156.87 88.9867C156.642 88.5998 155.709 87.0396 153.75 86.485C153.381 86.3806 151.67 85.9413 150.167 86.8052C149.692 87.0781 149.367 87.41 148.95 87.8298C148.269 88.52 147.907 89.1183 147.505 89.7842C147.505 89.7842 146.925 90.7421 146.867 91.3817C146.854 91.5265 146.843 91.6901 146.843 91.6901C146.855 91.8708 146.848 92.0521 146.822 92.2313C146.818 92.4112 146.81 92.5869 146.8 92.761C150.282 96.3682 153.545 100.184 157.187 103.622C159.619 105.92 162.786 109.666 165.303 115.757C164.935 115.265 162.743 112.435 158.792 111.988C155.575 111.624 153.209 113.069 152.551 113.502C152.558 113.29 152.589 110.009 149.815 108.168C147.422 106.577 144.852 107.329 144.516 107.434C144.897 106.315 145.011 105.122 144.85 103.95C144.689 102.778 144.257 101.658 143.587 100.679C142.636 101.865 142.252 102.157 141.859 103.025C141.484 103.797 141.308 104.652 141.35 105.511C141.429 106.808 142.025 107.709 142.32 108.142C142.923 109.003 143.728 109.704 144.666 110.185C144.69 110.196 145.199 110.426 146.218 110.868C146.537 111.006 146.934 111.18 147.447 111.412C148.097 111.706 148.424 111.848 148.529 111.91C151.501 113.661 152.494 117.097 152.481 117.07C152.248 116.499 151.831 116.021 151.297 115.71C151.024 115.559 150.394 115.21 149.946 115.487C149.497 115.764 149.528 116.478 149.533 116.562C149.572 117.353 150.189 117.852 150.679 118.365C151.483 119.254 152.113 120.284 152.537 121.402C152.824 122.2 153.012 123.799 151.059 126.576C151.226 125.809 151.303 125.026 151.29 124.241C151.281 123.695 151.227 123.151 151.129 122.614C151.196 122.972 150.316 123.82 150.135 124.083C149.71 124.711 149.36 125.385 149.091 126.094C148.99 126.323 148.931 126.568 148.918 126.818C148.915 127.614 149.855 128.105 150.098 128.816C150.522 130.055 149.409 131.435 148.971 131.978C147.908 133.296 146.497 133.702 145.934 133.832C147.314 133.517 148.319 131.547 147.736 130.274C147.936 130.712 145.739 132.664 145.438 132.91C144.423 133.747 143.252 134.378 141.992 134.767C139.556 135.512 137.082 135.203 134.728 134.313C134.075 134.083 133.446 133.789 132.851 133.436C132.368 133.143 131.912 132.808 131.49 132.434L133.321 133.201C132.11 132.696 130.873 131.68 129.932 130.781C128.519 129.431 127.664 127.86 127.078 126.023L126.928 125.489L128.376 126.65C128.285 123.516 128.95 120.593 130.023 117.628L127.91 118.228C128.623 116.903 129.648 115.77 130.897 114.926C132.324 113.972 133.985 113.42 135.703 113.328C134.596 113.834 133.698 114.703 133.158 115.79C132.618 116.877 132.47 118.116 132.737 119.301C132.24 118.89 131.77 118.444 131.215 118.091C130.797 118.829 130.468 119.613 130.235 120.428C129.741 122.058 129.509 123.751 129.804 125.446C130.091 127.077 130.944 128.768 132.242 129.835C132.881 130.361 136.29 132.644 140.289 131.344C141.326 130.991 142.266 130.405 143.036 129.63C145.862 126.794 145.098 122.671 145.012 122.251C144.511 119.775 143.009 118.2 142.379 117.555C141.64 116.801 140.79 116.162 139.859 115.663C140.369 117.17 141.277 118.514 142.486 119.554C141.126 118.704 139.943 117.601 139.003 116.304C137.851 114.697 137.064 113.129 135.904 110.562C135.531 109.731 135.234 109.036 135.041 108.558C134.001 107.201 133.215 105.669 132.722 104.035C132.443 103.144 132.263 102.226 132.184 101.296C132.08 100.019 132.247 99.5812 132.107 98.446C131.682 97.8885 131.216 97.3397 130.71 96.7891C129.578 95.5611 128.326 94.4478 126.973 93.4656C129.525 91.5822 130.159 88.8209 129.168 87.4107C128.462 86.4068 127.044 86.2508 126.525 86.2186C130.256 83.7671 131.953 82.1275 131.618 81.2997Z" fill="#F7A296"/>
</g>
<g filter="url(#filter5_d_1006_1983)">
<path d="M57.3716 91.2321C56.9105 90.7265 55.4944 91.082 53.1231 92.2986C53.8196 90.386 54.9444 88.6555 56.4121 87.2384C57.8798 85.8213 59.6519 84.7547 61.5944 84.1193C61.0215 83.8451 60.4134 83.6505 59.7871 83.5412C58.6656 83.3517 57.5145 83.4331 56.4307 83.7787C58.7964 82.4481 61.2979 81.3726 63.8926 80.5703C65.6588 80.0265 67.714 79.4072 70.5186 79.2118C73.8768 78.9796 76.7652 79.444 76.7591 79.5628C76.762 79.587 76.6232 79.579 76.3912 79.5586C75.4041 79.5775 72.8382 79.8294 71.261 81.892C70.7043 82.6306 70.3366 83.4928 70.1898 84.404C69.8847 84.5327 68.0791 85.3296 67.4359 87.2938C67.1862 88.0737 67.1506 88.9055 67.3328 89.7032C67.7947 89.0077 68.3192 88.3554 68.8999 87.7543C69.2979 87.3482 69.7176 86.9637 70.157 86.6022C70.7396 86.1124 71.3489 85.6547 71.9819 85.2313L69.6912 85.5464C70.3041 85.1276 70.9405 84.744 71.5974 84.3976C71.9505 84.2108 72.2158 84.0857 72.3706 84.0117C73.1268 83.6523 74.2125 83.1246 75.8888 82.314C75.5747 82.2208 75.2541 82.1508 74.9296 82.1045C74.413 82.03 73.8894 82.0143 73.369 82.0578C74.0304 81.8784 74.7057 81.7551 75.3879 81.6891C77.2021 81.5218 79.0307 81.7499 80.7462 82.3577C80.3695 82.1039 80.0229 81.8085 79.713 81.4772C79.4863 81.235 79.2795 80.9752 79.0944 80.7002C78.5799 79.9555 78.203 79.1254 77.9814 78.2489C79.412 80.2613 80.679 80.8177 81.6134 80.9219C82.0905 80.9768 82.9153 80.9604 83.9306 81.3972C84.4031 81.602 84.7788 81.7948 85.0615 82.2327C85.2374 82.5146 85.3877 82.8116 85.5107 83.12C85.6193 83.3835 85.6757 83.6421 85.9379 83.7938C86.2734 83.9869 86.7419 83.8656 87.0678 83.7044C87.8645 83.3179 88.0737 82.3703 88.1497 82.0292C88.4134 80.8423 87.9107 79.8431 87.7096 79.4892C88.2058 79.7354 88.6423 80.086 88.9888 80.5166C89.3897 81.0242 89.6588 81.6222 89.7723 82.2581C89.9702 83.2376 89.686 83.5522 89.752 84.6098C89.7862 85.3477 89.9738 86.0703 90.3028 86.7321C91.2507 88.5377 92.7713 88.2003 94.0129 90.0356C94.4843 90.732 94.1289 90.5791 95.1075 92.653C95.5278 93.5426 95.8273 94.4901 96.3058 95.3505C96.4892 95.652 96.605 95.9895 96.6452 96.3398C96.6854 96.6901 96.649 97.045 96.5386 97.3802C96.2415 98.3735 96.3205 99.4402 96.7608 100.378C97.0999 101.113 97.7166 101.23 98.3192 100.691C98.3892 100.629 98.4618 100.57 98.5463 100.499C98.3433 101.405 98.2318 102.329 98.2136 103.258C98.2111 103.369 98.2107 103.489 98.2109 103.603C98.0646 103.598 97.9144 103.588 97.7593 103.574C96.5847 103.453 95.4532 103.069 94.4498 102.45C94.5881 102.426 94.6995 102.421 94.8043 102.388C95.2817 102.257 95.3791 101.916 95.01 101.59C94.8199 101.423 94.6004 101.293 94.3627 101.206C93.9896 101.063 93.6309 100.885 93.2915 100.675C93.4156 100.637 93.535 100.586 93.6475 100.521C93.8574 100.402 94.1613 100.225 94.2651 99.8909C94.3689 99.5566 94.2338 99.2204 94.1187 99.0245C93.928 98.6684 93.6805 98.3455 93.3857 98.0683C92.6897 97.3461 91.8482 96.7782 90.9161 96.402C91.1575 97.0966 91.1346 97.6019 91.0617 97.9516C91.0168 98.1676 90.9191 98.4778 90.8208 99.0567C90.7832 99.2553 90.7614 99.4565 90.7555 99.6585C90.7275 100.264 90.9509 100.759 91.4891 101.055C91.9145 101.289 92.3725 101.466 92.8048 101.663C92.0996 102 91.3148 102.137 90.537 102.058C89.6002 101.952 88.7249 101.542 88.0459 100.891C88.1807 100.85 88.3083 100.788 88.4242 100.708C88.6443 100.552 88.8171 100.339 88.9236 100.092C89.065 99.7669 89.1193 99.411 89.0812 99.0591C88.9871 97.6415 88.941 96.9315 88.6283 96.4203C88.1846 95.6927 87.5477 95.357 86.8932 95.0156C85.8886 94.4894 85.3215 94.2045 84.7124 94.1597C84.9144 93.9742 85.1864 93.5463 86.1747 93.4915C86.6135 93.4667 87.052 93.542 87.4568 93.7117C87.3079 93.5233 87.1431 93.3479 86.9644 93.1873C86.6475 92.8904 86.2797 92.6524 85.8783 92.4847C85.3898 92.29 84.8622 92.2113 84.3375 92.255L85.2496 91.7178C84.9059 90.9355 84.3831 90.2442 83.723 89.6989C83.3756 89.4147 81.9598 88.2742 79.9294 88.4324C79.5475 88.4621 77.7898 88.6427 76.6794 89.9735C76.3282 90.3941 76.1387 90.8177 75.8922 91.3563C75.4928 92.2395 75.3602 92.9261 75.2133 93.6902C75.2133 93.6902 75.0008 94.7897 75.1684 95.4095C75.2064 95.5499 75.253 95.7071 75.253 95.7071C75.3262 95.8727 75.3823 96.0453 75.4205 96.2222C75.4788 96.3925 75.5323 96.56 75.5834 96.7267C80.099 98.9049 84.4811 101.355 89.0889 103.319C92.1654 104.632 96.4338 107.05 100.904 111.892C100.389 111.559 97.3529 109.662 93.4916 110.611C90.3477 111.384 88.6281 113.558 88.1611 114.193C88.0935 113.992 86.9868 110.903 83.7465 110.136C80.951 109.473 78.8009 111.068 78.5216 111.283C78.4914 110.101 78.1857 108.942 77.6286 107.899C77.0715 106.855 76.2781 105.954 75.3111 105.268C74.8289 106.709 74.5702 107.116 74.5024 108.066C74.4175 108.921 74.549 109.784 74.8851 110.575C75.4093 111.765 76.2805 112.403 76.7064 112.707C77.5702 113.307 78.5688 113.686 79.6146 113.811C79.6418 113.814 80.1989 113.853 81.3074 113.915C81.6548 113.934 82.0869 113.96 82.6485 114C83.3603 114.05 83.7167 114.07 83.8358 114.092C87.2304 114.706 89.352 117.585 89.3305 117.564C88.9141 117.11 88.358 116.805 87.749 116.698C87.4409 116.651 86.7288 116.542 86.4039 116.957C86.0789 117.372 86.3554 118.032 86.3892 118.109C86.6997 118.838 87.4513 119.092 88.0887 119.403C89.1506 119.958 90.0985 120.707 90.8834 121.609C91.4287 122.258 92.1591 123.694 91.2888 126.974C91.1796 126.197 90.981 125.435 90.6969 124.704C90.4992 124.195 90.2603 123.704 89.9826 123.234C90.1687 123.546 89.637 124.647 89.5583 124.956C89.3769 125.692 89.2821 126.446 89.2759 127.204C89.2601 127.454 89.2898 127.704 89.3636 127.943C89.6371 128.691 90.6883 128.826 91.1629 129.408C91.9893 130.425 91.4232 132.105 91.2002 132.765C90.6599 134.369 89.477 135.24 88.9936 135.557C90.1791 134.783 90.4396 132.587 89.4515 131.595C89.7911 131.936 88.4056 134.529 88.2089 134.863C87.5463 136 86.6666 136.997 85.6195 137.799C83.5919 139.341 81.164 139.908 78.6477 139.888C77.9552 139.899 77.2634 139.841 76.5825 139.715C76.0282 139.608 75.4847 139.451 74.9585 139.247L76.9427 139.333C75.631 139.278 74.1191 138.754 72.925 138.235C71.1322 137.458 69.7859 136.281 68.5997 134.761L68.2741 134.311L70.0344 134.899C68.8638 131.99 68.4755 129.018 68.4556 125.864L66.681 127.159C66.8914 125.67 67.4605 124.252 68.3399 123.027C69.3486 121.638 70.715 120.545 72.2949 119.864C71.4317 120.722 70.89 121.848 70.76 123.055C70.6301 124.262 70.9199 125.476 71.581 126.495C70.9721 126.282 70.3771 126.026 69.7343 125.887C69.597 126.723 69.5601 127.573 69.6245 128.418C69.7252 130.118 70.0934 131.787 70.9577 133.275C71.7917 134.705 73.1772 135.997 74.764 136.549C75.5458 136.82 79.535 137.782 82.8359 135.177C83.6864 134.487 84.3652 133.611 84.8192 132.618C86.4883 128.979 84.3447 125.376 84.1178 125.011C82.7907 122.862 80.8365 121.904 80.022 121.517C79.0675 121.066 78.0492 120.761 77.0021 120.615C78.0027 121.852 79.3195 122.799 80.8147 123.356C79.2441 123.03 77.7523 122.404 76.4218 121.513C74.7846 120.404 73.5031 119.206 71.5253 117.2C70.888 116.549 70.3691 116 70.0225 115.618C68.5768 114.706 67.3091 113.54 66.2805 112.178C65.7102 111.439 65.2229 110.64 64.8271 109.795C64.2871 108.633 64.2921 108.165 63.7682 107.148C63.1758 106.772 62.5491 106.419 61.8834 106.078C60.3961 105.318 58.8364 104.707 57.2272 104.254C58.9688 101.603 58.6076 98.7931 57.1896 97.8133C56.1793 97.1162 54.795 97.4609 54.2974 97.6102C56.948 94.0186 57.9727 91.8926 57.3716 91.2321Z" fill="#F7A296"/>
</g>
<g filter="url(#filter6_d_1006_1983)">
<rect x="79.2067" y="63.1733" width="72.3357" height="106.554" rx="5.80035" transform="rotate(1.63782 79.2067 63.1733)" fill="url(#paint3_linear_1006_1983)"/>
<rect x="80.1862" y="64.2105" width="70.3182" height="104.537" rx="4.79159" transform="rotate(1.63782 80.1862 64.2105)" stroke="#C33523" stroke-width="2.01751"/>
</g>
<g filter="url(#filter7_d_1006_1983)">
<rect x="87.3311" y="72.3159" width="54.7564" height="89.8121" rx="3.78284" transform="rotate(1.63782 87.3311 72.3159)" fill="#C33523"/>
</g>
<g filter="url(#filter8_d_1006_1983)">
<path d="M95.637 94.0667C95.2387 93.5104 93.7905 93.6966 91.2925 94.6255C92.2094 92.8082 93.5301 91.2223 95.1544 89.9878C96.7788 88.7534 98.6642 87.9028 100.668 87.5006C100.131 87.1608 99.5504 86.8961 98.9413 86.7137C97.85 86.3935 96.6972 86.3388 95.5802 86.5544C98.0862 85.5116 100.697 84.7381 103.368 84.2469C105.186 83.9149 107.3 83.5419 110.108 83.6781C113.47 83.843 116.284 84.6442 116.264 84.7615C116.264 84.7859 116.127 84.7615 115.899 84.7139C114.916 84.6165 112.339 84.5645 110.53 86.4271C109.89 87.095 109.423 87.9079 109.17 88.7954C108.852 88.8873 106.965 89.4661 106.095 91.3409C105.755 92.0859 105.622 92.9078 105.709 93.7214C106.25 93.0851 106.847 92.4991 107.495 91.9706C107.938 91.6142 108.4 91.2817 108.879 90.9745C109.515 90.5567 110.174 90.1739 110.852 89.828L108.54 89.8712C109.198 89.5275 109.875 89.2215 110.569 88.9548C110.941 88.8109 111.219 88.718 111.382 88.6626C112.175 88.3948 113.315 87.9986 115.076 87.391C114.775 87.2616 114.464 87.1543 114.148 87.0701C113.643 86.9352 113.125 86.858 112.603 86.8399C113.281 86.7396 113.966 86.6967 114.652 86.7115C116.473 86.759 118.262 87.2008 119.894 88.0064C119.55 87.71 119.24 87.3759 118.972 87.0103C118.775 86.7432 118.6 86.4608 118.449 86.1659C118.026 85.3659 117.749 84.4972 117.632 83.6006C118.816 85.7675 120.009 86.4692 120.924 86.6827C121.391 86.7934 122.213 86.8742 123.169 87.4276C123.614 87.6865 123.965 87.9223 124.194 88.3904C124.335 88.6911 124.45 89.0037 124.536 89.3244C124.612 89.5989 124.638 89.8623 124.88 90.0438C125.191 90.2751 125.67 90.2098 126.013 90.0881C126.85 89.7981 127.169 88.8818 127.285 88.552C127.686 87.4043 127.305 86.353 127.147 85.9778C127.61 86.2808 128.003 86.6802 128.296 87.1487C128.634 87.6999 128.831 88.3255 128.869 88.9703C128.95 89.9663 128.631 90.2452 128.572 91.3032C128.519 92.04 128.62 92.7797 128.869 93.4757C129.598 95.3803 131.147 95.2243 132.164 97.1931C132.55 97.9401 132.216 97.7464 132.943 99.9211C133.256 100.854 133.442 101.83 133.815 102.741C133.962 103.062 134.037 103.411 134.036 103.763C134.035 104.116 133.957 104.464 133.808 104.784C133.396 105.735 133.348 106.804 133.675 107.788C133.926 108.557 134.524 108.746 135.186 108.281C135.263 108.228 135.342 108.178 135.434 108.117C135.126 108.993 134.906 109.898 134.779 110.818C134.763 110.928 134.749 111.047 134.735 111.161C134.591 111.139 134.443 111.111 134.29 111.079C133.138 110.82 132.06 110.305 131.136 109.573C131.277 109.565 131.388 109.573 131.496 109.553C131.985 109.479 132.122 109.152 131.794 108.785C131.625 108.597 131.422 108.441 131.196 108.326C130.843 108.141 130.507 107.922 130.195 107.674C130.323 107.651 130.447 107.613 130.567 107.563C130.789 107.469 131.112 107.329 131.254 107.01C131.397 106.69 131.302 106.34 131.211 106.132C131.063 105.756 130.856 105.406 130.596 105.096C129.99 104.297 129.221 103.634 128.339 103.15C128.497 103.869 128.415 104.368 128.302 104.706C128.231 104.916 128.098 105.212 127.932 105.776C127.871 105.968 127.826 106.166 127.796 106.365C127.697 106.963 127.861 107.481 128.361 107.838C128.755 108.121 129.189 108.351 129.595 108.598C128.855 108.849 128.06 108.892 127.297 108.723C126.379 108.507 125.558 107.996 124.961 107.271C125.099 107.246 125.233 107.199 125.358 107.133C125.595 107.004 125.791 106.813 125.926 106.58C126.105 106.274 126.201 105.927 126.204 105.573C126.278 104.154 126.316 103.444 126.065 102.899C125.71 102.125 125.117 101.716 124.508 101.3C123.572 100.659 123.043 100.31 122.443 100.193C122.665 100.033 122.986 99.64 123.974 99.702C124.412 99.729 124.839 99.8554 125.221 100.072C125.095 99.867 124.952 99.6734 124.794 99.4928C124.514 99.1607 124.177 98.8811 123.798 98.6672C123.336 98.4163 122.821 98.2761 122.295 98.2577L123.264 97.8316C123.015 97.0143 122.577 96.2662 121.986 95.647C121.674 95.3239 120.402 94.0246 118.368 93.9427C117.985 93.9272 116.218 93.8995 114.959 95.0904C114.56 95.4666 114.322 95.865 114.014 96.3708C113.513 97.2008 113.301 97.8671 113.065 98.6086C113.065 98.6086 112.725 99.6754 112.818 100.311C112.839 100.455 112.867 100.616 112.867 100.616C112.92 100.789 112.956 100.967 112.973 101.147C113.011 101.323 113.044 101.496 113.075 101.667C117.303 104.362 121.366 107.312 125.71 109.804C128.611 111.471 132.565 114.375 136.434 119.709C135.961 119.317 133.17 117.076 129.224 117.564C126.011 117.961 124.047 119.918 123.509 120.494C123.465 120.285 122.73 117.088 119.603 115.945C116.905 114.957 114.582 116.288 114.279 116.468C114.388 115.291 114.221 114.105 113.791 113.002C113.36 111.9 112.679 110.913 111.799 110.117C111.15 111.492 110.846 111.866 110.666 112.801C110.481 113.64 110.51 114.512 110.751 115.337C111.132 116.58 111.921 117.317 112.309 117.669C113.096 118.366 114.043 118.86 115.067 119.108C115.093 119.114 115.642 119.219 116.735 119.41C117.078 119.47 117.504 119.546 118.057 119.652C118.758 119.786 119.11 119.848 119.225 119.884C122.524 120.893 124.292 124.002 124.273 123.979C123.913 123.478 123.397 123.111 122.804 122.933C122.504 122.85 121.81 122.657 121.438 123.031C121.067 123.405 121.264 124.093 121.288 124.173C121.511 124.934 122.227 125.275 122.823 125.659C123.812 126.335 124.666 127.19 125.339 128.178C125.804 128.887 126.36 130.399 125.11 133.554C125.093 132.769 124.985 131.99 124.789 131.23C124.653 130.701 124.473 130.185 124.253 129.686C124.401 130.018 123.743 131.048 123.629 131.346C123.362 132.055 123.179 132.793 123.084 133.545C123.039 133.791 123.039 134.043 123.084 134.29C123.267 135.064 124.295 135.322 124.698 135.956C125.399 137.063 124.639 138.664 124.34 139.294C123.614 140.824 122.337 141.549 121.82 141.806C123.088 141.178 123.605 139.027 122.741 137.926C123.038 138.305 121.357 140.716 121.122 141.025C120.33 142.076 119.339 142.963 118.205 143.636C116.01 144.928 113.532 145.205 111.036 144.89C110.347 144.818 109.667 144.679 109.005 144.475C108.468 144.303 107.946 144.083 107.448 143.818L109.408 144.137C108.112 143.928 106.672 143.23 105.548 142.574C103.859 141.592 102.661 140.264 101.661 138.615L101.391 138.13L103.07 138.921C102.25 135.894 102.214 132.897 102.566 129.763L100.651 130.84C101.036 129.385 101.768 128.045 102.785 126.932C103.95 125.672 105.436 124.747 107.085 124.256C106.127 125.007 105.456 126.062 105.185 127.245C104.914 128.428 105.059 129.667 105.595 130.757C105.016 130.474 104.455 130.15 103.833 129.936C103.598 130.751 103.462 131.59 103.426 132.437C103.326 134.137 103.495 135.838 104.178 137.417C104.838 138.936 106.062 140.381 107.572 141.116C108.317 141.478 112.165 142.902 115.75 140.704C116.675 140.12 117.453 139.33 118.02 138.397C120.106 134.979 118.402 131.149 118.22 130.76C117.155 128.47 115.327 127.289 114.564 126.808C113.669 126.247 112.694 125.825 111.671 125.557C112.519 126.903 113.715 127.998 115.134 128.727C113.613 128.219 112.205 127.422 110.989 126.38C109.494 125.086 108.362 123.745 106.635 121.521C106.078 120.799 105.628 120.193 105.328 119.773C104 118.696 102.879 117.39 102.017 115.916C101.538 115.115 101.148 114.264 100.855 113.379C100.455 112.161 100.516 111.696 100.115 110.625C99.571 110.182 98.9902 109.757 98.3694 109.34C96.9819 108.41 95.505 107.62 93.9604 106.981C96.0019 104.554 95.9741 101.721 94.6813 100.581C93.7601 99.7695 92.3449 99.9488 91.8332 100.038C94.8882 96.784 96.1562 94.7934 95.637 94.0667Z" fill="#FDCBC5"/>
</g>
<g clip-path="url(#clip0_1006_1983)">
<path d="M111.261 159.674C109.5 159.657 108.079 158.348 108.088 156.751C108.096 155.045 109.572 153.677 111.374 153.706C113.134 153.735 114.568 155.15 114.545 156.831C114.524 158.451 113.091 159.692 111.261 159.674Z" fill="#FDCBC5"/>
<path d="M97.9167 155.684C99.3496 156.321 100.67 156.074 101.352 155.077C102.125 153.936 101.852 152.726 100.534 151.449C101.77 151.19 103.315 152.299 103.744 153.759C104.172 155.219 103.498 156.678 102.107 157.235C100.608 157.838 98.6526 157.138 97.9167 155.684Z" fill="#FDCBC5"/>
<path d="M124.66 156.483C124.082 157.692 122.191 158.328 120.754 157.837C119.365 157.363 118.606 155.995 118.92 154.542C119.263 152.965 120.751 151.864 122.439 151.992C121.213 152.883 120.562 154.001 121.279 155.424C121.996 156.847 123.273 156.898 124.66 156.483Z" fill="#FDCBC5"/>
<path d="M95.3839 147.138C96.4155 147.765 96.98 149.118 96.767 150.369C96.5697 151.524 95.6741 152.465 94.5637 152.681C93.2932 152.928 91.914 152.306 91.1311 151.07C92.4869 151.967 93.8425 152.278 95.0643 151.122C96.2862 149.966 96.1726 148.567 95.3839 147.138Z" fill="#FDCBC5"/>
<path d="M127.731 148.023C126.8 149.642 126.848 151.082 127.87 152.075C128.863 153.042 130.204 153.079 131.718 152.179C131.195 153.193 129.739 153.831 128.443 153.618C127.874 153.514 127.353 153.234 126.952 152.819C126.551 152.404 126.29 151.874 126.207 151.304C126.012 149.929 126.659 148.533 127.731 148.023Z" fill="#FDCBC5"/>
</g>
<g filter="url(#filter9_d_1006_1983)">
<path d="M205.03 180.65C204.635 180.478 200.055 178.397 199.182 173.533C198.526 169.868 200.23 166.107 203.548 163.923C201.93 164.237 199.262 164.783 195.994 165.568C182.51 168.815 175.14 170.687 170.802 176.577C169.957 177.729 168.716 179.719 167.958 182.748L178.896 181.177C178.842 182.853 178.838 184.6 178.896 186.414C179.044 191.059 179.582 195.683 180.503 200.238L199.555 196.171C198.896 195.563 196.516 193.219 196.51 189.848C196.507 185.794 199.932 181.887 205.03 180.65Z" fill="#F7A296"/>
</g>
<g filter="url(#filter10_d_1006_1983)">
<path d="M10.9701 180.65C11.3652 180.478 15.9446 178.397 16.8165 173.533C17.4736 169.868 15.7686 166.107 12.4519 163.923C14.0699 164.237 16.7337 164.783 20.0054 165.568C33.4892 168.815 40.8656 170.687 45.1988 176.577C46.0435 177.729 47.2853 179.719 48.0419 182.748L37.1046 181.177C37.158 182.853 37.1622 184.6 37.1046 186.414C36.9557 191.059 36.418 195.683 35.497 200.238L16.4445 196.171C17.1026 195.563 19.4835 193.219 19.4888 189.848C19.4961 185.794 16.0673 181.887 10.9701 180.65Z" fill="#F7A296"/>
</g>
<g filter="url(#filter11_d_1006_1983)">
<path d="M179.832 180.109C179.832 180.109 182.032 180.303 182.032 181.817C182.025 189.849 181.984 198.039 182.08 206.227C182.102 208.038 181.008 208.441 179.681 208.69C170.836 210.351 162.042 212.443 153.116 213.497C127.174 216.559 101.14 216.589 75.0814 214.789C60.4509 213.776 43.9498 211.186 35.1646 208.336C34.8072 208.227 34.494 208.006 34.2701 207.708C34.0463 207.409 33.9234 207.047 33.9193 206.674V181.831C34.4971 181.086 35.2534 180.497 36.1188 180.12C38.0396 179.307 40.0002 179.863 40.4276 179.972C44.751 181.061 88.5619 185.798 111.028 185.151C127.102 184.689 173.434 180.285 176.912 179.808C177.254 179.761 178.505 179.571 179.832 180.109Z" fill="#F7A296"/>
</g>
<path d="M50.0368 203.307C50.2201 204.013 50.4567 204.546 50.7468 204.906C51.0355 205.267 51.521 205.523 52.2019 205.67L52.1716 205.953C51.5869 205.858 51.012 205.711 50.4542 205.512C50.0143 205.36 49.59 205.167 49.187 204.934C48.8667 204.738 48.496 204.243 48.0748 203.447C46.0951 203.22 44.8153 202.664 44.2415 201.794C43.6287 201.137 43.17 200.351 42.8986 199.494C42.6162 198.621 42.5481 197.609 42.6944 196.458C42.9188 194.683 43.6602 193.28 44.9061 192.245C46.1519 191.21 47.5515 190.784 49.1176 190.964C50.6081 191.136 51.8249 191.867 52.7945 193.162C53.7642 194.457 54.1538 196 53.9685 197.793C53.8155 199.261 53.2876 200.511 52.3847 201.545C51.4794 202.577 50.69 203.164 50.0368 203.307ZM48.9499 191.592C47.9243 191.473 47.0564 191.759 46.3461 192.448C45.4474 193.305 44.8754 194.721 44.6299 196.698C44.392 198.639 44.6148 200.184 45.2982 201.333L46.0661 201.977L47.1089 202.461C47.9588 202.585 48.3484 202.325 48.2778 201.682C48.2652 201.503 48.2526 201.324 48.2413 201.145C48.2034 200.893 48.1669 200.653 48.129 200.409L47.7596 199.89L47.5377 199.75L47.1089 199.567L47.0812 199.469C48.4884 199.493 49.4417 200.419 49.9574 202.258C51.1242 201.165 51.806 199.69 52.0027 197.832C52.1573 196.391 52.0783 195.158 51.7656 194.135C51.5311 193.336 51.1675 192.731 50.6749 192.321C50.1849 191.912 49.5845 191.658 48.9499 191.592Z" fill="#881E11"/>
<path d="M67.0888 190.532L67.0611 190.871L66.626 190.837C66.3108 190.811 66.0166 190.995 65.7434 191.39C65.4761 191.709 65.3184 192.147 65.2743 192.68L64.6955 199.655C64.5921 200.898 64.3227 201.875 63.8873 202.586C63.4532 203.293 62.8203 203.856 62.0677 204.205C61.291 204.574 60.3192 204.704 59.1524 204.598C58.0268 204.467 57.2169 204.187 56.7226 203.758C56.0965 203.331 55.6453 202.692 55.4515 201.96C55.2509 201.274 55.1757 200.558 55.2296 199.845C55.4541 197.618 55.6794 195.391 55.9055 193.162C55.9215 192.742 55.8374 192.447 55.6533 192.279C55.4679 192.112 55.2411 191.997 54.9963 191.946L54.5601 191.901C54.5714 191.789 54.584 191.675 54.5954 191.563C56.1623 191.726 57.7305 191.882 59.3 192.031C59.2899 192.143 59.2785 192.257 59.2684 192.369L58.8309 192.329C58.3635 192.283 58.0184 192.351 57.7956 192.532C57.624 192.761 57.5176 193.033 57.488 193.318L56.8903 199.418C56.7339 201.015 56.9954 202.136 57.6746 202.782C58.179 203.362 58.7296 203.68 59.3264 203.735C60.4142 203.836 61.3511 203.566 62.1371 202.924C62.6919 202.039 63.0206 201.031 63.0941 199.989L63.741 192.47C63.8343 191.389 64.4219 190.619 65.5063 190.151C66.2469 190.215 66.7744 190.342 67.0888 190.532Z" fill="#881E11"/>
<path d="M70.5526 193.658C70.4323 195.305 70.313 196.953 70.1944 198.602C71.1292 198.67 72.0644 198.735 73.0001 198.797C73.7306 198.847 74.2244 198.772 74.4817 198.573C74.8179 198.305 75.0281 197.819 75.1121 197.115L75.4564 197.138C75.3664 198.585 75.2761 200.032 75.1853 201.479L74.8385 201.458C74.7855 200.848 74.7212 200.449 74.6418 200.27C74.5383 200.034 74.356 199.842 74.1261 199.725C73.8739 199.583 73.4805 199.493 72.9547 199.458C72.019 199.392 71.083 199.326 70.1465 199.26L69.8477 203.394C69.8073 203.947 69.8086 204.286 69.8477 204.402C69.8938 204.53 69.983 204.637 70.0999 204.705C70.226 204.784 70.4618 204.831 70.8123 204.86C71.5378 204.911 72.2637 204.961 72.99 205.009C73.7163 205.057 74.2513 205.041 74.5951 204.961C74.9602 204.863 75.2982 204.683 75.5837 204.435C75.6182 203.882 75.4753 203.254 75.155 202.551L76.102 202.628C76.45 203.737 76.8001 204.844 77.1523 205.949C73.4435 205.734 69.7371 205.48 66.0333 205.185L66.0598 204.845L66.5074 204.88C66.8114 204.907 67.1173 204.859 67.3989 204.741C67.5924 204.663 67.75 204.517 67.8415 204.329C67.9332 204.14 68.0025 203.738 68.0496 203.122C68.1521 201.79 68.2534 200.457 68.3535 199.124L67.0068 199.019C67.0244 198.806 67.0408 198.592 67.0572 198.379L68.4026 198.482C68.506 197.125 68.609 195.767 68.7116 194.408C68.7418 194.018 68.6801 193.723 68.53 193.525C68.3207 193.273 67.9558 193.125 67.4355 193.08L66.9992 193.046L67.0257 192.707C70.2546 192.959 73.4855 193.185 76.7186 193.385L76.7072 196.132L76.3441 196.109C76.2432 195.447 76.1209 194.989 75.9771 194.732C75.822 194.466 75.5929 194.251 75.3177 194.113C75.0655 194.01 74.6305 193.937 74.0126 193.896C72.8601 193.82 71.7067 193.741 70.5526 193.658Z" fill="#881E11"/>
<path d="M86.9147 192.592C86.8483 194.262 86.7806 195.931 86.7117 197.601L86.3863 197.593C86.3202 197.019 86.1452 196.462 85.8706 195.954C85.5918 195.503 85.221 195.116 84.7824 194.819C84.3403 194.49 83.8117 194.298 83.2617 194.267C82.9779 194.245 82.6929 194.287 82.427 194.389C82.1611 194.49 81.9208 194.649 81.7233 194.854C81.3235 195.239 81.0846 195.761 81.0551 196.316C81.0307 196.737 81.144 197.155 81.3779 197.506C81.7107 198.028 82.5392 198.753 83.872 199.672C84.9438 200.429 85.6756 201 86.0673 201.387C86.4558 201.774 86.7598 202.237 86.9601 202.748C87.1646 203.259 87.2591 203.808 87.2375 204.358C87.214 205.378 86.79 206.347 86.0572 207.056C85.3099 207.795 84.3747 208.139 83.2516 208.088C82.9232 208.074 82.5971 208.027 82.2782 207.948C81.8952 207.825 81.5197 207.68 81.1534 207.514C80.5835 207.271 80.2216 207.143 80.0665 207.136C79.9988 207.128 79.9303 207.136 79.8662 207.159C79.8021 207.182 79.7442 207.219 79.697 207.268C79.6062 207.364 79.5108 207.864 79.4108 208.767L79.0968 208.751C79.1952 206.95 79.2927 205.15 79.3893 203.349L79.6995 203.366C79.8155 204.357 79.9921 205.071 80.2291 205.509C80.5082 205.988 80.8972 206.394 81.364 206.693C81.8817 207.048 82.4895 207.248 83.1167 207.271C83.859 207.304 84.4579 207.104 84.9135 206.669C85.1327 206.467 85.3093 206.224 85.4331 205.953C85.557 205.681 85.6255 205.388 85.6348 205.091C85.6446 204.73 85.5735 204.371 85.4268 204.041C85.2575 203.659 85.015 203.314 84.7131 203.025C84.4886 202.815 83.8796 202.353 82.8859 201.638C81.8923 200.924 81.1904 200.354 80.7802 199.929C80.3882 199.537 80.0787 199.07 79.8698 198.556C79.67 198.049 79.5839 197.505 79.6176 196.961C79.6523 196.002 80.0503 195.092 80.731 194.415C81.4153 193.726 82.2643 193.406 83.2781 193.455C83.8508 193.471 84.412 193.62 84.9173 193.89C85.2434 194.078 85.5882 194.233 85.9463 194.35C86.1791 194.234 86.3939 193.645 86.5906 192.584L86.9147 192.592Z" fill="#881E11"/>
<path d="M99.0121 193.936L98.9843 197.08H98.6212C98.5657 196.576 98.4762 196.215 98.3526 195.997C98.185 195.668 97.9217 195.397 97.5973 195.22C97.2066 195.032 96.7774 194.938 96.3439 194.945C95.7555 194.933 95.1645 194.919 94.571 194.904C94.4575 199.359 94.3445 203.814 94.2318 208.27C94.2159 208.887 94.2911 209.266 94.4575 209.404C94.5753 209.527 94.7172 209.624 94.8743 209.689C95.0315 209.755 95.2004 209.786 95.3705 209.783L95.8219 209.794C95.8219 209.933 95.8156 210.072 95.8131 210.21C94.1041 210.172 92.3959 210.125 90.6886 210.07C90.6886 209.932 90.6974 209.793 90.7024 209.654L91.1728 209.669C91.3506 209.688 91.5303 209.666 91.6986 209.605C91.8669 209.545 92.0194 209.447 92.145 209.32C92.2938 209.136 92.377 208.765 92.3972 208.212L92.783 194.846C92.2786 194.832 91.7705 194.817 91.2585 194.799C90.6734 194.781 90.2498 194.812 89.9976 194.89C89.6569 195.006 89.3605 195.225 89.149 195.516C88.9081 195.824 88.7593 196.253 88.7001 196.806L88.3369 196.793L88.4542 193.655L88.8148 193.669C88.8148 193.77 88.8148 193.871 88.8047 193.972C92.0907 194.091 95.3776 194.18 98.6653 194.238C98.6653 194.137 98.6653 194.036 98.6653 193.935L99.0121 193.936Z" fill="#881E11"/>
<path d="M106.224 201.387C105.154 199.713 104.095 198.036 103.045 196.356C103.019 199.105 102.995 201.854 102.972 204.603C102.99 205.41 103.064 205.908 103.192 206.099C103.269 206.221 103.375 206.321 103.501 206.391C103.626 206.461 103.767 206.499 103.911 206.502H104.261C104.261 206.609 104.261 206.716 104.261 206.823C102.89 206.815 101.518 206.801 100.146 206.781C100.146 206.668 100.146 206.554 100.146 206.441H100.516C101.049 206.435 101.37 206.206 101.48 205.753C101.517 202.506 101.554 199.259 101.592 196.013C101.598 195.496 101.507 195.129 101.318 194.912C101.137 194.729 100.895 194.619 100.638 194.601H100.313V194.26C101.221 194.273 102.129 194.283 103.037 194.291C104.188 196.167 105.352 198.039 106.53 199.908C107.842 198.044 109.14 196.176 110.425 194.303C111.396 194.297 112.367 194.289 113.338 194.278V194.562L112.981 194.567C112.536 194.567 112.224 194.732 112.052 195.048C111.94 195.251 111.886 195.705 111.891 196.411L111.986 207.609C111.993 208.378 112.069 208.857 112.214 209.045C112.504 209.432 112.918 209.587 113.454 209.505L113.514 209.693C112.616 210.006 111.857 209.906 111.237 209.393C110.999 209.164 110.81 208.888 110.684 208.583C110.557 208.277 110.495 207.949 110.502 207.619L110.438 196.234C109.252 197.957 108.054 199.675 106.841 201.388L106.224 201.387Z" fill="#881E11"/>
<path d="M116.175 201.827C117.109 199.189 118.029 196.548 118.936 193.903H119.221C120.55 197.35 121.904 200.789 123.284 204.222C123.62 205.044 123.919 205.574 124.179 205.812C124.48 206.064 124.861 206.202 125.255 206.201L125.266 206.542C123.811 206.591 122.355 206.633 120.898 206.668L120.889 206.327C121.331 206.29 121.627 206.2 121.78 206.058C121.853 205.99 121.911 205.907 121.949 205.815C121.987 205.722 122.004 205.623 121.999 205.523C121.969 205.156 121.887 204.795 121.756 204.451C121.734 204.394 121.713 204.338 121.693 204.282C120.004 203.74 118.319 203.191 116.637 202.637C116.41 203.277 116.182 203.918 115.953 204.558C115.779 205.042 115.695 205.403 115.701 205.641C115.702 205.74 115.724 205.837 115.766 205.926C115.808 206.015 115.868 206.093 115.943 206.157C116.102 206.3 116.453 206.385 117.001 206.409C117.001 206.523 117.001 206.636 117.001 206.75C115.836 206.771 114.672 206.788 113.509 206.802V206.461C113.963 206.368 114.261 206.245 114.402 206.092C114.67 205.785 114.973 205.181 115.31 204.281C115.532 203.654 115.755 203.026 115.978 202.398C115.167 202.127 114.358 201.854 113.551 201.581L114.648 201.303L116.175 201.827ZM121.401 203.55C120.488 201.298 119.585 199.043 118.693 196.785C118.079 198.539 117.46 200.292 116.835 202.043C118.353 202.552 119.875 203.054 121.401 203.55Z" fill="#881E11"/>
<path d="M133.606 192.344C133.69 194.012 133.774 195.681 133.858 197.348L133.534 197.366C133.415 196.803 133.19 196.268 132.871 195.789C132.552 195.365 132.147 195.014 131.683 194.757C131.213 194.47 130.668 194.327 130.117 194.346C129.833 194.351 129.554 194.419 129.299 194.544C129.044 194.669 128.819 194.849 128.642 195.071C128.28 195.49 128.091 196.031 128.112 196.584C128.127 197.006 128.278 197.412 128.542 197.741C128.92 198.23 129.812 198.875 131.224 199.669C132.36 200.323 133.141 200.827 133.567 201.182C133.989 201.533 134.335 201.968 134.582 202.458C134.83 202.949 134.973 203.485 135.004 204.034C135.075 205.051 134.741 206.055 134.075 206.828C133.403 207.632 132.503 208.06 131.375 208.113C131.047 208.129 130.718 208.111 130.393 208.061C130.001 207.975 129.614 207.865 129.234 207.732C128.646 207.542 128.274 207.449 128.117 207.455C128.049 207.454 127.982 207.468 127.92 207.497C127.859 207.525 127.805 207.567 127.762 207.62C127.678 207.725 127.628 208.232 127.614 209.141L127.3 209.152C127.232 207.351 127.164 205.549 127.097 203.746L127.407 203.735C127.613 204.711 127.855 205.405 128.131 205.817C128.451 206.269 128.874 206.638 129.366 206.894C129.914 207.197 130.536 207.338 131.161 207.302C131.903 207.269 132.481 207.017 132.895 206.546C133.095 206.324 133.248 206.065 133.347 205.784C133.445 205.502 133.487 205.204 133.469 204.907C133.446 204.546 133.342 204.195 133.165 203.88C132.962 203.515 132.689 203.194 132.362 202.934C132.119 202.744 131.47 202.338 130.415 201.716C129.359 201.095 128.61 200.594 128.168 200.212C127.741 199.857 127.39 199.42 127.135 198.927C126.89 198.44 126.756 197.906 126.74 197.361C126.686 196.403 126.999 195.461 127.615 194.726C128.235 193.976 129.051 193.579 130.064 193.534C130.635 193.499 131.207 193.596 131.735 193.818C132.077 193.978 132.435 194.102 132.803 194.189C133.025 194.052 133.185 193.445 133.283 192.366L133.606 192.344Z" fill="#881E11"/>
<path d="M145.779 192.58C145.863 193.623 145.947 194.666 146.031 195.709L145.668 195.736C145.567 195.237 145.446 194.886 145.303 194.683C145.106 194.373 144.822 194.13 144.486 193.983C144.079 193.833 143.642 193.78 143.211 193.828L141.445 193.948L142.328 207.291C142.37 207.908 142.48 208.28 142.658 208.407C142.787 208.519 142.937 208.602 143.1 208.653C143.262 208.704 143.434 208.721 143.603 208.702L144.053 208.672C144.063 208.809 144.073 208.948 144.082 209.087C142.377 209.205 140.671 209.315 138.964 209.417C138.956 209.278 138.947 209.14 138.94 209.002L139.41 208.973C139.589 208.975 139.766 208.936 139.928 208.861C140.09 208.785 140.233 208.675 140.347 208.537C140.478 208.339 140.527 207.964 140.492 207.41C140.212 202.961 139.933 198.512 139.654 194.062L138.13 194.156C137.542 194.191 137.125 194.26 136.881 194.361C136.556 194.506 136.282 194.746 136.096 195.05C135.886 195.378 135.776 195.819 135.767 196.375L135.404 196.395L135.234 193.261L135.596 193.24C135.596 193.341 135.607 193.442 135.612 193.543C138.896 193.361 142.178 193.149 145.46 192.906L145.438 192.604L145.779 192.58Z" fill="#881E11"/>
<path d="M150.437 193.195C150.576 194.842 150.714 196.488 150.852 198.134C151.788 198.054 152.722 197.973 153.655 197.891C154.385 197.825 154.861 197.674 155.085 197.437C155.378 197.119 155.51 196.607 155.482 195.9L155.826 195.867L156.231 200.198L155.883 200.231C155.737 199.637 155.611 199.256 155.505 199.088C155.366 198.871 155.155 198.709 154.91 198.631C154.636 198.53 154.236 198.505 153.711 198.55C152.775 198.634 151.839 198.715 150.904 198.793L151.252 202.921C151.298 203.474 151.351 203.803 151.414 203.929C151.479 204.048 151.584 204.14 151.709 204.189C151.844 204.247 152.088 204.261 152.437 204.231C153.163 204.168 153.888 204.105 154.613 204.039C155.339 203.973 155.865 203.874 156.191 203.741C156.537 203.588 156.844 203.358 157.087 203.068C157.034 202.516 156.795 201.918 156.37 201.275L157.318 201.203C157.838 202.243 158.358 203.28 158.879 204.314C155.18 204.678 151.478 205.003 147.772 205.289C147.764 205.176 147.755 205.063 147.746 204.949L148.194 204.915C148.498 204.892 148.792 204.797 149.053 204.638C149.234 204.532 149.369 204.363 149.431 204.163C149.493 203.962 149.499 203.554 149.45 202.937L149.119 198.941C148.672 198.976 148.223 199.013 147.774 199.047C147.758 198.834 147.74 198.619 147.724 198.406L149.068 198.299C148.959 196.942 148.85 195.585 148.74 194.228C148.709 193.837 148.603 193.555 148.423 193.38C148.171 193.16 147.788 193.07 147.272 193.11L146.836 193.144L146.809 192.801C150.038 192.549 153.266 192.27 156.494 191.963C156.631 192.867 156.769 193.772 156.908 194.678L156.546 194.712C156.344 194.074 156.152 193.64 155.97 193.409C155.774 193.172 155.514 192.997 155.221 192.905C154.96 192.841 154.519 192.838 153.897 192.893C152.745 193 151.591 193.101 150.437 193.195Z" fill="#881E11"/>
<path d="M168.589 203.267C167.022 201.484 165.469 199.693 163.931 197.895C163.7 197.96 163.464 198.006 163.226 198.029L162.708 198.085C162.834 199.275 162.961 200.466 163.086 201.658C163.17 202.435 163.306 202.909 163.493 203.08C163.745 203.332 164.087 203.434 164.527 203.385L164.992 203.334L165.03 203.672C163.341 203.859 161.65 204.037 159.96 204.207L159.926 203.869L160.372 203.823C160.877 203.771 161.215 203.565 161.387 203.206C161.483 202.994 161.495 202.536 161.421 201.834L160.585 193.781C160.501 193.005 160.375 192.523 160.207 192.338C159.965 192.097 159.622 191.999 159.179 192.044L158.743 192.088L158.709 191.749C159.802 191.639 160.895 191.525 161.988 191.408C162.014 191.66 162.042 191.913 162.068 192.165C163.421 191.524 164.464 191.223 165.214 191.266C165.947 191.343 166.637 191.652 167.181 192.148C167.702 192.619 168.031 193.264 168.108 193.962C168.207 194.688 168.04 195.425 167.637 196.037C167.231 196.655 166.555 197.139 165.609 197.488C167.186 199.347 168.778 201.199 170.385 203.043C171.263 204.004 172.266 204.559 173.393 204.71C173.412 204.746 173.429 204.782 173.447 204.818C171.759 205.031 170.392 204.744 169.354 203.966C169.101 203.73 168.846 203.497 168.589 203.267ZM162.642 197.467L163.146 197.413C164.26 197.293 165.074 196.963 165.589 196.429C165.834 196.189 166.021 195.894 166.133 195.569C166.246 195.244 166.281 194.898 166.237 194.557C166.183 193.917 165.917 193.314 165.48 192.843C165.06 192.403 164.476 192.224 163.728 192.307C163.18 192.456 162.653 192.672 162.158 192.949C162.32 194.454 162.481 195.96 162.642 197.467Z" fill="#881E11"/>
<g filter="url(#filter12_d_1006_1983)">
<path d="M10.9701 35.3507C11.3651 35.5224 15.9445 37.6034 16.8174 42.4671C17.4734 46.1327 15.7695 49.8935 12.4518 52.0771C14.0698 51.763 16.7377 51.2173 20.0062 50.4318C33.4896 47.1852 40.8595 45.3137 45.1979 39.4236C46.0425 38.2716 47.2842 36.2817 48.0419 33.2519L37.1038 34.8228C37.1573 33.1471 37.1615 31.4002 37.1038 29.5863C36.956 24.9413 36.4182 20.317 35.4963 15.7619L16.4443 19.8296C17.1035 20.4371 19.4833 22.7809 19.4895 26.1522C19.4927 30.2063 16.0681 34.1128 10.9701 35.3507Z" fill="#F7A296"/>
</g>
<g filter="url(#filter13_d_1006_1983)">
<path d="M36.1673 35.8907C36.1673 35.8907 33.9678 35.6974 33.9678 34.183C33.9752 26.1512 34.016 17.9616 33.9197 9.77299C33.8977 7.96179 34.9921 7.55941 36.3192 7.31067C45.164 5.64892 53.9576 3.55762 62.8842 2.50309C88.8261 -0.559136 114.86 -0.588396 140.918 1.21132C155.549 2.22405 172.05 4.81387 180.835 7.66394C181.193 7.77359 181.506 7.99375 181.73 8.29263C181.953 8.59151 182.076 8.95364 182.08 9.32674L182.08 34.1694C181.503 34.9147 180.746 35.5031 179.881 35.8803C177.96 36.6934 176 36.1374 175.572 36.0287C171.249 34.9397 127.438 30.2021 104.972 30.849C88.8974 31.311 42.5656 35.7152 39.0873 36.1917C38.7459 36.2388 37.4943 36.429 36.1673 35.8907Z" fill="#F7A296"/>
</g>
<g filter="url(#filter14_d_1006_1983)">
<path d="M205.03 35.3507C204.635 35.5224 200.055 37.6034 199.183 42.4671C198.526 46.1327 200.231 49.8935 203.548 52.0771C201.93 51.763 199.266 51.2173 195.994 50.4318C182.511 47.1852 175.134 45.3137 170.801 39.4236C169.956 38.2716 168.714 36.2817 167.958 33.2519L178.895 34.8228C178.842 33.1471 178.838 31.4002 178.895 29.5863C179.044 24.9414 179.582 20.3171 180.503 15.7619L199.555 19.8296C198.897 20.4371 196.516 22.7809 196.511 26.1522C196.504 30.2063 199.933 34.1128 205.03 35.3507Z" fill="#F7A296"/>
</g>
<path d="M78.228 17.4363C78.9846 14.4453 79.7769 11.4573 80.6049 8.47224L80.9365 8.43945C82.7733 12.0954 84.5504 15.7681 86.2678 19.4576C86.6881 20.3403 87.0437 20.9056 87.3346 21.1536C87.6254 21.4016 88.021 21.5277 88.5211 21.5319C88.53 21.6579 88.5401 21.784 88.5489 21.9101C86.9794 22.0295 85.4104 22.164 83.8418 22.3136C83.8304 22.1875 83.8178 22.0615 83.8065 21.9354C84.2806 21.8631 84.595 21.7433 84.7496 21.576C84.8248 21.4961 84.8816 21.4008 84.9162 21.2967C84.9508 21.1926 84.9624 21.0822 84.9501 20.9733C84.8924 20.5723 84.7778 20.1817 84.6097 19.8132C84.5832 19.7527 84.5555 19.6871 84.529 19.6329C82.6392 19.1537 80.7365 18.6989 78.8207 18.2685C78.6366 18.9948 78.4542 19.7207 78.2734 20.4462C78.136 20.9934 78.0843 21.3982 78.1146 21.6592C78.1266 21.7654 78.1611 21.8679 78.2156 21.9598C78.2702 22.0518 78.3436 22.1311 78.4311 22.1926C78.6177 22.3326 79.0073 22.388 79.5999 22.3641L79.6416 22.7361C78.3915 22.8781 77.1415 23.0286 75.8915 23.1875C75.8751 23.0614 75.86 22.9353 75.8449 22.8092C76.3215 22.6516 76.6279 22.4813 76.7616 22.2972C77.0137 21.9303 77.2722 21.2355 77.5383 20.2129C77.7132 19.5051 77.8884 18.7952 78.0641 18.0832C77.1386 17.8764 76.2101 17.6742 75.2787 17.4767L76.464 17.0366C77.0541 17.1677 77.6421 17.301 78.228 17.4363ZM84.1545 18.8511C82.9902 16.4435 81.7969 14.0448 80.5747 11.6549C80.0299 13.6362 79.4995 15.6184 78.9833 17.6015C80.7167 18.0016 82.4413 18.4182 84.157 18.8511H84.1545Z" fill="#881E11"/>
<path d="M101.961 22.1825C100.717 23.4346 98.9212 24.0966 96.5469 24.2C94.8812 24.2769 93.2041 23.6956 91.4791 22.4347C89.8727 21.262 88.9459 19.2482 88.7303 16.3695C88.5487 13.9359 89.1376 11.8932 90.5397 10.2577C91.9419 8.62226 93.7299 7.74464 95.8735 7.64629C97.4863 7.57315 98.7737 7.88082 99.7459 8.55921C100.607 9.22499 101.043 9.9576 101.065 10.747C101.091 11.1451 100.97 11.539 100.723 11.8528C100.412 12.1668 99.93 12.3332 99.2756 12.3572C98.6211 12.3811 98.1647 12.0155 97.9465 11.2602C97.9188 10.5523 98.1222 10.1282 98.5568 9.98786C98.5316 9.69784 98.242 9.41749 97.688 9.14681C96.9762 8.73897 96.16 8.54995 95.3414 8.60334C94.2948 8.65252 93.2873 9.19977 92.3353 10.2426C91.2118 11.6435 90.7339 13.3949 90.8726 15.4831C91.058 18.2786 91.8322 20.2545 93.1675 21.4272C94.5344 22.6389 96.0337 23.2064 97.6931 23.137C99.2541 23.0727 100.572 22.6578 101.659 21.8761L101.961 22.1825Z" fill="#881E11"/>
<path d="M105.073 15.7366C106.129 12.8381 107.22 9.94632 108.344 7.06128H108.679C110.133 10.8845 111.525 14.719 112.855 18.5649C113.18 19.4896 113.476 20.0881 113.744 20.3605C114.011 20.6328 114.389 20.7976 114.879 20.8548C114.879 20.9809 114.872 21.107 114.87 21.233C113.296 21.1935 111.723 21.1683 110.15 21.1574C110.15 21.0313 110.15 20.9052 110.15 20.7791C110.628 20.7552 110.953 20.6681 111.123 20.5168C111.206 20.4449 111.273 20.3557 111.318 20.2556C111.363 20.1554 111.386 20.0466 111.384 19.9368C111.367 19.5324 111.293 19.1325 111.164 18.749C111.144 18.6859 111.122 18.6229 111.102 18.5611C109.271 17.897 107.427 17.2518 105.569 16.6256C105.312 17.3292 105.057 18.0328 104.804 18.7364C104.621 19.266 104.533 19.6632 104.533 19.9229C104.533 20.0308 104.556 20.1374 104.601 20.2355C104.646 20.3336 104.712 20.4209 104.794 20.4916C104.965 20.6492 105.347 20.7438 105.937 20.7804V21.1587C104.676 21.1696 103.419 21.1906 102.166 21.2217C102.166 21.0956 102.166 20.9695 102.157 20.8434C102.646 20.735 102.968 20.5912 103.119 20.426C103.409 20.0881 103.734 19.4173 104.103 18.4325C104.346 17.7415 104.593 17.0509 104.841 16.3608C103.944 16.0606 103.042 15.7664 102.137 15.4781C102.544 15.3713 102.951 15.2654 103.359 15.1603C103.934 15.3503 104.505 15.5424 105.073 15.7366ZM110.821 17.7465C109.907 15.2339 108.964 12.7263 107.993 10.2237C107.249 12.1395 106.52 14.0578 105.807 15.9787C107.489 16.5512 109.161 17.1404 110.821 17.7465Z" fill="#881E11"/>
<path d="M124.815 21.6731C123.5 19.4354 122.148 17.2077 120.76 14.9901C120.494 15.0216 120.226 15.0305 119.959 15.0166L119.376 14.9914C119.321 16.3078 119.266 17.6242 119.211 18.9407C119.177 19.7998 119.246 20.3374 119.419 20.5534C119.645 20.8687 119.997 21.0368 120.475 21.0578L120.979 21.0818L120.96 21.46C119.128 21.3693 117.295 21.2991 115.464 21.2495C115.464 21.1234 115.47 20.9973 115.474 20.8712L115.959 20.8851C116.508 20.9019 116.901 20.727 117.138 20.3605C117.272 20.1436 117.354 19.6468 117.38 18.8701C117.484 15.9035 117.587 12.9369 117.689 9.97031C117.719 9.11034 117.65 8.56687 117.48 8.3399C117.239 8.0398 116.861 7.88176 116.345 7.86579L115.841 7.85192C115.841 7.72582 115.847 7.59973 115.851 7.47363C117.13 7.50894 118.41 7.55097 119.689 7.59973C119.677 7.87714 119.666 8.15454 119.654 8.43195C121.303 7.96918 122.57 7.83552 123.419 8.02088C124.233 8.23413 124.959 8.7009 125.491 9.3537C125.981 9.95604 126.223 10.7228 126.167 11.4973C126.124 12.304 125.787 13.0669 125.218 13.6409C124.643 14.2294 123.803 14.6245 122.696 14.8262C124.095 17.1312 125.455 19.4472 126.776 21.774C127.506 22.9946 128.436 23.8092 129.577 24.224L129.608 24.3501C127.803 24.2001 126.439 23.6112 125.497 22.5608C125.269 22.2683 125.042 21.9724 124.815 21.6731ZM119.404 14.3042L119.968 14.3281C121.222 14.3836 122.182 14.173 122.854 13.6888C123.17 13.4771 123.433 13.1943 123.62 12.863C123.808 12.5318 123.915 12.1612 123.933 11.781C123.997 11.0736 123.812 10.3661 123.409 9.78116C123.014 9.22509 122.38 8.92246 121.511 8.87959C120.863 8.94762 120.225 9.09369 119.612 9.31461L119.404 14.3042Z" fill="#881E11"/>
<path d="M131.537 16.7379C132.877 13.9638 134.253 11.196 135.664 8.43457L135.996 8.46862C137.062 12.4196 138.066 16.3743 139.008 20.3329C139.238 21.2828 139.474 21.9082 139.714 22.2091C139.955 22.5101 140.317 22.7123 140.801 22.8157C140.785 22.9418 140.77 23.0678 140.753 23.1939C139.19 22.9956 137.624 22.8123 136.057 22.6442C136.07 22.5181 136.084 22.392 136.098 22.2659C136.577 22.2898 136.909 22.2369 137.094 22.1032C137.184 22.0405 137.259 21.9588 137.314 21.8637C137.369 21.7687 137.402 21.6628 137.412 21.5535C137.436 21.1489 137.402 20.7429 137.311 20.348C137.297 20.2837 137.283 20.2219 137.268 20.1551C135.51 19.3144 133.738 18.4877 131.951 17.6748C131.624 18.3473 131.3 19.0198 130.977 19.6923C130.732 20.1967 130.6 20.5817 130.579 20.8473C130.569 20.9548 130.582 21.0633 130.617 21.1654C130.652 21.2676 130.708 21.3611 130.782 21.44C130.936 21.6131 131.307 21.7468 131.893 21.8409L131.858 22.2192C130.605 22.1049 129.351 21.9998 128.096 21.904C128.106 21.7779 128.115 21.6518 128.125 21.5257C128.623 21.4677 128.957 21.3618 129.125 21.208C129.447 20.9003 129.839 20.2698 130.302 19.3165C130.615 18.655 130.93 17.993 131.247 17.3305C130.382 16.9422 129.514 16.5576 128.642 16.1768L129.89 15.9839C130.442 16.2369 130.991 16.4882 131.537 16.7379ZM137.065 19.314C136.404 16.7223 135.716 14.1332 135.001 11.5466C134.068 13.3775 133.15 15.2126 132.247 17.0519C133.862 17.7891 135.468 18.5432 137.065 19.314Z" fill="#881E11"/>
<defs>
<filter id="filter0_d_1006_1983" x="34.5729" y="51.5957" width="85.6867" height="114.922" filterUnits="userSpaceOnUse" color-interpolation-filters="sRGB">
<feFlood flood-opacity="0" result="BackgroundImageFix"/>
<feColorMatrix in="SourceAlpha" type="matrix" values="0 0 0 0 0 0 0 0 0 0 0 0 0 0 0 0 0 0 127 0" result="hardAlpha"/>
<feOffset dx="1.89142" dy="1.26095"/>
<feGaussianBlur stdDeviation="0.252189"/>
<feComposite in2="hardAlpha" operator="out"/>
<feColorMatrix type="matrix" values="0 0 0 0 0 0 0 0 0 0 0 0 0 0 0 0 0 0 0.25 0"/>
<feBlend mode="normal" in2="BackgroundImageFix" result="effect1_dropShadow_1006_1983"/>
<feBlend mode="normal" in="SourceGraphic" in2="effect1_dropShadow_1006_1983" result="shape"/>
</filter>
<filter id="filter1_d_1006_1983" x="43.8185" y="61.6343" width="65.633" height="96.0544" filterUnits="userSpaceOnUse" color-interpolation-filters="sRGB">
<feFlood flood-opacity="0" result="BackgroundImageFix"/>
<feColorMatrix in="SourceAlpha" type="matrix" values="0 0 0 0 0 0 0 0 0 0 0 0 0 0 0 0 0 0 127 0" result="hardAlpha"/>
<feOffset dy="0.504378"/>
<feGaussianBlur stdDeviation="0.252189"/>
<feComposite in2="hardAlpha" operator="out"/>
<feColorMatrix type="matrix" values="0 0 0 0 0 0 0 0 0 0 0 0 0 0 0 0 0 0 0.25 0"/>
<feBlend mode="normal" in2="BackgroundImageFix" result="effect1_dropShadow_1006_1983"/>
<feBlend mode="normal" in="SourceGraphic" in2="effect1_dropShadow_1006_1983" result="shape"/>
</filter>
<filter id="filter2_d_1006_1983" x="97.7046" y="45.6274" width="96.1316" height="120.301" filterUnits="userSpaceOnUse" color-interpolation-filters="sRGB">
<feFlood flood-opacity="0" result="BackgroundImageFix"/>
<feColorMatrix in="SourceAlpha" type="matrix" values="0 0 0 0 0 0 0 0 0 0 0 0 0 0 0 0 0 0 127 0" result="hardAlpha"/>
<feOffset dx="1.89142" dy="1.26095"/>
<feGaussianBlur stdDeviation="0.252189"/>
<feComposite in2="hardAlpha" operator="out"/>
<feColorMatrix type="matrix" values="0 0 0 0 0 0 0 0 0 0 0 0 0 0 0 0 0 0 0.25 0"/>
<feBlend mode="normal" in2="BackgroundImageFix" result="effect1_dropShadow_1006_1983"/>
<feBlend mode="normal" in="SourceGraphic" in2="effect1_dropShadow_1006_1983" result="shape"/>
</filter>
<filter id="filter3_d_1006_1983" x="106.814" y="55.8828" width="74.4658" height="99.8728" filterUnits="userSpaceOnUse" color-interpolation-filters="sRGB">
<feFlood flood-opacity="0" result="BackgroundImageFix"/>
<feColorMatrix in="SourceAlpha" type="matrix" values="0 0 0 0 0 0 0 0 0 0 0 0 0 0 0 0 0 0 127 0" result="hardAlpha"/>
<feOffset dy="0.504378"/>
<feGaussianBlur stdDeviation="0.252189"/>
<feComposite in2="hardAlpha" operator="out"/>
<feColorMatrix type="matrix" values="0 0 0 0 0 0 0 0 0 0 0 0 0 0 0 0 0 0 0.25 0"/>
<feBlend mode="normal" in2="BackgroundImageFix" result="effect1_dropShadow_1006_1983"/>
<feBlend mode="normal" in="SourceGraphic" in2="effect1_dropShadow_1006_1983" result="shape"/>
</filter>
<filter id="filter4_d_1006_1983" x="126.021" y="73.5005" width="41.5195" height="62.6941" filterUnits="userSpaceOnUse" color-interpolation-filters="sRGB">
<feFlood flood-opacity="0" result="BackgroundImageFix"/>
<feColorMatrix in="SourceAlpha" type="matrix" values="0 0 0 0 0 0 0 0 0 0 0 0 0 0 0 0 0 0 127 0" result="hardAlpha"/>
<feOffset dy="0.504378"/>
<feGaussianBlur stdDeviation="0.252189"/>
<feComposite in2="hardAlpha" operator="out"/>
<feColorMatrix type="matrix" values="0 0 0 0 0 0 0 0 0 0 0 0 0 0 0 0 0 0 0.25 0"/>
<feBlend mode="normal" in2="BackgroundImageFix" result="effect1_dropShadow_1006_1983"/>
<feBlend mode="normal" in="SourceGraphic" in2="effect1_dropShadow_1006_1983" result="shape"/>
</filter>
<filter id="filter5_d_1006_1983" x="52.6187" y="78.2488" width="48.7901" height="62.6494" filterUnits="userSpaceOnUse" color-interpolation-filters="sRGB">
<feFlood flood-opacity="0" result="BackgroundImageFix"/>
<feColorMatrix in="SourceAlpha" type="matrix" values="0 0 0 0 0 0 0 0 0 0 0 0 0 0 0 0 0 0 127 0" result="hardAlpha"/>
<feOffset dy="0.504378"/>
<feGaussianBlur stdDeviation="0.252189"/>
<feComposite in2="hardAlpha" operator="out"/>
<feColorMatrix type="matrix" values="0 0 0 0 0 0 0 0 0 0 0 0 0 0 0 0 0 0 0.25 0"/>
<feBlend mode="normal" in2="BackgroundImageFix" result="effect1_dropShadow_1006_1983"/>
<feBlend mode="normal" in="SourceGraphic" in2="effect1_dropShadow_1006_1983" result="shape"/>
</filter>
<filter id="filter6_d_1006_1983" x="76.3246" y="63.3367" width="77.4207" height="110.017" filterUnits="userSpaceOnUse" color-interpolation-filters="sRGB">
<feFlood flood-opacity="0" result="BackgroundImageFix"/>
<feColorMatrix in="SourceAlpha" type="matrix" values="0 0 0 0 0 0 0 0 0 0 0 0 0 0 0 0 0 0 127 0" result="hardAlpha"/>
<feOffset dx="1.89142" dy="1.26095"/>
<feGaussianBlur stdDeviation="0.252189"/>
<feComposite in2="hardAlpha" operator="out"/>
<feColorMatrix type="matrix" values="0 0 0 0 0 0 0 0 0 0 0 0 0 0 0 0 0 0 0.25 0"/>
<feBlend mode="normal" in2="BackgroundImageFix" result="effect1_dropShadow_1006_1983"/>
<feBlend mode="normal" in="SourceGraphic" in2="effect1_dropShadow_1006_1983" result="shape"/>
</filter>
<filter id="filter7_d_1006_1983" x="84.3662" y="72.4224" width="58.0968" height="92.1362" filterUnits="userSpaceOnUse" color-interpolation-filters="sRGB">
<feFlood flood-opacity="0" result="BackgroundImageFix"/>
<feColorMatrix in="SourceAlpha" type="matrix" values="0 0 0 0 0 0 0 0 0 0 0 0 0 0 0 0 0 0 127 0" result="hardAlpha"/>
<feOffset dy="0.504378"/>
<feGaussianBlur stdDeviation="0.252189"/>
<feComposite in2="hardAlpha" operator="out"/>
<feColorMatrix type="matrix" values="0 0 0 0 0 0 0 0 0 0 0 0 0 0 0 0 0 0 0.25 0"/>
<feBlend mode="normal" in2="BackgroundImageFix" result="effect1_dropShadow_1006_1983"/>
<feBlend mode="normal" in="SourceGraphic" in2="effect1_dropShadow_1006_1983" result="shape"/>
</filter>
<filter id="filter8_d_1006_1983" x="90.7881" y="83.6006" width="46.1506" height="62.4167" filterUnits="userSpaceOnUse" color-interpolation-filters="sRGB">
<feFlood flood-opacity="0" result="BackgroundImageFix"/>
<feColorMatrix in="SourceAlpha" type="matrix" values="0 0 0 0 0 0 0 0 0 0 0 0 0 0 0 0 0 0 127 0" result="hardAlpha"/>
<feOffset dy="0.504378"/>
<feGaussianBlur stdDeviation="0.252189"/>
<feComposite in2="hardAlpha" operator="out"/>
<feColorMatrix type="matrix" values="0 0 0 0 0 0 0 0 0 0 0 0 0 0 0 0 0 0 0.25 0"/>
<feBlend mode="normal" in2="BackgroundImageFix" result="effect1_dropShadow_1006_1983"/>
<feBlend mode="normal" in="SourceGraphic" in2="effect1_dropShadow_1006_1983" result="shape"/>
</filter>
<filter id="filter9_d_1006_1983" x="167.832" y="163.923" width="38.0805" height="37.45" filterUnits="userSpaceOnUse" color-interpolation-filters="sRGB">
<feFlood flood-opacity="0" result="BackgroundImageFix"/>
<feColorMatrix in="SourceAlpha" type="matrix" values="0 0 0 0 0 0 0 0 0 0 0 0 0 0 0 0 0 0 127 0" result="hardAlpha"/>
<feOffset dx="0.378284" dy="0.630473"/>
<feGaussianBlur stdDeviation="0.252189"/>
<feComposite in2="hardAlpha" operator="out"/>
<feColorMatrix type="matrix" values="0 0 0 0 0 0 0 0 0 0 0 0 0 0 0 0 0 0 0.25 0"/>
<feBlend mode="normal" in2="BackgroundImageFix" result="effect1_dropShadow_1006_1983"/>
<feBlend mode="normal" in="SourceGraphic" in2="effect1_dropShadow_1006_1983" result="shape"/>
</filter>
<filter id="filter10_d_1006_1983" x="10.844" y="163.923" width="38.0805" height="37.45" filterUnits="userSpaceOnUse" color-interpolation-filters="sRGB">
<feFlood flood-opacity="0" result="BackgroundImageFix"/>
<feColorMatrix in="SourceAlpha" type="matrix" values="0 0 0 0 0 0 0 0 0 0 0 0 0 0 0 0 0 0 127 0" result="hardAlpha"/>
<feOffset dx="0.378284" dy="0.630473"/>
<feGaussianBlur stdDeviation="0.252189"/>
<feComposite in2="hardAlpha" operator="out"/>
<feColorMatrix type="matrix" values="0 0 0 0 0 0 0 0 0 0 0 0 0 0 0 0 0 0 0.25 0"/>
<feBlend mode="normal" in2="BackgroundImageFix" result="effect1_dropShadow_1006_1983"/>
<feBlend mode="normal" in="SourceGraphic" in2="effect1_dropShadow_1006_1983" result="shape"/>
</filter>
<filter id="filter11_d_1006_1983" x="33.9193" y="179.685" width="149.548" height="38.0808" filterUnits="userSpaceOnUse" color-interpolation-filters="sRGB">
<feFlood flood-opacity="0" result="BackgroundImageFix"/>
<feColorMatrix in="SourceAlpha" type="matrix" values="0 0 0 0 0 0 0 0 0 0 0 0 0 0 0 0 0 0 127 0" result="hardAlpha"/>
<feOffset dx="0.882662" dy="1.26095"/>
<feGaussianBlur stdDeviation="0.252189"/>
<feComposite in2="hardAlpha" operator="out"/>
<feColorMatrix type="matrix" values="0 0 0 0 0 0 0 0 0 0 0 0 0 0 0 0 0 0 0.25 0"/>
<feBlend mode="normal" in2="BackgroundImageFix" result="effect1_dropShadow_1006_1983"/>
<feBlend mode="normal" in="SourceGraphic" in2="effect1_dropShadow_1006_1983" result="shape"/>
</filter>
<filter id="filter12_d_1006_1983" x="10.844" y="15.762" width="38.0805" height="37.45" filterUnits="userSpaceOnUse" color-interpolation-filters="sRGB">
<feFlood flood-opacity="0" result="BackgroundImageFix"/>
<feColorMatrix in="SourceAlpha" type="matrix" values="0 0 0 0 0 0 0 0 0 0 0 0 0 0 0 0 0 0 127 0" result="hardAlpha"/>
<feOffset dx="0.378284" dy="0.630473"/>
<feGaussianBlur stdDeviation="0.252189"/>
<feComposite in2="hardAlpha" operator="out"/>
<feColorMatrix type="matrix" values="0 0 0 0 0 0 0 0 0 0 0 0 0 0 0 0 0 0 0.25 0"/>
<feBlend mode="normal" in2="BackgroundImageFix" result="effect1_dropShadow_1006_1983"/>
<feBlend mode="normal" in="SourceGraphic" in2="effect1_dropShadow_1006_1983" result="shape"/>
</filter>
<filter id="filter13_d_1006_1983" x="33.9193" y="0" width="149.548" height="38.0805" filterUnits="userSpaceOnUse" color-interpolation-filters="sRGB">
<feFlood flood-opacity="0" result="BackgroundImageFix"/>
<feColorMatrix in="SourceAlpha" type="matrix" values="0 0 0 0 0 0 0 0 0 0 0 0 0 0 0 0 0 0 127 0" result="hardAlpha"/>
<feOffset dx="0.882662" dy="1.26095"/>
<feGaussianBlur stdDeviation="0.252189"/>
<feComposite in2="hardAlpha" operator="out"/>
<feColorMatrix type="matrix" values="0 0 0 0 0 0 0 0 0 0 0 0 0 0 0 0 0 0 0.25 0"/>
<feBlend mode="normal" in2="BackgroundImageFix" result="effect1_dropShadow_1006_1983"/>
<feBlend mode="normal" in="SourceGraphic" in2="effect1_dropShadow_1006_1983" result="shape"/>
</filter>
<filter id="filter14_d_1006_1983" x="167.832" y="15.762" width="38.0805" height="37.45" filterUnits="userSpaceOnUse" color-interpolation-filters="sRGB">
<feFlood flood-opacity="0" result="BackgroundImageFix"/>
<feColorMatrix in="SourceAlpha" type="matrix" values="0 0 0 0 0 0 0 0 0 0 0 0 0 0 0 0 0 0 127 0" result="hardAlpha"/>
<feOffset dx="0.378284" dy="0.630473"/>
<feGaussianBlur stdDeviation="0.252189"/>
<feComposite in2="hardAlpha" operator="out"/>
<feColorMatrix type="matrix" values="0 0 0 0 0 0 0 0 0 0 0 0 0 0 0 0 0 0 0.25 0"/>
<feBlend mode="normal" in2="BackgroundImageFix" result="effect1_dropShadow_1006_1983"/>
<feBlend mode="normal" in="SourceGraphic" in2="effect1_dropShadow_1006_1983" result="shape"/>
</filter>
<linearGradient id="paint0_linear_1006_1983" x1="108.063" y1="67.6497" x2="108.063" y2="245.38" gradientUnits="userSpaceOnUse">
<stop stop-color="#AA1300"/>
<stop offset="1" stop-color="#F7A296"/>
</linearGradient>
<linearGradient id="paint1_linear_1006_1983" x1="23.5609" y1="99.0019" x2="60.1097" y2="150.976" gradientUnits="userSpaceOnUse">
<stop stop-color="#E95D4A"/>
<stop offset="1" stop-color="#F7A296"/>
</linearGradient>
<linearGradient id="paint2_linear_1006_1983" x1="187.499" y1="68.9524" x2="147.137" y2="106.773" gradientUnits="userSpaceOnUse">
<stop stop-color="#E95D4A"/>
<stop offset="1" stop-color="#F7A296"/>
</linearGradient>
<linearGradient id="paint3_linear_1006_1983" x1="144.157" y1="87.7405" x2="103.796" y2="125.561" gradientUnits="userSpaceOnUse">
<stop stop-color="#E95D4A"/>
<stop offset="1" stop-color="#F7A296"/>
</linearGradient>
<clipPath id="clip0_1006_1983">
<rect width="40.6025" height="12.1051" fill="white" transform="translate(91.24 147.026) rotate(1.5426)"/>
</clipPath>
</defs>
</svg>
