<svg width="359" height="110" viewBox="0 0 359 110" fill="none" xmlns="http://www.w3.org/2000/svg">
<g filter="url(#filter0_d_1772_3551)">
<path fill-rule="evenodd" clip-rule="evenodd" d="M355 51.5948C342.89 54.7219 330.418 55.6066 318.078 54.2702C308.036 53.0226 298.254 50.3561 288.987 46.2651C284.091 60.5764 279.195 74.8879 274.299 89.1991C287.742 98.7558 303.912 103.547 320.257 101.824C329.298 100.87 337.997 98.012 345.951 93.3344C340.78 88.8954 335.609 84.4564 330.438 80.2194C338.607 70.5432 346.776 61.069 355 51.5948Z" fill="#FBE477"/>
</g>
<g filter="url(#filter1_d_1772_3551)">
<path fill-rule="evenodd" clip-rule="evenodd" d="M4 51.5948C16.1092 54.7219 28.5819 55.6066 40.9218 54.2702C50.9636 53.0226 60.7461 50.3561 70.0128 46.2651C74.9088 60.5764 79.8048 74.8879 84.7007 89.1991C71.2573 98.7558 55.0873 103.547 38.7426 101.824C29.7013 100.87 21.0027 98.012 13.0483 93.3344C18.2193 88.8954 23.3905 84.4564 28.5617 80.2194C20.3929 70.5432 12.224 61.069 4 51.5948Z" fill="#FBE477"/>
</g>
<path fill-rule="evenodd" clip-rule="evenodd" d="M33.169 18.1633C40.1655 16.4999 47.162 14.8365 54.3904 13.173C54.3251 14.3376 54.4916 15.7503 54.6582 16.6663C55.8245 15.2801 56.9904 13.8939 58.1566 12.6757C73.0381 10.0682 87.9195 7.62863 102.801 5.18907C103.745 6.13161 104.689 7.07415 105.633 8.06743C106.466 6.85251 107.299 5.68796 108.132 4.52378C129.988 1.77078 151.813 0.270777 173.599 0.0327168C182.488 -0.0642984 191.475 0.0558456 200.781 0.374503C219.369 1.0107 237.692 2.67563 256.059 5.02265C255.559 5.57713 255.177 6.46444 254.56 7.35139C257.059 6.74168 259.823 6.13161 262.056 5.52153C265.11 5.96519 268.164 6.40885 271.218 6.85251C272.44 8.06744 273.661 9.18087 274.883 10.3454C275.938 9.60102 276.993 8.68199 278.048 7.85027C293.651 11.1215 309.255 14.3928 324.858 17.6641C320.86 36.5156 316.862 55.3668 312.864 74.2184C309.81 73.9411 306.756 73.6639 303.702 73.3866C302.703 72.4993 301.703 71.6124 300.704 70.9668C299.704 71.5937 298.705 72.1668 297.705 72.8877C282.046 70.9668 266.387 68.5627 250.728 66.4004C250.617 65.2362 250.506 64.0717 250.395 62.9075C249.508 64.1829 248.507 65.4579 247.563 66.7333C242.677 66.3549 237.79 65.7351 232.904 65.2362C232.237 64.3288 231.571 62.7967 230.905 61.5769C230.349 62.7967 229.794 64.3288 229.239 65.2362C222.298 64.8482 215.357 64.4597 208.416 64.0717C207.287 63.0739 206.084 62.0758 204.917 61.0776C204.973 62.2653 205.244 63.1844 205.084 64.2381C200.006 63.74 195.036 63.3586 189.925 63.0739C185.328 62.8176 180.947 62.6407 176.431 62.5747C165.241 62.4041 153.67 62.975 141.782 64.2381C141.282 62.8519 140.877 61.4657 140.283 60.0799C138.894 61.7429 137.506 63.4064 136.118 65.0698C122.736 65.9568 109.353 66.8441 96.0856 67.8922C94.9716 66.8773 93.9723 65.5135 93.1205 64.4045C92.8617 65.5687 92.7504 66.7333 92.6395 67.8974C89.4745 68.1747 86.3092 68.4519 83.1442 68.7292C81.9227 67.6202 80.7012 66.5112 79.4793 65.4023C78.1468 67.0105 76.814 68.6183 75.4811 70.2262C65.7084 71.5571 55.9354 72.8878 46.1623 74.2184C42.0294 55.5332 37.4999 36.8485 33.169 18.1633Z" fill="#F7E799"/>
<path d="M103.418 49.5903L94.7117 38.1911C94.3072 38.2935 93.8362 38.3616 93.2988 38.3954L92.2625 38.4605L92.7285 45.753C92.8299 47.3394 93.0592 48.3141 93.4164 48.677C93.8874 49.2126 94.5579 49.4531 95.4279 49.3984L96.3492 49.3406L96.3933 50.0315L86.375 50.6607L86.3309 49.9698L87.2137 49.9143C88.2117 49.8517 88.8933 49.462 89.2586 48.7455C89.4628 48.3216 89.519 47.3932 89.4275 45.9603L88.3776 29.533C88.2763 27.9466 88.0589 26.9583 87.7257 26.5682C87.2563 26.0582 86.5738 25.8313 85.6782 25.8875L84.7954 25.943L84.7512 25.2521L91.3917 24.8351L91.4898 26.3703C94.2665 25.194 96.4051 24.6872 97.9056 24.8498C99.4383 25.1132 100.727 25.7773 101.771 26.8421C102.79 27.9085 103.346 29.171 103.439 30.6295C103.539 32.1903 103.152 33.5762 102.279 34.7871C101.406 35.998 100.012 36.9076 98.0984 37.5159L106.985 49.3277C108.606 51.3839 110.511 52.6387 112.698 53.0922L112.789 53.3177C109.463 53.5266 106.82 52.7806 104.862 51.0796L103.418 49.5903ZM92.1815 37.1939L93.1795 37.1312C95.4058 36.9914 97.0516 36.4128 98.1171 35.3953C99.2065 34.3506 99.7045 33.0991 99.6113 31.6406C99.5198 30.2077 99.0719 29.0283 98.2676 28.1026C97.4618 27.1513 96.3039 26.7231 94.7942 26.8179C93.7804 27.0357 92.7133 27.4238 91.5928 27.9823L92.1815 37.1939ZM113.1 41.0824C113.34 42.0179 113.731 43.1109 114.273 44.3613C116.002 46.8988 118.057 48.0928 120.437 47.9434C121.563 47.8726 122.512 47.4533 123.285 46.6855C124.058 45.9176 124.678 44.7611 125.145 43.2161L125.783 43.5613C125.611 45.2934 124.944 46.9025 123.78 48.3885C122.616 49.8746 121.074 50.6779 119.155 50.7984C116.556 50.7305 114.328 49.4446 112.472 46.9407C111.477 45.0251 110.904 42.903 110.755 40.5746C110.567 37.632 111.176 35.2945 112.581 33.562C113.986 31.8296 115.827 30.8919 118.105 30.7488C120.024 30.6283 121.605 31.0428 122.847 31.9924C124.115 32.9404 124.817 34.4762 124.953 36.6L113.1 41.0824ZM113.066 39.3504L121.167 36.4524C121.022 35.3826 120.832 34.6238 120.598 34.1761C120.246 33.5045 119.751 32.9833 119.11 32.6125C118.47 32.2416 117.817 32.0771 117.152 32.1189C116.103 32.1848 115.195 32.6528 114.428 33.5231C113.66 34.3677 113.206 36.3102 113.066 39.3504ZM138.149 44.75C136.47 46.2171 135.42 47.0794 135 47.337C134.329 47.6874 133.609 47.8868 132.842 47.935C131.665 48.0089 130.666 47.6606 129.846 46.89C129.026 46.1194 128.574 45.0816 128.491 43.7766C128.406 42.4461 128.635 41.2114 129.179 40.0725C129.81 39.0824 130.704 38.2041 131.863 37.4377C133.021 36.6713 134.903 35.7696 137.509 34.7324L137.467 34.08C137.405 33.1076 137.085 32.3185 136.507 31.7126C135.928 31.1066 135.115 30.8366 134.066 30.9025C133.272 30.9523 132.659 31.2092 132.226 31.6731C131.792 32.1114 131.593 32.6121 131.629 33.175L131.736 34.2473C131.772 34.8102 131.647 35.2676 131.361 35.6195C131.099 35.9443 130.725 36.1219 130.239 36.1524C129.778 36.1814 129.384 36.0391 129.055 35.7258C128.753 35.4108 128.583 34.9719 128.547 34.409C128.479 33.3343 128.966 32.3146 130.009 31.3499C131.052 30.3852 132.572 29.8402 134.568 29.7149C136.077 29.6201 137.335 29.798 138.34 30.2487C139.107 30.5859 139.696 31.1654 140.108 31.9873C140.373 32.5102 140.558 33.5904 140.662 35.228L141.035 41.062C141.14 42.6996 141.23 43.7087 141.306 44.0893C141.38 44.4444 141.498 44.681 141.659 44.7993C141.821 44.9176 141.991 44.9711 142.171 44.9599C142.375 44.947 142.551 44.8846 142.698 44.7726C142.944 44.603 143.415 44.1239 144.109 43.3352L144.175 44.3715C142.913 46.3262 141.642 47.3437 140.363 47.4241C139.748 47.4627 139.249 47.2885 138.865 46.9016C138.479 46.4891 138.24 45.7719 138.149 44.75ZM138.071 43.5218L137.583 35.8839C135.736 36.7449 134.555 37.3585 134.039 37.7249C132.793 38.7281 132.003 39.6383 131.67 40.4556C131.361 41.2457 131.23 42.0118 131.277 42.7539C131.538 43.611 131.955 44.3169 132.53 44.8717C133.105 45.4265 133.738 45.6821 134.429 45.6388C135.376 45.5793 136.59 44.8736 138.071 43.5218ZM148.947 12.4727L151.385 50.6239C151.454 51.6986 151.576 52.4102 151.753 52.7588C151.929 53.1074 152.127 53.3904 152.347 53.6078C152.566 53.8253 153.07 54.0762 153.859 54.3606L153.733 54.7925C150.258 54.7024 148.44 53.3779 148.276 50.8192L146.297 19.8453C146.174 17.9262 146.048 16.7524 145.917 16.3239C145.811 15.8681 145.651 15.5699 145.436 15.4292C145.246 15.2614 145.01 15.1863 144.728 15.2039C144.396 15.2248 143.98 15.3537 143.481 15.5905L143.132 14.9573L148.103 12.5257L148.947 12.4727ZM157.434 22.2672C157.945 22.2351 158.393 22.3997 158.775 22.761C159.182 23.0951 159.403 23.5308 159.437 24.0682C159.47 24.5799 159.306 25.0398 158.947 25.4477C158.613 25.854 158.191 26.0732 157.679 26.1054C157.141 26.1391 156.669 25.9762 156.26 25.6164C155.877 25.2551 155.67 24.8186 155.637 24.3068C155.603 23.7695 155.753 23.3105 156.089 22.9297C156.448 22.5218 156.896 22.301 157.434 22.2672ZM160.052 28.2684L160.933 42.0474C161.002 43.1221 161.111 43.8345 161.262 44.1847C161.439 44.5333 161.686 44.7875 162.005 44.9473C162.323 45.1072 162.892 45.1614 163.711 45.1099L163.755 45.8008L155.425 46.3239L155.381 45.6331C156.226 45.58 156.784 45.4679 157.055 45.2967C157.326 45.0999 157.526 44.8176 157.656 44.4497C157.811 44.0546 157.854 43.3198 157.785 42.2451L157.216 33.3406L156.979 32.0452C156.851 31.6423 156.692 31.3697 156.503 31.2274C156.314 31.0851 156.053 31.0244 155.721 31.0453C155.363 31.0678 154.946 31.1839 154.471 31.3935L154.422 30.6259L159.208 28.3215L160.052 28.2684ZM168.426 12.4439L169.422 28.0268L173.413 27.7761L173.512 29.3114L169.52 29.5621L170.724 48.4074C170.794 49.5077 170.995 50.2401 171.327 50.6046C171.684 50.9675 172.106 51.1337 172.592 51.1032C173.001 51.0775 173.39 50.9246 173.757 50.6446C174.15 50.363 174.434 49.9727 174.607 49.4737L175.337 49.4279C174.98 50.6834 174.412 51.644 173.632 52.3095C172.878 52.9734 172.079 53.3319 171.235 53.3849C170.672 53.4203 170.098 53.2893 169.514 52.9921C168.957 52.7188 168.519 52.2967 168.2 51.7258C167.906 51.1534 167.668 50.2435 167.486 48.9961L166.257 29.767L163.57 29.9358L163.472 28.4005L166.159 28.2317L165.521 18.2526C166.195 17.5423 166.688 16.8177 167.001 16.0787C167.419 15.3845 167.894 14.1729 168.426 12.4439ZM175.971 27.7696L182.65 27.3502L182.691 28.0027L182.384 28.022C181.924 28.0509 181.572 28.1757 181.329 28.3965C181.11 28.5901 181.01 28.8276 181.028 29.1091C181.035 29.6224 181.119 30.131 181.279 30.6347L184.698 40.709L188.994 29.5336C189.148 29.1385 189.213 28.7491 189.189 28.3653C189.177 28.1862 189.144 28.0598 189.088 27.9863C188.977 27.8648 188.831 27.7841 188.648 27.7441C188.464 27.6786 188.155 27.6595 187.72 27.6869L187.678 27.0344L192.86 26.7089L192.904 27.3998C192.523 27.4751 192.221 27.5711 191.997 27.6879C191.799 27.8031 191.584 28.0479 191.351 28.4222C191.28 28.5294 191.138 28.9108 190.923 29.5666L183.369 49.4629C182.915 50.8017 182.158 51.8126 181.096 52.4958C180.063 53.203 179.136 53.5823 178.317 53.6338C177.703 53.6723 177.193 53.5246 176.786 53.1904C176.355 52.8835 176.127 52.5254 176.101 52.1159C176.073 51.681 176.192 51.3267 176.457 51.0531C176.723 50.8052 177.113 50.6651 177.625 50.633C177.957 50.6121 178.424 50.6855 179.026 50.8532C179.472 51.005 179.747 51.0777 179.849 51.0713C180.156 51.052 180.478 50.8648 180.815 50.5096C181.18 50.1785 181.527 49.5786 181.856 48.7101L183.366 43.9911L178.726 30.4867C178.553 30.1893 178.286 29.8208 177.924 29.3811C177.621 29.0661 177.389 28.8495 177.227 28.7312C176.963 28.6193 176.558 28.5163 176.012 28.4221L175.971 27.7696Z" fill="#881E11"/>
<path d="M228.858 48.8046C226.32 50.8327 222.869 51.6418 218.504 51.232C215.44 50.9444 212.535 49.4098 209.787 46.6281C207.229 44.0187 206.203 40.0595 206.71 34.7506C207.139 30.2584 208.791 26.718 211.666 24.1293C214.566 21.543 217.866 20.4236 221.568 20.7711C224.35 21.0323 226.496 21.8904 228.006 23.3455C229.339 24.7583 229.936 26.1921 229.797 27.647C229.721 28.4382 229.441 29.0814 228.956 29.5767C228.341 30.0855 227.459 30.286 226.31 30.1781C225.136 30.0679 224.45 29.2953 224.252 27.8604C224.376 26.5586 224.832 25.8289 225.62 25.6711C225.646 25.1327 225.212 24.5511 224.319 23.9265C223.22 23.025 221.917 22.5036 220.411 22.3622C218.599 22.192 216.725 22.9304 214.791 24.5772C212.464 26.831 211.116 29.8849 210.748 33.739C210.255 38.8948 211.048 42.729 213.126 45.2419C215.248 47.836 217.828 49.2757 220.865 49.5609C223.724 49.8293 226.228 49.369 228.377 48.18L228.858 48.8046ZM238.707 13.6113L235.071 51.6671C234.969 52.7391 234.977 53.4609 235.096 53.8326C235.215 54.2043 235.366 54.5146 235.548 54.7635C235.731 55.0124 236.189 55.3387 236.923 55.7424L236.729 56.1491C233.312 55.5193 231.726 53.9283 231.97 51.3759L234.921 20.4795C235.104 18.5652 235.165 17.3863 235.104 16.9428C235.072 16.4762 234.961 16.1568 234.771 15.9844C234.609 15.789 234.388 15.6781 234.107 15.6517C233.775 15.6206 233.344 15.6831 232.814 15.8394L232.57 15.1598L237.864 13.5322L238.707 13.6113ZM252.652 31.4149C253.129 29.657 254.698 28.7356 257.359 28.6506L257.3 29.2631C256.423 29.2838 255.913 30.0343 255.772 31.5146L254.722 42.5026C254.534 44.4679 254.47 45.6851 254.528 46.1541C254.588 46.5976 254.712 46.9182 254.9 47.1161C255.087 47.3139 255.321 47.426 255.601 47.4524C255.984 47.4883 256.429 47.4142 256.936 47.23L257.142 47.906L251.843 49.1855L250.962 49.1028L251.273 45.8485C249.667 47.2944 248.466 48.1345 247.671 48.3689C246.878 48.5778 246.048 48.6415 245.18 48.56C243.926 48.2105 243.016 47.6229 242.451 46.7973C241.677 45.4627 241.371 43.8116 241.533 41.8439L242.261 34.2251C242.314 33.4059 242.265 32.8348 242.116 32.5118C241.969 32.1632 241.704 31.8293 241.323 31.5102L240.331 31.3785L240.397 30.6893L244.034 31.0308L245.46 32.2849L244.472 42.622C244.338 44.0258 244.509 45.0719 244.984 45.7603C245.377 46.235 246.019 46.5142 246.913 46.5981C247.449 46.6484 248.075 46.5655 248.791 46.3495C249.507 46.1334 250.37 45.5964 251.379 44.7382L252.652 31.4149ZM264.189 35.8587C265.98 34.0954 267.833 33.3036 269.748 33.4833C271.509 33.6487 272.99 34.4573 274.191 35.9091C275.419 37.3378 275.909 39.3539 275.66 41.9573C275.37 44.9946 274.128 47.3502 271.933 49.0242C270.046 50.4437 268.031 51.0528 265.886 50.8515C264.891 50.758 263.899 50.4847 262.912 50.0315C261.925 49.5783 260.93 48.9441 259.926 48.1287L262.325 23.0134C262.511 21.0736 262.573 19.882 262.512 19.4385C262.454 18.9695 262.33 18.6488 262.14 18.4765C261.979 18.2811 261.745 18.169 261.439 18.1402C261.081 18.1067 260.637 18.168 260.107 18.3243L259.901 17.6483L265.234 16.0243L266.076 16.1033L264.189 35.8587ZM264.072 37.0838L263.096 47.306C263.698 48.0064 264.328 48.5549 264.986 48.9514C265.646 49.3224 266.346 49.5426 267.086 49.6121C268.261 49.7224 269.405 49.1989 270.52 48.0417C271.635 46.8845 272.306 45.119 272.533 42.7453C272.743 40.5503 272.406 38.819 271.522 37.5515C270.641 36.2584 269.563 35.5519 268.286 35.4321C267.597 35.3674 266.891 35.4814 266.167 35.774C265.66 35.9582 264.962 36.3948 264.072 37.0838Z" fill="#881E11"/>
<defs>
<filter id="filter0_d_1772_3551" x="270.453" y="46.2651" width="88.3927" height="63.5967" filterUnits="userSpaceOnUse" color-interpolation-filters="sRGB">
<feFlood flood-opacity="0" result="BackgroundImageFix"/>
<feColorMatrix in="SourceAlpha" type="matrix" values="0 0 0 0 0 0 0 0 0 0 0 0 0 0 0 0 0 0 127 0" result="hardAlpha"/>
<feOffset dy="3.84598"/>
<feGaussianBlur stdDeviation="1.92299"/>
<feComposite in2="hardAlpha" operator="out"/>
<feColorMatrix type="matrix" values="0 0 0 0 0 0 0 0 0 0 0 0 0 0 0 0 0 0 0.25 0"/>
<feBlend mode="normal" in2="BackgroundImageFix" result="effect1_dropShadow_1772_3551"/>
<feBlend mode="normal" in="SourceGraphic" in2="effect1_dropShadow_1772_3551" result="shape"/>
</filter>
<filter id="filter1_d_1772_3551" x="0.154021" y="46.2651" width="88.3927" height="63.5967" filterUnits="userSpaceOnUse" color-interpolation-filters="sRGB">
<feFlood flood-opacity="0" result="BackgroundImageFix"/>
<feColorMatrix in="SourceAlpha" type="matrix" values="0 0 0 0 0 0 0 0 0 0 0 0 0 0 0 0 0 0 127 0" result="hardAlpha"/>
<feOffset dy="3.84598"/>
<feGaussianBlur stdDeviation="1.92299"/>
<feComposite in2="hardAlpha" operator="out"/>
<feColorMatrix type="matrix" values="0 0 0 0 0 0 0 0 0 0 0 0 0 0 0 0 0 0 0.25 0"/>
<feBlend mode="normal" in2="BackgroundImageFix" result="effect1_dropShadow_1772_3551"/>
<feBlend mode="normal" in="SourceGraphic" in2="effect1_dropShadow_1772_3551" result="shape"/>
</filter>
</defs>
</svg>
