<svg width="360" height="286" viewBox="0 0 360 286" fill="none" xmlns="http://www.w3.org/2000/svg">
<g filter="url(#filter0_d_1099_2757)">
<path d="M112.987 214.142L108.412 220.578C116.049 220.945 120.709 218.293 123.458 211.857C125.46 206.663 129.391 202.444 134.431 200.079C145.043 195.027 155.5 189.627 165.947 184.41C166.24 187.52 166.814 191.014 166.762 194.458C166.76 195.364 165.183 196.792 164.107 197.063C158.478 198.453 153.17 200.214 150.404 206.065C150.011 206.794 148.303 207.664 147.666 207.388C143.378 205.53 141.835 208.392 140.199 211.325C137.327 216.612 133.111 221.049 127.978 224.189C125.335 225.957 123.187 228.369 121.734 231.196L129.148 227.706L130.073 229.233L122.717 234.114C125.787 240.944 129.509 241.943 134.335 236.848C137.421 233.748 140.042 230.219 142.118 226.369C146.817 216.992 155.002 213.652 164.517 212.278C168.688 211.684 173.018 211.883 177.058 210.854C179.548 210.154 181.681 208.538 183.026 206.33C190.732 191.353 199.812 177.482 212.889 166.583C214.297 165.604 215.791 164.755 217.354 164.047L219.004 165.522C217.384 168.53 216.112 171.814 214.04 174.468C211.968 177.122 209.205 178.984 207.241 182.094C210.514 180.928 213.848 179.916 217.052 178.59C224.299 175.633 232.2 174.643 239.956 175.719C242.485 175.949 244.891 176.913 246.879 178.493C248.866 180.074 250.349 182.2 251.143 184.611C253.937 192.054 253.399 199.56 251.307 207.057C250.803 208.876 250.217 210.661 249.607 212.676L277.742 197.53C286.16 206.058 280.468 217.111 283.242 227.795C286.83 222.165 289.482 217.059 293.022 212.687C297.265 207.223 302.061 202.211 307.334 197.731C313.053 193.073 318.525 194.397 323.352 200.205C324.02 201.018 324.802 201.826 325.687 202.812C331.074 196.737 332.629 189.436 334.267 182.269C336.995 170.371 342.601 159.803 349.08 149.671C349.99 148.249 352.613 147.816 354.532 147.191C355.611 146.833 356.848 147.002 358.166 146.341C353.49 142.132 347.393 139.85 341.104 139.955C336.076 140.043 331.053 140.432 326.03 140.39C323.32 140.367 320.229 140.415 317.965 139.217C311.334 135.71 305.193 136.757 298.941 139.857C296.636 140.992 294.36 142.198 292.084 143.382L291.126 140.93L295.782 137.999C293.2 136.142 290.518 134.428 287.749 132.863C287.003 132.461 285.425 133.501 284.306 134.037C282.572 134.872 280.976 136.356 279.181 136.627C276.493 137.036 275.083 137.825 275.076 140.795C275.069 141.61 273.627 142.867 272.635 143.129C268.117 144.439 263.513 145.435 258.857 146.108C256.452 146.302 254.045 145.747 251.967 144.519C246.227 141.127 245.568 138.406 248.977 132.635C250.872 129.626 253.007 126.776 255.363 124.112C262.106 116.048 268.918 108.034 275.798 100.073C277.84 97.701 280.208 95.6051 282.424 93.3824L283.983 94.2888L281.484 101.677L282.1 102.197L291.593 93.8012C292.329 86.6455 292.459 86.5275 298.857 91.0814C298.811 90.0912 298.675 89.1072 298.45 88.1416C296.12 81.6228 297.395 76.2174 302.732 71.5301C303.99 70.4278 304.9 66.7273 304.205 66.0655C302.786 64.7149 300.188 64.1771 298.051 64.0979C294.974 63.9766 291.881 64.7869 288.813 64.8139C285.379 64.8209 282.399 64.9291 279.353 67.3569C276.308 69.7847 272.096 70.8653 268.555 72.8161C266.751 73.8014 265.291 75.4027 263.673 76.7204L264.313 77.8945L270.627 77.9026C265.091 84.4393 260.265 90.8064 254.733 96.4721C249.888 101.422 244.601 105.919 238.938 109.909C236.524 111.616 232.843 111.877 229.686 112.088C228.241 112.183 225.285 110.214 225.398 109.778C226.002 107.272 227.1 104.913 228.629 102.839C229.395 101.869 231.607 102.055 234.138 101.506C230.701 97.8847 224.184 97.3912 225.398 90.847L221.491 94.5244C219.772 92.2933 218.656 88.5737 214.745 91.8067C215.46 92.9222 216.188 94.0772 217.131 95.5917L212.373 96.8646C212.321 100.574 218.636 102.285 215.682 107.007C206.15 106.359 197.413 103.044 189.127 98.7893C183.764 96.0316 180.825 90.9097 180.441 84.9085C179.973 77.7678 179.98 70.363 184.043 64.1596C188.671 57.1113 188.946 49.1878 189.898 41.3636C189.885 40.6706 189.724 39.9883 189.426 39.3623C189.128 38.7364 188.7 38.1812 188.17 37.7339C175.461 27.4355 162.753 17.137 149.827 7.11929C146.476 4.52841 142.319 2.96233 138.511 0.910518C138.227 1.37829 137.993 1.87475 137.813 2.39168C142.235 6.27893 139.812 9.17464 136.575 12.1628C128.487 19.6138 119.398 24.8993 108.211 25.7815C102.913 26.1882 97.6132 26.4947 92.3288 27.0194C91.4508 27.0881 90.6974 28.0753 89.9045 28.6432C90.6986 29.4724 91.5929 30.1995 92.5668 30.8077C96.5938 32.6572 101.462 33.5004 104.607 36.2679C114.102 44.6244 114.926 58.8021 107.083 68.8393C104.547 72.1279 101.417 75.041 98.6245 78.1692C97.5875 79.3132 96.6699 80.5437 95.6922 81.7418L96.2958 83.1064C99.3117 82.5202 102.31 81.9248 105.343 81.3478C109.637 80.5877 113.919 79.5005 118.245 79.2337C126.689 78.7196 130.181 83.2662 127.014 91.1351C124.672 96.917 121.191 102.228 118.212 107.755L119.203 108.831L123.623 106.79C132.462 102.707 141.487 101.423 150.984 104.683C153.947 105.58 156.62 107.246 158.731 109.51C160.842 111.774 162.316 114.556 163.003 117.574C164.345 122.886 164.721 128.451 165.542 133.869L167.024 144.178C172.368 133.07 183.452 134.598 190.36 128.391L191.913 130.334C189.859 132.544 188.113 135.208 185.684 136.862C182.649 138.942 179.074 140.277 175.668 141.792C169.273 144.604 163.758 148.267 159.693 154.126C156.915 158.069 151.25 159.527 150.208 165.28C150.029 166.289 146.67 166.69 144.4 167.557C145.669 170.663 143.543 171.816 140.606 173.651C134.326 177.564 128.833 182.787 122.733 186.941C102.675 200.69 82.5802 214.386 62.2806 227.784C46.7213 238.053 30.79 247.801 17.4766 261.027C12.2151 266.252 7.62113 272.169 2.85897 277.885C1.94071 278.993 1.68933 280.671 2.0824 282.796C6.02321 279.59 10.1758 276.587 13.9141 273.161C29.9228 258.568 48.033 246.81 66.5911 235.802C75.918 230.301 85.6709 225.406 95.4226 220.699C100.981 218.022 107.024 216.336 112.987 214.142Z" fill="url(#paint0_linear_1099_2757)"/>
</g>
<defs>
<filter id="filter0_d_1099_2757" x="0.60332" y="0.610156" width="358.863" height="284.486" filterUnits="userSpaceOnUse" color-interpolation-filters="sRGB">
<feFlood flood-opacity="0" result="BackgroundImageFix"/>
<feColorMatrix in="SourceAlpha" type="matrix" values="0 0 0 0 0 0 0 0 0 0 0 0 0 0 0 0 0 0 127 0" result="hardAlpha"/>
<feOffset dy="1"/>
<feGaussianBlur stdDeviation="0.65"/>
<feComposite in2="hardAlpha" operator="out"/>
<feColorMatrix type="matrix" values="0 0 0 0 0 0 0 0 0 0 0 0 0 0 0 0 0 0 0.46 0"/>
<feBlend mode="normal" in2="BackgroundImageFix" result="effect1_dropShadow_1099_2757"/>
<feBlend mode="normal" in="SourceGraphic" in2="effect1_dropShadow_1099_2757" result="shape"/>
</filter>
<linearGradient id="paint0_linear_1099_2757" x1="232.734" y1="64.1749" x2="102.379" y2="187.734" gradientUnits="userSpaceOnUse">
<stop stop-color="#FFF5D1"/>
<stop offset="1" stop-color="#FFC626"/>
</linearGradient>
</defs>
</svg>
