<svg width="592" height="48" viewBox="0 0 592 48" fill="none" xmlns="http://www.w3.org/2000/svg">
<path d="M15.8371 6.408C18.7811 6.408 21.8851 7.848 25.1491 10.728C28.1571 14.408 29.6611 18.056 29.6611 21.672C29.6611 25.704 28.6531 29.384 26.6371 32.712C25.1651 35.208 22.5091 37.112 18.6691 38.424C17.2611 38.808 16.0451 39 15.0211 39C9.03713 39 4.62113 35.592 1.77313 28.776C1.13313 26.728 0.81313 24.488 0.81313 22.056C0.81313 17.192 2.57313 13.192 6.09313 10.056C7.34113 9.256 8.70113 8.792 10.1731 8.664C11.8691 7.16 13.7571 6.408 15.8371 6.408ZM11.4211 10.632C11.5491 11.944 12.2371 12.872 13.4851 13.416C14.2531 13.032 14.8451 12.84 15.2611 12.84C15.9971 12.84 16.4451 13.336 16.6051 14.328C16.5411 14.968 15.7891 15.448 14.3491 15.768C12.1411 15.768 10.8291 14.12 10.4131 10.824C9.42113 11.144 8.50913 11.944 7.67713 13.224C6.36513 16.136 5.70913 19.336 5.70913 22.824C5.70913 28.296 7.18113 32.552 10.1251 35.592C11.6291 36.744 13.1651 37.32 14.7331 37.32C17.7411 37.32 20.1731 36.024 22.0291 33.432C23.7891 30.232 24.6691 26.792 24.6691 23.112C24.6691 19.4 23.8211 15.928 22.1251 12.696C20.3011 10.104 17.9651 8.808 15.1171 8.808C12.8451 8.808 11.6131 9.416 11.4211 10.632ZM61.5834 1.704V2.568H60.4794C59.6794 2.568 58.9754 3.096 58.3674 4.152C57.7594 5.016 57.4554 6.136 57.4554 7.512V25.272C57.4554 28.44 56.9914 30.968 56.0634 32.856C55.1354 34.744 53.7594 36.248 51.9354 37.368C50.1114 38.456 47.7594 39 44.8794 39C42.0954 38.936 40.0474 38.424 38.7354 37.464C37.0714 36.504 35.8874 35.096 35.1834 33.24C34.5434 31.64 34.1914 29.88 34.1274 27.96V10.92C34.0634 9.864 33.7754 9.144 33.2634 8.76C32.6554 8.344 32.0794 8.12 31.5354 8.088H30.4314V7.224H42.3354V8.088H41.2314C40.0474 8.088 39.1994 8.344 38.6874 8.856C38.3354 9.4 38.1434 10.088 38.1114 10.92V26.472C38.1114 30.536 39.0234 33.304 40.8474 34.776C42.2234 36.12 43.6474 36.792 45.1194 36.792C47.8074 36.792 50.0474 35.896 51.8394 34.104C52.9914 31.832 53.5674 29.288 53.5674 26.472V7.32C53.5674 4.568 54.8794 2.488 57.5034 1.08C59.3914 1.08 60.7514 1.288 61.5834 1.704ZM84.0043 39L74.0683 24.12C73.5563 24.216 72.9643 24.264 72.2923 24.264H70.9963V33.384C70.9963 35.368 71.2043 36.6 71.6203 37.08C72.1643 37.784 72.9803 38.136 74.0683 38.136H75.2203V39H62.6923V38.136H63.7963C65.0443 38.136 65.9243 37.704 66.4363 36.84C66.7243 36.328 66.8683 35.176 66.8683 33.384V12.84C66.8683 10.856 66.6763 9.608 66.2923 9.096C65.7483 8.424 64.9163 8.088 63.7963 8.088H62.6923V7.224H70.9963V9.144C74.5483 7.896 77.2523 7.432 79.1083 7.752C80.9963 8.2 82.5483 9.128 83.7643 10.536C84.9483 11.944 85.5403 13.56 85.5403 15.384C85.5403 17.336 84.9483 19.032 83.7643 20.472C82.5803 21.912 80.7723 22.936 78.3403 23.544L88.4683 38.952C90.3243 41.64 92.5963 43.352 95.2843 44.088L95.3803 44.376C91.2203 44.376 87.9883 43.24 85.6843 40.968L84.0043 39ZM70.9963 22.68H72.2443C75.0283 22.68 77.1243 22.088 78.5323 20.904C79.9723 19.688 80.6923 18.168 80.6923 16.344C80.6923 14.552 80.2283 13.048 79.3003 11.832C78.3723 10.584 76.9643 9.96 75.0763 9.96C73.7963 10.152 72.4363 10.552 70.9963 11.16V22.68ZM123.09 31.128L116.754 13.8L111.858 27.048L123.09 31.128ZM110.226 26.472L117.522 6.504H118.242L127.698 32.952C128.466 35.064 129.154 36.44 129.762 37.08C130.402 37.688 131.282 38.04 132.402 38.136V39H121.65V38.136C122.738 38.072 123.474 37.864 123.858 37.512C124.242 37.16 124.434 36.712 124.434 36.168C124.434 35.496 124.258 34.584 123.906 33.432L123.762 33L111.33 28.536L109.554 33.384C109.106 34.6 108.882 35.512 108.882 36.12C108.882 36.632 109.074 37.08 109.458 37.464C109.842 37.816 110.706 38.04 112.05 38.136V39H103.458V38.136C104.578 37.912 105.314 37.608 105.666 37.224C106.338 36.456 107.106 34.936 107.97 32.664L109.698 27.912L103.698 25.752L106.434 25.08L110.226 26.472ZM143.687 36.696C145.447 37.144 146.919 37.368 148.103 37.368C151.335 37.368 154.007 36.104 156.119 33.576C158.231 31.016 159.287 27.544 159.287 23.16C159.287 18.776 158.231 15.32 156.119 12.792C154.007 10.264 151.287 9 147.959 9C146.711 9 145.287 9.64 143.687 10.92V36.696ZM163.991 22.968C163.991 27.416 162.839 31.128 160.535 34.104C157.847 37.304 153.975 38.936 148.919 39H135.623V38.136H136.679C137.863 38.136 138.695 37.72 139.175 36.888C139.527 36.312 139.703 35.144 139.703 33.384V12.84C139.703 10.888 139.511 9.64 139.127 9.096C138.583 8.424 137.767 8.088 136.679 8.088H135.623V7.224H143.639V9.288C146.071 7.912 148.775 7.224 151.751 7.224C155.239 7.224 158.503 9.288 161.543 13.416C163.175 16.456 163.991 19.64 163.991 22.968ZM189.96 1.368C193.64 0.631998 195.816 0.951998 196.488 2.328C196.68 3.928 196.216 6.04 195.096 8.664L183.768 39H181.848L171.384 12.216C170.84 10.84 170.456 10.008 170.232 9.72C169.88 9.208 169.448 8.824 168.936 8.568C168.424 8.312 167.752 8.152 166.92 8.088V7.224H178.392V8.088C177.08 8.216 176.232 8.456 175.848 8.808C175.464 9.16 175.272 9.608 175.272 10.152C175.272 10.92 175.592 12.12 176.232 13.752L183.336 31.944L189.96 13.944C191.944 8.28 192.936 5.096 192.936 4.392C192.936 3.976 192.728 3.56 192.312 3.144C191.928 2.728 191.272 2.424 190.344 2.232C190.248 2.232 190.12 2.216 189.96 2.184V1.368ZM208.913 8.952V21.528H215.921C217.745 21.528 218.961 21.256 219.569 20.712C220.369 19.976 220.817 18.712 220.913 16.92H221.777V27.96H220.913C220.689 26.424 220.465 25.432 220.241 24.984C219.985 24.44 219.521 24.008 218.849 23.688C218.209 23.368 217.233 23.208 215.921 23.208H208.913V33.72C208.913 35.128 208.977 35.992 209.105 36.312C209.233 36.6 209.457 36.84 209.777 37.032C210.097 37.192 210.689 37.272 211.553 37.272H216.929C218.753 37.272 220.065 37.144 220.865 36.888C221.665 36.632 222.449 36.136 223.217 35.4C223.217 33.992 222.769 32.424 221.873 30.696L224.225 30.744L227.297 39H199.889V38.136H200.993C201.761 38.136 202.481 37.96 203.153 37.608C203.633 37.352 203.969 36.984 204.161 36.504C204.353 35.992 204.449 34.952 204.449 33.384V23.208H201.089V21.576H204.449V11.208C204.449 10.216 204.241 9.48 203.825 9C203.249 8.392 202.305 8.088 200.993 8.088H199.889V7.224H224.369L224.753 14.184H223.841C223.489 12.52 223.105 11.384 222.689 10.776C222.305 10.136 221.729 9.64 220.961 9.288C220.321 9.064 219.217 8.952 217.649 8.952H208.913ZM230.002 7.224H238.642L255.97 29.592V7.752C256.098 5.704 256.994 4.2 258.658 3.24C260.194 2.472 262.178 2.296 264.61 2.712V3.576H263.506C262.162 3.576 261.202 3.976 260.626 4.776C260.274 5.352 260.098 6.488 260.098 8.184V39.528H259.282L238.786 13.944V33.48C238.786 35.432 239.01 36.648 239.458 37.128C240.034 37.8 240.946 38.136 242.194 38.136H243.298V39H230.434V38.04H231.538C232.882 38.04 233.842 37.768 234.418 37.224C234.834 36.68 235.042 35.32 235.042 33.144V11.064C234.722 10.232 234.386 9.64 234.034 9.288C233.458 8.744 232.802 8.408 232.066 8.28C231.618 8.152 230.93 8.088 230.002 8.088V7.224ZM291.249 6.456L291.297 14.424H290.385C290.225 13.144 289.985 12.232 289.665 11.688C289.185 10.824 288.545 10.184 287.745 9.768C286.945 9.352 285.889 9.144 284.577 9.144H280.113V43.08C280.113 44.648 280.321 45.608 280.737 45.96C281.313 46.568 282.065 46.872 282.993 46.872H284.097V47.928H271.569V46.872H272.721C273.681 46.904 274.465 46.584 275.073 45.912C275.425 45.432 275.601 44.488 275.601 43.08V9.144H271.761C270.289 9.144 269.233 9.256 268.593 9.48C267.793 9.768 267.105 10.312 266.529 11.112C265.953 11.912 265.617 13.016 265.521 14.424H264.609V6.456H265.521V7.224H290.385V6.456H291.249ZM323.223 1.704V2.568H322.119C321.319 2.568 320.615 3.096 320.007 4.152C319.399 5.016 319.095 6.136 319.095 7.512V25.272C319.095 28.44 318.631 30.968 317.703 32.856C316.775 34.744 315.399 36.248 313.575 37.368C311.751 38.456 309.399 39 306.519 39C303.735 38.936 301.687 38.424 300.375 37.464C298.711 36.504 297.527 35.096 296.823 33.24C296.183 31.64 295.831 29.88 295.767 27.96V10.92C295.703 9.864 295.415 9.144 294.903 8.76C294.295 8.344 293.719 8.12 293.175 8.088H292.071V7.224H303.975V8.088H302.871C301.687 8.088 300.839 8.344 300.327 8.856C299.975 9.4 299.783 10.088 299.751 10.92V26.472C299.751 30.536 300.663 33.304 302.487 34.776C303.863 36.12 305.287 36.792 306.759 36.792C309.447 36.792 311.687 35.896 313.479 34.104C314.631 31.832 315.207 29.288 315.207 26.472V7.32C315.207 4.568 316.519 2.488 319.143 1.08C321.031 1.08 322.391 1.288 323.223 1.704ZM345.644 39L335.708 24.12C335.196 24.216 334.604 24.264 333.932 24.264H332.636V33.384C332.636 35.368 332.844 36.6 333.26 37.08C333.804 37.784 334.62 38.136 335.708 38.136H336.86V39H324.332V38.136H325.436C326.684 38.136 327.564 37.704 328.076 36.84C328.364 36.328 328.508 35.176 328.508 33.384V12.84C328.508 10.856 328.316 9.608 327.932 9.096C327.388 8.424 326.556 8.088 325.436 8.088H324.332V7.224H332.636V9.144C336.188 7.896 338.892 7.432 340.748 7.752C342.636 8.2 344.188 9.128 345.404 10.536C346.588 11.944 347.18 13.56 347.18 15.384C347.18 17.336 346.588 19.032 345.404 20.472C344.22 21.912 342.412 22.936 339.98 23.544L350.108 38.952C351.964 41.64 354.236 43.352 356.924 44.088L357.02 44.376C352.86 44.376 349.628 43.24 347.324 40.968L345.644 39ZM332.636 22.68H333.884C336.668 22.68 338.764 22.088 340.172 20.904C341.612 19.688 342.332 18.168 342.332 16.344C342.332 14.552 341.868 13.048 340.94 11.832C340.012 10.584 338.604 9.96 336.716 9.96C335.436 10.152 334.076 10.552 332.636 11.16V22.68ZM364.717 8.952V21.528H371.725C373.549 21.528 374.765 21.256 375.373 20.712C376.173 19.976 376.621 18.712 376.717 16.92H377.581V27.96H376.717C376.493 26.424 376.269 25.432 376.045 24.984C375.789 24.44 375.325 24.008 374.653 23.688C374.013 23.368 373.037 23.208 371.725 23.208H364.717V33.72C364.717 35.128 364.781 35.992 364.909 36.312C365.037 36.6 365.261 36.84 365.581 37.032C365.901 37.192 366.493 37.272 367.357 37.272H372.733C374.557 37.272 375.869 37.144 376.669 36.888C377.469 36.632 378.253 36.136 379.021 35.4C379.021 33.992 378.573 32.424 377.677 30.696L380.029 30.744L383.101 39H355.693V38.136H356.797C357.565 38.136 358.285 37.96 358.957 37.608C359.437 37.352 359.773 36.984 359.965 36.504C360.157 35.992 360.253 34.952 360.253 33.384V23.208H356.893V21.576H360.253V11.208C360.253 10.216 360.045 9.48 359.629 9C359.053 8.392 358.109 8.088 356.797 8.088H355.693V7.224H380.173L380.557 14.184H379.645C379.293 12.52 378.909 11.384 378.493 10.776C378.109 10.136 377.533 9.64 376.765 9.288C376.125 9.064 375.021 8.952 373.453 8.952H364.717ZM415.947 31.128L409.611 13.8L404.715 27.048L415.947 31.128ZM403.083 26.472L410.379 6.504H411.099L420.555 32.952C421.323 35.064 422.011 36.44 422.619 37.08C423.259 37.688 424.139 38.04 425.259 38.136V39H414.507V38.136C415.595 38.072 416.331 37.864 416.715 37.512C417.099 37.16 417.291 36.712 417.291 36.168C417.291 35.496 417.115 34.584 416.763 33.432L416.619 33L404.187 28.536L402.411 33.384C401.963 34.6 401.739 35.512 401.739 36.12C401.739 36.632 401.931 37.08 402.315 37.464C402.699 37.816 403.563 38.04 404.907 38.136V39H396.315V38.136C397.435 37.912 398.171 37.608 398.523 37.224C399.195 36.456 399.963 34.936 400.827 32.664L402.555 27.912L396.555 25.752L399.291 25.08L403.083 26.472ZM441.108 16.632L445.716 31.032L452.724 7.416C453.332 5.944 453.636 4.84 453.636 4.104C453.636 3.784 453.54 3.464 453.348 3.144C453.156 2.824 452.9 2.6 452.58 2.472C452.068 2.248 451.38 2.136 450.516 2.136V1.32C454.452 1.032 456.484 1.528 456.612 2.808C456.932 3.704 456.564 6.36 455.508 10.776L446.676 39H444.708L438.9 19.368L432.228 39L430.644 38.952L422.292 13.224C421.652 11.304 421.252 10.168 421.092 9.816C420.836 9.24 420.468 8.808 419.988 8.52C419.508 8.232 418.852 8.088 418.02 8.088V7.272H428.436V8.088H427.956C427.22 8.088 426.66 8.28 426.276 8.664C425.892 9.016 425.7 9.448 425.7 9.96C425.7 10.504 426.004 11.736 426.612 13.656L432.132 31.032L436.98 16.632C437.204 16.056 437.492 15.624 437.844 15.336C438.196 15.08 438.628 14.952 439.14 14.952C439.652 14.952 440.084 15.096 440.436 15.384C440.788 15.64 441.012 16.056 441.108 16.632ZM470.224 31.128L463.888 13.8L458.992 27.048L470.224 31.128ZM457.36 26.472L464.656 6.504H465.376L474.832 32.952C475.6 35.064 476.288 36.44 476.896 37.08C477.536 37.688 478.416 38.04 479.536 38.136V39H468.784V38.136C469.872 38.072 470.608 37.864 470.992 37.512C471.376 37.16 471.568 36.712 471.568 36.168C471.568 35.496 471.392 34.584 471.04 33.432L470.896 33L458.464 28.536L456.688 33.384C456.24 34.6 456.016 35.512 456.016 36.12C456.016 36.632 456.208 37.08 456.592 37.464C456.976 37.816 457.84 38.04 459.184 38.136V39H450.592V38.136C451.712 37.912 452.448 37.608 452.8 37.224C453.472 36.456 454.24 34.936 455.104 32.664L456.832 27.912L450.832 25.752L453.568 25.08L457.36 26.472ZM496.725 38.136V39H483.141V38.136H484.245C485.557 38.136 486.517 37.752 487.125 36.984C487.509 36.472 487.701 35.272 487.701 33.384V12.84C487.701 11.24 487.589 10.184 487.365 9.672C487.205 9.256 486.885 8.92 486.405 8.664C485.733 8.28 485.013 8.088 484.245 8.088H483.141V7.224H496.725V8.088H495.573C494.261 8.088 493.317 8.472 492.741 9.24C492.325 9.752 492.117 10.952 492.117 12.84V33.384C492.117 34.984 492.229 36.04 492.453 36.552C492.613 36.936 492.933 37.272 493.413 37.56C494.085 37.944 494.805 38.136 495.573 38.136H496.725ZM527.013 6.456L527.061 14.424H526.149C525.989 13.144 525.749 12.232 525.429 11.688C524.949 10.824 524.309 10.184 523.509 9.768C522.709 9.352 521.653 9.144 520.341 9.144H515.877V43.08C515.877 44.648 516.085 45.608 516.501 45.96C517.077 46.568 517.829 46.872 518.757 46.872H519.861V47.928H507.333V46.872H508.485C509.445 46.904 510.229 46.584 510.837 45.912C511.189 45.432 511.365 44.488 511.365 43.08V9.144H507.525C506.053 9.144 504.997 9.256 504.357 9.48C503.557 9.768 502.869 10.312 502.293 11.112C501.717 11.912 501.381 13.016 501.285 14.424H500.373V6.456H501.285V7.224H526.149V6.456H527.013ZM550.347 3.912V16.632H549.531C549.211 14.936 548.715 13.576 548.043 12.552C547.403 11.528 546.459 10.616 545.211 9.816C543.963 8.984 542.667 8.568 541.323 8.568C539.787 8.568 538.523 9.128 537.531 10.248C536.539 11.368 536.043 12.632 536.043 14.04C536.043 15.128 536.363 16.12 537.003 17.016C537.899 18.296 540.059 20.024 543.483 22.2C546.235 23.992 548.107 25.368 549.099 26.328C550.123 27.256 550.907 28.376 551.451 29.688C552.027 30.968 552.315 32.312 552.315 33.72C552.315 36.408 551.435 38.728 549.675 40.68C547.915 42.632 545.659 43.608 542.907 43.608C542.075 43.608 541.275 43.528 540.507 43.368C540.059 43.272 539.115 42.952 537.675 42.408C536.267 41.864 535.371 41.592 534.987 41.592C534.603 41.592 534.299 41.72 534.075 41.976C533.883 42.232 533.723 43.512 533.595 45.816H532.827V32.088H533.595C534.011 34.584 534.539 36.376 535.179 37.464C535.819 38.52 536.795 39.464 538.107 40.296C539.419 41.128 540.875 41.544 542.475 41.544C544.299 41.544 545.739 40.968 546.795 39.816C547.883 38.664 548.427 37.304 548.427 35.736C548.427 34.872 548.219 33.992 547.803 33.096C547.387 32.2 546.763 31.368 545.931 30.6C545.355 30.088 543.787 28.984 541.227 27.288C538.699 25.592 536.891 24.248 535.803 23.256C534.747 22.232 533.931 21.112 533.355 19.896C532.811 18.648 532.539 17.304 532.539 15.864C532.539 13.304 533.355 11.112 534.987 9.288C536.619 7.432 538.715 6.504 541.275 6.504C542.843 6.504 544.235 6.808 545.451 7.416C546.475 7.928 547.355 8.28 548.091 8.472C548.667 8.152 549.147 6.632 549.531 3.912H550.347ZM560.779 34.44C561.515 34.44 562.123 34.696 562.603 35.208C563.115 35.72 563.371 36.328 563.371 37.032C563.371 37.768 563.115 38.392 562.603 38.904C562.123 39.416 561.515 39.672 560.779 39.672C560.075 39.672 559.467 39.416 558.955 38.904C558.443 38.392 558.187 37.768 558.187 37.032C558.187 36.328 558.443 35.72 558.955 35.208C559.467 34.696 560.075 34.44 560.779 34.44ZM574.699 34.44C575.435 34.44 576.043 34.696 576.523 35.208C577.035 35.72 577.291 36.328 577.291 37.032C577.291 37.768 577.035 38.392 576.523 38.904C576.043 39.416 575.435 39.672 574.699 39.672C573.995 39.672 573.387 39.416 572.875 38.904C572.363 38.392 572.107 37.768 572.107 37.032C572.107 36.328 572.363 35.72 572.875 35.208C573.387 34.696 573.995 34.44 574.699 34.44ZM588.619 34.44C589.355 34.44 589.963 34.696 590.443 35.208C590.955 35.72 591.211 36.328 591.211 37.032C591.211 37.768 590.955 38.392 590.443 38.904C589.963 39.416 589.355 39.672 588.619 39.672C587.915 39.672 587.307 39.416 586.795 38.904C586.283 38.392 586.027 37.768 586.027 37.032C586.027 36.328 586.283 35.72 586.795 35.208C587.307 34.696 587.915 34.44 588.619 34.44Z" fill="black"/>
</svg>
