<svg xmlns="http://www.w3.org/2000/svg" width="35" height="37" fill="none" viewBox="0 0 35 37"><path fill="#281f65" d="M17.37.77c9.592 0 17.369 7.978 17.369 17.82 0 9.112-6.665 16.625-15.265 17.69V24.037h4.699l.974-5.446h-5.673v-1.926c0-1.439.275-2.435.906-3.071s1.618-.913 3.042-.913c.36 0 .692.003.987.01.428.011.777.03 1.02.056V7.81a5 5 0 0 0-.34-.082 15 15 0 0 0-1.041-.174c-.813-.109-1.744-.186-2.395-.186-2.63 0-4.617.577-6.005 1.773-1.674 1.443-2.475 3.787-2.475 7.104v2.346H9.592v5.446h3.581v11.85C5.608 33.961 0 26.948 0 18.59 0 8.748 7.777.77 17.37.77"/></svg>