<svg xmlns="http://www.w3.org/2000/svg" width="35" height="26" fill="none" viewBox="0 0 35 26"><path fill="#281f65" fill-rule="evenodd" d="M33.151 2.828a4.4 4.4 0 0 1 1.123 1.974C35 7.555 35 13.297 35 13.297s0 5.741-.726 8.495a4.4 4.4 0 0 1-1.123 1.974 4.36 4.36 0 0 1-1.949 1.146c-2.716.737-13.571.737-13.571.737s-10.856 0-13.572-.738a4.36 4.36 0 0 1-1.95-1.145 4.4 4.4 0 0 1-1.122-1.974c-.726-2.754-.726-8.495-.726-8.495s0-5.742.726-8.495A4.4 4.4 0 0 1 2.11 2.828a4.36 4.36 0 0 1 1.949-1.146C6.775.945 17.63.945 17.63.945s10.855 0 13.571.737c.738.203 1.41.598 1.95 1.146m-9.994 10.469-9.08-5.214v10.428z" clip-rule="evenodd"/></svg>