<svg xmlns="http://www.w3.org/2000/svg" width="359" height="110" fill="none" viewBox="0 0 359 110"><g filter="url(#a)"><path fill="#fbe477" fill-rule="evenodd" d="M355 51.595a103.1 103.1 0 0 1-36.922 2.675c-10.042-1.247-19.824-3.914-29.091-8.005L274.299 89.2c13.443 9.557 29.613 14.348 45.958 12.625 9.041-.954 17.74-3.812 25.694-8.49-5.171-4.439-10.342-8.878-15.513-13.115 8.169-9.676 16.338-19.15 24.562-28.624" clip-rule="evenodd"/></g><g filter="url(#b)"><path fill="#fbe477" fill-rule="evenodd" d="M4 51.595a103.1 103.1 0 0 0 36.922 2.675c10.042-1.247 19.824-3.914 29.09-8.005L84.702 89.2c-13.444 9.557-29.614 14.348-45.958 12.625-9.042-.954-17.74-3.812-25.695-8.49 5.171-4.439 10.343-8.878 15.514-13.115C20.392 70.543 12.224 61.07 4 51.595" clip-rule="evenodd"/></g><path fill="#f7e799" fill-rule="evenodd" d="M33.169 18.163c6.997-1.663 13.993-3.327 21.221-4.99-.065 1.165.102 2.577.268 3.493 1.166-1.386 2.332-2.772 3.499-3.99C73.038 10.068 87.92 7.629 102.8 5.189a153 153 0 0 1 2.832 2.878 217 217 0 0 1 2.499-3.543A574 574 0 0 1 173.599.033a600 600 0 0 1 27.182.342c18.588.636 36.911 2.3 55.278 4.648-.5.554-.882 1.441-1.499 2.328 2.499-.61 5.263-1.22 7.496-1.83l9.162 1.332c1.222 1.214 2.443 2.328 3.665 3.492 1.055-.744 2.11-1.663 3.165-2.495l46.81 9.814-11.994 56.554-9.162-.831c-.999-.888-1.999-1.775-2.998-2.42-1 .627-1.999 1.2-2.999 1.92-15.659-1.92-31.318-4.324-46.977-6.487l-.333-3.493c-.887 1.276-1.888 2.55-2.832 3.826-4.886-.378-9.773-.998-14.659-1.497-.667-.907-1.333-2.44-1.999-3.66-.556 1.22-1.111 2.753-1.666 3.66l-20.823-1.164c-1.129-.998-2.332-1.996-3.499-2.994.056 1.187.327 2.106.167 3.16a358 358 0 0 0-15.159-1.164 327 327 0 0 0-13.494-.5c-11.19-.17-22.761.401-34.649 1.664-.5-1.386-.905-2.772-1.499-4.158l-4.165 4.99c-13.382.887-26.765 1.774-40.032 2.822-1.114-1.015-2.114-2.379-2.965-3.487-.26 1.164-.37 2.328-.481 3.492l-9.496.832-3.665-3.327-3.998 4.824-29.319 3.992C42.03 55.533 37.5 36.848 33.17 18.163" clip-rule="evenodd"/><path fill="#881e11" d="m103.418 49.59-8.706-11.399a8 8 0 0 1-1.413.204l-1.037.066.466 7.292q.153 2.38.688 2.924.707.804 2.012.721l.921-.057.044.69-10.018.63-.044-.691.883-.056q1.497-.093 2.045-1.169.306-.635.168-2.785l-1.05-16.427q-.15-2.38-.651-2.965-.705-.765-2.048-.68l-.883.055-.044-.69 6.64-.418.099 1.535q4.164-1.764 6.416-1.52 2.299.395 3.865 1.992 1.528 1.6 1.668 3.788.15 2.34-1.16 4.157-1.31 1.816-4.18 2.729l8.886 11.812q2.432 3.084 5.713 3.764l.091.226q-4.99.314-7.927-2.238zM92.181 37.194l.999-.063q3.34-.21 4.937-1.736 1.634-1.566 1.494-3.754-.138-2.15-1.343-3.538-1.209-1.428-3.474-1.285-1.52.327-3.201 1.164zm20.919 3.888q.36 1.404 1.173 3.28 2.594 3.805 6.164 3.581 1.689-.105 2.848-1.258 1.16-1.151 1.86-3.469l.638.345q-.258 2.599-2.003 4.828t-4.625 2.41q-3.899-.103-6.683-3.858-1.493-2.874-1.717-6.366-.282-4.414 1.826-7.013 2.107-2.598 5.524-2.813 2.879-.18 4.742 1.243 1.902 1.422 2.106 4.608zm-.034-1.732 8.101-2.898q-.218-1.605-.569-2.276a3.8 3.8 0 0 0-1.488-1.564q-.96-.555-1.958-.493-1.573.099-2.724 1.404-1.152 1.267-1.362 5.827m25.083 5.4q-2.519 2.201-3.149 2.587-1.007.525-2.158.598-1.766.111-2.996-1.045t-1.355-3.113q-.128-1.996.688-3.705.946-1.485 2.684-2.634 1.737-1.15 5.646-2.706l-.042-.652q-.093-1.458-.96-2.367-.868-.909-2.441-.81-1.19.075-1.84.77-.651.658-.597 1.502l.107 1.072q.054.844-.375 1.373-.393.487-1.122.532a1.5 1.5 0 0 1-1.184-.426q-.454-.472-.508-1.317-.102-1.612 1.462-3.06 1.565-1.446 4.559-1.634 2.264-.142 3.772.534 1.15.505 1.768 1.738.398.784.554 3.241l.373 5.834q.157 2.457.271 3.027.111.533.353.71a.77.77 0 0 0 .512.16.95.95 0 0 0 .527-.186q.37-.255 1.411-1.438l.066 1.036q-1.893 2.933-3.812 3.053-.922.058-1.498-.522-.58-.62-.716-2.152m-.078-1.228-.488-7.638q-2.77 1.29-3.544 1.84-1.87 1.505-2.369 2.732-.463 1.185-.393 2.298.391 1.285 1.253 2.118.862.831 1.899.767 1.42-.09 3.642-2.117m10.876-31.05 2.438 38.152q.103 1.612.368 2.135.264.522.594.849.328.326 1.512.753l-.126.431q-5.212-.135-5.457-3.973l-1.979-30.974q-.184-2.879-.38-3.521-.159-.684-.481-.895a.94.94 0 0 0-.708-.225q-.498.031-1.247.386l-.349-.633 4.971-2.431zm8.487 9.795q.767-.048 1.341.494.61.501.662 1.307.049.768-.49 1.38a1.72 1.72 0 0 1-1.268.657 1.9 1.9 0 0 1-1.419-.489 1.9 1.9 0 0 1-.623-1.31q-.051-.805.452-1.376a1.9 1.9 0 0 1 1.345-.663m2.618 6.001.881 13.78q.103 1.61.329 2.137.265.522.743.762.477.24 1.706.163l.044.69-8.33.524-.044-.69q1.268-.08 1.674-.337.406-.296.601-.847.233-.593.129-2.205l-.569-8.904-.237-1.296q-.192-.604-.476-.818t-.782-.182q-.537.035-1.25.348l-.049-.767 4.786-2.305zm8.374-15.824.996 15.583 3.991-.25.099 1.534-3.992.251 1.204 18.845q.105 1.65.603 2.198.536.544 1.265.498.614-.039 1.165-.458.59-.423.85-1.171l.73-.046q-.535 1.883-1.705 2.882-1.131.995-2.397 1.075-.845.053-1.721-.393a3 3 0 0 1-1.314-1.266q-.441-.86-.714-2.73l-1.229-19.229-2.687.169-.098-1.535 2.687-.17-.638-9.978q1.01-1.065 1.48-2.174.627-1.042 1.425-3.635m7.545 15.326 6.679-.42.041.653-.307.019q-.69.043-1.055.375a.84.84 0 0 0-.301.712q.01.77.251 1.526l3.419 10.074 4.296-11.175q.231-.593.195-1.169-.017-.268-.101-.379a.8.8 0 0 0-.44-.242q-.276-.098-.928-.057l-.042-.653 5.182-.325.044.69q-.571.114-.907.289-.297.173-.646.734-.106.16-.428 1.145l-7.554 19.896q-.68 2.008-2.273 3.033-1.55 1.06-2.779 1.138-.92.057-1.531-.444-.646-.46-.685-1.074-.042-.653.356-1.063.4-.372 1.168-.42.498-.031 1.401.22.67.228.823.218.46-.029.966-.561.547-.496 1.041-1.8l1.51-4.719-4.64-13.504q-.26-.447-.802-1.106-.454-.473-.697-.65-.396-.168-1.215-.309zm52.887 21.035q-3.807 3.042-10.354 2.427-4.595-.431-8.717-4.604-3.837-3.914-3.077-11.877.643-6.739 4.956-10.622 4.35-3.879 9.902-3.358 4.173.392 6.438 2.575 2 2.118 1.791 4.301-.114 1.186-.841 1.93-.923.762-2.646.601-1.761-.165-2.058-2.318.186-1.952 1.368-2.189.039-.807-1.301-1.744-1.649-1.353-3.908-1.565-2.719-.255-5.62 2.215-3.49 3.381-4.043 9.162-.74 7.734 2.378 11.503 3.183 3.891 7.739 4.319 4.288.402 7.512-1.381zm9.849-35.194-3.636 38.056q-.153 1.608.025 2.166.179.557.452.93.274.375 1.375.98l-.194.406q-5.125-.944-4.759-4.773l2.951-30.896q.274-2.873.183-3.537-.048-.7-.333-.959a.94.94 0 0 0-.664-.332q-.498-.047-1.293.187l-.244-.68 5.294-1.627zm13.945 17.804q.715-2.637 4.707-2.764l-.059.612q-1.316.03-1.528 2.252l-1.05 10.988q-.281 2.948-.194 3.651.09.666.372.962.28.297.701.336.574.054 1.335-.222l.206.676-5.299 1.28-.881-.083.311-3.254q-2.41 2.168-3.602 2.52a7.1 7.1 0 0 1-2.491.191q-1.881-.524-2.729-1.763-1.161-2.001-.918-4.953l.728-7.619q.079-1.23-.145-1.713-.221-.523-.793-1.002l-.992-.132.066-.689 3.637.342 1.426 1.254-.988 10.337q-.2 2.106.512 3.138.589.712 1.929.838.804.076 1.878-.248 1.074-.325 2.588-1.612zm11.537 4.444q2.686-2.645 5.559-2.376 2.642.248 4.443 2.426 1.842 2.144 1.469 6.048-.435 4.556-3.727 7.067-2.83 2.13-6.047 1.828a9.2 9.2 0 0 1-2.974-.82q-1.48-.68-2.986-1.903l2.399-25.116q.279-2.91.187-3.575-.087-.703-.372-.961-.242-.294-.701-.337-.537-.05-1.332.184l-.206-.676 5.333-1.624.842.08zm-.117 1.225-.976 10.222q.903 1.05 1.89 1.645.99.557 2.1.661 1.762.165 3.434-1.57t2.013-5.297q.315-3.293-1.011-5.193-1.321-1.94-3.236-2.12-1.033-.097-2.119.342-.76.275-2.095 1.31"/><defs><filter id="a" width="88.393" height="63.597" x="270.453" y="46.265" color-interpolation-filters="sRGB" filterUnits="userSpaceOnUse"><feFlood flood-opacity="0" result="BackgroundImageFix"/><feColorMatrix in="SourceAlpha" result="hardAlpha" values="0 0 0 0 0 0 0 0 0 0 0 0 0 0 0 0 0 0 127 0"/><feOffset dy="3.846"/><feGaussianBlur stdDeviation="1.923"/><feComposite in2="hardAlpha" operator="out"/><feColorMatrix values="0 0 0 0 0 0 0 0 0 0 0 0 0 0 0 0 0 0 0.25 0"/><feBlend in2="BackgroundImageFix" result="effect1_dropShadow_1772_3551"/><feBlend in="SourceGraphic" in2="effect1_dropShadow_1772_3551" result="shape"/></filter><filter id="b" width="88.393" height="63.597" x=".154" y="46.265" color-interpolation-filters="sRGB" filterUnits="userSpaceOnUse"><feFlood flood-opacity="0" result="BackgroundImageFix"/><feColorMatrix in="SourceAlpha" result="hardAlpha" values="0 0 0 0 0 0 0 0 0 0 0 0 0 0 0 0 0 0 127 0"/><feOffset dy="3.846"/><feGaussianBlur stdDeviation="1.923"/><feComposite in2="hardAlpha" operator="out"/><feColorMatrix values="0 0 0 0 0 0 0 0 0 0 0 0 0 0 0 0 0 0 0.25 0"/><feBlend in2="BackgroundImageFix" result="effect1_dropShadow_1772_3551"/><feBlend in="SourceGraphic" in2="effect1_dropShadow_1772_3551" result="shape"/></filter></defs></svg>