<svg xmlns="http://www.w3.org/2000/svg" width="676" height="75" fill="none" viewBox="0 0 676 75"><path fill="#fff" d="M48.712 2.725v1.35h-1.725q-1.875 0-3.3 2.475-1.425 2.025-1.425 5.25v27.75q0 7.425-2.175 11.85t-6.45 7.05Q29.362 61 22.612 61q-6.525-.15-9.6-2.4-3.9-2.25-5.55-6.6-1.5-3.75-1.65-8.25V17.125q-.15-2.475-1.35-3.375-1.425-.975-2.7-1.05H.037v-1.35h18.6v1.35h-1.725q-2.775 0-3.975 1.2-.825 1.275-.9 3.225v24.3q0 9.525 4.275 12.975 3.225 3.15 6.675 3.15 6.3 0 10.5-4.2 2.7-5.325 2.7-11.925V11.5q0-6.45 6.15-9.75 4.425 0 6.375.975M74.445 39.4 61.92 19.525v32.7q.15 4.8.9 5.925 1.125 1.575 2.775 1.575h1.35V61H51.12v-1.35h1.425q3.075-.075 3.675-2.775V18.25q0-3.075-1.125-4.35-1.2-1.125-2.7-1.2H51.12v-1.35h10.725l13.8 22.2 15.3-22.2h11.475v1.125h-1.425q-2.625 0-3.675 1.875-.675 1.2-.675 5.4v44.4q0 4.575.825 5.7 1.65 2.325 4.725 1.875l.225.75q-5.175 1.8-8.7-1.275-2.775-2.85-2.775-7.05V19l-14.1 20.4zm28.075-28.05h13.5l27.075 34.95V12.175q.3-4.8 4.2-7.05 3.6-1.8 9.3-.825v1.35h-1.725q-3.15 0-4.5 1.875-.825 1.35-.825 5.325v48.975h-1.275L116.245 21.85v30.525q0 4.575 1.05 5.7 1.35 1.575 4.275 1.575h1.725V61h-20.1v-1.5h1.725q3.15 0 4.5-1.275.975-1.275.975-6.375v-34.5q-.75-1.95-1.575-2.775-1.35-1.275-3.075-1.575-1.05-.3-3.225-.3zm91.29 2.7v19.5h9.075q3.15 0 4.575-1.35t1.95-5.475h1.35V43.6h-1.35q-.075-2.925-.825-4.275-.675-1.35-1.95-2.025t-3.75-.675h-9.075v28.2q0 3.825.525 5.025.375.9 1.5 1.575 1.65.825 3.375.825h1.8v1.35h-21.3v-1.35h1.725q3.075 0 4.5-1.8.825-1.125.825-5.625v-28.2h-4.875V33.55h4.875v-15.3q0-1.875-.45-3.075-.375-.975-1.5-1.575-1.575-.9-3.375-.9h-1.725v-1.35h36.975l.45 10.875h-1.275q-.975-3.45-2.25-5.025-1.2-1.65-3.075-2.4t-5.775-.75zm43.126 0V33.7h10.95q4.275 0 5.7-1.275 1.875-1.725 2.1-5.925h1.35v17.25h-1.35q-.525-3.6-1.05-4.65-.6-1.275-2.175-2.025-1.5-.75-4.575-.75h-10.95V52.75q0 3.3.3 4.05.3.675 1.05 1.125.75.375 2.775.375h8.4q4.275 0 6.15-.6t3.675-2.325q0-3.3-2.1-7.35l3.675.075 4.8 12.9h-42.825v-1.35h1.725q1.8 0 3.375-.825 1.125-.6 1.575-1.725.45-1.2.45-4.875v-15.9h-5.25v-2.55h5.25v-16.2q0-2.325-.975-3.45-1.35-1.425-4.425-1.425h-1.725v-1.35h38.25l.6 10.875h-1.425q-.825-3.9-1.8-5.325-.9-1.5-2.7-2.325-1.5-.525-5.175-.525zm64.901-7.875V26.05h-1.275q-.75-3.975-2.325-6.375-1.5-2.4-4.425-4.275-2.925-1.95-6.075-1.95-3.6 0-5.925 2.625T279.487 22q0 2.55 1.5 4.65 2.1 3 10.125 8.1 6.45 4.2 8.775 6.45 2.4 2.175 3.675 5.25 1.35 3 1.35 6.3 0 6.3-4.125 10.875T290.212 68.2q-1.95 0-3.75-.375-1.05-.225-4.425-1.5-3.3-1.275-4.2-1.275t-1.425.6q-.45.6-.75 6h-1.2V50.2h1.2q.975 5.85 2.475 8.4 1.5 2.475 4.575 4.425t6.825 1.95q4.275 0 6.75-2.7 2.55-2.7 2.55-6.375 0-2.025-.975-4.125t-2.925-3.9q-1.35-1.2-7.35-5.175-5.925-3.975-8.475-6.3-2.475-2.4-3.825-5.25-1.275-2.925-1.275-6.3 0-6 3.825-10.275 3.825-4.35 9.825-4.35 3.675 0 6.525 1.425 2.4 1.2 4.125 1.65 1.35-.75 2.25-7.125zm48.625 3.975.075 12.45h-1.425q-.375-3-1.125-4.275-1.125-2.025-3-3t-4.95-.975h-6.975v53.025q0 3.675.975 4.5 1.35 1.425 3.525 1.425h1.725v1.65h-19.575V73.3h1.8q2.25.075 3.675-1.5.825-1.125.825-4.425V14.35h-6q-3.45 0-4.95.525-1.875.675-3.225 2.55t-1.575 5.175h-1.425V10.15h1.425v1.2h38.85v-1.2zm26.259 49.5V61h-21.225v-1.35h1.725q3.075 0 4.5-1.8.9-1.2.9-5.625v-32.1q0-3.75-.525-4.95-.375-.975-1.5-1.575-1.575-.9-3.375-.9h-1.725v-1.35h21.225v1.35h-1.8q-3.075 0-4.425 1.8-.975 1.2-.975 5.625v32.1q0 3.75.525 4.95.375.9 1.5 1.575 1.575.9 3.375.9zM417.222 2.2q8.625-1.725 10.2 1.5.45 3.75-2.175 9.9l-17.7 47.4h-3l-16.35-41.85q-1.275-3.225-1.8-3.9-.825-1.2-2.025-1.8t-3.15-.75v-1.35h17.925v1.35q-3.075.3-3.975 1.125t-.9 2.1q0 1.8 1.5 5.625l11.1 28.425 10.35-28.125q4.65-13.275 4.65-14.925 0-.975-.975-1.95-.9-.975-3.075-1.425-.225 0-.6-.075zm28.205 46.5-9.9-27.075-7.65 20.7zm-20.1-7.275 11.4-31.2h1.125l14.775 41.325q1.8 4.95 3.225 6.45 1.5 1.425 4.125 1.65V61h-16.8v-1.35q2.55-.15 3.45-.975t.9-2.1q0-1.575-.825-4.275l-.225-.675-19.425-6.975-2.775 7.575q-1.05 2.85-1.05 4.275 0 1.2.9 2.1.9.825 4.05 1.05V61h-13.425v-1.35q2.625-.525 3.45-1.425 1.575-1.8 3.6-7.125l2.7-7.425-9.375-3.375 4.275-1.05zm72.082 4.5h2.7l4.725 15-40.275.075v-1.35h1.8q3.075 0 4.35-2.025.75-1.2.75-5.475V20.125q0-4.65-.975-5.85-1.35-1.575-4.125-1.575h-1.8v-1.35h21.825v1.35h-1.95q-1.95 0-4.875 1.35-1.275 1.725-1.275 5.4v32.7q0 3.075.6 4.2.45.75 1.275 1.125.9.375 5.55.375h3.525q5.55 0 7.725-.825 2.25-.825 2.25-3.075 0-2.325-1.8-8.025m63.167 5.55L557.126 61h-29.325v-1.35q12.9-11.775 18.15-19.275 5.325-7.5 5.325-13.65 0-4.725-2.925-7.725-2.85-3.075-6.9-3.075-3.675 0-6.6 2.175-2.85 2.1-4.275 6.225h-1.35q.9-6.75 4.65-10.35 3.825-3.675 9.525-3.675 6.075 0 10.05 3.9 4.05 3.9 4.05 9.15 0 3.75-1.725 7.575-2.7 5.925-8.775 12.525-9.15 9.975-11.4 12h12.975q3.975 0 5.55-.3t2.85-1.125q1.275-.9 2.25-2.55zm8.1-15q0-8.475 2.55-14.625t6.825-9.15q3.3-2.4 6.825-2.4 5.7 0 10.275 5.85 5.625 7.2 5.625 19.575 0 8.625-2.475 14.7-2.475 6-6.375 8.775-3.825 2.7-7.425 2.7-7.125 0-11.85-8.4-3.975-7.05-3.975-17.025m7.8 1.875q1.425 10.2 4.8 16.2 2.925 5.1 6.975 4.5 2.025-.3 3.825-2.325 1.875-2.025 2.325-6.375.825-6.45-.825-17.85-1.275-8.4-3.825-13.725-1.875-3.975-4.2-5.4-1.65-1.05-3.825-.75-2.475.375-4.05 2.85-2.175 3.45-2.175 10.05t.975 12.825m63.6 13.125L636.626 61h-29.325v-1.35q12.9-11.775 18.15-19.275 5.325-7.5 5.325-13.65 0-4.725-2.925-7.725-2.85-3.075-6.9-3.075-3.675 0-6.6 2.175-2.85 2.1-4.275 6.225h-1.35q.9-6.75 4.65-10.35 3.825-3.675 9.525-3.675 6.075 0 10.05 3.9 4.05 3.9 4.05 9.15 0 3.75-1.725 7.575-2.7 5.925-8.775 12.525-9.15 9.975-11.4 12h12.975q3.975 0 5.55-.3t2.85-1.125q1.275-.9 2.25-2.55zm35.7-39.825-2.85 6.225h-14.925l-3.3 6.675q9.75 1.425 15.45 7.2 4.8 4.95 4.8 11.7 0 3.9-1.575 7.275-1.575 3.3-3.975 5.7-2.4 2.325-5.4 3.75-4.2 2.025-8.625 2.025-4.5 0-6.525-1.5-2.025-1.575-2.025-3.375 0-1.05.825-1.8.825-.825 2.175-.825.9 0 1.575.3.75.3 2.475 1.5 2.775 1.875 5.55 1.875 4.35 0 7.575-3.225t3.225-7.875q0-4.5-2.925-8.4-2.85-3.9-7.95-6-3.975-1.65-10.875-1.95l9.525-19.275z"/></svg>