<svg xmlns="http://www.w3.org/2000/svg" width="204" height="65" fill="none"><path fill="url(#a)" d="m57.84 45.95-4.44 3.623q-.5.189-1.048.36a18 18 0 0 1-4.053.761l3.434.314a15 15 0 0 1-3.785 2.067l1.893.616a11.5 11.5 0 0 0-4.447 1.956 11.4 11.4 0 0 0-3.23 3.615l1.45-5.41a10 10 0 0 1 2.725-4.61 5.7 5.7 0 0 1 1.582-1.234c1.603-.839 3.066-.574 4.516-.604 1.298-.028 3.146-.303 5.403-1.453"/><path fill="url(#b)" d="M42.287 54.18a41 41 0 0 0 .192-7.81q1.077-.624 2.17-1.25l1.27-.719-3.554.284-1.343-.887a13.23 13.23 0 0 0 7.064-5.532l-1.665 4.46c2.883-1.604 4.232-3.405 4.93-4.786.832-1.645 1.076-3.36 2.664-4.32.941-.569 1.954-.632 2.651-.598-.608.144-1.447.444-2.129 1.142-1.16 1.185-.953 2.593-1.248 4.024-.475 2.297-1.734 2.18-7.27 8.654-.766.895-1.384 1.673-1.934 2.59a14.9 14.9 0 0 0-1.798 4.747"/><path fill="url(#c)" d="M48.844 46.055a9.05 9.05 0 0 1 4.91-3.831c.088-.566.438-2.365 2.017-3.611a5.2 5.2 0 0 1 1.582-.852c-.175.196-2.046 2.36-1.312 4.84.217.71.607 1.356 1.135 1.88-1.317.808-2.415 1.022-3.175 1.067-1.023.061-1.607-.172-2.865-.05a8.5 8.5 0 0 0-2.292.557"/><path fill="url(#d)" d="m2.32 45.95 4.44 3.623q.502.189 1.048.36a18 18 0 0 0 4.053.761l-3.434.314a15 15 0 0 0 3.786 2.067l-1.893.616c1.365.28 2.668.804 3.844 1.547a11.56 11.56 0 0 1 3.832 4.024l-1.45-5.41a10 10 0 0 0-2.725-4.61 5.7 5.7 0 0 0-1.582-1.234c-1.603-.838-3.066-.574-4.515-.603-1.3-.03-3.147-.304-5.404-1.454"/><path fill="url(#e)" d="M17.875 54.18a41 41 0 0 1-.191-7.81q-1.078-.624-2.17-1.25l-1.271-.722 3.553.284 1.344-.886a13.23 13.23 0 0 1-7.066-5.53l1.665 4.46c-2.882-1.604-4.232-3.405-4.93-4.786-.831-1.645-1.075-3.36-2.664-4.32-.94-.569-1.953-.632-2.65-.598.608.144 1.447.444 2.128 1.142 1.16 1.185.953 2.593 1.249 4.024.475 2.297 1.733 2.18 7.27 8.654.766.895 1.383 1.673 1.933 2.59a14.8 14.8 0 0 1 1.8 4.747"/><path fill="url(#f)" d="M11.206 46.242a9 9 0 0 0-1.6-1.918 9.2 9.2 0 0 0-3.31-1.913c-.088-.566-.437-2.365-2.017-3.611a5.2 5.2 0 0 0-1.582-.852c.175.196 2.047 2.36 1.312 4.84a4.5 4.5 0 0 1-1.135 1.88c1.318.809 2.415 1.022 3.175 1.068 1.024.06 1.607-.173 2.865-.05a8.5 8.5 0 0 1 2.292.556"/><path fill="url(#g)" d="M38.161 17.38c-.4.297.999 2.392.65 2.628-.19.131-.776-.374-1.312-.904.453.613 1.22 1.821.794 2.736-.26.556-.856.782-1.066.864-4.975 1.91-9.688 4.45-14.67 6.335-2.647 1-6.341 2.893-10.293 6.825.447-.263 3.08-1.758 6.307-.822 2.628.762 4 2.66 4.374 3.212.065-.168 1.116-2.736 3.877-3.272 2.384-.462 4.143.961 4.373 1.153a6.4 6.4 0 0 1 1.351-3.53 6.45 6.45 0 0 1 3.113-2.163 6.5 6.5 0 0 1 3.796-.045 6.45 6.45 0 0 1 3.165 2.086c-1.011-3.208-1.01-5.716-.801-7.45.2-1.669.601-2.692.1-4.144-.798-2.313-3.245-3.892-3.758-3.51"/><path fill="url(#h)" d="M19.441 17.565c-.314-.152-.757-.429-.99-.919-.372-.782.164-1.315-.098-2.463-.196-.853-.72-1.544-.743-1.534-.008.004.043.113.106.288q.171.511.234 1.046c.09.833-.124 1.544-.2 1.788-.148.48-.248.528-.414 1.116-.125.442-.191.667-.199.96-.021.931.505 1.74.543 2.28a3 3 0 0 1-.043.71 28 28 0 0 0 1.804-3.272"/><path fill="url(#i)" d="M25.98 23.501c1.087-.15 1.917-.241 2.336-.292.169-.02.547-.067.788.154l.016.015h-.009c-.403.968-1.103 1.78-2.035 2.512.219.307.584.512.77.795l.007.014q.06.094.087.2.158.37.274.756a7.7 7.7 0 0 1 .316 2.197c.055 4.856.06 9.713.115 14.568.055 4.821.098 8.75.227 13.57.041 1.568.856 3.79 1.917 5.102a28 28 0 0 0 .782-1.142c1.051-1.614 1.19-3.448 1.206-5.286.042-5.095-.027-10.19.074-15.281.098-4.912-.474-9.862.695-14.772l.02.014c.116-.425.183-.837.48-1.167-.718-.584-1.302-1.25-1.613-2.079h-.017l.015-.015c.242-.218.61-.13.82-.122.89.034 1.775.204 2.708.32.03-.051.073-.193.17-.272.194-.153 1.307-.691 1.482-.652.19.04.42.347.453.565.074.472.046.962.034 1.444-.006.218-.074.435-.115.65q-.055.283-.112.565c.953-2.153 1.35-4.378 1.06-6.798-.544.272-2.285 1.13-4.09 1.784-.553.2-1.321.456-2.187.217a2.7 2.7 0 0 1-.535-.209q.356-.295.71-.598a.5.5 0 0 0 .072-.104 7 7 0 0 1-.389-.811 7.5 7.5 0 0 1-.54-2.803l-.013-5.248.034-4.29q.464-.59.932-1.177c-1.138-.697-1.755-1.68-2.137-2.888-.308 1.247-1.014 2.193-2.085 2.896l.934 1.16-.016 1.315.016 3.03-.022 5.747a5.8 5.8 0 0 1-.547 2.472 6 6 0 0 1-.328.592q.104.09.209.188.282.265.514.524a4 4 0 0 1-.87.214 4.2 4.2 0 0 1-1.89-.193l-.68 1.631z"/><mask id="j" width="15" height="62" x="25" y="2" maskUnits="userSpaceOnUse" style="mask-type:luminance"><path fill="#fff" d="M25.98 23.501c1.087-.15 1.917-.241 2.336-.292.169-.02.547-.067.788.154l.016.015h-.009c-.403.968-1.103 1.78-2.035 2.512.219.307.584.512.77.795l.007.014q.06.094.087.2.158.37.274.756a7.7 7.7 0 0 1 .316 2.197c.055 4.856.06 9.713.115 14.568.055 4.821.098 8.75.227 13.57.041 1.568.856 3.79 1.917 5.102a28 28 0 0 0 .782-1.142c1.051-1.614 1.19-3.448 1.206-5.286.042-5.095-.027-10.19.074-15.281.098-4.912-.474-9.862.695-14.772l.02.014c.116-.425.183-.837.48-1.167-.718-.584-1.302-1.25-1.613-2.079h-.017l.015-.015c.242-.218.61-.13.82-.122.89.034 1.775.204 2.708.32.03-.051.073-.193.17-.272.194-.153 1.307-.691 1.482-.652.19.04.42.347.453.565.074.472.046.962.034 1.444-.006.218-.074.435-.115.65q-.055.283-.112.565c.953-2.153 1.35-4.378 1.06-6.798-.544.272-2.285 1.13-4.09 1.784-.553.2-1.321.456-2.187.217a2.7 2.7 0 0 1-.535-.209q.356-.295.71-.598a.5.5 0 0 0 .072-.104 7 7 0 0 1-.389-.811 7.5 7.5 0 0 1-.54-2.803l-.013-5.248.034-4.29q.464-.59.932-1.177c-1.138-.697-1.755-1.68-2.137-2.888-.308 1.247-1.014 2.193-2.085 2.896l.934 1.16-.016 1.315.016 3.03-.022 5.747a5.8 5.8 0 0 1-.547 2.472 6 6 0 0 1-.328.592q.104.09.209.188.282.265.514.524a4 4 0 0 1-.87.214 4.2 4.2 0 0 1-1.89-.193l-.68 1.631z"/></mask><g mask="url(#j)"><path fill="url(#k)" d="M30.836 0H19.148v67.345h11.688z"/></g><path fill="url(#l)" d="M43.693 15.595c-.067-.615-.192-2.125-1.286-3.306-.499-.539-1.14-.83-2.373-1.502-1.033-.564-1.913-1.033-3.217-1.29a9.3 9.3 0 0 0-2.98-.09c.328 0 3.074.037 4.559 2.16a4.8 4.8 0 0 1 .814 2.16c.252.119 1.75.854 2.22 2.537a3.87 3.87 0 0 1 0 2.039 11.6 11.6 0 0 0-1.257-1.7q-.48-.538-1.02-1.018a18 18 0 0 0-1.489-1.222l1.923.347a16 16 0 0 0-1.568-1.037c-.291-.17-.51-.285-.64-.353-.625-.33-1.523-.81-2.909-1.558a5.8 5.8 0 0 1 2.137-.127 10 10 0 0 0-1.69-.38 10.6 10.6 0 0 0-4.55.377 5.2 5.2 0 0 0 1.454-1.341 6.4 6.4 0 0 0 1.027-2.035c-1.283 1.648-2.373 2.076-3.165 2.13-.404.029-1.1-.014-1.974.32-.408.157-.731.306-.984.666a4.7 4.7 0 0 0-.412.734c-.102.217-.16.435-.386.554-.29.15-.682.032-.95-.115-.657-.357-.798-1.162-.85-1.451-.179-1.013.281-1.839.465-2.131a3.3 3.3 0 0 0-1.118.823 3.3 3.3 0 0 0-.726 1.443c-.203.823.026 1.096-.068 1.987-.04.373-.147 1.098-.54 1.774-.867 1.49-2.138 1.153-3.254 2.659-.424.572-.118.456-1.021 2.172-.387.736-.674 1.526-1.11 2.235-.343.56-.428 1.067-.27 1.707.214.85.108 1.747-.298 2.524-.313.608-.839.686-1.328.209a5 5 0 0 0-.184-.17 11.7 11.7 0 0 1 .18 2.341q-.002.148-.01.292.187 0 .382-.009a6.6 6.6 0 0 0 2.832-.836c-.116-.025-.209-.037-.296-.065-.4-.127-.47-.418-.145-.68.166-.135.357-.238.56-.303q.48-.163.92-.41a1.5 1.5 0 0 1-.294-.144c-.171-.108-.424-.268-.5-.55-.075-.283.052-.566.156-.727.083-.129.203-.368.656-.782a6.1 6.1 0 0 1 2.146-1.32c-.23.578-.228 1.009-.18 1.305.031.184.102.449.165.942q.036.253.032.51c0 .512-.205.921-.67 1.153-.368.183-.761.317-1.134.468a3.58 3.58 0 0 0 4.055-.49 1.2 1.2 0 0 1-.313-.167 1.24 1.24 0 0 1-.399-.54c-.149-.359-.116-.69-.096-.877.132-1.196.198-1.791.48-2.213.4-.602.95-.86 1.515-1.126.868-.409 1.358-.629 1.874-.644-.164-.163-.38-.53-1.212-.615a2.46 2.46 0 0 0-1.093.14q.2-.23.437-.425c.279-.24.598-.428.943-.556.42-.148.87-.195 1.312-.139l-.75-.486a4.66 4.66 0 0 1 1.361-1.651c.304-.228 1.542-1.142 3.252-.937.32.038 1.799.253 2.688 1.414.281.367.427.728.615 1.197.305.76.392 1.343.488 1.994 0 0 .14.936-.025 1.454-.037.117-.083.248-.083.248a2.3 2.3 0 0 0-.16.43c-1.087 2.745-.814 5.183-.814 5.183.075.674.227 1.216.53 2.299.383 1.365.602 1.713.626 2.552.011.404.024 1.216-.415 2.105-.486.986-1.245 1.495-1.614 1.736-.164.105-1.168.747-2.497.833-.024 0-.495.016-1.439.028-.294.003-.66.01-1.135.024-.602.019-.906.023-1.007.037-2.89.4-4.785 2.756-4.767 2.738.219-.214.69-.599 1.367-.675.263-.03.868-.096 1.127.265.259.362 0 .91-.03.974-.292.604-.932.792-1.483 1.033 0 0-1.366.598-2.436 1.764-.484.529-1.154 1.715-.538 4.517a8.6 8.6 0 0 1 1.238-3.11c-.169.259.24 1.205.295 1.471.129.626.184 1.265.164 1.904-.007.21-.023.426-.104.621-.257.617-1.148.699-1.572 1.174-.736.829-.319 2.267-.155 2.833.399 1.374 1.363 2.15 1.762 2.435-.973-.695-1.112-2.559-.243-3.362-.299.276.777 2.514.93 2.804a8.5 8.5 0 0 0 2.08 2.57c1.656 1.374 3.69 1.938 5.813 2.01.5.016 1.043.031 1.749-.075q.71-.106 1.39-.337H31.5c1.11 0 2.405-.39 3.434-.786 1.543-.595 2.723-1.54 3.78-2.781l.291-.368-1.508.435c1.093-2.416 1.53-4.912 1.663-7.575l1.451 1.156a7.86 7.86 0 0 0-1.25-3.547 8.07 8.07 0 0 0-3.225-2.81 4.5 4.5 0 0 1 1.169 2.61c.097 1.039-.184 2.166-.808 3.015.522-.158 1.034-.354 1.582-.448.097.707.073 1.436 0 2.142-.148 1.431-.52 2.827-1.303 4.053-.756 1.181-1.968 2.222-3.335 2.632-.67.202-4.074.874-6.767-1.44a6 6 0 0 1-1.582-2.23c-1.277-3.133.666-6.1.873-6.403 1.199-1.769 2.883-2.51 3.586-2.807a8.8 8.8 0 0 1 2.586-.656 7.54 7.54 0 0 1-3.32 2.18 10.5 10.5 0 0 0 3.777-1.402c1.421-.879 2.549-1.849 4.292-3.47a48 48 0 0 0 1.328-1.284c1.66-.965 2.699-2.054 3.284-2.769.507-.604.947-1.262 1.312-1.961.497-.961.51-1.36.99-2.199s.617-.707 1.46-1.843c1.836-2.485 1.746-3.896 1.69-4.346-.794-6-2.723-6.5-3.258-11.376"/><mask id="m" width="33" height="53" x="14" y="8" maskUnits="userSpaceOnUse" style="mask-type:luminance"><path fill="#fff" d="M43.693 15.595c-.067-.615-.192-2.125-1.286-3.306-.499-.539-1.14-.83-2.373-1.502-1.033-.564-1.913-1.033-3.217-1.29a9.3 9.3 0 0 0-2.98-.09c.328 0 3.074.037 4.559 2.16a4.8 4.8 0 0 1 .814 2.16c.252.119 1.75.854 2.22 2.537a3.87 3.87 0 0 1 0 2.039 11.6 11.6 0 0 0-1.257-1.7q-.48-.538-1.02-1.018a18 18 0 0 0-1.489-1.222l1.923.347a16 16 0 0 0-1.568-1.037c-.291-.17-.51-.285-.64-.353-.625-.33-1.523-.81-2.909-1.558a5.8 5.8 0 0 1 2.137-.127 10 10 0 0 0-1.69-.38 10.6 10.6 0 0 0-4.55.377 5.2 5.2 0 0 0 1.454-1.341 6.4 6.4 0 0 0 1.027-2.035c-1.283 1.648-2.373 2.076-3.165 2.13-.404.029-1.1-.014-1.974.32-.408.157-.731.306-.984.666a4.7 4.7 0 0 0-.412.734c-.102.217-.16.435-.386.554-.29.15-.682.032-.95-.115-.657-.357-.798-1.162-.85-1.451-.179-1.013.281-1.839.465-2.131a3.3 3.3 0 0 0-1.118.823 3.3 3.3 0 0 0-.726 1.443c-.203.823.026 1.096-.068 1.987-.04.373-.147 1.098-.54 1.774-.867 1.49-2.138 1.153-3.254 2.659-.424.572-.118.456-1.021 2.172-.387.736-.674 1.526-1.11 2.235-.343.56-.428 1.067-.27 1.707.214.85.108 1.747-.298 2.524-.313.608-.839.686-1.328.209a5 5 0 0 0-.184-.17 11.7 11.7 0 0 1 .18 2.341q-.002.148-.01.292.187 0 .382-.009a6.6 6.6 0 0 0 2.832-.836c-.116-.025-.209-.037-.296-.065-.4-.127-.47-.418-.145-.68.166-.135.357-.238.56-.303q.48-.163.92-.41a1.5 1.5 0 0 1-.294-.144c-.171-.108-.424-.268-.5-.55-.075-.283.052-.566.156-.727.083-.129.203-.368.656-.782a6.1 6.1 0 0 1 2.146-1.32c-.23.578-.228 1.009-.18 1.305.031.184.102.449.165.942q.036.253.032.51c0 .512-.205.921-.67 1.153-.368.183-.761.317-1.134.468a3.58 3.58 0 0 0 4.055-.49 1.2 1.2 0 0 1-.313-.167 1.24 1.24 0 0 1-.399-.54c-.149-.359-.116-.69-.096-.877.132-1.196.198-1.791.48-2.213.4-.602.95-.86 1.515-1.126.868-.409 1.358-.629 1.874-.644-.164-.163-.38-.53-1.212-.615a2.46 2.46 0 0 0-1.093.14q.2-.23.437-.425c.279-.24.598-.428.943-.556.42-.148.87-.195 1.312-.139l-.75-.486a4.66 4.66 0 0 1 1.361-1.651c.304-.228 1.542-1.142 3.252-.937.32.038 1.799.253 2.688 1.414.281.367.427.728.615 1.197.305.76.392 1.343.488 1.994 0 0 .14.936-.025 1.454-.037.117-.083.248-.083.248a2.3 2.3 0 0 0-.16.43c-1.087 2.745-.814 5.183-.814 5.183.075.674.227 1.216.53 2.299.383 1.365.602 1.713.626 2.552.011.404.024 1.216-.415 2.105-.486.986-1.245 1.495-1.614 1.736-.164.105-1.168.747-2.497.833-.024 0-.495.016-1.439.028-.294.003-.66.01-1.135.024-.602.019-.906.023-1.007.037-2.89.4-4.785 2.756-4.767 2.738.219-.214.69-.599 1.367-.675.263-.03.868-.096 1.127.265.259.362 0 .91-.03.974-.292.604-.932.792-1.483 1.033 0 0-1.366.598-2.436 1.764-.484.529-1.154 1.715-.538 4.517a8.6 8.6 0 0 1 1.238-3.11c-.169.259.24 1.205.295 1.471.129.626.184 1.265.164 1.904-.007.21-.023.426-.104.621-.257.617-1.148.699-1.572 1.174-.736.829-.319 2.267-.155 2.833.399 1.374 1.363 2.15 1.762 2.435-.973-.695-1.112-2.559-.243-3.362-.299.276.777 2.514.93 2.804a8.5 8.5 0 0 0 2.08 2.57c1.656 1.374 3.69 1.938 5.813 2.01.5.016 1.043.031 1.749-.075q.71-.106 1.39-.337H31.5c1.11 0 2.405-.39 3.434-.786 1.543-.595 2.723-1.54 3.78-2.781l.291-.368-1.508.435c1.093-2.416 1.53-4.912 1.663-7.575l1.451 1.156a7.86 7.86 0 0 0-1.25-3.547 8.07 8.07 0 0 0-3.225-2.81 4.5 4.5 0 0 1 1.169 2.61c.097 1.039-.184 2.166-.808 3.015.522-.158 1.034-.354 1.582-.448.097.707.073 1.436 0 2.142-.148 1.431-.52 2.827-1.303 4.053-.756 1.181-1.968 2.222-3.335 2.632-.67.202-4.074.874-6.767-1.44a6 6 0 0 1-1.582-2.23c-1.277-3.133.666-6.1.873-6.403 1.199-1.769 2.883-2.51 3.586-2.807a8.8 8.8 0 0 1 2.586-.656 7.54 7.54 0 0 1-3.32 2.18 10.5 10.5 0 0 0 3.777-1.402c1.421-.879 2.549-1.849 4.292-3.47a48 48 0 0 0 1.328-1.284c1.66-.965 2.699-2.054 3.284-2.769.507-.604.947-1.262 1.312-1.961.497-.961.51-1.36.99-2.199s.617-.707 1.46-1.843c1.836-2.485 1.746-3.896 1.69-4.346-.794-6-2.723-6.5-3.258-11.376"/></mask><g mask="url(#m)"><path fill="url(#n)" d="m25.855 23.41-10.177-5.845-5.254 9.052L20.6 32.462z"/><path fill="url(#o)" d="M33.372 10.12a13.4 13.4 0 0 1 2.713.79l.151.066.3.138q.505.24.99.517a14 14 0 0 1 1.446.955c.08.06 0 0-.014-.011l.098.076q.129.102.256.208a13.8 13.8 0 0 1 2.04 2.093c-.09-.117.086.116.11.15q.098.135.191.269.377.541.699 1.117l1.38-1.057a71 71 0 0 0-6.377-5.096l-.885 1.506c.601.33 1.203.659 1.783 1.025.59.372 1.018.676 1.514 1.146q.317.302.598.638c.181.213-.086-.126.08.099q.065.087.127.178a6 6 0 0 1 .458.787c.009.018.094.218.06.133-.032-.084.044.12.05.137q.157.45.22.922l1.464-.849-.825-.943c-.287-.327-.828-.317-1.15-.069-.364.28-.417.727-.226 1.125l1.345 2.821 1.381-1.056-.894-1.015-.387 1.457c.045-.011.35-.06.124-.036q.109-.012.22-.014c.073-.001.143.005.218.005q.153.015-.017-.007.071.011.142.026.213.047.419.122c-.197-.068.084.042.123.062q.096.052.19.11.09.057.18.122c-.16-.115.045.044.075.073q.094.087.179.18c.024.028.148.207.045.049q.141.21.255.435c-.088-.178.004.027.015.06q.043.14.07.282l1.465-.849-2.452-2.949c-.372-.447-1.106-.264-1.376.177-.232.375-.438.766-.498 1.207-.06.464.045.934.295 1.329.411.665 1.1 1.097 1.656 1.628.23.22.464.438.686.667q.15.152.288.315c.055.066.116.156.03.035q.06.081.11.163.104.163.186.338c-.094-.2-.013-.019.003.032q.03.095.055.191.015.066.026.134l-.01-.058c.007.067.01.147.011.22q0 .267-.037.53c-.06.454.446.892.875.87.526-.023.812-.385.874-.87A3.43 3.43 0 0 0 46.194 21c-.254-.531-.672-.98-1.093-1.387-.492-.484-1.024-.918-1.535-1.382a3 3 0 0 1-.18-.173c-.01-.012-.164-.206-.07-.072-.113-.16-.139-.169-.165-.344.025.17.048-.13.007.063.007-.031.074-.253.018-.105q.114-.257.273-.49l-1.377.177 2.453 2.943c.236.284.76.33 1.062.137.345-.222.481-.59.403-.985-.38-1.921-2.515-3.166-4.391-2.688-.674.172-.807.979-.387 1.457l.895 1.016c.287.326.826.317 1.15.068.363-.279.416-.726.226-1.125l-1.345-2.821-1.377 1.058.825.947c.244.278.754.334 1.062.136.359-.23.458-.582.403-.985-.414-3.023-3.25-4.767-5.696-6.107-.402-.217-.975-.109-1.2.313-.239.45-.085.91.315 1.193a67 67 0 0 1 6.021 4.824c.328.293.796.341 1.152.068a.875.875 0 0 0 .225-1.128c-1.64-2.925-4.303-5.17-7.413-6.417a13.5 13.5 0 0 0-2.617-.751c-.45-.082-.968.121-1.08.609-.096.427.131.985.613 1.072z"/><path fill="url(#p)" d="M35.747 44.352c.225 2.954.256 5.919.091 8.877-.054.972 1.522 1.196 1.722.231a70 70 0 0 0 1.296-9.521l-1.633.44c1.182 2.255 2 4.682 2.426 7.19.073.426.568.677.961.624a.876.876 0 0 0 .76-.856 8.4 8.4 0 0 0-1.39-4.738.885.885 0 0 0-1.634.44 44 44 0 0 1-.929 6.488l1.723.233-.043-2.516a.87.87 0 0 0-.76-.857c-.407-.054-.87.199-.961.625a26 26 0 0 0-.542 4.078c-.024.457.42.893.875.87a.89.89 0 0 0 .875-.87c.06-1.215.22-2.423.478-3.613l-1.721-.231.041 2.516a.87.87 0 0 0 .76.856c.41.055.87-.198.962-.624a48 48 0 0 0 .995-6.956l-1.633.44q.31.465.551.969.086.168.148.347.099.26.177.529.155.513.23 1.042a8 8 0 0 1 .034.414q.016.28.01.557l1.723-.232a25.7 25.7 0 0 0-2.602-7.606c-.172-.326-.636-.515-.99-.401-.386.124-.617.442-.644.841-.2 3.044-.612 6.07-1.233 9.057l1.722.232a67 67 0 0 0-.092-8.875c-.035-.453-.379-.894-.875-.87-.445.02-.913.385-.875.87z"/><path fill="#BA2129" d="M16.028 26.382c-.132.468-.36.994-.382 1.483-.03.688.562 1.18 1.237 1.09.627-.083.917-.66 1.227-1.135l.414-.637.178-.272.118-.182a.56.56 0 0 1-.408.205l-.442-.119-.078-.069-.225-.384.02.054v-.464q.093-.154-.006.021l-.075.14-.15.281c-.1.186-.198.375-.304.557q-.064.114-.139.223c.079-.114-.075.08-.083.089q-.115.103-.024.025l-.072.044q-.14.068-.024.017-.06.022-.122.04-.271.078-.551.114c.151-.02-.09 0-.119.002-.127.007-.059.008.032.024q.09.082.023.016-.065-.065.015.02-.072-.135-.013-.01l-.023-.076c-.025-.163-.023-.005-.018-.16.004-.133.004-.266.011-.399.025-.456-.42-.892-.874-.87a.89.89 0 0 0-.875.87c-.028.527.006 1.06.282 1.525.305.515.85.8 1.444.805A3.9 3.9 0 0 0 17.36 29c.543-.21.936-.565 1.243-1.056q.362-.591.662-1.217c.182-.372.204-.787-.06-1.128a1.04 1.04 0 0 0-.97-.403c-.648.087-.93.658-1.25 1.15l-.415.638-.207.318q-.053.082-.11.163.255-.267.58-.231l.386.228q.099.907.194.472l.028-.098.097-.346.182-.643c.123-.439-.153-.968-.612-1.072-.46-.104-.946.139-1.079.609z"/></g><path fill="url(#q)" d="M23.153 25.713a8 8 0 0 1-.45-6.873q.881.602 1.83 1.096 1.18.606 2.438 1.027a3.7 3.7 0 0 0-.52 1.121 3.5 3.5 0 0 0-.1 1.364q-.424.063-.86.12a2 2 0 0 0-.17-.273c-.13-.172-.486-.638-1.014-.652-.48-.015-.816.352-.88.423-.281.308-.329.658-.383 1.088a4.2 4.2 0 0 0 .109 1.56"/><path fill="#009435" d="M30.8 26.826c0-3.535-.488-4.757-3.124-4.757 2.636 0 3.123-.082 3.123-3.615 0 3.534.487 3.615 3.123 3.615-2.636 0-3.123 1.224-3.123 4.757"/><mask id="r" width="7" height="9" x="27" y="18" maskUnits="userSpaceOnUse" style="mask-type:luminance"><path fill="#fff" d="M30.8 26.826c0-3.535-.488-4.757-3.124-4.757 2.636 0 3.123-.082 3.123-3.615 0 3.534.487 3.615 3.123 3.615-2.636 0-3.123 1.224-3.123 4.757"/></mask><g mask="url(#r)"><path fill="#006900" d="M30.722 19.428c-.136.96-.191 2.106.765 2.683.934.563 2 .104 3.001.163.523.031.521-.778 0-.81-.782-.047-1.633.308-2.394.038-.775-.272-.678-1.21-.586-1.861.03-.218-.054-.432-.284-.498-.19-.054-.47.067-.5.282z"/><path fill="#006900" d="M31.392 26.512c.164-.823.039-1.68.235-2.494.144-.59.614-1.322 1.33-1.124.506.14.721-.64.22-.78-.917-.253-1.79.352-2.153 1.17-.427.961-.214 2.012-.414 3.013-.101.508.683.726.785.215z"/><path fill="#00D743" d="M27.817 22.17c.875-.1 1.85.185 2.57-.477.316-.292.44-.716.453-1.134.015-.473-.158-.954-.068-1.425.097-.509-.687-.727-.785-.215-.08.424-.023.816.02 1.241.031.294.068.664-.14.905-.184.212-.505.272-.771.285-.428.022-.854-.038-1.282.01-.218.026-.404.169-.406.406 0 .199.188.43.406.404z"/><path fill="#47F373" d="M28.535 23.003c.432-.151.87.021 1.153.368.322.394.424.927.449 1.421.06 1.19-.035 2.4-.062 3.59-.012.52.801.52.813 0l.05-2.172c.017-.715.066-1.442-.075-2.148-.228-1.142-1.278-2.283-2.544-1.84-.492.17-.28.952.218.78z"/></g><path fill="url(#s)" d="M21.672 16.955a2.8 2.8 0 0 1-.637-.81c-.405-.785-.266-1.498-.273-2.24-.005-.642-.12-1.548-.622-2.655a8 8 0 0 1 .18 1.986c-.02.502-.087.94-.178 1.523-.05.32-.08.652-.206.95-.156.374-.352.731-.484 1.114-.123.36-.19.762-.102 1.135.074.317.212.614.301.929q.087.311.137.63a3.94 3.94 0 0 0 1.882-2.562z"/><path fill="#F8CB4C" d="m17.551 24.066 1.302-2c-.023-2.26-.051-2.788-.075-2.788-.023 0-.023.404-.102.89-.073.451-.262 1.096-.797 1.85z"/><mask id="t" width="2" height="6" x="17" y="19" maskUnits="userSpaceOnUse" style="mask-type:luminance"><path fill="#fff" d="m17.551 24.066 1.302-2c-.023-2.26-.051-2.788-.075-2.788-.023 0-.023.404-.102.89-.073.451-.262 1.096-.797 1.85z"/></mask><g mask="url(#t)"><path fill="url(#u)" d="M18.54 18.965a3.8 3.8 0 0 1 .077 1.235l-.013.086q-.01.064-.023.122a2.4 2.4 0 0 1-.13.415l-.017.034-.04.083q-.11.2-.25.38a2.5 2.5 0 0 0-.27.499c-.12.289-.18.592-.242.898q-.15.74-.397 1.453a.16.16 0 0 0 .114.188.16.16 0 0 0 .195-.104q.228-.652.371-1.329c.066-.311.116-.627.23-.924a2.3 2.3 0 0 1 .25-.48q.14-.186.259-.387a2.5 2.5 0 0 0 .266-.804c.073-.483.03-.97-.071-1.448a.16.16 0 0 0-.309.085z"/></g><path fill="url(#v)" d="M28.773 53.404c.027 1.45.059 2.931.1 4.507.042 1.592.857 3.847 1.918 5.18.312-.444.547-.79.782-1.157 1.051-1.638 1.19-3.5 1.206-5.368q.013-1.581.013-3.162z"/><mask id="w" width="5" height="11" x="28" y="53" maskUnits="userSpaceOnUse" style="mask-type:luminance"><path fill="#fff" d="M28.773 53.404c.027 1.45.059 2.931.1 4.507.042 1.592.857 3.847 1.918 5.18.312-.444.547-.79.782-1.157 1.051-1.638 1.19-3.5 1.206-5.368q.013-1.581.013-3.162z"/></mask><g mask="url(#w)"><path fill="#F8CB4C" d="M30.836 52.674h-3.584V64.58h3.584z"/></g><path fill="url(#x)" d="M38.3 25.708a8 8 0 0 0 .45-6.874 17.7 17.7 0 0 1-4.268 2.139c.164.233.181.543.138 1.06-.051.605-.244 1.03-.19 1.316.284.04 1.24.176 1.53.212q.075-.143.17-.272c.131-.173.486-.638 1.014-.652.481-.015.817.353.881.423.28.308.328.658.383 1.088.06.522.024 1.05-.108 1.56"/><path fill="url(#y)" d="M32.085 17.827a8 8 0 0 1-.11-1.284l-.013-5.247.034-4.29q.465-.59.932-1.178c-1.138-.696-1.755-1.679-2.137-2.887-.308 1.247-1.014 2.193-2.085 2.896l.934 1.16-.016 1.315.016 3.03-.022 5.747q-.001.405-.055.806c.844.029 1.687-.025 2.522-.068"/><mask id="z" width="5" height="16" x="28" y="2" maskUnits="userSpaceOnUse" style="mask-type:luminance"><path fill="#fff" d="M32.085 17.827a8 8 0 0 1-.11-1.284l-.013-5.247.034-4.29q.465-.59.932-1.178c-1.138-.696-1.755-1.679-2.137-2.887-.308 1.247-1.014 2.193-2.085 2.896l.934 1.16-.016 1.315.016 3.03-.022 5.747q-.001.405-.055.806c.844.029 1.687-.025 2.522-.068"/></mask><g mask="url(#z)"><path fill="url(#A)" d="M30.837.076H25.22v20.029h5.616z"/></g><path fill="url(#B)" d="M33.837 9.408c0-.1 2.455-.392 5.284-.078 2.361.263 4.075.859 5.547 1.38a32.3 32.3 0 0 1 6.186 2.97 6 6 0 0 0-2.827-.317 6 6 0 0 0-1.546.424 11.4 11.4 0 0 1 4.261 2.816 11.3 11.3 0 0 1 2.592 4.387q-2.938-1.665-3.55-1.05-.796.806 2.366 5.498c-.413-.144-1.572-.484-2.45.07-1.233.777-1.64 3.138-.267 5.438a21.4 21.4 0 0 0-3.998 1.377A21.8 21.8 0 0 0 38.5 37.4c.9-1.78 2.102-4.31 3.326-7.429 1.789-4.56 2.683-6.84 2.638-9.018-.102-4.92-3.264-10.191-7.27-11.293-1.663-.457-3.358-.169-3.358-.252"/><path fill="url(#C)" d="m33.472 24.938.575.519-.534 1.298c-.123-.268-.328-.828-.167-1.466q.046-.18.126-.351"/><path fill="#000" d="M86.422 12.96v.36h-.46q-.5 0-.88.66-.38.54-.38 1.4v7.4q0 1.98-.58 3.16a4.5 4.5 0 0 1-1.72 1.88q-1.14.68-2.94.68-1.74-.04-2.56-.64-1.04-.6-1.48-1.76a6.5 6.5 0 0 1-.44-2.2v-7.1q-.04-.66-.36-.9-.38-.26-.72-.28h-.46v-.36h4.96v.36h-.46q-.74 0-1.06.32-.22.34-.24.86v6.48q0 2.54 1.14 3.46.86.84 1.78.84 1.68 0 2.8-1.12.72-1.42.72-3.18V15.3q0-1.72 1.64-2.6 1.18 0 1.7.26m6.262 9.78-3.34-5.3v8.72q.04 1.28.24 1.58.3.42.74.42h.36v.34h-4.22v-.36h.38q.82-.02.98-.74V17.1q0-.82-.3-1.16a1.1 1.1 0 0 0-.72-.32h-.34v-.36h2.86l3.68 5.92 4.08-5.92h3.06v.3h-.38q-.7 0-.98.5-.18.32-.18 1.44v11.84q0 1.22.22 1.52.44.62 1.26.5l.06.2q-1.38.48-2.32-.34-.74-.76-.74-1.88V17.3l-3.76 5.44zm6.887-7.48h3.6l7.22 9.32v-9.1q.08-1.28 1.12-1.88.96-.48 2.48-.22v.36h-.46q-.84 0-1.2.5-.22.36-.22 1.42v13.06h-.34l-8.54-10.66v8.14q0 1.22.28 1.52.36.42 1.14.42h.46v.36h-5.36v-.4h.46q.84 0 1.2-.34.26-.34.26-1.7v-9.2q-.2-.52-.42-.74a1.57 1.57 0 0 0-.82-.42q-.28-.08-.86-.08zm23.144.72v5.2h2.42q.84 0 1.22-.36t.52-1.46h.36v4.5h-.36q-.02-.78-.22-1.14-.18-.36-.52-.54t-1-.18h-2.42v7.52q0 1.02.14 1.34.1.24.4.42.44.22.9.22h.48v.36h-5.68v-.36h.46q.819 0 1.2-.48.22-.3.22-1.5V22h-1.3v-.82h1.3V17.1q0-.5-.12-.82-.1-.26-.4-.42-.42-.24-.9-.24h-.46v-.36h9.86l.12 2.9h-.34q-.261-.92-.6-1.34a1.85 1.85 0 0 0-.82-.64q-.5-.2-1.54-.2zm10.9 0v5.24h2.92q1.14 0 1.52-.34.5-.46.56-1.58h.36v4.6h-.36q-.14-.96-.28-1.24-.16-.34-.58-.54-.4-.2-1.22-.2h-2.92v4.38q0 .88.08 1.08a.67.67 0 0 0 .28.3q.2.1.74.1h2.24q1.14 0 1.64-.16t.98-.62q0-.88-.56-1.96l.98.02 1.28 3.44h-11.42v-.36h.46q.48 0 .9-.22.3-.16.42-.46.12-.32.12-1.3v-4.24h-1.4v-.68h1.4v-4.32q0-.62-.26-.92-.36-.38-1.18-.38h-.46v-.36h10.2l.16 2.9h-.38q-.22-1.04-.48-1.42-.24-.4-.72-.62-.4-.14-1.38-.14zm16.707-2.1v5.3h-.34q-.2-1.06-.62-1.7-.4-.64-1.18-1.14-.78-.52-1.62-.52-.96 0-1.58.7t-.62 1.58q0 .68.4 1.24.56.8 2.7 2.16 1.72 1.12 2.34 1.72.64.58.98 1.4.36.8.36 1.68 0 1.68-1.1 2.9t-2.82 1.22q-.52 0-1-.1-.28-.06-1.18-.4-.88-.34-1.12-.34a.48.48 0 0 0-.38.16q-.12.16-.2 1.6h-.32v-5.72h.32q.26 1.56.66 2.24.4.66 1.22 1.18t1.82.52q1.14 0 1.8-.72.68-.72.68-1.7 0-.54-.26-1.1a3.3 3.3 0 0 0-.78-1.04q-.36-.32-1.96-1.38-1.58-1.06-2.26-1.68a4.8 4.8 0 0 1-1.02-1.4 4.15 4.15 0 0 1-.34-1.68q0-1.6 1.02-2.74 1.02-1.16 2.62-1.16.98 0 1.74.38.64.32 1.1.44.36-.2.6-1.9zm12.367 1.06.02 3.32h-.38q-.1-.8-.3-1.14-.3-.54-.8-.8-.501-.26-1.32-.26h-1.86V30.2q0 .98.26 1.2.36.38.94.38h.46v.44h-5.22v-.44h.48q.6.02.98-.4.22-.3.22-1.18V16.06h-1.6q-.921 0-1.32.14-.5.18-.86.68t-.42 1.38h-.38v-3.32h.38v.32h10.36v-.32zm6.402 13.2v.36h-5.66v-.36h.46q.82 0 1.2-.48.24-.32.24-1.5V17.6q0-1-.14-1.32-.1-.26-.4-.42-.42-.24-.9-.24h-.46v-.36h5.66v.36h-.48q-.82 0-1.18.48-.26.32-.26 1.5v8.56q0 1 .14 1.32.1.24.4.42.42.24.9.24zm10.2-15.32q2.3-.46 2.72.4.12 1-.58 2.64l-4.72 12.64h-.8l-4.36-11.16q-.339-.86-.48-1.04a1.4 1.4 0 0 0-.54-.48q-.32-.16-.84-.2v-.36h4.78v.36q-.82.08-1.06.3a.73.73 0 0 0-.24.56q0 .48.4 1.5l2.96 7.58 2.76-7.5q1.24-3.54 1.24-3.98 0-.26-.26-.52-.24-.26-.82-.38a1 1 0 0 1-.16-.02zm6.922 12.4-2.64-7.22-2.04 5.52zm-5.36-1.94 3.04-8.32h.3l3.94 11.02q.48 1.32.86 1.72.4.38 1.1.44v.36h-4.48v-.36q.68-.04.92-.26a.73.73 0 0 0 .24-.56q0-.42-.22-1.14l-.06-.18-5.18-1.86-.74 2.02q-.28.76-.28 1.14 0 .32.24.56.24.22 1.08.28v.36h-3.58v-.36q.7-.14.92-.38.42-.48.96-1.9l.72-1.98-2.5-.9 1.14-.28zm18.621 1.2h.72l1.26 4-10.74.02v-.36h.48q.82 0 1.16-.54.2-.32.2-1.46V17.6q0-1.24-.26-1.56-.36-.42-1.1-.42h-.48v-.36h5.82v.36h-.52q-.52 0-1.3.36-.34.46-.34 1.44v8.72q0 .82.16 1.12a.75.75 0 0 0 .34.3q.24.1 1.48.1h.94q1.48 0 2.06-.22.6-.22.6-.82 0-.62-.48-2.14m-87.932 20.26-3.34-5.3v8.72q.039 1.28.24 1.58.3.42.74.42h.36v.34h-4.22v-.36h.38q.82-.02.98-.74V39.1q0-.82-.3-1.16a1.12 1.12 0 0 0-.72-.32h-.34v-.36h2.86l3.68 5.92 4.08-5.92h3.06v.3h-.38q-.7 0-.98.5-.18.32-.18 1.44v11.84q0 1.22.22 1.52.44.62 1.26.5l.06.2q-1.38.48-2.32-.34-.74-.76-.74-1.88V39.3l-3.76 5.44zm13.886 0-3.34-5.3v8.72q.04 1.28.24 1.58.3.42.74.42h.36v.34h-4.22v-.36h.38q.82-.02.98-.74V39.1q0-.82-.3-1.16a1.1 1.1 0 0 0-.72-.32h-.34v-.36h2.86l3.68 5.92 4.08-5.92h3.06v.3h-.38q-.7 0-.98.5-.18.32-.18 1.44v11.84q0 1.22.22 1.52.441.62 1.26.5l.06.2q-1.38.48-2.32-.34-.74-.76-.74-1.88V39.3l-3.76 5.44zm14.367-1.3 4.02 6.98q1.02 1.76 1.5 2.22.5.46 1.26.52v.42q-2.36 0-3.14-.84-.76-.96-1.16-1.64l-3.46-6.12-2.34 3.42q-.3.42-.38.62a.9.9 0 0 0-.08.38q0 .32.22.52.24.2.88.24v.36h-4.36v-.36q.42-.06.74-.2.52-.26.98-.68.48-.44 1.08-1.32l2.68-3.96-2.24-3.82q-.9-1.54-1.54-2.02a2.44 2.44 0 0 0-1.48-.52v-.38h5.26v.38q-.66.02-.92.26a.66.66 0 0 0-.24.5q0 .36.4 1.04l1.74 3.04 2.04-2.98q.36-.52.42-.72.08-.2.08-.4a.66.66 0 0 0-.1-.36.65.65 0 0 0-.32-.28q-.2-.1-.8-.1v-.38h4.72v.38q-.48.02-.76.18-.48.22-.92.48-.42.24-1.14 1.26zm13.203 0 4.02 6.98q1.02 1.76 1.5 2.22.5.46 1.26.52v.42q-2.36 0-3.14-.84-.76-.96-1.16-1.64l-3.46-6.12-2.34 3.42q-.3.42-.38.62a.9.9 0 0 0-.08.38q0 .32.22.52.24.2.88.24v.36h-4.36v-.36q.42-.06.74-.2.52-.26.98-.68.48-.44 1.08-1.32l2.68-3.96-2.24-3.82q-.9-1.54-1.54-2.02a2.44 2.44 0 0 0-1.48-.52v-.38h5.26v.38q-.66.02-.92.26a.66.66 0 0 0-.24.5q0 .36.4 1.04l1.74 3.04 2.04-2.98q.36-.52.42-.72.08-.2.08-.4a.66.66 0 0 0-.1-.36.65.65 0 0 0-.32-.28q-.2-.1-.8-.1v-.38h4.72v.38q-.48.02-.76.18-.48.22-.92.48-.42.24-1.14 1.26zm15.463-8.62q2.3-.46 2.72.4.12 1-.58 2.64l-4.72 12.64h-.8l-4.36-11.16q-.339-.86-.48-1.04a1.4 1.4 0 0 0-.54-.48q-.32-.16-.84-.2v-.36h4.78v.36q-.82.08-1.06.3a.73.73 0 0 0-.24.56q0 .48.4 1.5l2.96 7.58 2.76-7.5q1.24-3.54 1.24-3.98 0-.26-.26-.52-.24-.26-.82-.38a1 1 0 0 1-.16-.02z"/><defs><linearGradient id="a" x1="55.002" x2="43.611" y1="46.028" y2="54.987" gradientUnits="userSpaceOnUse"><stop stop-color="#281F65"/><stop offset="1" stop-color="#1E74D0"/></linearGradient><linearGradient id="b" x1="54.675" x2="43.67" y1="36.036" y2="47.098" gradientUnits="userSpaceOnUse"><stop stop-color="#281F65"/><stop offset="1" stop-color="#1E74D0"/></linearGradient><linearGradient id="c" x1="49.4" x2="56.887" y1="45.494" y2="41.237" gradientUnits="userSpaceOnUse"><stop stop-color="#281F65"/><stop offset="1" stop-color="#1E74D0"/></linearGradient><linearGradient id="d" x1="2.32" x2="17.996" y1="52.605" y2="52.605" gradientUnits="userSpaceOnUse"><stop stop-color="#281F65"/><stop offset="1" stop-color="#1E74D0"/></linearGradient><linearGradient id="e" x1="3.494" x2="19.139" y1="43.598" y2="43.598" gradientUnits="userSpaceOnUse"><stop stop-color="#281F65"/><stop offset="1" stop-color="#1E74D0"/></linearGradient><linearGradient id="f" x1="7.501" x2="5.67" y1="47.513" y2="39.247" gradientUnits="userSpaceOnUse"><stop stop-color="#281F65"/><stop offset="1" stop-color="#1E74D0"/></linearGradient><linearGradient id="g" x1="44.089" x2="18.388" y1="27.145" y2="28.377" gradientUnits="userSpaceOnUse"><stop offset=".46" stop-color="#BA2129"/><stop offset=".53" stop-color="#B12128"/><stop offset=".64" stop-color="#982127"/><stop offset=".78" stop-color="#6F2025"/><stop offset=".95" stop-color="#371F21"/><stop offset="1" stop-color="#241F20"/></linearGradient><linearGradient id="h" x1="14.222" x2="18.296" y1="15.534" y2="20.053" gradientUnits="userSpaceOnUse"><stop offset=".07" stop-color="#241F20"/><stop offset=".29" stop-color="#431F22"/><stop offset=".76" stop-color="#902026"/><stop offset="1" stop-color="#BA2129"/></linearGradient><linearGradient id="i" x1="32.724" x2="32.062" y1="6.662" y2="53.438" gradientUnits="userSpaceOnUse"><stop stop-color="#F9CC4C"/><stop offset=".22" stop-color="#F2A13E"/><stop offset=".45" stop-color="#EB7B31"/><stop offset=".67" stop-color="#E76028"/><stop offset=".86" stop-color="#E44F23"/><stop offset="1" stop-color="#E34921"/></linearGradient><linearGradient id="k" x1="25.416" x2="24.673" y1="4.069" y2="56.57" gradientUnits="userSpaceOnUse"><stop offset=".21" stop-color="#E34921"/><stop offset=".32" stop-color="#EA722E"/><stop offset=".44" stop-color="#F0993B"/><stop offset=".55" stop-color="#F5B544"/><stop offset=".64" stop-color="#F8C64A"/><stop offset=".71" stop-color="#F9CC4C"/></linearGradient><linearGradient id="l" x1="16.203" x2="48.038" y1="29.132" y2="40.325" gradientUnits="userSpaceOnUse"><stop offset=".37" stop-color="#BA2129"/><stop offset=".51" stop-color="#922027"/><stop offset=".79" stop-color="#431F22"/><stop offset=".93" stop-color="#241F20"/></linearGradient><linearGradient id="n" x1="14.077" x2="23.799" y1="20.32" y2="31.672" gradientUnits="userSpaceOnUse"><stop offset=".37" stop-color="#BA2129"/><stop offset=".42" stop-color="#B42129"/><stop offset=".5" stop-color="#A42128"/><stop offset=".59" stop-color="#892026"/><stop offset=".68" stop-color="#632024"/><stop offset=".78" stop-color="#331F21"/><stop offset=".8" stop-color="#241F20"/></linearGradient><linearGradient id="o" x1="34.721" x2="46.63" y1="8.258" y2="22.164" gradientUnits="userSpaceOnUse"><stop offset=".37" stop-color="#BA2129"/><stop offset=".42" stop-color="#B42129"/><stop offset=".5" stop-color="#A42128"/><stop offset=".59" stop-color="#892026"/><stop offset=".68" stop-color="#632024"/><stop offset=".78" stop-color="#331F21"/><stop offset=".8" stop-color="#241F20"/></linearGradient><linearGradient id="p" x1="34.731" x2="40.562" y1="45.911" y2="52.72" gradientUnits="userSpaceOnUse"><stop offset=".37" stop-color="#BA2129"/><stop offset=".42" stop-color="#B42129"/><stop offset=".5" stop-color="#A42128"/><stop offset=".59" stop-color="#892026"/><stop offset=".68" stop-color="#632024"/><stop offset=".78" stop-color="#331F21"/><stop offset=".8" stop-color="#241F20"/></linearGradient><linearGradient id="q" x1="23.025" x2="27.019" y1="11.351" y2="38.661" gradientUnits="userSpaceOnUse"><stop stop-color="#E34921"/><stop offset=".66" stop-color="#F19F3D"/><stop offset="1" stop-color="#F9CC4C"/></linearGradient><linearGradient id="s" x1="17.157" x2="23.121" y1="13.702" y2="19.28" gradientUnits="userSpaceOnUse"><stop offset=".07" stop-color="#241F20"/><stop offset=".25" stop-color="#431F22"/><stop offset=".64" stop-color="#902026"/><stop offset=".83" stop-color="#BA2129"/></linearGradient><linearGradient id="u" x1="17.314" x2="18.878" y1="21.568" y2="21.568" gradientUnits="userSpaceOnUse"><stop stop-color="#BA2129"/><stop offset=".23" stop-color="#CD5433"/><stop offset=".48" stop-color="#E0873E"/><stop offset=".71" stop-color="#EDAD46"/><stop offset=".89" stop-color="#F6C44A"/><stop offset="1" stop-color="#F9CC4C"/></linearGradient><linearGradient id="v" x1="31.034" x2="30.793" y1="36.947" y2="54.004" gradientUnits="userSpaceOnUse"><stop offset=".16" stop-color="#F9CC4C"/><stop offset=".36" stop-color="#F3A640"/><stop offset=".65" stop-color="#EA742F"/><stop offset=".88" stop-color="#E55525"/><stop offset="1" stop-color="#E34921"/></linearGradient><linearGradient id="x" x1="36.52" x2="37.356" y1="11.02" y2="38.604" gradientUnits="userSpaceOnUse"><stop stop-color="#F9CC4C"/><stop offset=".3" stop-color="#F19B3C"/><stop offset=".61" stop-color="#E96F2D"/><stop offset=".86" stop-color="#E55324"/><stop offset="1" stop-color="#E34921"/></linearGradient><linearGradient id="y" x1="30.509" x2="29.811" y1="10.539" y2="21.305" gradientUnits="userSpaceOnUse"><stop offset=".16" stop-color="#F9CC4C"/><stop offset=".31" stop-color="#F8C84B"/><stop offset=".46" stop-color="#F6BC47"/><stop offset=".6" stop-color="#F3A840"/><stop offset=".75" stop-color="#EE8C37"/><stop offset=".89" stop-color="#E8692B"/><stop offset="1" stop-color="#E34921"/></linearGradient><linearGradient id="A" x1="28.02" x2="26.624" y1="10.225" y2="31.766" gradientUnits="userSpaceOnUse"><stop offset=".23" stop-color="#E34921"/><stop offset=".36" stop-color="#E75E28"/><stop offset=".61" stop-color="#F0953A"/><stop offset=".84" stop-color="#F9CC4C"/></linearGradient><linearGradient id="B" x1="31.637" x2="53.581" y1="20.594" y2="28.309" gradientUnits="userSpaceOnUse"><stop offset=".37" stop-color="#BA2129"/><stop offset=".51" stop-color="#922027"/><stop offset=".79" stop-color="#431F22"/><stop offset=".93" stop-color="#241F20"/></linearGradient><linearGradient id="C" x1="33.828" x2="33.428" y1="14.319" y2="42.596" gradientUnits="userSpaceOnUse"><stop stop-color="#F9CC4C"/><stop offset=".23" stop-color="#F19F3D"/><stop offset=".46" stop-color="#EB7A31"/><stop offset=".67" stop-color="#E75F28"/><stop offset=".86" stop-color="#E44F23"/><stop offset="1" stop-color="#E34921"/></linearGradient></defs></svg>