<svg width="555" height="48" viewBox="0 0 555 48" fill="none" xmlns="http://www.w3.org/2000/svg">
<path d="M9.35744 8.952V21.528H16.3654C18.1894 21.528 19.4054 21.256 20.0134 20.712C20.8134 19.976 21.2614 18.712 21.3574 16.92H22.2214V27.96H21.3574C21.1334 26.424 20.9094 25.432 20.6854 24.984C20.4294 24.44 19.9654 24.008 19.2934 23.688C18.6534 23.368 17.6774 23.208 16.3654 23.208H9.35744V33.72C9.35744 35.128 9.42144 35.992 9.54944 36.312C9.67744 36.6 9.90144 36.84 10.2214 37.032C10.5414 37.192 11.1334 37.272 11.9974 37.272H17.3734C19.1974 37.272 20.5094 37.144 21.3094 36.888C22.1094 36.632 22.8934 36.136 23.6614 35.4C23.6614 33.992 23.2134 32.424 22.3174 30.696L24.6694 30.744L27.7414 39H0.333444V38.136H1.43744C2.20544 38.136 2.92544 37.96 3.59744 37.608C4.07744 37.352 4.41344 36.984 4.60544 36.504C4.79744 35.992 4.89344 34.952 4.89344 33.384V23.208H1.53344V21.576H4.89344V11.208C4.89344 10.216 4.68544 9.48 4.26944 9C3.69344 8.392 2.74944 8.088 1.43744 8.088H0.333444V7.224H24.8134L25.1974 14.184H24.2854C23.9334 12.52 23.5494 11.384 23.1334 10.776C22.7494 10.136 22.1734 9.64 21.4054 9.288C20.7654 9.064 19.6614 8.952 18.0934 8.952H9.35744ZM53.3423 1.368C57.0223 0.631998 59.1983 0.951998 59.8703 2.328C60.0623 3.928 59.5983 6.04 58.4783 8.664L47.1503 39H45.2303L34.7663 12.216C34.2223 10.84 33.8383 10.008 33.6143 9.72C33.2623 9.208 32.8303 8.824 32.3183 8.568C31.8063 8.312 31.1343 8.152 30.3023 8.088V7.224H41.7743V8.088C40.4623 8.216 39.6143 8.456 39.2303 8.808C38.8463 9.16 38.6543 9.608 38.6543 10.152C38.6543 10.92 38.9743 12.12 39.6143 13.752L46.7183 31.944L53.3423 13.944C55.3263 8.28 56.3183 5.096 56.3183 4.392C56.3183 3.976 56.1103 3.56 55.6943 3.144C55.3103 2.728 54.6543 2.424 53.7263 2.232C53.6303 2.232 53.5023 2.216 53.3423 2.184V1.368ZM71.8156 8.952V21.528H78.8236C80.6476 21.528 81.8636 21.256 82.4716 20.712C83.2716 19.976 83.7196 18.712 83.8156 16.92H84.6796V27.96H83.8156C83.5916 26.424 83.3676 25.432 83.1436 24.984C82.8876 24.44 82.4236 24.008 81.7516 23.688C81.1116 23.368 80.1356 23.208 78.8236 23.208H71.8156V33.72C71.8156 35.128 71.8796 35.992 72.0076 36.312C72.1356 36.6 72.3596 36.84 72.6796 37.032C72.9996 37.192 73.5916 37.272 74.4556 37.272H79.8316C81.6556 37.272 82.9676 37.144 83.7676 36.888C84.5676 36.632 85.3516 36.136 86.1196 35.4C86.1196 33.992 85.6716 32.424 84.7756 30.696L87.1276 30.744L90.1996 39H62.7916V38.136H63.8956C64.6636 38.136 65.3836 37.96 66.0556 37.608C66.5356 37.352 66.8716 36.984 67.0636 36.504C67.2556 35.992 67.3516 34.952 67.3516 33.384V23.208H63.9916V21.576H67.3516V11.208C67.3516 10.216 67.1436 9.48 66.7276 9C66.1516 8.392 65.2076 8.088 63.8956 8.088H62.7916V7.224H87.2716L87.6556 14.184H86.7436C86.3916 12.52 86.0076 11.384 85.5916 10.776C85.2076 10.136 84.6316 9.64 83.8636 9.288C83.2236 9.064 82.1196 8.952 80.5516 8.952H71.8156ZM92.4245 7.224H101.064L118.392 29.592V7.752C118.52 5.704 119.416 4.2 121.08 3.24C122.616 2.472 124.6 2.296 127.032 2.712V3.576H125.928C124.584 3.576 123.624 3.976 123.048 4.776C122.696 5.352 122.52 6.488 122.52 8.184V39.528H121.704L101.208 13.944V33.48C101.208 35.432 101.432 36.648 101.88 37.128C102.456 37.8 103.368 38.136 104.616 38.136H105.72V39H92.8565V38.04H93.9605C95.3045 38.04 96.2645 37.768 96.8405 37.224C97.2565 36.68 97.4645 35.32 97.4645 33.144V11.064C97.1445 10.232 96.8085 9.64 96.4565 9.288C95.8805 8.744 95.2245 8.408 94.4885 8.28C94.0405 8.152 93.3525 8.088 92.4245 8.088V7.224ZM153.191 6.456L153.239 14.424H152.327C152.167 13.144 151.927 12.232 151.607 11.688C151.127 10.824 150.487 10.184 149.687 9.768C148.887 9.352 147.831 9.144 146.519 9.144H142.055V43.08C142.055 44.648 142.263 45.608 142.679 45.96C143.255 46.568 144.007 46.872 144.935 46.872H146.039V47.928H133.511V46.872H134.663C135.623 46.904 136.407 46.584 137.015 45.912C137.367 45.432 137.543 44.488 137.543 43.08V9.144H133.703C132.231 9.144 131.175 9.256 130.535 9.48C129.735 9.768 129.047 10.312 128.471 11.112C127.895 11.912 127.559 13.016 127.463 14.424H126.551V6.456H127.463V7.224H152.327V6.456H153.191ZM176.045 3.912V16.632H175.229C174.909 14.936 174.413 13.576 173.741 12.552C173.101 11.528 172.157 10.616 170.909 9.816C169.661 8.984 168.365 8.568 167.021 8.568C165.485 8.568 164.221 9.128 163.229 10.248C162.237 11.368 161.741 12.632 161.741 14.04C161.741 15.128 162.061 16.12 162.701 17.016C163.597 18.296 165.757 20.024 169.181 22.2C171.933 23.992 173.805 25.368 174.797 26.328C175.821 27.256 176.605 28.376 177.149 29.688C177.725 30.968 178.013 32.312 178.013 33.72C178.013 36.408 177.133 38.728 175.373 40.68C173.613 42.632 171.357 43.608 168.605 43.608C167.773 43.608 166.973 43.528 166.205 43.368C165.757 43.272 164.813 42.952 163.373 42.408C161.965 41.864 161.069 41.592 160.685 41.592C160.301 41.592 159.997 41.72 159.773 41.976C159.581 42.232 159.421 43.512 159.293 45.816H158.525V32.088H159.293C159.709 34.584 160.237 36.376 160.877 37.464C161.517 38.52 162.493 39.464 163.805 40.296C165.117 41.128 166.573 41.544 168.173 41.544C169.997 41.544 171.437 40.968 172.493 39.816C173.581 38.664 174.125 37.304 174.125 35.736C174.125 34.872 173.917 33.992 173.501 33.096C173.085 32.2 172.461 31.368 171.629 30.6C171.053 30.088 169.485 28.984 166.925 27.288C164.397 25.592 162.589 24.248 161.501 23.256C160.445 22.232 159.629 21.112 159.053 19.896C158.509 18.648 158.237 17.304 158.237 15.864C158.237 13.304 159.053 11.112 160.685 9.288C162.317 7.432 164.413 6.504 166.973 6.504C168.541 6.504 169.933 6.808 171.149 7.416C172.173 7.928 173.053 8.28 173.789 8.472C174.365 8.152 174.845 6.632 175.229 3.912H176.045ZM209.562 31.128L203.226 13.8L198.33 27.048L209.562 31.128ZM196.698 26.472L203.994 6.504H204.714L214.17 32.952C214.938 35.064 215.626 36.44 216.234 37.08C216.874 37.688 217.754 38.04 218.874 38.136V39H208.122V38.136C209.21 38.072 209.946 37.864 210.33 37.512C210.714 37.16 210.906 36.712 210.906 36.168C210.906 35.496 210.73 34.584 210.378 33.432L210.234 33L197.802 28.536L196.026 33.384C195.578 34.6 195.354 35.512 195.354 36.12C195.354 36.632 195.546 37.08 195.93 37.464C196.314 37.816 197.178 38.04 198.522 38.136V39H189.93V38.136C191.05 37.912 191.786 37.608 192.138 37.224C192.81 36.456 193.578 34.936 194.442 32.664L196.17 27.912L190.17 25.752L192.906 25.08L196.698 26.472ZM220.703 7.224H229.343L246.671 29.592V7.752C246.799 5.704 247.695 4.2 249.359 3.24C250.895 2.472 252.879 2.296 255.311 2.712V3.576H254.207C252.863 3.576 251.903 3.976 251.327 4.776C250.975 5.352 250.799 6.488 250.799 8.184V39.528H249.983L229.487 13.944V33.48C229.487 35.432 229.711 36.648 230.159 37.128C230.735 37.8 231.647 38.136 232.895 38.136H233.999V39H221.135V38.04H222.239C223.583 38.04 224.543 37.768 225.119 37.224C225.535 36.68 225.743 35.32 225.743 33.144V11.064C225.423 10.232 225.087 9.64 224.735 9.288C224.159 8.744 223.503 8.408 222.767 8.28C222.319 8.152 221.631 8.088 220.703 8.088V7.224ZM263.181 36.696C264.941 37.144 266.413 37.368 267.597 37.368C270.829 37.368 273.501 36.104 275.613 33.576C277.725 31.016 278.781 27.544 278.781 23.16C278.781 18.776 277.725 15.32 275.613 12.792C273.501 10.264 270.781 9 267.453 9C266.205 9 264.781 9.64 263.181 10.92V36.696ZM283.485 22.968C283.485 27.416 282.333 31.128 280.029 34.104C277.341 37.304 273.469 38.936 268.413 39H255.117V38.136H256.173C257.357 38.136 258.189 37.72 258.669 36.888C259.021 36.312 259.197 35.144 259.197 33.384V12.84C259.197 10.888 259.005 9.64 258.621 9.096C258.077 8.424 257.261 8.088 256.173 8.088H255.117V7.224H263.133V9.288C265.565 7.912 268.269 7.224 271.245 7.224C274.733 7.224 277.997 9.288 281.037 13.416C282.669 16.456 283.485 19.64 283.485 22.968ZM315.26 31.128L308.924 13.8L304.028 27.048L315.26 31.128ZM302.396 26.472L309.692 6.504H310.412L319.868 32.952C320.636 35.064 321.324 36.44 321.932 37.08C322.572 37.688 323.452 38.04 324.572 38.136V39H313.82V38.136C314.908 38.072 315.644 37.864 316.028 37.512C316.412 37.16 316.604 36.712 316.604 36.168C316.604 35.496 316.428 34.584 316.076 33.432L315.932 33L303.5 28.536L301.724 33.384C301.276 34.6 301.052 35.512 301.052 36.12C301.052 36.632 301.244 37.08 301.628 37.464C302.012 37.816 302.876 38.04 304.22 38.136V39H295.628V38.136C296.748 37.912 297.484 37.608 297.836 37.224C298.508 36.456 299.276 34.936 300.14 32.664L301.868 27.912L295.868 25.752L298.604 25.08L302.396 26.472ZM356.544 41.208C353.632 44.024 349.44 45.432 343.968 45.432C340.128 45.432 336.336 43.864 332.592 40.728C329.104 37.784 327.36 32.984 327.36 26.328C327.36 20.696 328.992 16.104 332.256 12.552C335.552 9 339.52 7.224 344.16 7.224C347.648 7.224 350.416 8.04 352.464 9.672C354.288 11.272 355.2 12.984 355.2 14.808C355.2 15.8 354.928 16.632 354.384 17.304C353.68 18.008 352.608 18.36 351.168 18.36C349.696 18.36 348.752 17.48 348.336 15.72C348.336 14.088 348.816 13.128 349.776 12.84C349.744 12.168 349.136 11.496 347.952 10.824C346.48 9.832 344.8 9.336 342.912 9.336C340.64 9.336 338.4 10.472 336.192 12.744C333.568 15.816 332.256 19.768 332.256 24.6C332.256 31.064 333.696 35.736 336.576 38.616C339.52 41.592 342.896 43.08 346.704 43.08C350.288 43.08 353.344 42.216 355.872 40.488L356.544 41.208ZM385.292 6.456L385.34 14.424H384.428C384.268 13.144 384.028 12.232 383.708 11.688C383.228 10.824 382.588 10.184 381.788 9.768C380.988 9.352 379.932 9.144 378.62 9.144H374.156V43.08C374.156 44.648 374.364 45.608 374.78 45.96C375.356 46.568 376.108 46.872 377.036 46.872H378.14V47.928H365.612V46.872H366.764C367.724 46.904 368.508 46.584 369.116 45.912C369.468 45.432 369.644 44.488 369.644 43.08V9.144H365.804C364.332 9.144 363.276 9.256 362.636 9.48C361.836 9.768 361.148 10.312 360.572 11.112C359.996 11.912 359.66 13.016 359.564 14.424H358.652V6.456H359.564V7.224H384.428V6.456H385.292ZM402.098 38.136V39H388.514V38.136H389.618C390.93 38.136 391.89 37.752 392.498 36.984C392.882 36.472 393.074 35.272 393.074 33.384V12.84C393.074 11.24 392.962 10.184 392.738 9.672C392.578 9.256 392.258 8.92 391.778 8.664C391.106 8.28 390.386 8.088 389.618 8.088H388.514V7.224H402.098V8.088H400.946C399.634 8.088 398.69 8.472 398.114 9.24C397.698 9.752 397.49 10.952 397.49 12.84V33.384C397.49 34.984 397.602 36.04 397.826 36.552C397.986 36.936 398.306 37.272 398.786 37.56C399.458 37.944 400.178 38.136 400.946 38.136H402.098ZM428.018 1.368C431.698 0.631998 433.874 0.951998 434.546 2.328C434.738 3.928 434.274 6.04 433.154 8.664L421.826 39H419.906L409.442 12.216C408.898 10.84 408.514 10.008 408.29 9.72C407.938 9.208 407.506 8.824 406.994 8.568C406.482 8.312 405.81 8.152 404.978 8.088V7.224H416.45V8.088C415.138 8.216 414.29 8.456 413.906 8.808C413.522 9.16 413.33 9.608 413.33 10.152C413.33 10.92 413.65 12.12 414.29 13.752L421.394 31.944L428.018 13.944C430.002 8.28 430.994 5.096 430.994 4.392C430.994 3.976 430.786 3.56 430.37 3.144C429.986 2.728 429.33 2.424 428.402 2.232C428.306 2.232 428.178 2.216 428.018 2.184V1.368ZM451.243 38.136V39H437.659V38.136H438.763C440.075 38.136 441.035 37.752 441.643 36.984C442.027 36.472 442.219 35.272 442.219 33.384V12.84C442.219 11.24 442.107 10.184 441.883 9.672C441.723 9.256 441.403 8.92 440.923 8.664C440.251 8.28 439.531 8.088 438.763 8.088H437.659V7.224H451.243V8.088H450.091C448.779 8.088 447.835 8.472 447.259 9.24C446.843 9.752 446.635 10.952 446.635 12.84V33.384C446.635 34.984 446.747 36.04 446.971 36.552C447.131 36.936 447.451 37.272 447.931 37.56C448.603 37.944 449.323 38.136 450.091 38.136H451.243ZM481.052 6.456L481.1 14.424H480.188C480.028 13.144 479.788 12.232 479.468 11.688C478.988 10.824 478.348 10.184 477.548 9.768C476.748 9.352 475.692 9.144 474.38 9.144H469.916V43.08C469.916 44.648 470.124 45.608 470.54 45.96C471.116 46.568 471.868 46.872 472.796 46.872H473.9V47.928H461.372V46.872H462.524C463.484 46.904 464.268 46.584 464.876 45.912C465.228 45.432 465.404 44.488 465.404 43.08V9.144H461.564C460.092 9.144 459.036 9.256 458.396 9.48C457.596 9.768 456.908 10.312 456.332 11.112C455.756 11.912 455.42 13.016 455.324 14.424H454.412V6.456H455.324V7.224H480.188V6.456H481.052ZM497.858 38.136V39H484.274V38.136H485.378C486.69 38.136 487.65 37.752 488.258 36.984C488.642 36.472 488.834 35.272 488.834 33.384V12.84C488.834 11.24 488.722 10.184 488.498 9.672C488.338 9.256 488.018 8.92 487.538 8.664C486.866 8.28 486.146 8.088 485.378 8.088H484.274V7.224H497.858V8.088H496.706C495.394 8.088 494.45 8.472 493.874 9.24C493.458 9.752 493.25 10.952 493.25 12.84V33.384C493.25 34.984 493.362 36.04 493.586 36.552C493.746 36.936 494.066 37.272 494.546 37.56C495.218 37.944 495.938 38.136 496.706 38.136H497.858ZM510.53 8.952V21.528H517.538C519.362 21.528 520.578 21.256 521.186 20.712C521.986 19.976 522.434 18.712 522.53 16.92H523.394V27.96H522.53C522.306 26.424 522.082 25.432 521.858 24.984C521.602 24.44 521.138 24.008 520.466 23.688C519.826 23.368 518.85 23.208 517.538 23.208H510.53V33.72C510.53 35.128 510.594 35.992 510.722 36.312C510.85 36.6 511.074 36.84 511.394 37.032C511.714 37.192 512.306 37.272 513.17 37.272H518.546C520.37 37.272 521.682 37.144 522.482 36.888C523.282 36.632 524.066 36.136 524.834 35.4C524.834 33.992 524.386 32.424 523.49 30.696L525.842 30.744L528.914 39H501.506V38.136H502.61C503.378 38.136 504.098 37.96 504.77 37.608C505.25 37.352 505.586 36.984 505.778 36.504C505.97 35.992 506.066 34.952 506.066 33.384V23.208H502.706V21.576H506.066V11.208C506.066 10.216 505.858 9.48 505.442 9C504.866 8.392 503.922 8.088 502.61 8.088H501.506V7.224H525.986L526.37 14.184H525.458C525.106 12.52 524.722 11.384 524.306 10.776C523.922 10.136 523.346 9.64 522.578 9.288C521.938 9.064 520.834 8.952 519.266 8.952H510.53ZM552.067 3.912V16.632H551.251C550.931 14.936 550.435 13.576 549.763 12.552C549.123 11.528 548.179 10.616 546.931 9.816C545.683 8.984 544.387 8.568 543.043 8.568C541.507 8.568 540.243 9.128 539.251 10.248C538.259 11.368 537.763 12.632 537.763 14.04C537.763 15.128 538.083 16.12 538.723 17.016C539.619 18.296 541.779 20.024 545.203 22.2C547.955 23.992 549.827 25.368 550.819 26.328C551.843 27.256 552.627 28.376 553.171 29.688C553.747 30.968 554.035 32.312 554.035 33.72C554.035 36.408 553.155 38.728 551.395 40.68C549.635 42.632 547.379 43.608 544.627 43.608C543.795 43.608 542.995 43.528 542.227 43.368C541.779 43.272 540.835 42.952 539.395 42.408C537.987 41.864 537.091 41.592 536.707 41.592C536.323 41.592 536.019 41.72 535.795 41.976C535.603 42.232 535.443 43.512 535.315 45.816H534.547V32.088H535.315C535.731 34.584 536.259 36.376 536.899 37.464C537.539 38.52 538.515 39.464 539.827 40.296C541.139 41.128 542.595 41.544 544.195 41.544C546.019 41.544 547.459 40.968 548.515 39.816C549.603 38.664 550.147 37.304 550.147 35.736C550.147 34.872 549.939 33.992 549.523 33.096C549.107 32.2 548.483 31.368 547.651 30.6C547.075 30.088 545.507 28.984 542.947 27.288C540.419 25.592 538.611 24.248 537.523 23.256C536.467 22.232 535.651 21.112 535.075 19.896C534.531 18.648 534.259 17.304 534.259 15.864C534.259 13.304 535.075 11.112 536.707 9.288C538.339 7.432 540.435 6.504 542.995 6.504C544.563 6.504 545.955 6.808 547.171 7.416C548.195 7.928 549.075 8.28 549.811 8.472C550.387 8.152 550.867 6.632 551.251 3.912H552.067Z" fill="white"/>
</svg>
