<svg width="35" height="37" viewBox="0 0 35 37" fill="none" xmlns="http://www.w3.org/2000/svg">
<path d="M17.3695 0.769531C26.9624 0.769531 34.739 8.74817 34.739 18.5903C34.739 27.7015 28.0742 35.2147 19.4739 36.2805V24.036L24.1727 24.036L25.1474 18.5903H19.4739V16.6643C19.4739 15.2254 19.7489 14.2292 20.38 13.5928C21.0112 12.9564 21.9983 12.6796 23.4224 12.6796C23.7828 12.6796 24.1145 12.6833 24.4089 12.6907C24.8371 12.7014 25.1861 12.7198 25.429 12.7461V7.80944C25.3319 7.78177 25.2173 7.75409 25.0889 7.72685C24.798 7.66513 24.4363 7.60564 24.0475 7.55339C23.2351 7.4442 22.3043 7.36663 21.6531 7.36663C19.0231 7.36663 17.0355 7.94391 15.6481 9.13963C13.9736 10.5827 13.1734 12.9266 13.1734 16.2437V18.5903H9.59172V24.036H13.1734V35.8863C5.60792 33.9605 0 26.9479 0 18.5903C0 8.74817 7.77661 0.769531 17.3695 0.769531Z" fill="#281F65"/>
</svg>
