<svg width="35" height="26" viewBox="0 0 35 26" fill="none" xmlns="http://www.w3.org/2000/svg">
<path fill-rule="evenodd" clip-rule="evenodd" d="M33.1512 2.82797C33.6902 3.37548 34.0772 4.05628 34.2736 4.80221C35 7.55544 35 13.297 35 13.297C35 13.297 35 19.0385 34.2736 21.7917C34.0772 22.5376 33.6902 23.2184 33.1512 23.7659C32.6122 24.3135 31.9402 24.7085 31.2024 24.9115C28.4864 25.6486 17.6305 25.6486 17.6305 25.6486C17.6305 25.6486 6.77455 25.6486 4.05859 24.9115C3.32081 24.7085 2.6488 24.3135 2.10981 23.7659C1.57081 23.2184 1.18375 22.5376 0.987348 21.7917C0.260986 19.0385 0.260986 13.297 0.260986 13.297C0.260986 13.297 0.260986 7.55544 0.987348 4.80221C1.18375 4.05628 1.57081 3.37548 2.10981 2.82797C2.6488 2.28046 3.32081 1.88543 4.05859 1.68243C6.77455 0.945312 17.6305 0.945312 17.6305 0.945312C17.6305 0.945312 28.4864 0.945312 31.2024 1.68243C31.9402 1.88543 32.6122 2.28046 33.1512 2.82797ZM23.1572 13.297L14.0777 8.08342V18.5106L23.1572 13.297Z" fill="#281F65"/>
</svg>
