<svg width="216" height="218" viewBox="0 0 216 218" fill="none" xmlns="http://www.w3.org/2000/svg">
<circle cx="108" cy="108" r="108" fill="url(#paint0_linear_1006_2039)"/>
<g opacity="0.9" filter="url(#filter0_d_1006_2039)">
<path d="M75.696 134.994C79.4436 133.893 86.048 131.372 91.5512 125.381C100.147 116.026 103.937 100.541 98.7706 96.2849C97.5925 95.3152 95.1076 94.2385 89.4247 96.0288C89.2735 96.9899 89.123 97.951 88.9731 98.9121C92.2806 97.6463 93.9795 98.1068 94.9087 98.7297C99.0003 101.472 97.2975 113.46 91.3888 121.15C87.5817 126.106 82.6579 128.458 79.7617 129.55L75.696 134.994Z" fill="#F3C019"/>
</g>
<g opacity="0.9" filter="url(#filter1_d_1006_2039)">
<path d="M57.1965 134.994C53.4489 133.893 46.8445 131.372 41.3413 125.381C32.7459 116.026 28.956 100.541 34.122 96.2849C35.3 95.3152 37.785 94.2385 43.4679 96.0288C43.619 96.9899 43.7696 97.951 43.9195 98.9121C40.612 97.6463 38.9131 98.1068 37.9839 98.7297C33.8923 101.472 35.595 113.46 41.5037 121.15C45.3109 126.106 50.2347 128.458 53.1309 129.55L57.1965 134.994Z" fill="#F3C019"/>
</g>
<g opacity="0.9" filter="url(#filter2_d_1006_2039)">
<path d="M87.9709 168H45.0547C43.9689 168 43.0886 168.894 43.0886 169.996C43.0886 171.099 43.9689 171.993 45.0547 171.993H87.9709C89.0568 171.993 89.937 171.099 89.937 169.996C89.937 168.894 89.0568 168 87.9709 168Z" fill="#FFD54B"/>
</g>
<g opacity="0.9" filter="url(#filter3_d_1006_2039)">
<path d="M51.6077 157.486H81.2853C82.5563 157.486 83.7752 157.99 84.674 158.886C85.5727 159.782 86.0776 160.998 86.0776 162.265V168H46.8154V162.265C46.8154 160.998 47.3203 159.782 48.2191 158.886C49.1178 157.99 50.3367 157.486 51.6077 157.486Z" fill="#F3C019"/>
</g>
<g opacity="0.9" filter="url(#filter4_d_1006_2039)">
<path d="M69.9062 140.982C67.71 141.443 65.4421 141.443 63.2458 140.982C63.301 144.158 62.6147 147.303 61.2412 150.168C59.8677 153.033 57.8449 155.538 55.3333 157.486H77.5596C75.0811 155.525 73.0976 153.01 71.7684 150.144C70.4392 147.277 69.8014 144.14 69.9062 140.982Z" fill="url(#paint1_linear_1006_2039)"/>
</g>
<g opacity="0.9" filter="url(#filter5_d_1006_2039)">
<path d="M66.4849 142.445C65.2279 142.457 61.0604 142.499 59.4204 139.567C58.6086 138.117 58.7675 136.565 58.9073 135.792C61.187 137.195 63.8101 137.937 66.4854 137.937C69.1608 137.937 71.7838 137.195 74.0636 135.792C74.1411 136.586 74.1784 138.209 73.2211 139.694C71.4834 142.395 67.8894 142.431 66.4849 142.445Z" fill="#F3C019"/>
</g>
<g opacity="0.9" filter="url(#filter6_d_1006_2039)">
<path d="M75.7277 135.53C70.9169 138.508 66.4499 138.454 66.4499 138.454C66.4499 138.454 61.9358 138.399 57.1087 135.209C50.1618 130.615 44.1427 115.404 42.29 95.0659H90.7355C88.9165 115.731 82.7956 131.155 75.7277 135.53Z" fill="url(#paint2_linear_1006_2039)"/>
</g>
<g opacity="0.9" filter="url(#filter7_d_1006_2039)">
<path d="M47.0919 87.7456H85.9337C87.2072 87.7456 88.4286 88.2506 89.3291 89.1495C90.2296 90.0484 90.7355 91.2675 90.7355 92.5387V93.4686H42.29V92.5387C42.29 91.2675 42.7959 90.0484 43.6965 89.1495C44.597 88.2506 45.8183 87.7456 47.0919 87.7456Z" fill="#F3C019"/>
</g>
<g opacity="0.9" filter="url(#filter8_d_1006_2039)">
<path d="M66.513 99.8572L69.8597 110.065H80.6897L71.928 116.374L75.2747 126.582L66.513 120.273L57.7513 126.582L61.098 116.374L52.3363 110.065H63.1663L66.513 99.8572Z" fill="#FFF5D6"/>
</g>
<g opacity="0.9" filter="url(#filter9_d_1006_2039)">
<path d="M159.012 134.461C162.759 133.36 169.364 130.839 174.867 124.848C183.462 115.493 187.252 100.009 182.086 95.7524C180.908 94.7827 178.423 93.706 172.74 95.4964C172.589 96.4575 172.439 97.4186 172.289 98.3797C175.596 97.1138 177.295 97.5743 178.224 98.1972C182.316 100.939 180.613 112.928 174.705 120.618C170.897 125.573 165.974 127.925 163.077 129.017L159.012 134.461Z" fill="#F3C019"/>
</g>
<g opacity="0.9" filter="url(#filter10_d_1006_2039)">
<path d="M140.512 134.461C136.765 133.36 130.16 130.839 124.657 124.848C116.062 115.493 112.272 100.009 117.438 95.7524C118.616 94.7827 121.101 93.706 126.784 95.4964C126.935 96.4575 127.085 97.4186 127.235 98.3797C123.928 97.1138 122.229 97.5743 121.3 98.1972C117.208 100.939 118.911 112.928 124.819 120.618C128.627 125.573 133.55 127.925 136.447 129.017L140.512 134.461Z" fill="#F3C019"/>
</g>
<g opacity="0.9" filter="url(#filter11_d_1006_2039)">
<path d="M171.287 167.468H128.371C127.285 167.468 126.405 168.362 126.405 169.464C126.405 170.567 127.285 171.461 128.371 171.461H171.287C172.373 171.461 173.253 170.567 173.253 169.464C173.253 168.362 172.373 167.468 171.287 167.468Z" fill="#FFD54B"/>
</g>
<g opacity="0.9" filter="url(#filter12_d_1006_2039)">
<path d="M134.923 156.954H164.601C165.872 156.954 167.091 157.457 167.99 158.353C168.888 159.25 169.393 160.465 169.393 161.733V167.468H130.131V161.733C130.131 160.465 130.636 159.25 131.535 158.353C132.433 157.457 133.652 156.954 134.923 156.954Z" fill="#F3C019"/>
</g>
<g opacity="0.9" filter="url(#filter13_d_1006_2039)">
<path d="M153.222 140.45C151.025 140.91 148.757 140.91 146.561 140.45C146.616 143.626 145.93 146.771 144.557 149.636C143.183 152.501 141.16 155.006 138.649 156.954H160.875C158.397 154.992 156.413 152.478 155.084 149.611C153.755 146.745 153.117 143.607 153.222 140.45Z" fill="url(#paint3_linear_1006_2039)"/>
</g>
<g opacity="0.9" filter="url(#filter14_d_1006_2039)">
<path d="M149.801 141.912C148.544 141.925 144.376 141.967 142.736 139.035C141.924 137.584 142.083 136.033 142.223 135.26C144.503 136.662 147.126 137.405 149.801 137.405C152.476 137.405 155.1 136.662 157.379 135.26C157.457 136.054 157.494 137.677 156.537 139.161C154.799 141.862 151.205 141.899 149.801 141.912Z" fill="#F3C019"/>
</g>
<g opacity="0.9" filter="url(#filter15_d_1006_2039)">
<path d="M159.043 134.998C154.233 137.976 149.766 137.921 149.766 137.921C149.766 137.921 145.251 137.867 140.424 134.676C133.477 130.083 127.458 114.871 125.606 94.5334H174.051C172.232 115.199 166.111 130.623 159.043 134.998Z" fill="url(#paint4_linear_1006_2039)"/>
</g>
<g opacity="0.9" filter="url(#filter16_d_1006_2039)">
<path d="M130.408 87.2134H169.249C170.523 87.2134 171.744 87.7184 172.645 88.6172C173.545 89.5161 174.051 90.7353 174.051 92.0065V92.9363H125.606V92.0065C125.606 90.7353 126.112 89.5161 127.012 88.6172C127.913 87.7184 129.134 87.2134 130.408 87.2134Z" fill="#F3C019"/>
</g>
<g opacity="0.9" filter="url(#filter17_d_1006_2039)">
<path d="M149.829 99.3247L153.175 109.533H164.005L155.244 115.842L158.59 126.05L149.829 119.741L141.067 126.05L144.414 115.842L135.652 109.533H146.482L149.829 99.3247Z" fill="#FFF5D6"/>
</g>
<g filter="url(#filter18_d_1006_2039)">
<path d="M123.343 119.289C128.68 117.722 138.085 114.134 145.922 105.606C158.163 92.2909 163.56 70.2512 156.203 64.1932C154.526 62.813 150.987 61.2805 142.894 63.8288C142.679 65.1968 142.464 66.5647 142.251 67.9327C146.961 66.131 149.38 66.7864 150.704 67.673C156.53 71.5756 154.106 88.6399 145.691 99.5849C140.269 106.638 133.258 109.986 129.133 111.54L123.343 119.289Z" fill="#F3C019"/>
</g>
<g filter="url(#filter19_d_1006_2039)">
<path d="M96.8579 119.289C91.521 117.722 82.1158 114.134 74.2788 105.606C62.0382 92.2909 56.6411 70.2512 63.9978 64.1932C65.6755 62.813 69.2142 61.2805 77.3071 63.8288C77.5224 65.1968 77.7368 66.5647 77.9503 67.9327C73.2402 66.131 70.8208 66.7864 69.4975 67.673C63.6707 71.5756 66.0956 88.6399 74.5101 99.5849C79.9318 106.638 86.9436 109.986 91.0681 111.54L96.8579 119.289Z" fill="#F3C019"/>
</g>
<g filter="url(#filter20_d_1006_2039)">
<path d="M140.769 166.27H79.5649C78.0164 166.27 76.761 167.551 76.761 169.131C76.761 170.712 78.0164 171.993 79.5649 171.993H140.769C142.318 171.993 143.573 170.712 143.573 169.131C143.573 167.551 142.318 166.27 140.769 166.27Z" fill="#FFD54B"/>
</g>
<g filter="url(#filter21_d_1006_2039)">
<path d="M88.9241 151.364H131.278C133.091 151.364 134.831 152.078 136.114 153.348C137.396 154.619 138.117 156.342 138.117 158.139V166.27H82.085V158.139C82.085 156.342 82.8055 154.619 84.0881 153.348C85.3707 152.078 87.1103 151.364 88.9241 151.364Z" fill="#F3C019"/>
</g>
<g filter="url(#filter22_d_1006_2039)">
<path d="M115.098 127.939C111.968 128.593 108.736 128.593 105.606 127.939C105.684 132.447 104.706 136.911 102.749 140.977C100.791 145.043 97.9086 148.599 94.3291 151.364H126.005C122.473 148.58 119.646 145.01 117.752 140.942C115.857 136.874 114.948 132.421 115.098 127.939Z" fill="url(#paint5_linear_1006_2039)"/>
</g>
<g filter="url(#filter23_d_1006_2039)">
<path d="M110.222 129.933C108.429 129.951 102.486 130.011 100.147 125.847C98.9894 123.788 99.2161 121.584 99.4154 120.486C102.667 122.478 106.407 123.533 110.222 123.533C114.038 123.533 117.778 122.478 121.03 120.486C121.14 121.614 121.193 123.919 119.828 126.027C117.35 129.862 112.225 129.914 110.222 129.933Z" fill="#F3C019"/>
</g>
<g filter="url(#filter24_d_1006_2039)">
<path d="M123.28 120.176C116.434 124.424 110.077 124.346 110.077 124.346C110.077 124.346 103.654 124.268 96.7841 119.717C86.8982 113.165 78.3326 91.4676 75.696 62.4583H144.638C142.049 91.9346 133.339 113.936 123.28 120.176Z" fill="url(#paint6_linear_1006_2039)"/>
</g>
<g filter="url(#filter25_d_1006_2039)">
<path d="M82.5294 52.0771H137.804C139.617 52.0771 141.355 52.7935 142.636 54.0687C143.918 55.3438 144.638 57.0733 144.638 58.8767V60.1958H75.696V58.8767C75.696 57.0733 76.416 55.3438 77.6975 54.0687C78.979 52.7935 80.7171 52.0771 82.5294 52.0771Z" fill="#F3C019"/>
</g>
<g filter="url(#filter26_d_1006_2039)">
<path d="M110.167 69.2458L114.918 83.8222H130.293L117.854 92.8309L122.606 107.407L110.167 98.3985L97.7285 107.407L102.48 92.8309L90.0411 83.8222H105.416L110.167 69.2458Z" fill="#FFF5D6"/>
</g>
<g filter="url(#filter27_d_1006_2039)">
<path d="M205.03 180.649C204.635 180.478 200.055 178.397 199.182 173.533C198.527 169.867 200.23 166.106 203.548 163.923C201.93 164.237 199.262 164.783 195.994 165.568C182.51 168.815 175.14 170.686 170.802 176.576C169.957 177.728 168.716 179.718 167.958 182.748L178.896 181.177C178.843 182.853 178.838 184.6 178.896 186.414C179.044 191.059 179.582 195.683 180.504 200.238L199.556 196.17C198.896 195.563 196.517 193.219 196.51 189.848C196.507 185.794 199.932 181.887 205.03 180.649Z" fill="#FFF5D6"/>
</g>
<g filter="url(#filter28_d_1006_2039)">
<path d="M10.9702 180.649C11.3653 180.478 15.9448 178.397 16.8167 173.533C17.4737 169.867 15.7687 166.106 12.452 163.923C14.07 164.237 16.7339 164.783 20.0055 165.568C33.4893 168.815 40.8657 170.686 45.199 176.576C46.0436 177.728 47.2854 179.718 48.042 182.748L37.1047 181.177C37.1581 182.853 37.1623 184.6 37.1047 186.414C36.9558 191.059 36.4181 195.683 35.4972 200.238L16.4446 196.17C17.1027 195.563 19.4837 193.219 19.4889 189.848C19.4962 185.794 16.0674 181.887 10.9702 180.649Z" fill="#FFF5D6"/>
</g>
<g filter="url(#filter29_d_1006_2039)">
<path d="M179.833 180.109C179.833 180.109 182.032 180.302 182.032 181.817C182.025 189.849 181.984 198.038 182.08 206.227C182.102 208.038 181.008 208.44 179.681 208.689C170.836 210.351 162.042 212.442 153.116 213.497C127.174 216.559 101.14 216.588 75.0815 214.788C60.451 213.776 43.9499 211.186 35.1647 208.336C34.8073 208.226 34.4941 208.006 34.2703 207.707C34.0464 207.408 33.9236 207.046 33.9194 206.673V181.83C34.4972 181.085 35.2536 180.497 36.1189 180.119C38.0397 179.306 40.0004 179.862 40.4277 179.971C44.7512 181.06 88.562 185.798 111.028 185.151C127.103 184.689 173.434 180.285 176.913 179.808C177.254 179.761 178.506 179.571 179.833 180.109Z" fill="#FFF5D6"/>
</g>
<path d="M52.9774 188.795L52.6407 192.233L52.241 192.191C52.2283 191.632 52.1649 191.228 52.0506 190.978C51.8977 190.605 51.6369 190.285 51.3016 190.061C50.9729 189.846 50.5231 189.708 49.9523 189.646L48.0092 189.427L46.3523 204.043C46.2758 204.715 46.3221 205.139 46.491 205.315C46.6086 205.461 46.7553 205.582 46.9218 205.668C47.0882 205.755 47.2709 205.807 47.4582 205.819L47.9537 205.875C47.9374 206.026 47.9197 206.177 47.9033 206.33C46.0287 206.123 44.1549 205.907 42.282 205.681C42.2997 205.529 42.3186 205.378 42.3362 205.227L42.8532 205.288C43.0467 205.325 43.2461 205.319 43.4367 205.269C43.6274 205.219 43.8045 205.128 43.9553 205.001C44.1369 204.812 44.263 204.415 44.3336 203.809C44.9044 198.94 45.4751 194.071 46.0459 189.2C45.4894 189.135 44.9329 189.069 44.3764 189.002C43.7359 188.925 43.271 188.917 42.9818 188.979C42.6007 189.071 42.2567 189.277 41.9958 189.569C41.7032 189.883 41.4914 190.34 41.3792 190.939L40.9807 190.89C41.1245 189.747 41.2686 188.605 41.4132 187.462L41.8092 187.513L41.7675 187.843C45.3621 188.295 48.9617 188.709 52.5663 189.087C52.5789 188.977 52.5902 188.866 52.6016 188.756L52.9774 188.795Z" fill="#8F6E01"/>
<path d="M60.156 189.472C61.4359 189.588 62.7296 190.327 64.0524 191.689C65.2339 193.387 65.7723 195.015 65.6487 196.577C65.5354 198.267 64.9388 199.887 63.93 201.247C63.1886 202.271 61.9365 202.997 60.1724 203.412C59.6289 203.517 59.0742 203.552 58.5219 203.515C55.8486 203.272 54.019 201.602 53.0607 198.536C52.8653 197.568 52.8228 196.575 52.9346 195.594C53.1515 193.497 54.101 191.854 55.7692 190.652C56.3376 190.363 56.9675 190.216 57.6051 190.224C58.4021 189.641 59.2524 189.391 60.156 189.472ZM58.0641 191.118C58.0641 191.69 58.3272 192.119 58.8535 192.404C59.2057 192.269 59.4722 192.21 59.6529 192.226C59.974 192.255 60.1506 192.487 60.1825 192.922C60.1296 193.196 59.7828 193.373 59.1385 193.454C58.1717 193.365 57.6644 192.6 57.6165 191.159C57.171 191.257 56.7397 191.564 56.3228 192.08C55.6118 193.324 55.1786 194.708 55.053 196.136C54.8197 198.497 55.2875 200.398 56.4741 201.834C57.0953 202.396 57.7565 202.709 58.4575 202.773C59.7979 202.899 60.9328 202.43 61.8533 201.385C62.7436 200.094 63.2765 198.59 63.3979 197.026C63.5353 195.458 63.2818 193.88 62.6603 192.433C61.9583 191.246 60.9878 190.596 59.7488 190.485C58.7602 190.39 58.1978 190.601 58.0641 191.118Z" fill="#8F6E01"/>
<path d="M79.761 188.839C79.7535 188.966 79.7472 189.092 79.7409 189.218L79.2617 189.193C78.9137 189.174 78.5951 189.384 78.3059 189.823C78.0201 190.182 77.8604 190.659 77.8267 191.254C77.6805 193.816 77.5346 196.38 77.3892 198.946C77.311 200.316 77.0424 201.398 76.5835 202.192C76.1254 202.981 75.4447 203.617 74.6265 204.021C73.7858 204.449 72.7195 204.62 71.4274 204.534C70.1854 204.423 69.2838 204.136 68.7303 203.68C68.0292 203.227 67.5148 202.537 67.2815 201.736C67.0443 200.988 66.9439 200.203 66.9851 199.419C67.1734 196.964 67.3605 194.51 67.5463 192.055C67.5463 191.596 67.4504 191.276 67.2398 191.092C67.032 190.912 66.7799 190.792 66.5098 190.743L66.0281 190.706L66.0583 190.327C67.7858 190.462 69.5142 190.591 71.2433 190.713L71.2169 191.092L70.739 191.054C70.222 191.017 69.845 191.102 69.6041 191.306C69.4214 191.563 69.312 191.865 69.2876 192.18C69.1254 194.422 68.9623 196.663 68.7984 198.903C68.6698 200.661 68.9888 201.887 69.7554 202.581C70.3279 203.205 70.9428 203.541 71.6002 203.59C72.8006 203.674 73.8245 203.35 74.6719 202.619C75.257 201.627 75.5887 200.506 75.6377 199.356C75.8059 196.593 75.9719 193.831 76.1358 191.069C76.2073 189.878 76.8306 189.012 78.0058 188.469C78.8246 188.518 79.4097 188.641 79.761 188.839Z" fill="#8F6E01"/>
<path d="M88.4982 205.408C87.0935 203.206 85.7064 200.999 84.337 198.787C84.0753 198.82 83.8111 198.828 83.5477 198.813L82.9752 198.788C82.9139 200.104 82.8525 201.42 82.7911 202.736C82.7525 203.596 82.8205 204.134 82.9954 204.35C83.2249 204.665 83.583 204.833 84.0697 204.854L84.5842 204.877L84.5691 205.255C82.7003 205.171 80.8316 205.081 78.9629 204.986L78.9831 204.607L79.4774 204.634C80.0347 204.663 80.4374 204.495 80.6853 204.129C80.8257 203.914 80.9148 203.419 80.9527 202.643C81.1015 199.679 81.2494 196.714 81.3965 193.749C81.4394 192.89 81.3826 192.344 81.2263 192.11C81.0027 191.807 80.6467 191.644 80.1583 191.618L79.6766 191.593C79.6842 191.467 79.6905 191.341 79.6968 191.215C80.9039 191.279 82.1111 191.339 83.3182 191.395C83.3056 191.673 83.2926 191.95 83.2791 192.227C84.8566 191.758 86.0431 191.607 86.8476 191.777C87.6316 191.987 88.328 192.442 88.8348 193.076C89.3212 193.676 89.5719 194.433 89.5397 195.204C89.5266 196.01 89.2209 196.784 88.6797 197.381C88.135 197.985 87.3204 198.4 86.2348 198.619C87.6369 200.904 89.0576 203.183 90.4968 205.457C91.2903 206.649 92.2877 207.421 93.489 207.772C93.5029 207.814 93.5155 207.857 93.5293 207.898C91.6581 207.848 90.2194 207.308 89.2207 206.289L88.4982 205.408ZM83.0055 198.105L83.5565 198.13C84.7872 198.185 85.7266 197.963 86.3747 197.464C86.6822 197.244 86.9342 196.955 87.1108 196.621C87.2874 196.286 87.3838 195.915 87.3923 195.537C87.4226 194.761 87.2448 194.098 86.8589 193.549C86.4731 193 85.8683 192.706 85.0444 192.666C84.4261 192.739 83.8189 192.887 83.2362 193.106C83.1606 194.777 83.0837 196.443 83.0055 198.105Z" fill="#8F6E01"/>
<path d="M92.4675 191.758C93.7285 191.795 94.9852 191.828 96.2378 191.856C98.6865 195.142 101.182 198.412 103.724 201.664C103.749 198.51 103.774 195.354 103.798 192.199C103.861 191.312 104.257 190.662 104.984 190.25C105.655 189.921 106.516 189.849 107.574 190.031V190.409H107.093C106.505 190.409 106.084 190.582 105.832 190.926C105.677 191.178 105.599 191.668 105.595 192.402C105.575 196.931 105.554 201.46 105.533 205.988H105.168C102.126 202.276 99.1476 198.539 96.2315 194.777L96.0448 203.243C96.0255 204.089 96.1142 204.618 96.3109 204.831C96.5631 205.127 96.9678 205.28 97.5252 205.292L98.0195 205.301L98.0119 205.679C96.0928 205.644 94.1732 205.599 92.2532 205.543L92.2645 205.127L92.7588 205.141C93.3599 205.159 93.7924 205.052 94.0563 204.822C94.248 204.592 94.3556 204.003 94.3791 203.057C94.4632 199.868 94.5435 196.679 94.62 193.488C94.5326 193.203 94.3894 192.938 94.1988 192.708C93.9679 192.474 93.6724 192.314 93.3502 192.249C93.0564 192.175 92.7543 192.138 92.4511 192.139L92.4675 191.758Z" fill="#8F6E01"/>
<path d="M110.08 200.325C111.148 197.437 112.199 194.544 113.233 191.648H113.548C114.961 195.456 116.405 199.257 117.88 203.051C118.239 203.96 118.56 204.548 118.845 204.816C119.13 205.085 119.523 205.233 120.025 205.26C120.025 205.386 120.032 205.513 120.034 205.639C118.429 205.674 116.824 205.702 115.22 205.723C115.22 205.597 115.22 205.471 115.22 205.345C115.705 205.311 116.034 205.219 116.203 205.061C116.286 204.988 116.352 204.898 116.395 204.796C116.439 204.695 116.46 204.585 116.456 204.475C116.429 204.07 116.344 203.672 116.203 203.292C116.181 203.23 116.159 203.166 116.137 203.105C114.28 202.488 112.431 201.862 110.588 201.225C110.329 201.928 110.068 202.63 109.807 203.33C109.609 203.858 109.509 204.253 109.51 204.516C109.509 204.624 109.531 204.731 109.575 204.829C109.618 204.928 109.682 205.016 109.763 205.088C109.935 205.248 110.322 205.34 110.924 205.385C110.924 205.511 110.924 205.637 110.924 205.763C109.642 205.77 108.359 205.772 107.075 205.77C107.075 205.644 107.075 205.518 107.075 205.391C107.58 205.296 107.905 205.163 108.063 204.997C108.365 204.661 108.707 204.002 109.089 203.02C109.341 202.332 109.596 201.645 109.853 200.958C108.959 200.646 108.068 200.332 107.18 200.016L108.392 199.726L110.08 200.325ZM115.813 202.292C114.833 199.802 113.869 197.31 112.92 194.816C112.221 196.736 111.515 198.655 110.8 200.573C112.465 201.153 114.134 201.725 115.807 202.292H115.813Z" fill="#8F6E01"/>
<path d="M127.928 199.401C126.677 197.605 125.439 195.808 124.212 194.009C124.303 197.035 124.395 200.057 124.487 203.075C124.543 203.962 124.645 204.509 124.793 204.715C124.884 204.845 125.005 204.95 125.146 205.022C125.287 205.094 125.443 205.13 125.602 205.127L125.989 205.114L126 205.467C124.487 205.517 122.974 205.559 121.461 205.593C121.461 205.467 121.461 205.341 121.452 205.215L121.86 205.204C122.447 205.176 122.79 204.909 122.891 204.407C122.794 200.838 122.697 197.267 122.598 193.696C122.583 193.128 122.467 192.729 122.251 192.498C122.043 192.305 121.771 192.194 121.487 192.186L121.132 192.195C121.132 192.068 121.132 191.942 121.122 191.816C122.12 191.791 123.119 191.763 124.118 191.733C125.463 193.751 126.824 195.758 128.202 197.757C129.564 195.655 130.909 193.545 132.237 191.425C133.305 191.376 134.373 191.324 135.44 191.269C135.44 191.374 135.45 191.477 135.456 191.582L135.058 191.602C134.568 191.627 134.235 191.816 134.056 192.173C133.941 192.4 133.903 192.902 133.94 193.677C134.14 197.779 134.34 201.88 134.539 205.98C134.58 206.821 134.684 207.344 134.853 207.548C135.19 207.961 135.652 208.112 136.24 207.999L136.316 208.204C135.339 208.587 134.499 208.51 133.794 207.974C133.523 207.733 133.305 207.438 133.153 207.108C133.001 206.778 132.919 206.42 132.911 206.057C132.723 201.892 132.534 197.725 132.344 193.555C131.112 195.5 129.867 197.44 128.608 199.376L127.928 199.401Z" fill="#8F6E01"/>
<path d="M139.722 191.79C139.828 193.603 139.936 195.417 140.046 197.231C141.075 197.17 142.105 197.106 143.135 197.038C143.939 196.986 144.468 196.833 144.72 196.581C145.05 196.238 145.21 195.678 145.198 194.9L145.576 194.874C145.687 196.465 145.799 198.057 145.912 199.648L145.533 199.674C145.387 199.015 145.261 198.599 145.142 198.406C144.996 198.164 144.771 197.98 144.504 197.886C144.205 197.768 143.766 197.726 143.187 197.76C142.155 197.828 141.124 197.893 140.092 197.954C140.183 199.468 140.273 200.984 140.363 202.503C140.4 203.112 140.45 203.481 140.516 203.608C140.584 203.741 140.697 203.845 140.835 203.902C140.981 203.969 141.249 203.992 141.634 203.968C142.435 203.918 143.233 203.867 144.03 203.814C144.844 203.759 145.426 203.664 145.775 203.529C146.162 203.37 146.507 203.124 146.784 202.812C146.74 202.203 146.493 201.539 146.041 200.821L147.088 200.766C147.628 201.924 148.171 203.08 148.718 204.235C144.635 204.54 140.55 204.8 136.463 205.013L136.444 204.635L136.937 204.608C137.273 204.593 137.6 204.497 137.891 204.328C138.091 204.216 138.242 204.033 138.314 203.815C138.387 203.596 138.405 203.147 138.367 202.469L138.121 198.064L136.637 198.145L136.599 197.439L138.073 197.367C137.989 195.871 137.905 194.376 137.821 192.88C137.797 192.45 137.695 192.138 137.496 191.94C137.23 191.687 136.81 191.578 136.235 191.612L135.753 191.637C135.746 191.511 135.739 191.385 135.733 191.259C139.292 191.074 142.848 190.852 146.403 190.594L146.789 193.592L146.389 193.621C146.183 192.912 145.983 192.429 145.79 192.172C145.582 191.904 145.3 191.703 144.98 191.593C144.694 191.516 144.209 191.501 143.525 191.546C142.261 191.634 140.993 191.715 139.722 191.79Z" fill="#8F6E01"/>
<path d="M148.44 190.448C149.694 190.352 150.948 190.252 152.202 190.148C154.986 193.159 157.813 196.148 160.685 199.115C160.378 195.974 160.071 192.833 159.764 189.693C159.734 188.804 160.059 188.116 160.739 187.629C161.372 187.234 162.223 187.07 163.292 187.139C163.305 187.265 163.319 187.392 163.331 187.518L162.854 187.567C162.271 187.627 161.872 187.843 161.657 188.212C161.53 188.477 161.504 188.975 161.577 189.705C162.033 194.212 162.489 198.718 162.944 203.223L162.58 203.259C159.161 199.888 155.803 196.483 152.505 193.046L153.209 201.484C153.279 202.325 153.423 202.842 153.64 203.035C153.921 203.303 154.342 203.414 154.901 203.366L155.393 203.324C155.404 203.45 155.415 203.576 155.425 203.702C153.511 203.87 151.596 204.027 149.679 204.172L149.648 203.757L150.141 203.72C150.741 203.672 151.161 203.521 151.402 203.266C151.57 203.013 151.616 202.418 151.539 201.48L150.771 191.94C150.653 191.665 150.482 191.417 150.267 191.208C150.013 190.999 149.702 190.871 149.374 190.84C149.074 190.798 148.77 190.793 148.469 190.826C148.459 190.697 148.449 190.573 148.44 190.448Z" fill="#8F6E01"/>
<path d="M174.611 187.465L175.065 190.89L174.666 190.939C174.528 190.398 174.374 190.02 174.205 189.804C173.972 189.474 173.645 189.223 173.267 189.081C172.898 188.945 172.428 188.912 171.857 188.981C171.21 189.059 170.562 189.136 169.915 189.211L171.625 203.822C171.703 204.494 171.844 204.897 172.049 205.029C172.197 205.144 172.367 205.228 172.549 205.275C172.731 205.322 172.921 205.331 173.107 205.301L173.601 205.242C173.62 205.393 173.638 205.546 173.656 205.697C171.783 205.922 169.908 206.138 168.034 206.344L167.985 205.889L168.5 205.832C168.698 205.824 168.89 205.772 169.065 205.68C169.239 205.588 169.391 205.458 169.509 205.3C169.644 205.075 169.676 204.66 169.608 204.054C169.057 199.178 168.505 194.306 167.953 189.437C167.396 189.5 166.839 189.562 166.281 189.624C165.641 189.694 165.186 189.793 164.918 189.919C164.568 190.095 164.28 190.374 164.093 190.718C163.879 191.09 163.783 191.582 163.805 192.192L163.405 192.234C163.286 191.089 163.167 189.944 163.048 188.799L163.444 188.757L163.478 189.088C167.082 188.71 170.682 188.296 174.278 187.844L174.236 187.514L174.611 187.465Z" fill="#8F6E01"/>
<g filter="url(#filter30_d_1006_2039)">
<path d="M205.03 35.3507C204.635 35.5224 200.055 37.6034 199.182 42.4671C198.527 46.1327 200.23 49.8935 203.548 52.0771C201.93 51.763 199.262 51.2173 195.994 50.4318C182.51 47.1852 175.14 45.3137 170.802 39.4236C169.957 38.2716 168.716 36.2817 167.958 33.2519L178.896 34.8228C178.843 33.1471 178.838 31.4002 178.896 29.5863C179.044 24.9413 179.582 20.317 180.504 15.7619L199.556 19.8296C198.896 20.4371 196.517 22.7809 196.51 26.1522C196.507 30.2063 199.932 34.1128 205.03 35.3507Z" fill="#FFF5D6"/>
</g>
<g filter="url(#filter31_d_1006_2039)">
<path d="M10.9702 35.3507C11.3653 35.5224 15.9448 37.6034 16.8167 42.4671C17.4737 46.1327 15.7687 49.8935 12.452 52.0771C14.07 51.763 16.7339 51.2173 20.0055 50.4318C33.4893 47.1852 40.8657 45.3137 45.199 39.4236C46.0436 38.2716 47.2854 36.2817 48.042 33.2519L37.1047 34.8228C37.1581 33.1471 37.1623 31.4002 37.1047 29.5863C36.9558 24.9414 36.4181 20.3171 35.4972 15.7619L16.4446 19.8296C17.1027 20.4371 19.4837 22.7809 19.4889 26.1522C19.4962 30.2063 16.0674 34.1128 10.9702 35.3507Z" fill="#FFF5D6"/>
</g>
<g filter="url(#filter32_d_1006_2039)">
<path d="M179.833 35.8907C179.833 35.8907 182.032 35.6974 182.032 34.183C182.025 26.1512 181.984 17.9616 182.08 9.77301C182.102 7.9618 181.008 7.55943 179.681 7.31069C170.836 5.64894 162.042 3.55764 153.116 2.5031C127.174 -0.55912 101.14 -0.588383 75.0815 1.21133C60.451 2.22405 43.9499 4.81388 35.1647 7.66394C34.8073 7.7736 34.4941 7.99376 34.2703 8.29263C34.0464 8.59151 33.9236 8.95364 33.9194 9.32674V34.1694C34.4972 34.9147 35.2536 35.5031 36.1189 35.8803C38.0397 36.6934 40.0004 36.1374 40.4277 36.0287C44.7512 34.9397 88.562 30.2021 111.028 30.8491C127.103 31.311 173.434 35.7152 176.913 36.1917C177.254 36.2388 178.506 36.429 179.833 35.8907Z" fill="#FFF5D6"/>
</g>
<path d="M82.9212 20.3403L83.6904 20.2709C84.2628 21.6159 84.8286 22.9588 85.3876 24.2996C81.6207 24.6266 77.8597 25.0306 74.1047 25.5114C74.0895 25.3853 74.0731 25.2592 74.058 25.1407L74.5624 25.0764C75.1365 25.0058 75.5203 24.7704 75.7136 24.3703C75.8271 24.1332 75.8376 23.6221 75.7451 22.8369L74.6935 14.0103C74.5918 13.1604 74.4325 12.6363 74.2156 12.4379C73.9164 12.1807 73.496 12.0857 72.9547 12.1529L72.4251 12.2185C72.4099 12.0924 72.3935 11.9663 72.3784 11.8465C74.5145 11.5767 76.6526 11.3308 78.7928 11.1089C78.8055 11.235 78.8181 11.3611 78.8319 11.4872L78.2582 11.5477C77.8757 11.588 77.4134 11.7637 76.8712 12.0748C76.6551 12.4161 76.5866 12.9242 76.6656 13.5993C77.0019 16.6037 77.3381 19.6085 77.6744 22.6138C77.7391 23.1787 77.8387 23.5569 77.9732 23.7486C78.0761 23.8786 78.2173 23.973 78.3767 24.0184C78.5457 24.0701 79.0665 24.0462 79.9378 23.9554L80.9289 23.8533C81.9692 23.7486 82.6942 23.6011 83.0914 23.4145C83.4886 23.2278 83.674 22.9189 83.6361 22.4965C83.5983 22.0741 83.36 21.3591 82.9212 20.3403Z" fill="#8F6E01"/>
<path d="M92.871 9.63771C94.229 9.56332 95.6968 10.1169 97.2452 11.3047C98.689 12.843 99.4203 14.4041 99.472 15.9702C99.5396 17.6595 99.1287 19.3335 98.2867 20.7996C97.6752 21.9055 96.5366 22.7755 94.8822 23.4287C94.3682 23.6061 93.8341 23.7184 93.2921 23.7628C90.6669 23.9116 88.6355 22.5813 87.1362 19.7278C86.7692 18.8112 86.5475 17.8429 86.4793 16.8579C86.3128 14.7572 86.971 12.9628 88.4968 11.4913C89.039 11.1099 89.6638 10.8623 90.3201 10.7688C91.0036 10.0927 91.9111 9.69039 92.871 9.63771ZM90.9468 11.5834C91.0401 12.1483 91.3793 12.5291 91.9631 12.7321C92.3044 12.5446 92.57 12.4458 92.76 12.4358C93.0967 12.4168 93.3136 12.6211 93.4094 13.046C93.3955 13.3247 93.0639 13.5504 92.4158 13.727C91.407 13.7837 90.7766 13.1104 90.4891 11.6956C90.0439 11.8633 89.648 12.2378 89.3063 12.8166C88.7883 14.1569 88.5817 15.5975 88.7023 17.0294C88.8713 19.3962 89.6606 21.1905 91.0439 22.4187C91.7382 22.8743 92.4301 23.0823 93.1194 23.0428C94.4434 22.9684 95.4849 22.3556 96.2566 21.1955C96.972 19.8002 97.3122 18.2428 97.2439 16.6763C97.1899 15.0974 96.7254 13.5598 95.896 12.2151C95.0133 11.1307 93.9062 10.6213 92.5974 10.6944C91.552 10.7536 91.001 11.0525 90.9468 11.5834Z" fill="#8F6E01"/>
<path d="M108.338 17.3343C107.135 15.4983 105.908 13.6712 104.658 11.853L104.784 20.9204C104.825 21.8081 104.917 22.3545 105.062 22.5596C105.148 22.6904 105.265 22.7978 105.402 22.8724C105.54 22.947 105.693 22.9864 105.85 22.9871H106.228V23.3402C104.744 23.3545 103.26 23.3805 101.776 23.4183C101.776 23.2923 101.769 23.1662 101.767 23.0401L102.168 23.03C102.745 23.0022 103.086 22.7379 103.188 22.2368C103.115 18.6675 103.042 15.0969 102.97 11.5251C102.959 10.9568 102.84 10.5567 102.614 10.3247C102.394 10.1315 102.114 10.021 101.821 10.012L101.443 10.0208C101.443 9.89471 101.443 9.76861 101.434 9.64252C102.491 9.61814 103.547 9.59838 104.603 9.58325C105.991 11.6159 107.35 13.6582 108.682 15.7102C110.155 13.6574 111.66 11.6151 113.196 9.58325C114.326 9.60006 115.456 9.6236 116.586 9.65386C116.586 9.75726 116.586 9.86192 116.577 9.96532L116.157 9.96154C115.64 9.94767 115.274 10.1141 115.061 10.4558C114.924 10.6752 114.848 11.1729 114.832 11.9488C114.748 16.0544 114.664 20.1592 114.579 24.2632C114.562 25.1097 114.627 25.6385 114.776 25.8495C115.074 26.2857 115.508 26.4694 116.08 26.4005C116.099 26.4711 116.118 26.5405 116.138 26.6111C115.17 26.9175 114.373 26.7838 113.725 26.2038C113.475 25.9421 113.281 25.633 113.153 25.295C113.025 24.9569 112.967 24.5966 112.981 24.2354C113.044 20.0609 113.106 15.8863 113.167 11.7117C111.76 13.5712 110.38 15.445 109.027 17.333L108.338 17.3343Z" fill="#8F6E01"/>
<path d="M126.557 16.6787C127.719 17.0709 128.527 17.5097 128.983 17.9876C129.297 18.2903 129.539 18.6592 129.692 19.0673C129.844 19.4755 129.904 19.9127 129.866 20.3468C129.803 21.0525 129.514 21.7189 129.041 22.2471C128.532 22.8434 127.858 23.2756 127.103 23.4891C126.31 23.7287 125.121 23.7993 123.534 23.7148C121.307 23.5963 119.079 23.5051 116.851 23.4412L116.862 23.0629L117.39 23.078C117.982 23.097 118.409 22.9318 118.676 22.5737C118.854 22.3307 118.957 21.8263 118.985 21.0605C119.093 18.0948 119.201 15.1286 119.308 12.162C119.338 11.3214 119.254 10.7771 119.056 10.5291C118.787 10.2277 118.364 10.0676 117.789 10.0499L117.236 10.0336C117.236 9.90746 117.244 9.78137 117.247 9.65527C118.656 9.6973 120.066 9.74858 121.476 9.80911C121.463 10.1067 121.45 10.4043 121.437 10.7019C122.609 10.1836 124.019 9.96673 125.656 10.0613C127.16 10.1496 128.265 10.7246 128.958 11.7737C129.47 12.3868 129.722 13.1754 129.661 13.9715C129.612 14.6441 129.326 15.2776 128.855 15.7595C128.371 16.2929 127.608 16.5905 126.557 16.6787ZM121.203 16.6447C122.003 16.3296 122.859 16.1862 123.718 16.2235C124.945 16.2878 125.861 16.0243 126.462 15.4216C127.062 14.8188 127.364 14.2628 127.397 13.7508C127.449 12.9476 127.145 12.2377 126.474 11.6287C125.801 11.0877 125.138 10.799 124.489 10.7649C123.269 10.6981 122.244 10.9843 121.423 11.6148L121.203 16.6447ZM120.951 22.5901C121.728 22.8 122.525 22.9268 123.329 22.9683C124.597 23.0339 125.576 22.8195 126.275 22.3139C126.973 21.8083 127.352 21.1501 127.41 20.333C127.437 19.7281 127.372 19.1226 127.217 18.5374C127.049 17.8649 126.699 17.4084 126.168 17.168C125.62 16.9158 124.791 16.7519 123.681 16.6939C122.82 16.6435 121.961 16.805 121.177 17.1642C121.101 18.9724 121.024 20.781 120.945 22.5901H120.951Z" fill="#8F6E01"/>
<path d="M134.39 19.0504C135.735 16.2763 137.115 13.5114 138.531 10.7559C138.641 10.7659 138.752 10.7773 138.861 10.7899C139.918 14.7409 140.917 18.6965 141.859 22.6567C142.09 23.6057 142.325 24.2312 142.565 24.533C142.804 24.8347 143.167 25.0373 143.653 25.1407C143.637 25.2668 143.622 25.3929 143.606 25.5114C142.039 25.3139 140.472 25.1294 138.903 24.9579C138.917 24.8318 138.931 24.7057 138.943 24.5796C139.424 24.6048 139.757 24.5519 139.942 24.4182C140.032 24.3555 140.107 24.2737 140.162 24.1787C140.217 24.0837 140.251 23.9778 140.26 23.8684C140.285 23.4639 140.251 23.0579 140.16 22.663L140.119 22.47C138.359 21.6244 136.587 20.7947 134.801 19.9809C134.472 20.6534 134.146 21.3259 133.823 21.9985C133.576 22.5028 133.442 22.8878 133.421 23.1535C133.41 23.261 133.423 23.3696 133.458 23.4718C133.493 23.574 133.549 23.6676 133.624 23.7461C133.777 23.9201 134.148 24.0538 134.733 24.1509L134.699 24.5292C133.443 24.4106 132.187 24.3014 130.931 24.2013L130.962 23.823C131.461 23.7659 131.795 23.6612 131.964 23.5091C132.287 23.2014 132.682 22.5739 133.149 21.6265C133.464 20.9649 133.78 20.3033 134.098 19.6417C133.233 19.2509 132.366 18.8642 131.496 18.4817C131.912 18.4169 132.329 18.3539 132.746 18.2925C133.296 18.5472 133.844 18.7999 134.39 19.0504ZM139.911 21.6366C139.252 19.0441 138.569 16.4553 137.859 13.8704C136.923 15.6996 136.003 17.5334 135.096 19.3719C136.713 20.1117 138.318 20.8665 139.911 21.6366Z" fill="#8F6E01"/>
<defs>
<filter id="filter0_d_1006_2039" x="75.194" y="95.0659" width="26.4247" height="40.9318" filterUnits="userSpaceOnUse" color-interpolation-filters="sRGB">
<feFlood flood-opacity="0" result="BackgroundImageFix"/>
<feColorMatrix in="SourceAlpha" type="matrix" values="0 0 0 0 0 0 0 0 0 0 0 0 0 0 0 0 0 0 127 0" result="hardAlpha"/>
<feOffset dy="0.502043"/>
<feGaussianBlur stdDeviation="0.251022"/>
<feComposite in2="hardAlpha" operator="out"/>
<feColorMatrix type="matrix" values="0 0 0 0 0 0 0 0 0 0 0 0 0 0 0 0 0 0 0.25 0"/>
<feBlend mode="normal" in2="BackgroundImageFix" result="effect1_dropShadow_1006_2039"/>
<feBlend mode="normal" in="SourceGraphic" in2="effect1_dropShadow_1006_2039" result="shape"/>
</filter>
<filter id="filter1_d_1006_2039" x="31.2738" y="95.0659" width="26.4247" height="40.9318" filterUnits="userSpaceOnUse" color-interpolation-filters="sRGB">
<feFlood flood-opacity="0" result="BackgroundImageFix"/>
<feColorMatrix in="SourceAlpha" type="matrix" values="0 0 0 0 0 0 0 0 0 0 0 0 0 0 0 0 0 0 127 0" result="hardAlpha"/>
<feOffset dy="0.502043"/>
<feGaussianBlur stdDeviation="0.251022"/>
<feComposite in2="hardAlpha" operator="out"/>
<feColorMatrix type="matrix" values="0 0 0 0 0 0 0 0 0 0 0 0 0 0 0 0 0 0 0.25 0"/>
<feBlend mode="normal" in2="BackgroundImageFix" result="effect1_dropShadow_1006_2039"/>
<feBlend mode="normal" in="SourceGraphic" in2="effect1_dropShadow_1006_2039" result="shape"/>
</filter>
<filter id="filter2_d_1006_2039" x="42.5866" y="168" width="47.8525" height="4.99676" filterUnits="userSpaceOnUse" color-interpolation-filters="sRGB">
<feFlood flood-opacity="0" result="BackgroundImageFix"/>
<feColorMatrix in="SourceAlpha" type="matrix" values="0 0 0 0 0 0 0 0 0 0 0 0 0 0 0 0 0 0 127 0" result="hardAlpha"/>
<feOffset dy="0.502043"/>
<feGaussianBlur stdDeviation="0.251022"/>
<feComposite in2="hardAlpha" operator="out"/>
<feColorMatrix type="matrix" values="0 0 0 0 0 0 0 0 0 0 0 0 0 0 0 0 0 0 0.25 0"/>
<feBlend mode="normal" in2="BackgroundImageFix" result="effect1_dropShadow_1006_2039"/>
<feBlend mode="normal" in="SourceGraphic" in2="effect1_dropShadow_1006_2039" result="shape"/>
</filter>
<filter id="filter3_d_1006_2039" x="46.3134" y="157.486" width="40.2663" height="11.5185" filterUnits="userSpaceOnUse" color-interpolation-filters="sRGB">
<feFlood flood-opacity="0" result="BackgroundImageFix"/>
<feColorMatrix in="SourceAlpha" type="matrix" values="0 0 0 0 0 0 0 0 0 0 0 0 0 0 0 0 0 0 127 0" result="hardAlpha"/>
<feOffset dy="0.502043"/>
<feGaussianBlur stdDeviation="0.251022"/>
<feComposite in2="hardAlpha" operator="out"/>
<feColorMatrix type="matrix" values="0 0 0 0 0 0 0 0 0 0 0 0 0 0 0 0 0 0 0.25 0"/>
<feBlend mode="normal" in2="BackgroundImageFix" result="effect1_dropShadow_1006_2039"/>
<feBlend mode="normal" in="SourceGraphic" in2="effect1_dropShadow_1006_2039" result="shape"/>
</filter>
<filter id="filter4_d_1006_2039" x="54.8312" y="140.982" width="23.2304" height="17.5075" filterUnits="userSpaceOnUse" color-interpolation-filters="sRGB">
<feFlood flood-opacity="0" result="BackgroundImageFix"/>
<feColorMatrix in="SourceAlpha" type="matrix" values="0 0 0 0 0 0 0 0 0 0 0 0 0 0 0 0 0 0 127 0" result="hardAlpha"/>
<feOffset dy="0.502043"/>
<feGaussianBlur stdDeviation="0.251022"/>
<feComposite in2="hardAlpha" operator="out"/>
<feColorMatrix type="matrix" values="0 0 0 0 0 0 0 0 0 0 0 0 0 0 0 0 0 0 0.25 0"/>
<feBlend mode="normal" in2="BackgroundImageFix" result="effect1_dropShadow_1006_2039"/>
<feBlend mode="normal" in="SourceGraphic" in2="effect1_dropShadow_1006_2039" result="shape"/>
</filter>
<filter id="filter5_d_1006_2039" x="58.2917" y="135.792" width="16.3098" height="7.65863" filterUnits="userSpaceOnUse" color-interpolation-filters="sRGB">
<feFlood flood-opacity="0" result="BackgroundImageFix"/>
<feColorMatrix in="SourceAlpha" type="matrix" values="0 0 0 0 0 0 0 0 0 0 0 0 0 0 0 0 0 0 127 0" result="hardAlpha"/>
<feOffset dy="0.502043"/>
<feGaussianBlur stdDeviation="0.251022"/>
<feComposite in2="hardAlpha" operator="out"/>
<feColorMatrix type="matrix" values="0 0 0 0 0 0 0 0 0 0 0 0 0 0 0 0 0 0 0.25 0"/>
<feBlend mode="normal" in2="BackgroundImageFix" result="effect1_dropShadow_1006_2039"/>
<feBlend mode="normal" in="SourceGraphic" in2="effect1_dropShadow_1006_2039" result="shape"/>
</filter>
<filter id="filter6_d_1006_2039" x="41.788" y="95.0659" width="49.4496" height="44.392" filterUnits="userSpaceOnUse" color-interpolation-filters="sRGB">
<feFlood flood-opacity="0" result="BackgroundImageFix"/>
<feColorMatrix in="SourceAlpha" type="matrix" values="0 0 0 0 0 0 0 0 0 0 0 0 0 0 0 0 0 0 127 0" result="hardAlpha"/>
<feOffset dy="0.502043"/>
<feGaussianBlur stdDeviation="0.251022"/>
<feComposite in2="hardAlpha" operator="out"/>
<feColorMatrix type="matrix" values="0 0 0 0 0 0 0 0 0 0 0 0 0 0 0 0 0 0 0.25 0"/>
<feBlend mode="normal" in2="BackgroundImageFix" result="effect1_dropShadow_1006_2039"/>
<feBlend mode="normal" in="SourceGraphic" in2="effect1_dropShadow_1006_2039" result="shape"/>
</filter>
<filter id="filter7_d_1006_2039" x="41.788" y="87.7456" width="49.4496" height="6.72699" filterUnits="userSpaceOnUse" color-interpolation-filters="sRGB">
<feFlood flood-opacity="0" result="BackgroundImageFix"/>
<feColorMatrix in="SourceAlpha" type="matrix" values="0 0 0 0 0 0 0 0 0 0 0 0 0 0 0 0 0 0 127 0" result="hardAlpha"/>
<feOffset dy="0.502043"/>
<feGaussianBlur stdDeviation="0.251022"/>
<feComposite in2="hardAlpha" operator="out"/>
<feColorMatrix type="matrix" values="0 0 0 0 0 0 0 0 0 0 0 0 0 0 0 0 0 0 0.25 0"/>
<feBlend mode="normal" in2="BackgroundImageFix" result="effect1_dropShadow_1006_2039"/>
<feBlend mode="normal" in="SourceGraphic" in2="effect1_dropShadow_1006_2039" result="shape"/>
</filter>
<filter id="filter8_d_1006_2039" x="51.8341" y="99.8572" width="29.3576" height="27.7292" filterUnits="userSpaceOnUse" color-interpolation-filters="sRGB">
<feFlood flood-opacity="0" result="BackgroundImageFix"/>
<feColorMatrix in="SourceAlpha" type="matrix" values="0 0 0 0 0 0 0 0 0 0 0 0 0 0 0 0 0 0 127 0" result="hardAlpha"/>
<feOffset dy="0.502043"/>
<feGaussianBlur stdDeviation="0.251022"/>
<feComposite in2="hardAlpha" operator="out"/>
<feColorMatrix type="matrix" values="0 0 0 0 0 0 0 0 0 0 0 0 0 0 0 0 0 0 0.25 0"/>
<feBlend mode="normal" in2="BackgroundImageFix" result="effect1_dropShadow_1006_2039"/>
<feBlend mode="normal" in="SourceGraphic" in2="effect1_dropShadow_1006_2039" result="shape"/>
</filter>
<filter id="filter9_d_1006_2039" x="158.51" y="94.5334" width="26.4247" height="40.9316" filterUnits="userSpaceOnUse" color-interpolation-filters="sRGB">
<feFlood flood-opacity="0" result="BackgroundImageFix"/>
<feColorMatrix in="SourceAlpha" type="matrix" values="0 0 0 0 0 0 0 0 0 0 0 0 0 0 0 0 0 0 127 0" result="hardAlpha"/>
<feOffset dy="0.502043"/>
<feGaussianBlur stdDeviation="0.251022"/>
<feComposite in2="hardAlpha" operator="out"/>
<feColorMatrix type="matrix" values="0 0 0 0 0 0 0 0 0 0 0 0 0 0 0 0 0 0 0.25 0"/>
<feBlend mode="normal" in2="BackgroundImageFix" result="effect1_dropShadow_1006_2039"/>
<feBlend mode="normal" in="SourceGraphic" in2="effect1_dropShadow_1006_2039" result="shape"/>
</filter>
<filter id="filter10_d_1006_2039" x="114.59" y="94.5334" width="26.4247" height="40.9316" filterUnits="userSpaceOnUse" color-interpolation-filters="sRGB">
<feFlood flood-opacity="0" result="BackgroundImageFix"/>
<feColorMatrix in="SourceAlpha" type="matrix" values="0 0 0 0 0 0 0 0 0 0 0 0 0 0 0 0 0 0 127 0" result="hardAlpha"/>
<feOffset dy="0.502043"/>
<feGaussianBlur stdDeviation="0.251022"/>
<feComposite in2="hardAlpha" operator="out"/>
<feColorMatrix type="matrix" values="0 0 0 0 0 0 0 0 0 0 0 0 0 0 0 0 0 0 0.25 0"/>
<feBlend mode="normal" in2="BackgroundImageFix" result="effect1_dropShadow_1006_2039"/>
<feBlend mode="normal" in="SourceGraphic" in2="effect1_dropShadow_1006_2039" result="shape"/>
</filter>
<filter id="filter11_d_1006_2039" x="125.902" y="167.468" width="47.8525" height="4.99676" filterUnits="userSpaceOnUse" color-interpolation-filters="sRGB">
<feFlood flood-opacity="0" result="BackgroundImageFix"/>
<feColorMatrix in="SourceAlpha" type="matrix" values="0 0 0 0 0 0 0 0 0 0 0 0 0 0 0 0 0 0 127 0" result="hardAlpha"/>
<feOffset dy="0.502043"/>
<feGaussianBlur stdDeviation="0.251022"/>
<feComposite in2="hardAlpha" operator="out"/>
<feColorMatrix type="matrix" values="0 0 0 0 0 0 0 0 0 0 0 0 0 0 0 0 0 0 0.25 0"/>
<feBlend mode="normal" in2="BackgroundImageFix" result="effect1_dropShadow_1006_2039"/>
<feBlend mode="normal" in="SourceGraphic" in2="effect1_dropShadow_1006_2039" result="shape"/>
</filter>
<filter id="filter12_d_1006_2039" x="129.629" y="156.954" width="40.2663" height="11.5182" filterUnits="userSpaceOnUse" color-interpolation-filters="sRGB">
<feFlood flood-opacity="0" result="BackgroundImageFix"/>
<feColorMatrix in="SourceAlpha" type="matrix" values="0 0 0 0 0 0 0 0 0 0 0 0 0 0 0 0 0 0 127 0" result="hardAlpha"/>
<feOffset dy="0.502043"/>
<feGaussianBlur stdDeviation="0.251022"/>
<feComposite in2="hardAlpha" operator="out"/>
<feColorMatrix type="matrix" values="0 0 0 0 0 0 0 0 0 0 0 0 0 0 0 0 0 0 0.25 0"/>
<feBlend mode="normal" in2="BackgroundImageFix" result="effect1_dropShadow_1006_2039"/>
<feBlend mode="normal" in="SourceGraphic" in2="effect1_dropShadow_1006_2039" result="shape"/>
</filter>
<filter id="filter13_d_1006_2039" x="138.147" y="140.45" width="23.2304" height="17.5075" filterUnits="userSpaceOnUse" color-interpolation-filters="sRGB">
<feFlood flood-opacity="0" result="BackgroundImageFix"/>
<feColorMatrix in="SourceAlpha" type="matrix" values="0 0 0 0 0 0 0 0 0 0 0 0 0 0 0 0 0 0 127 0" result="hardAlpha"/>
<feOffset dy="0.502043"/>
<feGaussianBlur stdDeviation="0.251022"/>
<feComposite in2="hardAlpha" operator="out"/>
<feColorMatrix type="matrix" values="0 0 0 0 0 0 0 0 0 0 0 0 0 0 0 0 0 0 0.25 0"/>
<feBlend mode="normal" in2="BackgroundImageFix" result="effect1_dropShadow_1006_2039"/>
<feBlend mode="normal" in="SourceGraphic" in2="effect1_dropShadow_1006_2039" result="shape"/>
</filter>
<filter id="filter14_d_1006_2039" x="141.607" y="135.26" width="16.3098" height="7.65863" filterUnits="userSpaceOnUse" color-interpolation-filters="sRGB">
<feFlood flood-opacity="0" result="BackgroundImageFix"/>
<feColorMatrix in="SourceAlpha" type="matrix" values="0 0 0 0 0 0 0 0 0 0 0 0 0 0 0 0 0 0 127 0" result="hardAlpha"/>
<feOffset dy="0.502043"/>
<feGaussianBlur stdDeviation="0.251022"/>
<feComposite in2="hardAlpha" operator="out"/>
<feColorMatrix type="matrix" values="0 0 0 0 0 0 0 0 0 0 0 0 0 0 0 0 0 0 0.25 0"/>
<feBlend mode="normal" in2="BackgroundImageFix" result="effect1_dropShadow_1006_2039"/>
<feBlend mode="normal" in="SourceGraphic" in2="effect1_dropShadow_1006_2039" result="shape"/>
</filter>
<filter id="filter15_d_1006_2039" x="125.104" y="94.5334" width="49.4496" height="44.392" filterUnits="userSpaceOnUse" color-interpolation-filters="sRGB">
<feFlood flood-opacity="0" result="BackgroundImageFix"/>
<feColorMatrix in="SourceAlpha" type="matrix" values="0 0 0 0 0 0 0 0 0 0 0 0 0 0 0 0 0 0 127 0" result="hardAlpha"/>
<feOffset dy="0.502043"/>
<feGaussianBlur stdDeviation="0.251022"/>
<feComposite in2="hardAlpha" operator="out"/>
<feColorMatrix type="matrix" values="0 0 0 0 0 0 0 0 0 0 0 0 0 0 0 0 0 0 0.25 0"/>
<feBlend mode="normal" in2="BackgroundImageFix" result="effect1_dropShadow_1006_2039"/>
<feBlend mode="normal" in="SourceGraphic" in2="effect1_dropShadow_1006_2039" result="shape"/>
</filter>
<filter id="filter16_d_1006_2039" x="125.104" y="87.2134" width="49.4496" height="6.72699" filterUnits="userSpaceOnUse" color-interpolation-filters="sRGB">
<feFlood flood-opacity="0" result="BackgroundImageFix"/>
<feColorMatrix in="SourceAlpha" type="matrix" values="0 0 0 0 0 0 0 0 0 0 0 0 0 0 0 0 0 0 127 0" result="hardAlpha"/>
<feOffset dy="0.502043"/>
<feGaussianBlur stdDeviation="0.251022"/>
<feComposite in2="hardAlpha" operator="out"/>
<feColorMatrix type="matrix" values="0 0 0 0 0 0 0 0 0 0 0 0 0 0 0 0 0 0 0.25 0"/>
<feBlend mode="normal" in2="BackgroundImageFix" result="effect1_dropShadow_1006_2039"/>
<feBlend mode="normal" in="SourceGraphic" in2="effect1_dropShadow_1006_2039" result="shape"/>
</filter>
<filter id="filter17_d_1006_2039" x="135.15" y="99.3247" width="29.3576" height="27.7292" filterUnits="userSpaceOnUse" color-interpolation-filters="sRGB">
<feFlood flood-opacity="0" result="BackgroundImageFix"/>
<feColorMatrix in="SourceAlpha" type="matrix" values="0 0 0 0 0 0 0 0 0 0 0 0 0 0 0 0 0 0 127 0" result="hardAlpha"/>
<feOffset dy="0.502043"/>
<feGaussianBlur stdDeviation="0.251022"/>
<feComposite in2="hardAlpha" operator="out"/>
<feColorMatrix type="matrix" values="0 0 0 0 0 0 0 0 0 0 0 0 0 0 0 0 0 0 0.25 0"/>
<feBlend mode="normal" in2="BackgroundImageFix" result="effect1_dropShadow_1006_2039"/>
<feBlend mode="normal" in="SourceGraphic" in2="effect1_dropShadow_1006_2039" result="shape"/>
</filter>
<filter id="filter18_d_1006_2039" x="122.841" y="62.4583" width="37.205" height="57.8344" filterUnits="userSpaceOnUse" color-interpolation-filters="sRGB">
<feFlood flood-opacity="0" result="BackgroundImageFix"/>
<feColorMatrix in="SourceAlpha" type="matrix" values="0 0 0 0 0 0 0 0 0 0 0 0 0 0 0 0 0 0 127 0" result="hardAlpha"/>
<feOffset dy="0.502043"/>
<feGaussianBlur stdDeviation="0.251022"/>
<feComposite in2="hardAlpha" operator="out"/>
<feColorMatrix type="matrix" values="0 0 0 0 0 0 0 0 0 0 0 0 0 0 0 0 0 0 0.25 0"/>
<feBlend mode="normal" in2="BackgroundImageFix" result="effect1_dropShadow_1006_2039"/>
<feBlend mode="normal" in="SourceGraphic" in2="effect1_dropShadow_1006_2039" result="shape"/>
</filter>
<filter id="filter19_d_1006_2039" x="60.1549" y="62.4583" width="37.205" height="57.8344" filterUnits="userSpaceOnUse" color-interpolation-filters="sRGB">
<feFlood flood-opacity="0" result="BackgroundImageFix"/>
<feColorMatrix in="SourceAlpha" type="matrix" values="0 0 0 0 0 0 0 0 0 0 0 0 0 0 0 0 0 0 127 0" result="hardAlpha"/>
<feOffset dy="0.502043"/>
<feGaussianBlur stdDeviation="0.251022"/>
<feComposite in2="hardAlpha" operator="out"/>
<feColorMatrix type="matrix" values="0 0 0 0 0 0 0 0 0 0 0 0 0 0 0 0 0 0 0.25 0"/>
<feBlend mode="normal" in2="BackgroundImageFix" result="effect1_dropShadow_1006_2039"/>
<feBlend mode="normal" in="SourceGraphic" in2="effect1_dropShadow_1006_2039" result="shape"/>
</filter>
<filter id="filter20_d_1006_2039" x="76.2589" y="166.27" width="67.8163" height="6.72723" filterUnits="userSpaceOnUse" color-interpolation-filters="sRGB">
<feFlood flood-opacity="0" result="BackgroundImageFix"/>
<feColorMatrix in="SourceAlpha" type="matrix" values="0 0 0 0 0 0 0 0 0 0 0 0 0 0 0 0 0 0 127 0" result="hardAlpha"/>
<feOffset dy="0.502043"/>
<feGaussianBlur stdDeviation="0.251022"/>
<feComposite in2="hardAlpha" operator="out"/>
<feColorMatrix type="matrix" values="0 0 0 0 0 0 0 0 0 0 0 0 0 0 0 0 0 0 0.25 0"/>
<feBlend mode="normal" in2="BackgroundImageFix" result="effect1_dropShadow_1006_2039"/>
<feBlend mode="normal" in="SourceGraphic" in2="effect1_dropShadow_1006_2039" result="shape"/>
</filter>
<filter id="filter21_d_1006_2039" x="81.5829" y="151.364" width="57.0358" height="15.9103" filterUnits="userSpaceOnUse" color-interpolation-filters="sRGB">
<feFlood flood-opacity="0" result="BackgroundImageFix"/>
<feColorMatrix in="SourceAlpha" type="matrix" values="0 0 0 0 0 0 0 0 0 0 0 0 0 0 0 0 0 0 127 0" result="hardAlpha"/>
<feOffset dy="0.502043"/>
<feGaussianBlur stdDeviation="0.251022"/>
<feComposite in2="hardAlpha" operator="out"/>
<feColorMatrix type="matrix" values="0 0 0 0 0 0 0 0 0 0 0 0 0 0 0 0 0 0 0.25 0"/>
<feBlend mode="normal" in2="BackgroundImageFix" result="effect1_dropShadow_1006_2039"/>
<feBlend mode="normal" in="SourceGraphic" in2="effect1_dropShadow_1006_2039" result="shape"/>
</filter>
<filter id="filter22_d_1006_2039" x="93.8271" y="127.939" width="32.6801" height="24.4284" filterUnits="userSpaceOnUse" color-interpolation-filters="sRGB">
<feFlood flood-opacity="0" result="BackgroundImageFix"/>
<feColorMatrix in="SourceAlpha" type="matrix" values="0 0 0 0 0 0 0 0 0 0 0 0 0 0 0 0 0 0 127 0" result="hardAlpha"/>
<feOffset dy="0.502043"/>
<feGaussianBlur stdDeviation="0.251022"/>
<feComposite in2="hardAlpha" operator="out"/>
<feColorMatrix type="matrix" values="0 0 0 0 0 0 0 0 0 0 0 0 0 0 0 0 0 0 0.25 0"/>
<feBlend mode="normal" in2="BackgroundImageFix" result="effect1_dropShadow_1006_2039"/>
<feBlend mode="normal" in="SourceGraphic" in2="effect1_dropShadow_1006_2039" result="shape"/>
</filter>
<filter id="filter23_d_1006_2039" x="98.7514" y="120.486" width="22.8312" height="10.4535" filterUnits="userSpaceOnUse" color-interpolation-filters="sRGB">
<feFlood flood-opacity="0" result="BackgroundImageFix"/>
<feColorMatrix in="SourceAlpha" type="matrix" values="0 0 0 0 0 0 0 0 0 0 0 0 0 0 0 0 0 0 127 0" result="hardAlpha"/>
<feOffset dy="0.502043"/>
<feGaussianBlur stdDeviation="0.251022"/>
<feComposite in2="hardAlpha" operator="out"/>
<feColorMatrix type="matrix" values="0 0 0 0 0 0 0 0 0 0 0 0 0 0 0 0 0 0 0.25 0"/>
<feBlend mode="normal" in2="BackgroundImageFix" result="effect1_dropShadow_1006_2039"/>
<feBlend mode="normal" in="SourceGraphic" in2="effect1_dropShadow_1006_2039" result="shape"/>
</filter>
<filter id="filter24_d_1006_2039" x="75.194" y="62.4583" width="69.9457" height="62.8918" filterUnits="userSpaceOnUse" color-interpolation-filters="sRGB">
<feFlood flood-opacity="0" result="BackgroundImageFix"/>
<feColorMatrix in="SourceAlpha" type="matrix" values="0 0 0 0 0 0 0 0 0 0 0 0 0 0 0 0 0 0 127 0" result="hardAlpha"/>
<feOffset dy="0.502043"/>
<feGaussianBlur stdDeviation="0.251022"/>
<feComposite in2="hardAlpha" operator="out"/>
<feColorMatrix type="matrix" values="0 0 0 0 0 0 0 0 0 0 0 0 0 0 0 0 0 0 0.25 0"/>
<feBlend mode="normal" in2="BackgroundImageFix" result="effect1_dropShadow_1006_2039"/>
<feBlend mode="normal" in="SourceGraphic" in2="effect1_dropShadow_1006_2039" result="shape"/>
</filter>
<filter id="filter25_d_1006_2039" x="75.194" y="52.0771" width="69.9457" height="9.12274" filterUnits="userSpaceOnUse" color-interpolation-filters="sRGB">
<feFlood flood-opacity="0" result="BackgroundImageFix"/>
<feColorMatrix in="SourceAlpha" type="matrix" values="0 0 0 0 0 0 0 0 0 0 0 0 0 0 0 0 0 0 127 0" result="hardAlpha"/>
<feOffset dy="0.502043"/>
<feGaussianBlur stdDeviation="0.251022"/>
<feComposite in2="hardAlpha" operator="out"/>
<feColorMatrix type="matrix" values="0 0 0 0 0 0 0 0 0 0 0 0 0 0 0 0 0 0 0.25 0"/>
<feBlend mode="normal" in2="BackgroundImageFix" result="effect1_dropShadow_1006_2039"/>
<feBlend mode="normal" in="SourceGraphic" in2="effect1_dropShadow_1006_2039" result="shape"/>
</filter>
<filter id="filter26_d_1006_2039" x="89.539" y="69.2458" width="41.256" height="39.1655" filterUnits="userSpaceOnUse" color-interpolation-filters="sRGB">
<feFlood flood-opacity="0" result="BackgroundImageFix"/>
<feColorMatrix in="SourceAlpha" type="matrix" values="0 0 0 0 0 0 0 0 0 0 0 0 0 0 0 0 0 0 127 0" result="hardAlpha"/>
<feOffset dy="0.502043"/>
<feGaussianBlur stdDeviation="0.251022"/>
<feComposite in2="hardAlpha" operator="out"/>
<feColorMatrix type="matrix" values="0 0 0 0 0 0 0 0 0 0 0 0 0 0 0 0 0 0 0.25 0"/>
<feBlend mode="normal" in2="BackgroundImageFix" result="effect1_dropShadow_1006_2039"/>
<feBlend mode="normal" in="SourceGraphic" in2="effect1_dropShadow_1006_2039" result="shape"/>
</filter>
<filter id="filter27_d_1006_2039" x="167.832" y="163.923" width="38.0759" height="37.445" filterUnits="userSpaceOnUse" color-interpolation-filters="sRGB">
<feFlood flood-opacity="0" result="BackgroundImageFix"/>
<feColorMatrix in="SourceAlpha" type="matrix" values="0 0 0 0 0 0 0 0 0 0 0 0 0 0 0 0 0 0 127 0" result="hardAlpha"/>
<feOffset dx="0.376532" dy="0.627554"/>
<feGaussianBlur stdDeviation="0.251022"/>
<feComposite in2="hardAlpha" operator="out"/>
<feColorMatrix type="matrix" values="0 0 0 0 0 0 0 0 0 0 0 0 0 0 0 0 0 0 0.25 0"/>
<feBlend mode="normal" in2="BackgroundImageFix" result="effect1_dropShadow_1006_2039"/>
<feBlend mode="normal" in="SourceGraphic" in2="effect1_dropShadow_1006_2039" result="shape"/>
</filter>
<filter id="filter28_d_1006_2039" x="10.8447" y="163.923" width="38.0759" height="37.445" filterUnits="userSpaceOnUse" color-interpolation-filters="sRGB">
<feFlood flood-opacity="0" result="BackgroundImageFix"/>
<feColorMatrix in="SourceAlpha" type="matrix" values="0 0 0 0 0 0 0 0 0 0 0 0 0 0 0 0 0 0 127 0" result="hardAlpha"/>
<feOffset dx="0.376532" dy="0.627554"/>
<feGaussianBlur stdDeviation="0.251022"/>
<feComposite in2="hardAlpha" operator="out"/>
<feColorMatrix type="matrix" values="0 0 0 0 0 0 0 0 0 0 0 0 0 0 0 0 0 0 0.25 0"/>
<feBlend mode="normal" in2="BackgroundImageFix" result="effect1_dropShadow_1006_2039"/>
<feBlend mode="normal" in="SourceGraphic" in2="effect1_dropShadow_1006_2039" result="shape"/>
</filter>
<filter id="filter29_d_1006_2039" x="33.9194" y="179.685" width="149.542" height="38.0726" filterUnits="userSpaceOnUse" color-interpolation-filters="sRGB">
<feFlood flood-opacity="0" result="BackgroundImageFix"/>
<feColorMatrix in="SourceAlpha" type="matrix" values="0 0 0 0 0 0 0 0 0 0 0 0 0 0 0 0 0 0 127 0" result="hardAlpha"/>
<feOffset dx="0.878576" dy="1.25511"/>
<feGaussianBlur stdDeviation="0.251022"/>
<feComposite in2="hardAlpha" operator="out"/>
<feColorMatrix type="matrix" values="0 0 0 0 0 0 0 0 0 0 0 0 0 0 0 0 0 0 0.25 0"/>
<feBlend mode="normal" in2="BackgroundImageFix" result="effect1_dropShadow_1006_2039"/>
<feBlend mode="normal" in="SourceGraphic" in2="effect1_dropShadow_1006_2039" result="shape"/>
</filter>
<filter id="filter30_d_1006_2039" x="167.832" y="15.762" width="38.0759" height="37.4448" filterUnits="userSpaceOnUse" color-interpolation-filters="sRGB">
<feFlood flood-opacity="0" result="BackgroundImageFix"/>
<feColorMatrix in="SourceAlpha" type="matrix" values="0 0 0 0 0 0 0 0 0 0 0 0 0 0 0 0 0 0 127 0" result="hardAlpha"/>
<feOffset dx="0.376532" dy="0.627554"/>
<feGaussianBlur stdDeviation="0.251022"/>
<feComposite in2="hardAlpha" operator="out"/>
<feColorMatrix type="matrix" values="0 0 0 0 0 0 0 0 0 0 0 0 0 0 0 0 0 0 0.25 0"/>
<feBlend mode="normal" in2="BackgroundImageFix" result="effect1_dropShadow_1006_2039"/>
<feBlend mode="normal" in="SourceGraphic" in2="effect1_dropShadow_1006_2039" result="shape"/>
</filter>
<filter id="filter31_d_1006_2039" x="10.8447" y="15.762" width="38.0759" height="37.4448" filterUnits="userSpaceOnUse" color-interpolation-filters="sRGB">
<feFlood flood-opacity="0" result="BackgroundImageFix"/>
<feColorMatrix in="SourceAlpha" type="matrix" values="0 0 0 0 0 0 0 0 0 0 0 0 0 0 0 0 0 0 127 0" result="hardAlpha"/>
<feOffset dx="0.376532" dy="0.627554"/>
<feGaussianBlur stdDeviation="0.251022"/>
<feComposite in2="hardAlpha" operator="out"/>
<feColorMatrix type="matrix" values="0 0 0 0 0 0 0 0 0 0 0 0 0 0 0 0 0 0 0.25 0"/>
<feBlend mode="normal" in2="BackgroundImageFix" result="effect1_dropShadow_1006_2039"/>
<feBlend mode="normal" in="SourceGraphic" in2="effect1_dropShadow_1006_2039" result="shape"/>
</filter>
<filter id="filter32_d_1006_2039" x="33.9194" y="0" width="149.542" height="38.0723" filterUnits="userSpaceOnUse" color-interpolation-filters="sRGB">
<feFlood flood-opacity="0" result="BackgroundImageFix"/>
<feColorMatrix in="SourceAlpha" type="matrix" values="0 0 0 0 0 0 0 0 0 0 0 0 0 0 0 0 0 0 127 0" result="hardAlpha"/>
<feOffset dx="0.878576" dy="1.25511"/>
<feGaussianBlur stdDeviation="0.251022"/>
<feComposite in2="hardAlpha" operator="out"/>
<feColorMatrix type="matrix" values="0 0 0 0 0 0 0 0 0 0 0 0 0 0 0 0 0 0 0.25 0"/>
<feBlend mode="normal" in2="BackgroundImageFix" result="effect1_dropShadow_1006_2039"/>
<feBlend mode="normal" in="SourceGraphic" in2="effect1_dropShadow_1006_2039" result="shape"/>
</filter>
<linearGradient id="paint0_linear_1006_2039" x1="108.063" y1="43.8809" x2="108.063" y2="240.904" gradientUnits="userSpaceOnUse">
<stop stop-color="#C89A03"/>
<stop offset="1" stop-color="#F3C019"/>
</linearGradient>
<linearGradient id="paint1_linear_1006_2039" x1="65.3089" y1="144.845" x2="75.4034" y2="134.957" gradientUnits="userSpaceOnUse">
<stop stop-color="#FFD54B"/>
<stop offset="1" stop-color="#D8A500"/>
</linearGradient>
<linearGradient id="paint2_linear_1006_2039" x1="74.3207" y1="111.646" x2="99.9275" y2="168.099" gradientUnits="userSpaceOnUse">
<stop stop-color="#FFDC6A"/>
<stop offset="1" stop-color="#C89A04"/>
</linearGradient>
<linearGradient id="paint3_linear_1006_2039" x1="148.624" y1="144.313" x2="158.719" y2="134.425" gradientUnits="userSpaceOnUse">
<stop stop-color="#FFD54B"/>
<stop offset="1" stop-color="#D8A500"/>
</linearGradient>
<linearGradient id="paint4_linear_1006_2039" x1="157.636" y1="111.114" x2="183.243" y2="167.567" gradientUnits="userSpaceOnUse">
<stop stop-color="#FFDC6A"/>
<stop offset="1" stop-color="#C89A04"/>
</linearGradient>
<linearGradient id="paint5_linear_1006_2039" x1="108.546" y1="133.422" x2="122.875" y2="119.329" gradientUnits="userSpaceOnUse">
<stop stop-color="#FFD54B"/>
<stop offset="1" stop-color="#D8A500"/>
</linearGradient>
<linearGradient id="paint6_linear_1006_2039" x1="121.278" y1="86.1079" x2="157.859" y2="166.568" gradientUnits="userSpaceOnUse">
<stop stop-color="#FFDC6A"/>
<stop offset="1" stop-color="#C89A04"/>
</linearGradient>
</defs>
</svg>
