<svg width="216" height="218" viewBox="0 0 216 218" fill="none" xmlns="http://www.w3.org/2000/svg">
<path d="M108 216C167.647 216 216 167.647 216 108C216 48.3532 167.647 0 108 0C48.3532 0 0 48.3532 0 108C0 167.647 48.3532 216 108 216Z" fill="url(#paint0_linear_1006_1823)"/>
<g filter="url(#filter0_d_1006_1823)">
<path d="M173.149 119.425C173.258 118.43 173.431 117.428 173.476 116.426C173.649 112.418 173.649 108.397 173.983 104.408C174.233 101.434 176.125 100.24 178.788 100.978C178.915 100.88 179.038 100.775 179.153 100.664C180.321 99.5075 181.482 98.3471 182.637 97.1824C183.561 98.634 184.985 99.9828 185.306 101.556C186.05 105.224 186.268 109.001 186.692 112.733C186.775 113.497 186.801 114.268 186.89 115.443C187.928 114.242 189.034 113.101 190.201 112.026C191.634 110.831 193.164 109.757 194.775 108.815C196.308 107.928 198.361 107.331 199.484 108.885C200.177 109.842 200.042 111.988 199.484 113.201C192.061 128.508 185.582 144.315 175.638 158.285C171.85 163.543 166.984 167.93 161.364 171.15C156.385 174.079 151.74 177.65 147.25 181.241C145.165 182.885 143.509 185.191 144.042 188.46C145.37 188.64 146.794 188.608 148.039 189.07C148.789 189.353 149.739 190.387 149.758 191.107C149.906 196.663 149.758 202.231 149.906 207.807C149.963 209.933 149.399 210.646 147.205 210.671C136.562 210.8 125.918 211.057 115.282 211.352C113.524 211.403 112.946 210.787 112.998 209.098C113.081 206.477 112.946 203.85 113.055 201.229C113.094 200.304 113.299 199.026 113.915 198.551C115.551 197.266 115.455 195.718 115.487 193.984C115.596 187.561 115.41 181.138 116.071 174.837C117.354 162.685 122.371 156.608 134.323 153.821C141.803 152.074 147.339 148.162 152.177 142.561C156.064 138.065 159.689 133.241 165.168 130.357C165.809 130.017 166.156 128.475 166.092 127.525C165.861 124.018 165.367 120.53 165.046 117.03C164.95 115.989 164.783 114.762 165.213 113.902C165.732 112.861 166.752 111.628 167.779 111.422C168.517 111.262 169.941 112.424 170.409 113.349C171.391 115.276 171.949 117.428 172.68 119.483L173.149 119.425Z" fill="#E6E6E6"/>
</g>
<g filter="url(#filter1_d_1006_1823)">
<path d="M43.0721 119.396C42.963 118.4 42.7898 117.398 42.7449 116.396C42.5717 112.388 42.5717 108.367 42.2381 104.379C41.9879 101.405 40.0953 100.21 37.4329 100.949C37.3052 100.851 37.1832 100.746 37.0673 100.634C35.8997 99.4777 34.7385 98.3173 33.5837 97.1526C32.6599 98.6042 31.2357 99.953 30.9149 101.527C30.1707 105.194 29.9526 108.971 29.5292 112.703C29.4458 113.467 29.4201 114.238 29.3303 115.413C28.2923 114.213 27.187 113.072 26.0199 111.996C24.5862 110.801 23.0563 109.727 21.4457 108.785C19.9125 107.898 17.8595 107.301 16.7368 108.855C16.044 109.812 16.1787 111.958 16.7368 113.172C24.1595 128.478 30.639 144.285 40.5829 158.255C44.3702 163.514 49.2372 167.9 54.8572 171.12C59.8356 174.049 64.4803 177.621 68.9711 181.211C71.0561 182.855 72.7113 185.161 72.1788 188.431C70.8508 188.61 69.4266 188.578 68.182 189.041C67.4314 189.323 66.4819 190.357 66.4627 191.077C66.3151 196.633 66.4627 202.202 66.3151 207.777C66.2574 209.903 66.8219 210.616 69.016 210.641C79.6592 210.77 90.3023 211.027 100.939 211.322C102.697 211.374 103.274 210.757 103.223 209.068C103.14 206.447 103.274 203.82 103.165 201.2C103.127 200.275 102.921 198.996 102.306 198.521C100.67 197.237 100.766 195.689 100.734 193.954C100.625 187.531 100.811 181.108 100.15 174.807C98.8669 162.655 93.85 156.579 81.8981 153.791C74.4178 152.044 68.8813 148.132 64.0441 142.531C60.1563 138.035 56.5316 133.212 51.0529 130.328C50.4113 129.987 50.0649 128.446 50.129 127.495C50.36 123.988 50.854 120.5 51.1747 117C51.271 115.959 51.4378 114.732 51.0079 113.872C50.4883 112.831 49.4683 111.598 48.4418 111.392C47.704 111.232 46.2798 112.394 45.8115 113.319C44.8299 115.246 44.2718 117.398 43.5404 119.453L43.0721 119.396Z" fill="#E6E6E6"/>
</g>
<g filter="url(#filter2_d_1006_1823)">
<path d="M154.084 97.7612C154.084 110.864 154.039 120.351 154.123 122.124C154.181 122.853 154.025 123.583 153.674 124.224C153.293 124.821 152.759 125.304 152.128 125.624C137.783 133.679 123.489 141.836 109.144 149.865C108.666 150.078 108.146 150.185 107.622 150.177C107.098 150.169 106.582 150.047 106.11 149.82C91.8249 141.487 77.5849 133.075 63.3897 124.584C62.9272 124.255 62.5414 123.83 62.259 123.338C61.9765 122.845 61.8042 122.298 61.7538 121.732C61.8179 105.075 61.9805 88.4221 62.2414 71.7736C62.3009 71.2924 62.4636 70.8298 62.7182 70.4174C62.9729 70.005 63.3136 69.6526 63.7169 69.3842C77.9848 61.1948 92.3104 53.1082 106.598 44.9766C107.191 44.5763 107.894 44.37 108.61 44.3861C109.326 44.4022 110.019 44.6399 110.594 45.0665C124.58 53.3694 138.608 61.6337 152.679 69.8595C153.342 70.1277 153.883 70.6307 154.2 71.2726C154.334 71.6541 154.36 72.0652 154.277 72.4608L154.084 97.7612ZM107.836 127.628L135.422 81.588H82.7707L107.836 127.628ZM109.76 128.746L151.46 122.92C146.604 109.689 141.837 96.7785 136.942 83.3607L109.76 128.746ZM108.561 46.9035L82.8156 79.1151H134.28L108.561 46.9035ZM105.911 128.714C97.4427 113.151 89.2695 98.1402 80.8268 82.6349C75.2069 96.1233 69.8372 108.969 64.3777 122.047L105.911 128.714ZM64.1082 115.913L64.4739 116.073L79.2294 80.7466L64.1082 72.5957V115.913ZM69.5806 125.117L69.4266 125.682L106.418 147.521V131.045L69.5806 125.117ZM103.14 50.1472L102.793 49.6783L65.494 70.7908L80.2494 78.7683C87.9479 69.1465 95.5437 59.6469 103.14 50.1472ZM151.935 73.7968C148.009 75.9486 144.237 78.1131 140.426 80.0657C138.809 80.8815 138.636 81.7229 139.239 83.3286C142.389 91.6786 145.43 100.029 148.503 108.411C149.446 110.98 150.428 113.549 151.345 116.08L151.935 115.99V73.7968ZM151.204 71.613L114.405 49.8838C115.17 51.4706 116.143 52.948 117.298 54.2772C123.521 62.0748 129.731 69.8916 136.019 77.6442C136.506 78.2416 137.789 78.9288 138.258 78.6976C142.479 76.5395 146.566 74.1886 151.204 71.613ZM145.866 126.549L145.661 125.907L109.016 131.045V147.399L145.866 126.549Z" fill="white"/>
</g>
<g filter="url(#filter3_d_1006_1823)">
<path d="M107.836 127.629L82.7708 81.5881H135.422L107.836 127.629Z" fill="url(#paint1_linear_1006_1823)"/>
</g>
<g filter="url(#filter4_d_1006_1823)">
<path d="M109.76 128.746L136.949 83.3611C141.869 96.7788 146.61 109.696 151.467 122.921L109.76 128.746Z" fill="url(#paint2_linear_1006_1823)"/>
</g>
<g filter="url(#filter5_d_1006_1823)">
<path d="M108.56 46.9036L134.286 79.0959H82.8153L108.56 46.9036Z" fill="url(#paint3_linear_1006_1823)"/>
</g>
<g filter="url(#filter6_d_1006_1823)">
<path d="M105.911 128.714L64.3778 122.053C69.8373 108.969 75.207 96.1169 80.8269 82.6414C89.2696 98.1402 97.4428 113.151 105.911 128.714Z" fill="url(#paint4_linear_1006_1823)"/>
</g>
<g filter="url(#filter7_d_1006_1823)">
<path d="M64.108 115.913V72.5957L79.2227 80.7273L64.4673 116.054L64.108 115.913Z" fill="url(#paint5_linear_1006_1823)"/>
</g>
<g filter="url(#filter8_d_1006_1823)">
<path d="M69.5805 125.117L106.418 131.046V147.521L69.4265 125.682L69.5805 125.117Z" fill="url(#paint6_linear_1006_1823)"/>
</g>
<g filter="url(#filter9_d_1006_1823)">
<path d="M103.139 50.1473C95.5435 59.647 87.9477 69.1467 80.2492 78.7685L65.4938 70.791L102.793 49.6785L103.139 50.1473Z" fill="url(#paint7_linear_1006_1823)"/>
</g>
<g filter="url(#filter10_d_1006_1823)">
<path d="M151.935 73.7969V115.99L151.345 116.08C150.402 113.511 149.42 110.941 148.503 108.411C145.43 100.061 142.389 91.6658 139.239 83.3287C138.636 81.7229 138.809 80.8815 140.426 80.0658C144.269 78.1132 148.009 75.9486 151.935 73.7969Z" fill="url(#paint8_linear_1006_1823)"/>
</g>
<g filter="url(#filter11_d_1006_1823)">
<path d="M151.204 71.6132C146.565 74.1824 142.459 76.5397 138.257 78.6785C137.789 78.9162 136.506 78.2225 136.018 77.6252C129.731 69.8725 123.521 62.0557 117.298 54.2581C116.143 52.929 115.17 51.4515 114.405 49.8647L151.204 71.6132Z" fill="url(#paint9_linear_1006_1823)"/>
</g>
<g filter="url(#filter12_d_1006_1823)">
<path d="M145.866 126.549L109.016 147.424V131.091L145.661 125.952L145.866 126.549Z" fill="url(#paint10_linear_1006_1823)"/>
</g>
<g filter="url(#filter13_d_1006_1823)">
<path d="M108.27 100.936L107.4 103.338H100.005V102.998C102.174 101.018 103.699 99.3977 104.582 98.1367C105.477 96.8758 105.925 95.7283 105.925 94.6944C105.925 93.9 105.679 93.2506 105.187 92.7462C104.708 92.2292 104.128 91.9707 103.447 91.9707C102.829 91.9707 102.274 92.1535 101.783 92.5192C101.304 92.8723 100.944 93.3956 100.705 94.0891H100.364C100.515 92.9542 100.906 92.0842 101.537 91.4789C102.18 90.8611 102.981 90.5521 103.939 90.5521C104.96 90.5521 105.805 90.88 106.473 91.5357C107.154 92.1914 107.495 92.9606 107.495 93.8432C107.495 94.4737 107.35 95.1105 107.06 95.7535C106.606 96.7497 105.868 97.8026 104.847 98.9122C103.308 100.589 102.35 101.598 101.972 101.938H105.244C105.912 101.938 106.379 101.913 106.644 101.863C106.908 101.812 107.148 101.718 107.362 101.579C107.577 101.428 107.766 101.213 107.93 100.936H108.27ZM111.07 97.1532C111.07 95.7283 111.284 94.4989 111.713 93.4649C112.141 92.431 112.715 91.6618 113.434 91.1574C113.989 90.7539 114.562 90.5521 115.155 90.5521C116.113 90.5521 116.977 91.0439 117.746 92.0275C118.692 93.238 119.165 94.8835 119.165 96.9641C119.165 98.4141 118.957 99.6499 118.541 100.671C118.125 101.68 117.589 102.418 116.933 102.884C116.29 103.338 115.666 103.565 115.06 103.565C113.863 103.565 112.866 102.859 112.072 101.447C111.404 100.261 111.07 98.8303 111.07 97.1532ZM113.037 97.6261C113.276 99.3409 113.68 100.703 114.247 101.712C114.739 102.569 115.325 102.947 116.006 102.846C116.347 102.796 116.668 102.6 116.971 102.26C117.286 101.92 117.482 101.384 117.557 100.652C117.696 99.5679 117.627 98.0674 117.349 96.1507C117.135 94.7385 116.813 93.5847 116.384 92.6894C116.069 92.0211 115.716 91.5672 115.325 91.3276C115.048 91.1511 114.726 91.088 114.361 91.1385C113.945 91.2015 113.604 91.4411 113.339 91.8572C112.974 92.4373 112.791 93.2821 112.791 94.3917C112.791 95.5014 112.873 96.5795 113.037 97.6261Z" fill="#E4E4E4"/>
</g>
<g filter="url(#filter14_d_1006_1823)">
<path d="M81.7227 111.88C80.9286 110.875 80.4402 110.103 80.2574 109.562C80.0747 109.021 80.0377 108.491 80.1466 107.973C80.315 107.171 80.7674 106.551 81.5036 106.113C82.2424 105.662 83.1178 105.543 84.1297 105.756C85.1292 105.966 85.8682 106.405 86.3465 107.072C86.8397 107.73 87.0137 108.404 86.8686 109.095C86.7727 109.551 86.5076 109.985 86.0734 110.397C85.654 110.798 84.8649 111.212 83.7059 111.639C84.5935 112.689 85.1608 113.484 85.4079 114.026C85.7349 114.739 85.8271 115.434 85.6846 116.113C85.5031 116.977 85.0145 117.647 84.2185 118.124C83.4375 118.592 82.5163 118.714 81.4551 118.491C80.2951 118.247 79.4645 117.693 78.9634 116.828C78.5695 116.126 78.4451 115.43 78.5903 114.739C78.7043 114.196 78.996 113.697 79.4653 113.241C79.9469 112.789 80.6994 112.335 81.7227 111.88ZM83.354 111.198C84.2168 110.709 84.781 110.293 85.0464 109.949C85.3242 109.608 85.5123 109.203 85.6108 108.734C85.743 108.105 85.6677 107.574 85.385 107.141C85.1023 106.708 84.6525 106.426 84.0354 106.297C83.4308 106.17 82.8934 106.244 82.4234 106.519C81.9682 106.784 81.6902 107.157 81.5891 107.638C81.5243 107.947 81.5384 108.278 81.6315 108.633C81.7271 108.975 81.8932 109.319 82.1297 109.665L83.354 111.198ZM82.0784 112.302C81.4967 112.618 81.0293 113.003 80.6762 113.457C80.3381 113.902 80.1081 114.414 79.9863 114.994C79.823 115.771 79.902 116.438 80.223 116.995C80.5591 117.543 81.0541 117.885 81.7081 118.022C82.3621 118.16 82.918 118.09 83.3757 117.812C83.8484 117.525 84.1404 117.116 84.2518 116.585C84.3426 116.153 84.307 115.74 84.1451 115.345C83.8577 114.628 83.1688 113.613 82.0784 112.302Z" fill="#E4E4E4"/>
</g>
<g filter="url(#filter15_d_1006_1823)">
<path d="M133.954 104.447L134.014 104.782C133.235 105.01 132.476 105.535 131.738 106.357C130.997 107.166 130.456 107.941 130.113 108.68C129.78 109.405 129.553 110.073 129.43 110.683C129.306 111.282 129.211 112.016 129.147 112.885C129.911 112.135 130.734 111.682 131.615 111.526C132.46 111.377 133.246 111.59 133.976 112.165C134.715 112.725 135.179 113.54 135.368 114.608C135.551 115.638 135.407 116.637 134.938 117.603C134.376 118.766 133.473 119.457 132.232 119.676C131.387 119.826 130.624 119.673 129.942 119.217C128.593 118.329 127.767 117.022 127.461 115.296C127.266 114.191 127.297 113.103 127.556 112.033C127.827 110.961 128.274 109.832 128.897 108.646C129.529 107.445 130.283 106.492 131.157 105.787C132.029 105.069 132.787 104.653 133.433 104.539L133.954 104.447ZM129.117 113.582C129.15 114.421 129.211 115.089 129.299 115.586C129.402 116.169 129.62 116.784 129.952 117.429C130.284 118.075 130.702 118.558 131.207 118.878C131.568 119.109 131.966 119.186 132.4 119.109C132.934 119.014 133.362 118.683 133.684 118.113C134.018 117.542 134.104 116.797 133.941 115.878C133.759 114.847 133.39 113.991 132.833 113.308C132.29 112.623 131.639 112.348 130.882 112.482C130.658 112.521 130.419 112.615 130.163 112.763C129.918 112.896 129.569 113.169 129.117 113.582Z" fill="#E4E4E4"/>
</g>
<g filter="url(#filter16_d_1006_1823)">
<path d="M198.22 110.189C197.758 111.598 197.224 112.983 196.623 114.338C189.97 127.184 183.548 140.191 176.459 152.806C173.829 157.495 169.96 161.663 165.996 165.363C162.948 168.208 158.753 169.788 155.295 172.242C151.641 174.862 148.123 177.666 144.754 180.643C142.047 183.02 141.136 186.103 141.854 189.777C142.631 193.766 142.496 193.811 138.801 195.352C132.266 198.137 125.232 199.551 118.13 199.508C117.931 199.289 117.732 199.167 117.732 199.052C117.963 190.214 117.572 181.311 118.611 172.576C119.773 162.807 126.13 157.263 137.024 155.285C141.398 154.538 145.422 152.417 148.514 149.228C153.004 144.7 157.303 139.953 161.858 135.483C164.27 133.113 167.093 131.224 171.372 132.13C170.722 133.353 170.009 134.541 169.235 135.688C165.623 140.454 162.095 145.323 158.259 149.871C155.346 153.345 155.359 157.777 153.768 161.663C153.646 161.959 154.223 162.537 154.48 162.986C154.91 162.704 155.59 162.511 155.763 162.113C156.443 160.442 157.002 158.725 157.437 156.974C158.663 151.643 162.294 148.034 166.156 144.61C167.844 143.181 169.611 141.85 171.449 140.621C177.118 136.665 181.563 131.195 184.279 124.834C185.724 121.714 187.48 118.748 189.521 115.983C190.507 114.48 191.785 113.193 193.28 112.197C194.775 111.201 196.455 110.518 198.22 110.189Z" fill="url(#paint11_linear_1006_1823)"/>
</g>
<g filter="url(#filter17_d_1006_1823)">
<path d="M18.0006 110.159C18.4631 111.568 18.9963 112.953 19.598 114.308C26.2508 127.155 32.6726 140.161 39.7616 152.776C42.3919 157.465 46.2604 161.633 50.2252 165.333C53.2725 168.179 57.4682 169.759 60.9261 172.212C64.5796 174.832 68.0976 177.636 71.4666 180.614C74.1739 182.99 75.0849 186.073 74.3663 189.747C73.5901 193.736 73.7248 193.781 77.4201 195.322C83.9542 198.107 90.9891 199.521 98.0905 199.478C98.2894 199.26 98.4883 199.138 98.4883 199.022C98.2573 190.184 98.6487 181.282 97.6094 172.546C96.4482 162.777 90.0905 157.234 79.1972 155.255C74.8223 154.508 70.7982 152.387 67.7071 149.198C63.2164 144.67 58.918 139.924 54.3631 135.453C51.9509 133.083 49.1281 131.195 44.849 132.1C45.4982 133.323 46.2113 134.511 46.9854 135.659C50.5973 140.425 54.1257 145.293 57.9621 149.841C60.8747 153.316 60.8619 157.748 62.4529 161.633C62.5748 161.929 61.9974 162.507 61.7408 162.957C61.311 162.674 60.631 162.481 60.4577 162.083C59.7781 160.412 59.2186 158.695 58.7833 156.945C57.558 151.614 53.9268 148.004 50.0648 144.58C48.3772 143.152 46.6101 141.82 44.7721 140.592C39.103 136.636 34.6573 131.165 31.9412 124.804C30.4968 121.684 28.7407 118.719 26.6999 115.953C25.7142 114.45 24.4356 113.163 22.9407 112.167C21.4459 111.172 19.7655 110.489 18.0006 110.159Z" fill="url(#paint12_linear_1006_1823)"/>
</g>
<g filter="url(#filter18_d_1006_1823)">
<path d="M173.63 135.335C174.047 134.468 174.406 133.562 174.913 132.766C179.538 124.968 180.995 116.49 180.405 107.555C180.225 104.858 180.283 102.211 182.56 99.7129C184.767 106.361 185.697 113.201 184.132 119.278C182.567 125.354 179.487 131.507 173.63 135.335Z" fill="white"/>
</g>
<g filter="url(#filter19_d_1006_1823)">
<path d="M42.5908 135.305C42.1738 134.438 41.8146 133.533 41.3077 132.736C36.6822 124.939 35.2259 116.46 35.8161 107.526C35.9958 104.828 35.938 102.182 33.6606 99.6831C31.4537 106.331 30.5234 113.172 32.0888 119.248C33.6541 125.324 36.7336 131.477 42.5908 135.305Z" fill="white"/>
</g>
<g filter="url(#filter20_d_1006_1823)">
<path d="M174.457 128.341C175.099 120.081 175.74 111.692 176.427 102.886C179.859 106.535 178.255 122.676 174.457 128.341Z" fill="white"/>
</g>
<g filter="url(#filter21_d_1006_1823)">
<path d="M41.7634 128.311C41.1219 120.05 40.4804 111.662 39.7939 102.856C36.3617 106.504 37.9655 122.645 41.7634 128.311Z" fill="white"/>
</g>
<g filter="url(#filter22_d_1006_1823)">
<path d="M171.429 129.664L168.51 129.42C168.01 124.14 167.529 119.047 167.047 113.947L168.164 113.786C169.415 118.97 173.61 123.446 171.429 129.664Z" fill="white"/>
</g>
<g filter="url(#filter23_d_1006_1823)">
<path d="M44.7916 129.634L47.7106 129.39C48.211 124.11 48.6922 119.017 49.1733 113.917L48.0571 113.756C46.8061 118.94 42.6104 123.416 44.7916 129.634Z" fill="white"/>
</g>
<g filter="url(#filter24_d_1006_1823)">
<path d="M205.03 180.649C204.635 180.478 200.056 178.397 199.183 173.533C198.527 169.867 200.231 166.106 203.548 163.923C201.93 164.237 199.262 164.783 195.994 165.568C182.51 168.815 175.14 170.686 170.802 176.576C169.958 177.728 168.716 179.718 167.958 182.748L178.896 181.177C178.843 182.853 178.839 184.6 178.896 186.414C179.044 191.059 179.582 195.683 180.504 200.238L199.556 196.17C198.897 195.563 196.517 193.219 196.51 189.848C196.507 185.794 199.932 181.887 205.03 180.649Z" fill="#F4F4F4"/>
</g>
<g filter="url(#filter25_d_1006_1823)">
<path d="M10.9703 180.649C11.3654 180.478 15.9449 178.397 16.8168 173.533C17.4738 169.867 15.7688 166.106 12.4521 163.923C14.0701 164.237 16.734 164.783 20.0056 165.568C33.4894 168.815 40.8659 170.686 45.1991 176.576C46.0437 177.728 47.2855 179.718 48.0421 182.748L37.1048 181.177C37.1583 182.853 37.1625 184.6 37.1048 186.414C36.9559 191.059 36.4182 195.683 35.4973 200.238L16.4448 196.17C17.1029 195.563 19.4838 193.219 19.489 189.848C19.4963 185.794 16.0675 181.887 10.9703 180.649Z" fill="#F4F4F4"/>
</g>
<g filter="url(#filter26_d_1006_1823)">
<path d="M179.833 180.109C179.833 180.109 182.032 180.302 182.032 181.817C182.025 189.849 181.984 198.038 182.08 206.227C182.102 208.038 181.008 208.44 179.681 208.689C170.836 210.351 162.042 212.442 153.116 213.497C127.174 216.559 101.14 216.588 75.0816 214.788C60.4511 213.776 43.9501 211.186 35.1649 208.336C34.8075 208.226 34.4942 208.006 34.2704 207.707C34.0466 207.408 33.9237 207.046 33.9196 206.673V181.83C34.4973 181.085 35.2537 180.497 36.119 180.119C38.0398 179.306 40.0005 179.862 40.4278 179.971C44.7513 181.06 88.5621 185.798 111.028 185.151C127.103 184.689 173.434 180.285 176.913 179.808C177.254 179.761 178.506 179.571 179.833 180.109Z" fill="#F4F4F4"/>
</g>
<path d="M83.7275 207.099C82.3001 208.208 80.3229 208.653 77.8073 208.402C76.042 208.226 74.375 207.358 72.8304 205.807C71.3879 204.352 70.8658 202.186 71.229 199.325C71.5367 196.903 72.5114 195.021 74.1292 193.663C75.747 192.305 77.5337 191.73 79.5437 191.932C81.0492 192.082 82.2143 192.54 83.0453 193.325C83.7792 194.082 84.1184 194.856 84.0541 195.644C84.0339 196.037 83.8732 196.409 83.6014 196.693C83.266 196.971 82.7805 197.083 82.145 197.026C81.5095 196.969 81.1135 196.549 81.0026 195.773C81.0681 195.069 81.3178 194.674 81.7478 194.589C81.7604 194.297 81.5208 193.983 81.0328 193.644C80.4239 193.155 79.6828 192.858 78.9044 192.792C77.917 192.691 76.8944 193.077 75.8201 193.947C74.5226 195.137 73.7446 196.768 73.4974 198.844C73.1658 201.626 73.5718 203.715 74.742 205.102C75.9336 206.534 77.4139 207.339 79.1553 207.507C80.7945 207.663 82.2282 207.411 83.4425 206.759C83.5358 206.875 83.6291 206.988 83.7275 207.099Z" fill="#545454"/>
<path d="M92.7811 192.585C94.0584 192.652 95.3724 193.341 96.7518 194.639C98.0052 196.278 98.6243 197.881 98.5764 199.448C98.5437 201.141 98.0178 202.787 97.0633 204.186C96.3597 205.242 95.1214 206.024 93.346 206.508C92.797 206.633 92.2344 206.689 91.6715 206.673C88.9415 206.526 87.0211 204.908 85.9657 201.868C85.7408 200.906 85.6697 199.915 85.7551 198.931C85.9153 196.828 86.8244 195.161 88.4498 193.909C89.0067 193.603 89.6291 193.436 90.2643 193.422C91.041 192.816 91.8783 192.539 92.7811 192.585ZM90.7573 194.305C90.7783 194.876 91.0561 195.296 91.5908 195.566C91.9363 195.419 92.1998 195.35 92.3827 195.36C92.7055 195.377 92.887 195.601 92.9387 196.035C92.8959 196.31 92.5604 196.501 91.9136 196.605C90.9414 196.552 90.4004 195.803 90.3122 194.367C89.8708 194.479 89.4505 194.8 89.0512 195.329C88.3794 196.595 87.9889 197.992 87.9063 199.423C87.7436 201.789 88.2758 203.676 89.5304 205.075C90.1823 205.614 90.867 205.904 91.5794 205.942C92.9463 206.016 94.0811 205.506 94.9689 204.42C95.8135 203.094 96.286 201.565 96.337 199.994C96.402 198.422 96.0781 196.857 95.3938 195.44C94.6372 194.282 93.6524 193.674 92.4129 193.609C91.4193 193.555 90.872 193.784 90.7573 194.305Z" fill="#545454"/>
<path d="M112.855 200.097C112.892 202.025 112.408 203.644 111.381 204.949C110.183 206.351 108.418 207.076 106.11 207.092C104.093 207.083 102.071 207.053 100.045 207.003C100.045 206.877 100.052 206.751 100.055 206.625L100.536 206.636C101.075 206.649 101.458 206.477 101.683 206.12C101.851 205.873 101.941 205.369 101.953 204.607C102.009 201.639 102.064 198.671 102.121 195.704C102.136 194.859 102.063 194.317 101.9 194.077C101.668 193.781 101.315 193.628 100.842 193.617L100.383 193.605C100.383 193.479 100.39 193.353 100.392 193.227C101.553 193.256 102.715 193.278 103.877 193.293L103.866 194.188C104.952 193.601 106.171 193.301 107.405 193.317C108.919 193.317 110.341 194.199 111.703 195.965C112.429 197.223 112.826 198.644 112.855 200.097ZM103.736 206.075C104.39 206.257 105.064 206.361 105.742 206.385C106.435 206.404 107.122 206.265 107.753 205.978C108.383 205.691 108.94 205.264 109.38 204.729C110.328 203.62 110.783 202.112 110.767 200.213C110.751 198.314 110.259 196.827 109.325 195.731C108.39 194.636 107.206 194.092 105.755 194.092C105.212 194.092 104.588 194.364 103.882 194.907C103.835 198.625 103.788 202.347 103.741 206.075H103.736Z" fill="#545454"/>
<path d="M118.501 193.856C118.571 195.672 118.642 197.488 118.714 199.303C119.752 199.262 120.789 199.216 121.826 199.163C122.636 199.123 123.17 198.976 123.426 198.725C123.762 198.388 123.93 197.83 123.93 197.05L124.308 197.027C124.402 198.62 124.496 200.212 124.591 201.805L124.204 201.828C124.064 201.168 123.94 200.746 123.825 200.557C123.678 200.313 123.452 200.127 123.184 200.03C122.884 199.908 122.443 199.862 121.858 199.891C120.819 199.942 119.78 199.989 118.739 200.031L118.917 204.583C118.94 205.193 118.982 205.563 119.043 205.693C119.11 205.827 119.222 205.933 119.36 205.992C119.509 206.062 119.78 206.09 120.173 206.072C120.987 206.037 121.802 205.998 122.617 205.956C123.446 205.913 124.04 205.824 124.397 205.693C124.788 205.537 125.14 205.295 125.426 204.985C125.388 204.377 125.144 203.71 124.696 202.987L125.755 202.943C126.291 204.103 126.832 205.264 127.379 206.423C123.219 206.704 119.054 206.897 114.887 207.003C114.887 206.877 114.88 206.751 114.878 206.625L115.382 206.612C115.723 206.606 116.058 206.52 116.359 206.36C116.565 206.253 116.724 206.073 116.803 205.855C116.882 205.638 116.911 205.19 116.89 204.51C116.842 203.04 116.795 201.569 116.748 200.097C116.248 200.113 115.75 200.127 115.251 200.141L115.232 199.435C115.731 199.421 116.228 199.406 116.725 199.389C116.676 197.893 116.628 196.396 116.58 194.898C116.566 194.469 116.464 194.152 116.277 193.949C116.018 193.697 115.602 193.578 115.032 193.591L114.551 193.604C114.551 193.478 114.545 193.352 114.541 193.226C118.089 193.137 121.635 192.98 125.178 192.755C125.299 193.756 125.418 194.756 125.538 195.755L125.137 195.78C124.938 195.07 124.743 194.585 124.552 194.325C124.347 194.056 124.069 193.852 123.751 193.738C123.466 193.654 122.982 193.632 122.3 193.672C121.035 193.745 119.769 193.807 118.501 193.856Z" fill="#545454"/>
<path d="M136.26 198.305C137.928 200.569 139.631 202.819 141.369 205.055C142.252 206.182 142.895 206.879 143.292 207.153C143.717 207.433 144.223 207.562 144.731 207.52C144.748 207.664 144.767 207.809 144.785 207.952C143.054 208.172 141.866 208.014 141.229 207.501C140.706 207.019 140.218 206.5 139.769 205.947C138.277 203.978 136.811 201.996 135.372 200.003C134.652 201.264 133.922 202.523 133.182 203.779C133.041 203.989 132.922 204.213 132.825 204.447C132.779 204.579 132.761 204.72 132.773 204.859C132.779 204.962 132.809 205.063 132.86 205.153C132.912 205.242 132.983 205.319 133.069 205.376C133.248 205.502 133.574 205.555 134.04 205.54L134.074 205.918C132.488 206.062 130.901 206.193 129.312 206.312C129.303 206.186 129.294 206.06 129.284 205.934C129.559 205.879 129.825 205.789 130.076 205.665C130.452 205.447 130.796 205.178 131.097 204.864C131.502 204.421 131.855 203.933 132.148 203.409C132.998 201.963 133.834 200.509 134.656 199.048C133.731 197.804 132.821 196.557 131.924 195.305C131.201 194.296 130.607 193.639 130.134 193.335C129.663 193.033 129.107 192.89 128.548 192.927C128.538 192.801 128.529 192.665 128.519 192.533C130.345 192.396 132.169 192.241 133.992 192.067L134.03 192.462C133.574 192.518 133.265 192.634 133.106 192.808C133.033 192.88 132.976 192.966 132.939 193.061C132.903 193.157 132.887 193.259 132.893 193.361C132.916 193.613 133.088 193.959 133.41 194.4C134.115 195.393 134.827 196.384 135.545 197.373C136.164 196.273 136.776 195.172 137.379 194.069C137.531 193.819 137.655 193.553 137.75 193.276C137.783 193.138 137.792 192.995 137.778 192.854C137.765 192.722 137.715 192.597 137.633 192.493C137.542 192.369 137.415 192.277 137.268 192.23C137.122 192.182 136.842 192.18 136.425 192.23C136.412 192.104 136.398 191.967 136.384 191.836C138.02 191.668 139.655 191.484 141.287 191.285C141.303 191.411 141.319 191.547 141.335 191.677C141.061 191.71 140.798 191.806 140.567 191.959C140.252 192.149 139.955 192.348 139.676 192.555C139.396 192.762 139.045 193.245 138.623 194.002C137.848 195.438 137.061 196.872 136.26 198.305Z" fill="#545454"/>
<g filter="url(#filter27_d_1006_1823)">
<path d="M205.03 35.3507C204.635 35.5224 200.056 37.6034 199.183 42.4671C198.527 46.1327 200.231 49.8935 203.548 52.0771C201.93 51.763 199.262 51.2173 195.994 50.4318C182.51 47.1852 175.14 45.3137 170.802 39.4236C169.958 38.2716 168.716 36.2817 167.958 33.2519L178.896 34.8228C178.843 33.1471 178.839 31.4002 178.896 29.5863C179.044 24.9413 179.582 20.317 180.504 15.7619L199.556 19.8296C198.897 20.4371 196.517 22.7809 196.51 26.1522C196.507 30.2063 199.932 34.1128 205.03 35.3507Z" fill="#F4F4F4"/>
</g>
<g filter="url(#filter28_d_1006_1823)">
<path d="M10.9703 35.3507C11.3654 35.5224 15.9449 37.6034 16.8168 42.4671C17.4738 46.1327 15.7688 49.8935 12.4521 52.0771C14.0701 51.763 16.734 51.2173 20.0056 50.4318C33.4894 47.1852 40.8659 45.3137 45.1991 39.4236C46.0437 38.2716 47.2855 36.2817 48.0421 33.2519L37.1048 34.8228C37.1583 33.1471 37.1625 31.4002 37.1048 29.5863C36.9559 24.9414 36.4182 20.3171 35.4973 15.7619L16.4448 19.8296C17.1029 20.4371 19.4838 22.7809 19.489 26.1522C19.4963 30.2063 16.0675 34.1128 10.9703 35.3507Z" fill="#F4F4F4"/>
</g>
<g filter="url(#filter29_d_1006_1823)">
<path d="M179.833 35.891C179.833 35.891 182.032 35.6976 182.032 34.1833C182.025 26.1514 181.984 17.9618 182.08 9.77325C182.102 7.96205 181.008 7.55968 179.681 7.31093C170.836 5.64918 162.042 3.55788 153.116 2.50335C127.174 -0.558876 101.14 -0.588139 75.0816 1.21157C60.4511 2.2243 43.9501 4.81413 35.1649 7.66419C34.8075 7.77384 34.4942 7.994 34.2704 8.29288C34.0466 8.59176 33.9237 8.95389 33.9196 9.32699V34.1697C34.4973 34.915 35.2537 35.5033 36.119 35.8805C38.0398 36.6936 40.0005 36.1376 40.4278 36.0289C44.7513 34.9399 88.5621 30.2024 111.028 30.8493C127.103 31.3112 173.434 35.7154 176.913 36.192C177.254 36.239 178.506 36.4292 179.833 35.891Z" fill="#F4F4F4"/>
</g>
<path d="M70.8879 15.234C71.7807 17.2364 72.6634 19.2421 73.5359 21.2512C74.2547 17.7584 75.0024 14.2698 75.7792 10.7854C76.0028 10.1255 76.1015 9.63709 76.0755 9.32018C76.0615 9.1698 76.0036 9.02686 75.909 8.90911C75.8152 8.78277 75.6822 8.69101 75.5308 8.64809C75.2192 8.56579 74.8947 8.54396 74.575 8.58378L74.5447 8.23198C76.334 7.95205 77.2822 8.0958 77.3831 8.64305C77.5609 9.02133 77.4814 10.1801 77.1561 12.127C76.1474 16.2983 75.1848 20.4732 74.2685 24.652L73.4073 24.7315C72.2968 21.9868 71.1658 19.2468 70.0141 16.5114C69.3029 19.4342 68.6149 22.3584 67.9499 25.2837L67.2552 25.3392C65.6269 21.78 63.9641 18.2309 62.2669 14.6918C61.8785 13.8999 61.6385 13.433 61.5469 13.2909C61.4148 13.07 61.2161 12.8965 60.9794 12.7953C60.6862 12.6922 60.3713 12.6666 60.0653 12.7209C60.0501 12.61 60.0362 12.4839 60.0211 12.3691C61.5939 12.1708 63.1676 11.982 64.7421 11.803C64.7547 11.9202 64.7686 12.0375 64.7824 12.1548L64.5643 12.18C64.2873 12.1917 64.0251 12.308 63.8304 12.5053C63.757 12.5854 63.7016 12.6803 63.6681 12.7836C63.6346 12.887 63.6237 12.9964 63.6362 13.1043C63.664 13.338 63.8628 13.8524 64.2327 14.6477C65.3499 17.0452 66.4503 19.4477 67.5338 21.8552C68.0222 19.7091 68.5224 17.5655 69.0344 15.4244C69.0897 15.1995 69.2037 14.9932 69.3647 14.8267C69.5253 14.6943 69.7232 14.6153 69.9309 14.601C70.1385 14.5735 70.3495 14.6152 70.5311 14.7195C70.7127 14.8379 70.8408 15.0225 70.8879 15.234Z" fill="#545454"/>
<path d="M83.1709 10.8998L83.519 16.3395C84.5639 16.2723 85.6096 16.2097 86.6562 16.1517C87.472 16.1063 88.0142 15.9613 88.2664 15.7116C88.6085 15.3753 88.7821 14.818 88.7872 14.0396L89.1756 14.0207C89.2537 15.6179 89.3311 17.2113 89.4076 18.8009L89.023 18.8198C88.891 18.1591 88.7699 17.7346 88.6598 17.5463C88.5152 17.3004 88.289 17.113 88.0205 17.0167C87.7204 16.8931 87.2774 16.8473 86.6915 16.8792C85.6474 16.9372 84.6038 16.9994 83.5606 17.0658L83.8531 21.6128C83.8926 22.2231 83.9443 22.5917 84.0082 22.7187C84.0757 22.8501 84.1873 22.9537 84.3234 23.0112C84.4684 23.0793 84.732 23.1007 85.1115 23.0768C85.8984 23.0289 86.6856 22.9839 87.4733 22.9419C88.274 22.8977 88.8477 22.8158 89.1945 22.6897C89.5788 22.5372 89.9237 22.2996 90.2032 21.9949C90.1755 21.3854 89.9456 20.7159 89.5135 19.9862L90.5563 19.9585C91.0607 21.1303 91.565 22.3026 92.0694 23.4752C88.0621 23.6434 84.057 23.8771 80.0539 24.1763C80.0438 24.0502 80.035 23.9241 80.0261 23.798L80.5103 23.7627C80.84 23.7402 81.1593 23.6381 81.4409 23.4651C81.6369 23.3493 81.7826 23.1645 81.8495 22.9469C81.9192 22.7267 81.9302 22.2773 81.8822 21.5989C81.7814 20.132 81.6797 18.6656 81.5771 17.1995C81.0778 17.234 80.578 17.2697 80.0778 17.3067L80.0249 16.6006L81.5279 16.4934C81.4212 14.9971 81.3157 13.5028 81.2114 12.0107C81.1824 11.582 81.0652 11.2693 80.8621 11.0751C80.5822 10.8305 80.1442 10.73 79.5482 10.7737L79.0439 10.8103C79.035 10.6842 79.0249 10.5581 79.0161 10.432C82.7275 10.1529 86.4406 9.92974 90.1553 9.76245C90.2604 10.7645 90.3638 11.7665 90.4655 12.7685L90.0532 12.7875C89.8615 12.0738 89.6686 11.5862 89.4744 11.3248C89.2621 11.051 88.9753 10.8443 88.6485 10.7296C88.3522 10.6476 87.8478 10.6237 87.1353 10.6615C85.8156 10.7355 84.4941 10.8149 83.1709 10.8998Z" fill="#545454"/>
<path d="M102.808 15.9837C103.987 16.2889 104.819 16.6659 105.307 17.1072C105.641 17.3863 105.908 17.736 106.091 18.1311C106.273 18.5262 106.365 18.9569 106.361 19.392C106.352 20.1001 106.116 20.7865 105.688 21.3503C105.229 21.9839 104.592 22.4667 103.858 22.7373C103.086 23.0362 101.908 23.1938 100.327 23.2241C98.1004 23.2661 95.8727 23.3283 93.6442 23.4107C93.6442 23.2846 93.6341 23.1585 93.6304 23.0324L94.1574 23.0122C94.7459 22.992 95.1616 22.7974 95.4045 22.4284C95.5659 22.1762 95.6344 21.6676 95.61 20.9027C95.5167 17.9378 95.4226 14.972 95.3276 12.0054C95.3015 11.1589 95.1826 10.6213 94.9707 10.3927C94.6849 10.1102 94.2579 9.97909 93.6896 9.99926L93.1436 10.0194C93.1436 9.89334 93.1335 9.76725 93.1298 9.64115C94.5218 9.58903 95.9139 9.5449 97.306 9.50875L97.3287 10.4028C98.4484 9.80508 99.8216 9.48984 101.439 9.46462C102.927 9.44192 104.056 9.93243 104.817 10.9273C105.37 11.5039 105.677 12.2723 105.675 13.0709C105.679 13.7444 105.445 14.3977 105.014 14.9157C104.573 15.4646 103.837 15.8206 102.808 15.9837ZM97.5115 16.3343C98.2802 15.9649 99.1179 15.7613 99.9704 15.7366C101.188 15.7139 102.074 15.381 102.626 14.7379C103.165 14.094 103.432 13.5152 103.428 13.0016C103.42 12.1971 103.065 11.5145 102.361 10.9538C101.659 10.4633 100.984 10.225 100.344 10.2363C99.1356 10.2582 98.1479 10.6129 97.3804 11.3006C97.4216 12.9785 97.4636 14.6564 97.5065 16.3343H97.5115ZM97.6666 22.2821C98.4552 22.44 99.2584 22.5123 100.062 22.4978C101.323 22.4738 102.288 22.1876 102.945 21.6315C103.602 21.0754 103.928 20.3907 103.921 19.5724C103.903 18.9671 103.794 18.368 103.596 17.7957C103.383 17.14 103.005 16.7109 102.461 16.5083C101.9 16.2939 101.067 16.1943 99.9653 16.2157C99.1143 16.2269 98.2788 16.4459 97.5317 16.8538C97.5712 18.6636 97.6145 20.4731 97.6616 22.2821H97.6666Z" fill="#545454"/>
<path d="M117.094 8.08016C117.046 9.91777 116.998 11.755 116.949 13.5917L116.581 13.5817C116.456 12.8427 116.25 12.248 115.963 11.7974C115.633 11.3034 115.2 10.8859 114.695 10.573C114.174 10.221 113.564 10.0262 112.936 10.0119C112.613 9.99732 112.291 10.0529 111.992 10.1748C111.693 10.2967 111.424 10.4821 111.203 10.7181C110.767 11.153 110.519 11.7415 110.512 12.3573C110.506 12.8231 110.654 13.2779 110.933 13.651C111.33 14.2109 112.295 14.9687 113.812 15.9396C115.03 16.7391 115.855 17.3519 116.293 17.7718C116.729 18.1914 117.073 18.6974 117.301 19.2574C117.53 19.8174 117.64 20.419 117.622 21.0238C117.608 22.139 117.165 23.2059 116.385 24.0034C115.594 24.8297 114.598 25.2315 113.4 25.2088C113.047 25.2022 112.697 25.16 112.353 25.0827C111.938 24.9621 111.53 24.8182 111.131 24.6515C110.512 24.4081 110.122 24.2884 109.948 24.2871C109.875 24.2824 109.802 24.2946 109.734 24.3228C109.667 24.351 109.607 24.3945 109.559 24.4498C109.466 24.5607 109.389 25.1151 109.328 26.1129H108.994L109.024 20.1625H109.365C109.543 21.2461 109.77 22.0212 110.047 22.4877C110.368 22.9978 110.804 23.4261 111.32 23.7386C111.889 24.1048 112.549 24.3016 113.226 24.306C114.024 24.3195 114.663 24.0824 115.143 23.5948C115.614 23.1317 115.882 22.502 115.891 21.8421C115.894 21.4448 115.808 21.0519 115.639 20.6921C115.447 20.2757 115.173 19.9019 114.835 19.5926C114.582 19.3656 113.903 18.8713 112.782 18.1185C111.661 17.3658 110.857 16.7731 110.386 16.3318C109.93 15.9238 109.559 15.4303 109.294 14.8792C109.043 14.3338 108.917 13.7394 108.924 13.1391C108.91 12.0766 109.315 11.0512 110.052 10.2855C110.799 9.49368 111.758 9.10615 112.928 9.12296C113.583 9.12189 114.229 9.26843 114.819 9.55168C115.2 9.75127 115.599 9.91343 116.011 10.0359C116.279 9.90222 116.516 9.24695 116.721 8.07007L117.094 8.08016Z" fill="#545454"/>
<path d="M125.347 23.2407L125.328 23.619C123.342 23.5198 121.356 23.4357 119.369 23.3668L119.381 22.9885L119.866 23.0049C120.442 23.0251 120.871 22.8742 121.15 22.5522C121.327 22.3378 121.433 21.8221 121.464 21.0038C121.581 18.0389 121.698 15.0727 121.815 12.1053C121.841 11.4134 121.808 10.954 121.715 10.7271C121.638 10.5311 121.491 10.3704 121.303 10.2756C121.008 10.0989 120.673 10.0008 120.33 9.99066L119.825 9.97301C119.825 9.84692 119.834 9.72082 119.838 9.59473C121.901 9.6645 123.963 9.75108 126.024 9.85448L126.005 10.2328L125.482 10.2063C124.884 10.1769 124.447 10.3231 124.17 10.6451C123.971 10.8578 123.854 11.3731 123.817 12.191L123.42 21.087C123.389 21.7805 123.418 22.2399 123.507 22.4652C123.588 22.6563 123.729 22.816 123.908 22.9204C124.19 23.0985 124.512 23.2002 124.845 23.2155L125.347 23.2407Z" fill="#545454"/>
<path d="M140.043 10.4924L139.763 13.9348L139.352 13.8995C139.329 13.3405 139.254 12.9374 139.129 12.6903C138.958 12.3153 138.678 12.0006 138.326 11.7874C137.981 11.579 137.511 11.4499 136.916 11.4003C136.244 11.3465 135.569 11.2944 134.891 11.244C134.528 16.1339 134.165 21.0239 133.803 25.9138C133.752 26.5914 133.812 27.0117 133.981 27.1748C134.097 27.3151 134.242 27.4293 134.406 27.5101C134.569 27.591 134.748 27.6365 134.93 27.6438L135.409 27.6817C135.398 27.833 135.385 27.9855 135.374 28.1381C133.565 27.9944 131.755 27.8649 129.943 27.7498C129.953 27.5972 129.962 27.4459 129.972 27.2933L130.476 27.3248C130.664 27.3499 130.855 27.3323 131.035 27.2733C131.216 27.2144 131.38 27.1156 131.517 26.9844C131.685 26.7876 131.79 26.3846 131.831 25.7751C132.167 20.8843 132.503 15.9927 132.839 11.1002C132.259 11.0607 131.677 11.0225 131.096 10.9855C130.423 10.9426 129.941 10.9611 129.649 11.041C129.265 11.1531 128.924 11.3801 128.672 11.6916C128.39 12.0228 128.211 12.4919 128.134 13.0988L127.723 13.0761C127.786 11.9278 127.849 10.7783 127.913 9.62744L128.328 9.6514L128.31 9.98303C132.081 10.1957 135.851 10.4655 139.618 10.7926C139.627 10.6816 139.637 10.5719 139.647 10.4609L140.043 10.4924Z" fill="#545454"/>
<path d="M145.844 12.1356C145.657 13.9421 145.47 15.7494 145.281 17.5576C146.324 17.6661 147.366 17.7787 148.41 17.8956C149.223 17.9872 149.778 17.9326 150.077 17.7317C150.471 17.4559 150.735 16.9352 150.87 16.1693L151.257 16.216L150.689 20.9672L150.311 20.9218C150.29 20.2493 150.241 19.8105 150.165 19.6054C150.063 19.3384 149.87 19.1154 149.621 18.9749C149.346 18.8068 148.916 18.6879 148.332 18.6181C147.289 18.5021 146.248 18.3907 145.207 18.2839C145.051 19.7971 144.894 21.3077 144.737 22.8158C144.674 23.4236 144.663 23.7955 144.706 23.9317C144.751 24.0729 144.844 24.1939 144.969 24.2734C145.101 24.3642 145.356 24.4285 145.734 24.4689C146.52 24.553 147.305 24.6395 148.088 24.7286C148.888 24.8194 149.468 24.832 149.831 24.7627C150.234 24.6761 150.612 24.4998 150.938 24.247C151.012 23.64 150.896 22.9415 150.591 22.1513L151.626 22.2975C151.932 23.5375 152.233 24.777 152.532 26.0161C148.545 25.5117 144.552 25.0746 140.553 24.7047L140.587 24.3264L141.07 24.3718C141.399 24.4046 141.731 24.3574 142.038 24.2344C142.251 24.1527 142.425 23.9943 142.527 23.7905C142.633 23.5854 142.717 23.1445 142.78 22.4678L143.211 18.0784L141.714 17.9334C141.736 17.6989 141.758 17.4643 141.78 17.2298C142.284 17.2769 142.784 17.3248 143.28 17.3735C143.426 15.8831 143.573 14.3923 143.72 12.901C143.761 12.4731 143.698 12.1465 143.531 11.9212C143.296 11.6337 142.88 11.4618 142.284 11.4055L141.78 11.3576L141.814 10.9856C145.521 11.3286 149.223 11.727 152.921 12.181C152.857 13.1897 152.792 14.1951 152.726 15.1972L152.316 15.1467C152.245 14.412 152.136 13.8992 151.987 13.6084C151.824 13.3021 151.575 13.05 151.271 12.8833C150.992 12.7522 150.498 12.6458 149.789 12.5643C148.479 12.4147 147.163 12.2718 145.844 12.1356Z" fill="#545454"/>
<defs>
<filter id="filter0_d_1006_1823" x="112.49" y="97.1824" width="87.9685" height="115.181" filterUnits="userSpaceOnUse" color-interpolation-filters="sRGB">
<feFlood flood-opacity="0" result="BackgroundImageFix"/>
<feColorMatrix in="SourceAlpha" type="matrix" values="0 0 0 0 0 0 0 0 0 0 0 0 0 0 0 0 0 0 127 0" result="hardAlpha"/>
<feOffset dy="0.504378"/>
<feGaussianBlur stdDeviation="0.252189"/>
<feComposite in2="hardAlpha" operator="out"/>
<feColorMatrix type="matrix" values="0 0 0 0 0 0 0 0 0 0 0 0 0 0 0 0 0 0 0.55 0"/>
<feBlend mode="normal" in2="BackgroundImageFix" result="effect1_dropShadow_1006_1823"/>
<feBlend mode="normal" in="SourceGraphic" in2="effect1_dropShadow_1006_1823" result="shape"/>
</filter>
<filter id="filter1_d_1006_1823" x="15.762" y="97.1526" width="87.9685" height="115.181" filterUnits="userSpaceOnUse" color-interpolation-filters="sRGB">
<feFlood flood-opacity="0" result="BackgroundImageFix"/>
<feColorMatrix in="SourceAlpha" type="matrix" values="0 0 0 0 0 0 0 0 0 0 0 0 0 0 0 0 0 0 127 0" result="hardAlpha"/>
<feOffset dy="0.504378"/>
<feGaussianBlur stdDeviation="0.252189"/>
<feComposite in2="hardAlpha" operator="out"/>
<feColorMatrix type="matrix" values="0 0 0 0 0 0 0 0 0 0 0 0 0 0 0 0 0 0 0.55 0"/>
<feBlend mode="normal" in2="BackgroundImageFix" result="effect1_dropShadow_1006_1823"/>
<feBlend mode="normal" in="SourceGraphic" in2="effect1_dropShadow_1006_1823" result="shape"/>
</filter>
<filter id="filter2_d_1006_1823" x="61.2494" y="44.3853" width="93.5794" height="106.801" filterUnits="userSpaceOnUse" color-interpolation-filters="sRGB">
<feFlood flood-opacity="0" result="BackgroundImageFix"/>
<feColorMatrix in="SourceAlpha" type="matrix" values="0 0 0 0 0 0 0 0 0 0 0 0 0 0 0 0 0 0 127 0" result="hardAlpha"/>
<feOffset dy="0.504378"/>
<feGaussianBlur stdDeviation="0.252189"/>
<feComposite in2="hardAlpha" operator="out"/>
<feColorMatrix type="matrix" values="0 0 0 0 0 0 0 0 0 0 0 0 0 0 0 0 0 0 0.25 0"/>
<feBlend mode="normal" in2="BackgroundImageFix" result="effect1_dropShadow_1006_1823"/>
<feBlend mode="normal" in="SourceGraphic" in2="effect1_dropShadow_1006_1823" result="shape"/>
</filter>
<filter id="filter3_d_1006_1823" x="82.2664" y="81.5881" width="53.66" height="47.049" filterUnits="userSpaceOnUse" color-interpolation-filters="sRGB">
<feFlood flood-opacity="0" result="BackgroundImageFix"/>
<feColorMatrix in="SourceAlpha" type="matrix" values="0 0 0 0 0 0 0 0 0 0 0 0 0 0 0 0 0 0 127 0" result="hardAlpha"/>
<feOffset dy="0.504378"/>
<feGaussianBlur stdDeviation="0.252189"/>
<feComposite in2="hardAlpha" operator="out"/>
<feColorMatrix type="matrix" values="0 0 0 0 0 0 0 0 0 0 0 0 0 0 0 0 0 0 0.25 0"/>
<feBlend mode="normal" in2="BackgroundImageFix" result="effect1_dropShadow_1006_1823"/>
<feBlend mode="normal" in="SourceGraphic" in2="effect1_dropShadow_1006_1823" result="shape"/>
</filter>
<filter id="filter4_d_1006_1823" x="109.256" y="83.3611" width="42.7153" height="46.394" filterUnits="userSpaceOnUse" color-interpolation-filters="sRGB">
<feFlood flood-opacity="0" result="BackgroundImageFix"/>
<feColorMatrix in="SourceAlpha" type="matrix" values="0 0 0 0 0 0 0 0 0 0 0 0 0 0 0 0 0 0 127 0" result="hardAlpha"/>
<feOffset dy="0.504378"/>
<feGaussianBlur stdDeviation="0.252189"/>
<feComposite in2="hardAlpha" operator="out"/>
<feColorMatrix type="matrix" values="0 0 0 0 0 0 0 0 0 0 0 0 0 0 0 0 0 0 0.25 0"/>
<feBlend mode="normal" in2="BackgroundImageFix" result="effect1_dropShadow_1006_1823"/>
<feBlend mode="normal" in="SourceGraphic" in2="effect1_dropShadow_1006_1823" result="shape"/>
</filter>
<filter id="filter5_d_1006_1823" x="82.3109" y="46.9036" width="52.4796" height="33.2011" filterUnits="userSpaceOnUse" color-interpolation-filters="sRGB">
<feFlood flood-opacity="0" result="BackgroundImageFix"/>
<feColorMatrix in="SourceAlpha" type="matrix" values="0 0 0 0 0 0 0 0 0 0 0 0 0 0 0 0 0 0 127 0" result="hardAlpha"/>
<feOffset dy="0.504378"/>
<feGaussianBlur stdDeviation="0.252189"/>
<feComposite in2="hardAlpha" operator="out"/>
<feColorMatrix type="matrix" values="0 0 0 0 0 0 0 0 0 0 0 0 0 0 0 0 0 0 0.25 0"/>
<feBlend mode="normal" in2="BackgroundImageFix" result="effect1_dropShadow_1006_1823"/>
<feBlend mode="normal" in="SourceGraphic" in2="effect1_dropShadow_1006_1823" result="shape"/>
</filter>
<filter id="filter6_d_1006_1823" x="63.8734" y="82.6414" width="42.5421" height="47.0813" filterUnits="userSpaceOnUse" color-interpolation-filters="sRGB">
<feFlood flood-opacity="0" result="BackgroundImageFix"/>
<feColorMatrix in="SourceAlpha" type="matrix" values="0 0 0 0 0 0 0 0 0 0 0 0 0 0 0 0 0 0 127 0" result="hardAlpha"/>
<feOffset dy="0.504378"/>
<feGaussianBlur stdDeviation="0.252189"/>
<feComposite in2="hardAlpha" operator="out"/>
<feColorMatrix type="matrix" values="0 0 0 0 0 0 0 0 0 0 0 0 0 0 0 0 0 0 0.25 0"/>
<feBlend mode="normal" in2="BackgroundImageFix" result="effect1_dropShadow_1006_1823"/>
<feBlend mode="normal" in="SourceGraphic" in2="effect1_dropShadow_1006_1823" result="shape"/>
</filter>
<filter id="filter7_d_1006_1823" x="63.6037" y="72.5957" width="16.1235" height="44.467" filterUnits="userSpaceOnUse" color-interpolation-filters="sRGB">
<feFlood flood-opacity="0" result="BackgroundImageFix"/>
<feColorMatrix in="SourceAlpha" type="matrix" values="0 0 0 0 0 0 0 0 0 0 0 0 0 0 0 0 0 0 127 0" result="hardAlpha"/>
<feOffset dy="0.504378"/>
<feGaussianBlur stdDeviation="0.252189"/>
<feComposite in2="hardAlpha" operator="out"/>
<feColorMatrix type="matrix" values="0 0 0 0 0 0 0 0 0 0 0 0 0 0 0 0 0 0 0.25 0"/>
<feBlend mode="normal" in2="BackgroundImageFix" result="effect1_dropShadow_1006_1823"/>
<feBlend mode="normal" in="SourceGraphic" in2="effect1_dropShadow_1006_1823" result="shape"/>
</filter>
<filter id="filter8_d_1006_1823" x="68.9221" y="125.117" width="38" height="23.4123" filterUnits="userSpaceOnUse" color-interpolation-filters="sRGB">
<feFlood flood-opacity="0" result="BackgroundImageFix"/>
<feColorMatrix in="SourceAlpha" type="matrix" values="0 0 0 0 0 0 0 0 0 0 0 0 0 0 0 0 0 0 127 0" result="hardAlpha"/>
<feOffset dy="0.504378"/>
<feGaussianBlur stdDeviation="0.252189"/>
<feComposite in2="hardAlpha" operator="out"/>
<feColorMatrix type="matrix" values="0 0 0 0 0 0 0 0 0 0 0 0 0 0 0 0 0 0 0.25 0"/>
<feBlend mode="normal" in2="BackgroundImageFix" result="effect1_dropShadow_1006_1823"/>
<feBlend mode="normal" in="SourceGraphic" in2="effect1_dropShadow_1006_1823" result="shape"/>
</filter>
<filter id="filter9_d_1006_1823" x="64.9894" y="49.6785" width="38.6544" height="30.0988" filterUnits="userSpaceOnUse" color-interpolation-filters="sRGB">
<feFlood flood-opacity="0" result="BackgroundImageFix"/>
<feColorMatrix in="SourceAlpha" type="matrix" values="0 0 0 0 0 0 0 0 0 0 0 0 0 0 0 0 0 0 127 0" result="hardAlpha"/>
<feOffset dy="0.504378"/>
<feGaussianBlur stdDeviation="0.252189"/>
<feComposite in2="hardAlpha" operator="out"/>
<feColorMatrix type="matrix" values="0 0 0 0 0 0 0 0 0 0 0 0 0 0 0 0 0 0 0.25 0"/>
<feBlend mode="normal" in2="BackgroundImageFix" result="effect1_dropShadow_1006_1823"/>
<feBlend mode="normal" in="SourceGraphic" in2="effect1_dropShadow_1006_1823" result="shape"/>
</filter>
<filter id="filter10_d_1006_1823" x="138.415" y="73.7969" width="14.0245" height="43.2917" filterUnits="userSpaceOnUse" color-interpolation-filters="sRGB">
<feFlood flood-opacity="0" result="BackgroundImageFix"/>
<feColorMatrix in="SourceAlpha" type="matrix" values="0 0 0 0 0 0 0 0 0 0 0 0 0 0 0 0 0 0 127 0" result="hardAlpha"/>
<feOffset dy="0.504378"/>
<feGaussianBlur stdDeviation="0.252189"/>
<feComposite in2="hardAlpha" operator="out"/>
<feColorMatrix type="matrix" values="0 0 0 0 0 0 0 0 0 0 0 0 0 0 0 0 0 0 0.25 0"/>
<feBlend mode="normal" in2="BackgroundImageFix" result="effect1_dropShadow_1006_1823"/>
<feBlend mode="normal" in="SourceGraphic" in2="effect1_dropShadow_1006_1823" result="shape"/>
</filter>
<filter id="filter11_d_1006_1823" x="113.901" y="49.8647" width="37.8076" height="29.8703" filterUnits="userSpaceOnUse" color-interpolation-filters="sRGB">
<feFlood flood-opacity="0" result="BackgroundImageFix"/>
<feColorMatrix in="SourceAlpha" type="matrix" values="0 0 0 0 0 0 0 0 0 0 0 0 0 0 0 0 0 0 127 0" result="hardAlpha"/>
<feOffset dy="0.504378"/>
<feGaussianBlur stdDeviation="0.252189"/>
<feComposite in2="hardAlpha" operator="out"/>
<feColorMatrix type="matrix" values="0 0 0 0 0 0 0 0 0 0 0 0 0 0 0 0 0 0 0.25 0"/>
<feBlend mode="normal" in2="BackgroundImageFix" result="effect1_dropShadow_1006_1823"/>
<feBlend mode="normal" in="SourceGraphic" in2="effect1_dropShadow_1006_1823" result="shape"/>
</filter>
<filter id="filter12_d_1006_1823" x="108.512" y="125.952" width="37.8589" height="22.4809" filterUnits="userSpaceOnUse" color-interpolation-filters="sRGB">
<feFlood flood-opacity="0" result="BackgroundImageFix"/>
<feColorMatrix in="SourceAlpha" type="matrix" values="0 0 0 0 0 0 0 0 0 0 0 0 0 0 0 0 0 0 127 0" result="hardAlpha"/>
<feOffset dy="0.504378"/>
<feGaussianBlur stdDeviation="0.252189"/>
<feComposite in2="hardAlpha" operator="out"/>
<feColorMatrix type="matrix" values="0 0 0 0 0 0 0 0 0 0 0 0 0 0 0 0 0 0 0.25 0"/>
<feBlend mode="normal" in2="BackgroundImageFix" result="effect1_dropShadow_1006_1823"/>
<feBlend mode="normal" in="SourceGraphic" in2="effect1_dropShadow_1006_1823" result="shape"/>
</filter>
<filter id="filter13_d_1006_1823" x="99.5004" y="90.5522" width="20.1689" height="14.0217" filterUnits="userSpaceOnUse" color-interpolation-filters="sRGB">
<feFlood flood-opacity="0" result="BackgroundImageFix"/>
<feColorMatrix in="SourceAlpha" type="matrix" values="0 0 0 0 0 0 0 0 0 0 0 0 0 0 0 0 0 0 127 0" result="hardAlpha"/>
<feOffset dy="0.504378"/>
<feGaussianBlur stdDeviation="0.252189"/>
<feComposite in2="hardAlpha" operator="out"/>
<feColorMatrix type="matrix" values="0 0 0 0 0 0 0 0 0 0 0 0 0 0 0 0 0 0 0.25 0"/>
<feBlend mode="normal" in2="BackgroundImageFix" result="effect1_dropShadow_1006_1823"/>
<feBlend mode="normal" in="SourceGraphic" in2="effect1_dropShadow_1006_1823" result="shape"/>
</filter>
<filter id="filter14_d_1006_1823" x="77.4523" y="105.021" width="10.7542" height="15.229" filterUnits="userSpaceOnUse" color-interpolation-filters="sRGB">
<feFlood flood-opacity="0" result="BackgroundImageFix"/>
<feColorMatrix in="SourceAlpha" type="matrix" values="0 0 0 0 0 0 0 0 0 0 0 0 0 0 0 0 0 0 127 0" result="hardAlpha"/>
<feOffset dy="0.504378"/>
<feGaussianBlur stdDeviation="0.252189"/>
<feComposite in2="hardAlpha" operator="out"/>
<feColorMatrix type="matrix" values="0 0 0 0 0 0 0 0 0 0 0 0 0 0 0 0 0 0 0.25 0"/>
<feBlend mode="normal" in2="BackgroundImageFix" result="effect1_dropShadow_1006_1823"/>
<feBlend mode="normal" in="SourceGraphic" in2="effect1_dropShadow_1006_1823" result="shape"/>
</filter>
<filter id="filter15_d_1006_1823" x="125.292" y="104.447" width="11.7273" height="16.9238" filterUnits="userSpaceOnUse" color-interpolation-filters="sRGB">
<feFlood flood-opacity="0" result="BackgroundImageFix"/>
<feColorMatrix in="SourceAlpha" type="matrix" values="0 0 0 0 0 0 0 0 0 0 0 0 0 0 0 0 0 0 127 0" result="hardAlpha"/>
<feOffset dy="0.504378"/>
<feGaussianBlur stdDeviation="0.252189"/>
<feComposite in2="hardAlpha" operator="out"/>
<feColorMatrix type="matrix" values="0 0 0 0 0 0 0 0 0 0 0 0 0 0 0 0 0 0 0.25 0"/>
<feBlend mode="normal" in2="BackgroundImageFix" result="effect1_dropShadow_1006_1823"/>
<feBlend mode="normal" in="SourceGraphic" in2="effect1_dropShadow_1006_1823" result="shape"/>
</filter>
<filter id="filter16_d_1006_1823" x="117.228" y="110.189" width="81.4964" height="90.3286" filterUnits="userSpaceOnUse" color-interpolation-filters="sRGB">
<feFlood flood-opacity="0" result="BackgroundImageFix"/>
<feColorMatrix in="SourceAlpha" type="matrix" values="0 0 0 0 0 0 0 0 0 0 0 0 0 0 0 0 0 0 127 0" result="hardAlpha"/>
<feOffset dy="0.504378"/>
<feGaussianBlur stdDeviation="0.252189"/>
<feComposite in2="hardAlpha" operator="out"/>
<feColorMatrix type="matrix" values="0 0 0 0 0 0 0 0 0 0 0 0 0 0 0 0 0 0 0.25 0"/>
<feBlend mode="normal" in2="BackgroundImageFix" result="effect1_dropShadow_1006_1823"/>
<feBlend mode="normal" in="SourceGraphic" in2="effect1_dropShadow_1006_1823" result="shape"/>
</filter>
<filter id="filter17_d_1006_1823" x="17.4962" y="110.159" width="81.4964" height="90.3286" filterUnits="userSpaceOnUse" color-interpolation-filters="sRGB">
<feFlood flood-opacity="0" result="BackgroundImageFix"/>
<feColorMatrix in="SourceAlpha" type="matrix" values="0 0 0 0 0 0 0 0 0 0 0 0 0 0 0 0 0 0 127 0" result="hardAlpha"/>
<feOffset dy="0.504378"/>
<feGaussianBlur stdDeviation="0.252189"/>
<feComposite in2="hardAlpha" operator="out"/>
<feColorMatrix type="matrix" values="0 0 0 0 0 0 0 0 0 0 0 0 0 0 0 0 0 0 0.25 0"/>
<feBlend mode="normal" in2="BackgroundImageFix" result="effect1_dropShadow_1006_1823"/>
<feBlend mode="normal" in="SourceGraphic" in2="effect1_dropShadow_1006_1823" result="shape"/>
</filter>
<filter id="filter18_d_1006_1823" x="173.126" y="99.7129" width="12.2899" height="36.6311" filterUnits="userSpaceOnUse" color-interpolation-filters="sRGB">
<feFlood flood-opacity="0" result="BackgroundImageFix"/>
<feColorMatrix in="SourceAlpha" type="matrix" values="0 0 0 0 0 0 0 0 0 0 0 0 0 0 0 0 0 0 127 0" result="hardAlpha"/>
<feOffset dy="0.504378"/>
<feGaussianBlur stdDeviation="0.252189"/>
<feComposite in2="hardAlpha" operator="out"/>
<feColorMatrix type="matrix" values="0 0 0 0 0 0 0 0 0 0 0 0 0 0 0 0 0 0 0.25 0"/>
<feBlend mode="normal" in2="BackgroundImageFix" result="effect1_dropShadow_1006_1823"/>
<feBlend mode="normal" in="SourceGraphic" in2="effect1_dropShadow_1006_1823" result="shape"/>
</filter>
<filter id="filter19_d_1006_1823" x="30.8053" y="99.6831" width="12.2899" height="36.6311" filterUnits="userSpaceOnUse" color-interpolation-filters="sRGB">
<feFlood flood-opacity="0" result="BackgroundImageFix"/>
<feColorMatrix in="SourceAlpha" type="matrix" values="0 0 0 0 0 0 0 0 0 0 0 0 0 0 0 0 0 0 127 0" result="hardAlpha"/>
<feOffset dy="0.504378"/>
<feGaussianBlur stdDeviation="0.252189"/>
<feComposite in2="hardAlpha" operator="out"/>
<feColorMatrix type="matrix" values="0 0 0 0 0 0 0 0 0 0 0 0 0 0 0 0 0 0 0.25 0"/>
<feBlend mode="normal" in2="BackgroundImageFix" result="effect1_dropShadow_1006_1823"/>
<feBlend mode="normal" in="SourceGraphic" in2="effect1_dropShadow_1006_1823" result="shape"/>
</filter>
<filter id="filter20_d_1006_1823" x="173.953" y="102.886" width="4.86545" height="26.4633" filterUnits="userSpaceOnUse" color-interpolation-filters="sRGB">
<feFlood flood-opacity="0" result="BackgroundImageFix"/>
<feColorMatrix in="SourceAlpha" type="matrix" values="0 0 0 0 0 0 0 0 0 0 0 0 0 0 0 0 0 0 127 0" result="hardAlpha"/>
<feOffset dy="0.504378"/>
<feGaussianBlur stdDeviation="0.252189"/>
<feComposite in2="hardAlpha" operator="out"/>
<feColorMatrix type="matrix" values="0 0 0 0 0 0 0 0 0 0 0 0 0 0 0 0 0 0 0.25 0"/>
<feBlend mode="normal" in2="BackgroundImageFix" result="effect1_dropShadow_1006_1823"/>
<feBlend mode="normal" in="SourceGraphic" in2="effect1_dropShadow_1006_1823" result="shape"/>
</filter>
<filter id="filter21_d_1006_1823" x="37.4024" y="102.856" width="4.86545" height="26.4633" filterUnits="userSpaceOnUse" color-interpolation-filters="sRGB">
<feFlood flood-opacity="0" result="BackgroundImageFix"/>
<feColorMatrix in="SourceAlpha" type="matrix" values="0 0 0 0 0 0 0 0 0 0 0 0 0 0 0 0 0 0 127 0" result="hardAlpha"/>
<feOffset dy="0.504378"/>
<feGaussianBlur stdDeviation="0.252189"/>
<feComposite in2="hardAlpha" operator="out"/>
<feColorMatrix type="matrix" values="0 0 0 0 0 0 0 0 0 0 0 0 0 0 0 0 0 0 0.25 0"/>
<feBlend mode="normal" in2="BackgroundImageFix" result="effect1_dropShadow_1006_1823"/>
<feBlend mode="normal" in="SourceGraphic" in2="effect1_dropShadow_1006_1823" result="shape"/>
</filter>
<filter id="filter22_d_1006_1823" x="166.543" y="113.786" width="6.00851" height="16.8864" filterUnits="userSpaceOnUse" color-interpolation-filters="sRGB">
<feFlood flood-opacity="0" result="BackgroundImageFix"/>
<feColorMatrix in="SourceAlpha" type="matrix" values="0 0 0 0 0 0 0 0 0 0 0 0 0 0 0 0 0 0 127 0" result="hardAlpha"/>
<feOffset dy="0.504378"/>
<feGaussianBlur stdDeviation="0.252189"/>
<feComposite in2="hardAlpha" operator="out"/>
<feColorMatrix type="matrix" values="0 0 0 0 0 0 0 0 0 0 0 0 0 0 0 0 0 0 0.25 0"/>
<feBlend mode="normal" in2="BackgroundImageFix" result="effect1_dropShadow_1006_1823"/>
<feBlend mode="normal" in="SourceGraphic" in2="effect1_dropShadow_1006_1823" result="shape"/>
</filter>
<filter id="filter23_d_1006_1823" x="43.6692" y="113.756" width="6.00851" height="16.8864" filterUnits="userSpaceOnUse" color-interpolation-filters="sRGB">
<feFlood flood-opacity="0" result="BackgroundImageFix"/>
<feColorMatrix in="SourceAlpha" type="matrix" values="0 0 0 0 0 0 0 0 0 0 0 0 0 0 0 0 0 0 127 0" result="hardAlpha"/>
<feOffset dy="0.504378"/>
<feGaussianBlur stdDeviation="0.252189"/>
<feComposite in2="hardAlpha" operator="out"/>
<feColorMatrix type="matrix" values="0 0 0 0 0 0 0 0 0 0 0 0 0 0 0 0 0 0 0.25 0"/>
<feBlend mode="normal" in2="BackgroundImageFix" result="effect1_dropShadow_1006_1823"/>
<feBlend mode="normal" in="SourceGraphic" in2="effect1_dropShadow_1006_1823" result="shape"/>
</filter>
<filter id="filter24_d_1006_1823" x="167.832" y="163.923" width="38.0805" height="37.4503" filterUnits="userSpaceOnUse" color-interpolation-filters="sRGB">
<feFlood flood-opacity="0" result="BackgroundImageFix"/>
<feColorMatrix in="SourceAlpha" type="matrix" values="0 0 0 0 0 0 0 0 0 0 0 0 0 0 0 0 0 0 127 0" result="hardAlpha"/>
<feOffset dx="0.378284" dy="0.630473"/>
<feGaussianBlur stdDeviation="0.252189"/>
<feComposite in2="hardAlpha" operator="out"/>
<feColorMatrix type="matrix" values="0 0 0 0 0 0 0 0 0 0 0 0 0 0 0 0 0 0 0.25 0"/>
<feBlend mode="normal" in2="BackgroundImageFix" result="effect1_dropShadow_1006_1823"/>
<feBlend mode="normal" in="SourceGraphic" in2="effect1_dropShadow_1006_1823" result="shape"/>
</filter>
<filter id="filter25_d_1006_1823" x="10.8442" y="163.923" width="38.0805" height="37.4503" filterUnits="userSpaceOnUse" color-interpolation-filters="sRGB">
<feFlood flood-opacity="0" result="BackgroundImageFix"/>
<feColorMatrix in="SourceAlpha" type="matrix" values="0 0 0 0 0 0 0 0 0 0 0 0 0 0 0 0 0 0 127 0" result="hardAlpha"/>
<feOffset dx="0.378284" dy="0.630473"/>
<feGaussianBlur stdDeviation="0.252189"/>
<feComposite in2="hardAlpha" operator="out"/>
<feColorMatrix type="matrix" values="0 0 0 0 0 0 0 0 0 0 0 0 0 0 0 0 0 0 0.25 0"/>
<feBlend mode="normal" in2="BackgroundImageFix" result="effect1_dropShadow_1006_1823"/>
<feBlend mode="normal" in="SourceGraphic" in2="effect1_dropShadow_1006_1823" result="shape"/>
</filter>
<filter id="filter26_d_1006_1823" x="33.9196" y="179.685" width="149.548" height="38.0808" filterUnits="userSpaceOnUse" color-interpolation-filters="sRGB">
<feFlood flood-opacity="0" result="BackgroundImageFix"/>
<feColorMatrix in="SourceAlpha" type="matrix" values="0 0 0 0 0 0 0 0 0 0 0 0 0 0 0 0 0 0 127 0" result="hardAlpha"/>
<feOffset dx="0.882662" dy="1.26095"/>
<feGaussianBlur stdDeviation="0.252189"/>
<feComposite in2="hardAlpha" operator="out"/>
<feColorMatrix type="matrix" values="0 0 0 0 0 0 0 0 0 0 0 0 0 0 0 0 0 0 0.25 0"/>
<feBlend mode="normal" in2="BackgroundImageFix" result="effect1_dropShadow_1006_1823"/>
<feBlend mode="normal" in="SourceGraphic" in2="effect1_dropShadow_1006_1823" result="shape"/>
</filter>
<filter id="filter27_d_1006_1823" x="167.832" y="15.762" width="38.0805" height="37.45" filterUnits="userSpaceOnUse" color-interpolation-filters="sRGB">
<feFlood flood-opacity="0" result="BackgroundImageFix"/>
<feColorMatrix in="SourceAlpha" type="matrix" values="0 0 0 0 0 0 0 0 0 0 0 0 0 0 0 0 0 0 127 0" result="hardAlpha"/>
<feOffset dx="0.378284" dy="0.630473"/>
<feGaussianBlur stdDeviation="0.252189"/>
<feComposite in2="hardAlpha" operator="out"/>
<feColorMatrix type="matrix" values="0 0 0 0 0 0 0 0 0 0 0 0 0 0 0 0 0 0 0.25 0"/>
<feBlend mode="normal" in2="BackgroundImageFix" result="effect1_dropShadow_1006_1823"/>
<feBlend mode="normal" in="SourceGraphic" in2="effect1_dropShadow_1006_1823" result="shape"/>
</filter>
<filter id="filter28_d_1006_1823" x="10.8442" y="15.762" width="38.0805" height="37.45" filterUnits="userSpaceOnUse" color-interpolation-filters="sRGB">
<feFlood flood-opacity="0" result="BackgroundImageFix"/>
<feColorMatrix in="SourceAlpha" type="matrix" values="0 0 0 0 0 0 0 0 0 0 0 0 0 0 0 0 0 0 127 0" result="hardAlpha"/>
<feOffset dx="0.378284" dy="0.630473"/>
<feGaussianBlur stdDeviation="0.252189"/>
<feComposite in2="hardAlpha" operator="out"/>
<feColorMatrix type="matrix" values="0 0 0 0 0 0 0 0 0 0 0 0 0 0 0 0 0 0 0.25 0"/>
<feBlend mode="normal" in2="BackgroundImageFix" result="effect1_dropShadow_1006_1823"/>
<feBlend mode="normal" in="SourceGraphic" in2="effect1_dropShadow_1006_1823" result="shape"/>
</filter>
<filter id="filter29_d_1006_1823" x="33.9196" y="0.000244141" width="149.548" height="38.0805" filterUnits="userSpaceOnUse" color-interpolation-filters="sRGB">
<feFlood flood-opacity="0" result="BackgroundImageFix"/>
<feColorMatrix in="SourceAlpha" type="matrix" values="0 0 0 0 0 0 0 0 0 0 0 0 0 0 0 0 0 0 127 0" result="hardAlpha"/>
<feOffset dx="0.882662" dy="1.26095"/>
<feGaussianBlur stdDeviation="0.252189"/>
<feComposite in2="hardAlpha" operator="out"/>
<feColorMatrix type="matrix" values="0 0 0 0 0 0 0 0 0 0 0 0 0 0 0 0 0 0 0.25 0"/>
<feBlend mode="normal" in2="BackgroundImageFix" result="effect1_dropShadow_1006_1823"/>
<feBlend mode="normal" in="SourceGraphic" in2="effect1_dropShadow_1006_1823" result="shape"/>
</filter>
<linearGradient id="paint0_linear_1006_1823" x1="107.115" y1="52.9093" x2="112.116" y2="364.196" gradientUnits="userSpaceOnUse">
<stop offset="0.03" stop-color="#D0D0D0"/>
<stop offset="0.54" stop-color="#606060"/>
</linearGradient>
<linearGradient id="paint1_linear_1006_1823" x1="109.096" y1="81.5881" x2="109.096" y2="127.629" gradientUnits="userSpaceOnUse">
<stop stop-color="#A1A1A1"/>
<stop offset="1" stop-color="#D0D0D0"/>
</linearGradient>
<linearGradient id="paint2_linear_1006_1823" x1="130.614" y1="83.3611" x2="130.614" y2="128.746" gradientUnits="userSpaceOnUse">
<stop stop-color="#D0D0D0"/>
<stop offset="1" stop-color="#A1A1A1"/>
</linearGradient>
<linearGradient id="paint3_linear_1006_1823" x1="108.551" y1="46.9036" x2="108.551" y2="79.0959" gradientUnits="userSpaceOnUse">
<stop stop-color="#D0D0D0"/>
<stop offset="1" stop-color="#A1A1A1"/>
</linearGradient>
<linearGradient id="paint4_linear_1006_1823" x1="85.1445" y1="82.6414" x2="85.1445" y2="128.714" gradientUnits="userSpaceOnUse">
<stop stop-color="#D0D0D0"/>
<stop offset="1" stop-color="#A1A1A1"/>
</linearGradient>
<linearGradient id="paint5_linear_1006_1823" x1="71.6654" y1="72.5957" x2="71.6654" y2="116.054" gradientUnits="userSpaceOnUse">
<stop stop-color="#D0D0D0"/>
<stop offset="1" stop-color="#A1A1A1"/>
</linearGradient>
<linearGradient id="paint6_linear_1006_1823" x1="87.9221" y1="125.117" x2="87.9221" y2="147.521" gradientUnits="userSpaceOnUse">
<stop stop-color="#A1A1A1"/>
<stop offset="0.675" stop-color="#D0D0D0"/>
</linearGradient>
<linearGradient id="paint7_linear_1006_1823" x1="84.3166" y1="49.6785" x2="84.3166" y2="78.7685" gradientUnits="userSpaceOnUse">
<stop stop-color="#A1A1A1"/>
<stop offset="1" stop-color="#D0D0D0"/>
</linearGradient>
<linearGradient id="paint8_linear_1006_1823" x1="145.427" y1="73.7969" x2="145.427" y2="116.08" gradientUnits="userSpaceOnUse">
<stop stop-color="#D0D0D0"/>
<stop offset="1" stop-color="#A1A1A1"/>
</linearGradient>
<linearGradient id="paint9_linear_1006_1823" x1="132.804" y1="49.8647" x2="132.804" y2="78.7264" gradientUnits="userSpaceOnUse">
<stop stop-color="#A1A1A1"/>
<stop offset="1" stop-color="#D0D0D0"/>
</linearGradient>
<linearGradient id="paint10_linear_1006_1823" x1="127.441" y1="125.952" x2="127.441" y2="147.424" gradientUnits="userSpaceOnUse">
<stop stop-color="#A1A1A1"/>
<stop offset="0.675" stop-color="#D0D0D0"/>
</linearGradient>
<linearGradient id="paint11_linear_1006_1823" x1="181.457" y1="97.1524" x2="145.17" y2="171.696" gradientUnits="userSpaceOnUse">
<stop offset="0.295" stop-color="white"/>
<stop offset="1" stop-color="#A8A8A8"/>
</linearGradient>
<linearGradient id="paint12_linear_1006_1823" x1="32.0891" y1="103.974" x2="69.853" y2="161.991" gradientUnits="userSpaceOnUse">
<stop offset="0.295" stop-color="white"/>
<stop offset="1" stop-color="#A8A8A8"/>
</linearGradient>
</defs>
</svg>
