<svg width="204" height="65" viewBox="0 0 204 65" fill="none" xmlns="http://www.w3.org/2000/svg">
<path d="M57.8402 45.9508L53.4003 49.5731C53.0662 49.6992 52.7169 49.8192 52.3524 49.9331C51.035 50.34 49.675 50.5954 48.299 50.6944L51.7331 51.0081C50.5781 51.8751 49.303 52.5712 47.9475 53.0746L49.8406 53.6907C48.2348 54.0187 46.7185 54.6858 45.3943 55.6469C44.07 56.608 42.9686 57.8408 42.1646 59.2619C42.6478 57.4587 43.1308 55.6554 43.6137 53.8522C44.0864 52.0987 45.0284 50.5055 46.3393 49.2424C46.789 48.7409 47.3247 48.3228 47.9213 48.0075C49.5241 47.1695 50.9874 47.4338 52.4366 47.4044C53.7354 47.3756 55.5831 47.101 57.8402 45.9508Z" fill="url(#paint0_linear_1909_716)"/>
<path d="M42.287 54.1796C42.5053 52.3766 42.603 50.5612 42.5794 48.7454C42.5685 47.9226 42.533 47.1303 42.4788 46.3706C43.1971 45.9541 43.9205 45.5372 44.649 45.1199C45.0732 44.8799 45.4963 44.6403 45.9184 44.401L42.3651 44.6849L41.0215 43.7985C43.9531 42.8309 46.4523 40.8739 48.0864 38.2664L46.4213 42.7256C49.3037 41.1224 50.6529 39.3214 51.3515 37.9402C52.1829 36.2946 52.4267 34.58 54.0153 33.6197C54.9561 33.0514 55.969 32.9883 56.666 33.0215C56.0581 33.1662 55.2185 33.4663 54.5373 34.1635C53.3779 35.3495 53.5845 36.7568 53.2888 38.1876C52.8138 40.4851 51.5554 40.3677 46.0184 46.8421C45.2531 47.7372 44.6354 48.5148 44.0854 49.4328C43.7804 49.9423 43.57 50.3719 43.4519 50.6209C42.9148 51.7537 42.5234 52.9494 42.287 54.1796Z" fill="url(#paint1_linear_1909_716)"/>
<path d="M48.8438 46.0552C49.973 44.2398 51.7134 42.882 53.7548 42.2236C53.8417 41.6581 54.1921 39.8587 55.7714 38.6128C56.2452 38.2403 56.7803 37.9521 57.3529 37.7612C57.1785 37.957 55.3068 40.1202 56.0409 42.601C56.2575 43.3112 56.6476 43.9569 57.1763 44.4804C55.8589 45.289 54.7612 45.5027 54.0014 45.5484C52.978 45.6093 52.3937 45.3755 51.1364 45.4989C50.3498 45.5767 49.578 45.764 48.8438 46.0552Z" fill="url(#paint2_linear_1909_716)"/>
<path d="M2.32031 45.9508L6.76018 49.5731C7.09437 49.6992 7.44368 49.8192 7.80811 49.9331C9.12556 50.34 10.4856 50.5955 11.8615 50.6944L8.42691 51.0081C9.58216 51.875 10.8574 52.571 12.213 53.0746L10.32 53.6907C11.685 53.9704 12.9876 54.4949 14.164 55.2383C15.7511 56.2499 17.0664 57.6312 17.996 59.2624L16.5463 53.8527C16.4278 53.4111 16.2787 52.9781 16.1002 52.5569C15.573 51.3106 14.7978 50.1834 13.8212 49.243C13.3714 48.7416 12.8358 48.3235 12.2392 48.008C10.6359 47.17 9.17309 47.4343 7.72392 47.4049C6.424 47.3756 4.57742 47.101 2.32031 45.9508Z" fill="url(#paint3_linear_1909_716)"/>
<path d="M17.8753 54.1796C17.6574 52.3766 17.5599 50.5612 17.5834 48.7454C17.5944 47.9226 17.6299 47.1303 17.684 46.3706C16.9657 45.9541 16.2423 45.5372 15.5138 45.1199C15.0893 44.8781 14.6656 44.6376 14.2429 44.3983L17.7961 44.6821L19.1403 43.7958C16.2087 42.8291 13.7091 40.8731 12.0743 38.2664C12.5914 39.6526 13.0916 40.9936 13.7394 42.7256C10.8569 41.1224 9.50726 39.3214 8.80919 37.9402C7.97774 36.2946 7.73394 34.58 6.14483 33.6197C5.2046 33.0514 4.19166 32.9883 3.49414 33.0215C4.10256 33.1662 4.94166 33.4663 5.62279 34.1635C6.78277 35.3495 6.57614 36.7568 6.87188 38.1876C7.34691 40.4851 8.60529 40.3677 14.1423 46.8421C14.9076 47.7372 15.5253 48.5148 16.0752 49.4328C16.3808 49.9423 16.5913 50.3719 16.7093 50.6209C17.247 51.7536 17.6388 52.9493 17.8753 54.1796Z" fill="url(#paint4_linear_1909_716)"/>
<path d="M11.2064 46.2423C10.7646 45.5321 10.2257 44.8864 9.60525 44.3238C8.64962 43.4617 7.52194 42.8098 6.29585 42.4107C6.20838 41.8446 5.85853 40.0457 4.27926 38.7999C3.80537 38.4272 3.27011 38.1391 2.69727 37.9483C2.87219 38.1441 4.74391 40.3073 4.00922 42.7881C3.79293 43.4984 3.40303 44.1443 2.87438 44.668C4.1918 45.4766 5.28892 45.6903 6.04931 45.736C7.07263 45.7969 7.65645 45.5625 8.91429 45.6865C9.70073 45.764 10.4723 45.9511 11.2064 46.2423Z" fill="url(#paint5_linear_1909_716)"/>
<path d="M38.1611 17.3792C37.7604 17.6772 39.1598 19.7719 38.8111 20.0079C38.6203 20.139 38.0354 19.6343 37.4991 19.1041C37.9517 19.717 38.7198 20.9253 38.2934 21.8399C38.0332 22.3957 37.4373 22.6219 37.2269 22.704C32.2524 24.6144 27.5392 27.1534 22.557 29.0387C19.9096 30.0399 16.2159 31.9323 12.2637 35.8645C12.7108 35.6007 15.3446 34.1058 18.5714 35.0422C21.1986 35.8036 22.5713 37.7014 22.9446 38.2539C23.0097 38.0864 24.0609 35.5181 26.822 34.9824C29.2065 34.5202 30.9645 35.9433 31.1952 36.1347C31.2793 34.85 31.7499 33.6201 32.546 32.6049C33.342 31.5897 34.4266 30.8363 35.6588 30.4424C36.8911 30.0486 38.2139 30.0326 39.4553 30.3966C40.6968 30.7605 41.7995 31.4875 42.6201 32.4831C41.6088 29.2747 41.6105 26.7673 41.8187 25.0331C42.0188 23.3642 42.42 22.3408 41.9193 20.8894C41.1212 18.5761 38.6739 16.9969 38.1611 17.3792Z" fill="url(#paint6_linear_1909_716)"/>
<path d="M19.441 17.5646C19.1266 17.4129 18.6838 17.1361 18.451 16.6462C18.0787 15.8642 18.615 15.3307 18.3531 14.1833C18.1569 13.3296 17.6321 12.6389 17.6102 12.6487C17.602 12.6531 17.6534 12.7624 17.7157 12.9369C17.8298 13.2766 17.9084 13.627 17.9502 13.9827C18.0399 14.8163 17.8262 15.527 17.7507 15.7712C17.6015 16.2508 17.502 16.2992 17.3358 16.8865C17.2106 17.3292 17.1445 17.5538 17.1374 17.8469C17.1155 18.7784 17.6425 19.587 17.6802 20.1276C17.6925 20.3386 17.6826 20.5504 17.6507 20.7594C17.6463 20.7866 17.6414 20.8138 17.6365 20.8367C17.9645 20.3277 18.2974 19.7735 18.6259 19.1754C18.9309 18.6174 19.2015 18.078 19.441 17.5646Z" fill="url(#paint7_linear_1909_716)"/>
<path d="M25.9795 23.5013C27.0668 23.3506 27.8971 23.2598 28.3164 23.2092C28.4848 23.1891 28.8631 23.1418 29.1036 23.3626L29.12 23.3784H29.1112C28.7084 24.3463 28.0081 25.1582 27.0761 25.8902C27.2947 26.1974 27.6599 26.4019 27.8463 26.6852L27.8529 26.6993C27.892 26.761 27.9215 26.8283 27.9403 26.8989C28.0452 27.1457 28.1365 27.398 28.2136 27.6548C28.4252 28.3682 28.5318 29.1084 28.5301 29.8523C28.5848 34.7078 28.5897 39.5645 28.6455 44.42C28.7002 49.2413 28.7433 53.1708 28.8718 57.9905C28.9133 59.5577 29.7279 61.7796 30.7894 63.0918C31.101 62.6568 31.3361 62.3131 31.5711 61.9499C32.6224 60.3364 32.7617 58.5016 32.7771 56.6636C32.8191 51.5693 32.7497 46.4734 32.8514 41.3829C32.9492 36.4714 32.3769 31.5212 33.5456 26.6107L33.5653 26.6248C33.6818 26.2001 33.749 25.7879 34.0458 25.4578C33.3275 24.8743 32.7443 24.2071 32.4327 23.3794H32.4163C32.4217 23.3746 32.425 23.3686 32.4305 23.3637C32.6732 23.1462 33.0416 23.2343 33.2505 23.2419C34.1409 23.2756 35.026 23.4463 35.9585 23.5622C35.9892 23.511 36.0323 23.3686 36.1285 23.2903C36.3232 23.1369 37.4361 22.5986 37.6111 22.6377C37.8007 22.6785 38.0303 22.9852 38.0642 23.2033C38.138 23.6753 38.1101 24.1652 38.0976 24.647C38.0921 24.8646 38.0243 25.0821 37.9833 25.2969C37.9472 25.4856 37.9084 25.6737 37.8707 25.8619C38.8241 23.709 39.2204 21.4843 38.9307 19.0644C38.3873 19.3363 36.6457 20.1939 34.8401 20.8475C34.288 21.0471 33.5199 21.3038 32.6535 21.065C32.4683 21.0146 32.2891 20.9446 32.1189 20.8562C32.3556 20.6583 32.5934 20.4609 32.8295 20.2581C32.8581 20.2267 32.8822 20.1916 32.9011 20.1536C32.755 19.8915 32.6252 19.6208 32.5125 19.3428C32.1548 18.4511 31.9715 17.4997 31.9724 16.5396L31.9593 11.2919C31.9702 9.86175 31.9813 8.43156 31.9926 7.00138C32.3031 6.60876 32.6138 6.2165 32.9246 5.8246C31.7865 5.128 31.1699 4.14536 30.7878 2.93704C30.48 4.18397 29.7738 5.13017 28.7034 5.83276L29.6366 6.99377C29.6311 7.43207 29.6258 7.87018 29.6207 8.30812C29.6262 9.31777 29.6315 10.3276 29.6366 11.3376C29.6296 13.2532 29.6224 15.169 29.6147 17.085C29.6162 17.9389 29.4297 18.7827 29.0681 19.5571C28.9709 19.7608 28.8614 19.9583 28.7401 20.1488C28.8089 20.2091 28.8789 20.2716 28.9489 20.3369C29.1369 20.5131 29.308 20.6887 29.4633 20.8606C29.1818 20.9636 28.8898 21.0354 28.5925 21.0748C27.9562 21.1555 27.3098 21.0895 26.7033 20.8818C26.4762 21.4256 26.2495 21.9694 26.0232 22.5132C26.0086 22.8427 25.9941 23.1721 25.9795 23.5013Z" fill="url(#paint8_linear_1909_716)"/>
<mask id="mask0_1909_716" style="mask-type:luminance" maskUnits="userSpaceOnUse" x="25" y="2" width="15" height="62">
<path d="M25.9795 23.5013C27.0668 23.3506 27.8971 23.2598 28.3164 23.2092C28.4848 23.1891 28.8631 23.1418 29.1036 23.3626L29.12 23.3784H29.1112C28.7084 24.3463 28.0081 25.1582 27.0761 25.8902C27.2947 26.1974 27.6599 26.4019 27.8463 26.6852L27.8529 26.6993C27.892 26.761 27.9215 26.8283 27.9403 26.8989C28.0452 27.1457 28.1365 27.398 28.2136 27.6548C28.4252 28.3682 28.5318 29.1084 28.5301 29.8523C28.5848 34.7078 28.5897 39.5645 28.6455 44.42C28.7002 49.2413 28.7433 53.1708 28.8718 57.9905C28.9133 59.5577 29.7279 61.7796 30.7894 63.0918C31.101 62.6568 31.3361 62.3131 31.5711 61.9499C32.6224 60.3364 32.7617 58.5016 32.7771 56.6636C32.8191 51.5693 32.7497 46.4734 32.8514 41.3829C32.9492 36.4714 32.3769 31.5212 33.5456 26.6107L33.5653 26.6248C33.6818 26.2001 33.749 25.7879 34.0458 25.4578C33.3275 24.8743 32.7443 24.2071 32.4327 23.3794H32.4163C32.4217 23.3746 32.425 23.3686 32.4305 23.3637C32.6732 23.1462 33.0416 23.2343 33.2505 23.2419C34.1409 23.2756 35.026 23.4463 35.9585 23.5622C35.9892 23.511 36.0323 23.3686 36.1285 23.2903C36.3232 23.1369 37.4361 22.5986 37.6111 22.6377C37.8007 22.6785 38.0303 22.9852 38.0642 23.2033C38.138 23.6753 38.1101 24.1652 38.0976 24.647C38.0921 24.8646 38.0243 25.0821 37.9833 25.2969C37.9472 25.4856 37.9084 25.6737 37.8707 25.8619C38.8241 23.709 39.2204 21.4843 38.9307 19.0644C38.3873 19.3363 36.6457 20.1939 34.8401 20.8475C34.288 21.0471 33.5199 21.3038 32.6535 21.065C32.4683 21.0146 32.2891 20.9446 32.1189 20.8562C32.3556 20.6583 32.5934 20.4609 32.8295 20.2581C32.8581 20.2267 32.8822 20.1916 32.9011 20.1536C32.755 19.8915 32.6252 19.6208 32.5125 19.3428C32.1548 18.4511 31.9715 17.4997 31.9724 16.5396L31.9593 11.2919C31.9702 9.86175 31.9813 8.43156 31.9926 7.00138C32.3031 6.60876 32.6138 6.2165 32.9246 5.8246C31.7865 5.128 31.1699 4.14536 30.7878 2.93704C30.48 4.18397 29.7738 5.13017 28.7034 5.83276L29.6366 6.99377C29.6311 7.43207 29.6258 7.87018 29.6207 8.30812C29.6262 9.31777 29.6315 10.3276 29.6366 11.3376C29.6296 13.2532 29.6224 15.169 29.6147 17.085C29.6162 17.9389 29.4297 18.7827 29.0681 19.5571C28.9709 19.7608 28.8614 19.9583 28.7401 20.1488C28.8089 20.2091 28.8789 20.2716 28.9489 20.3369C29.1369 20.5131 29.308 20.6887 29.4633 20.8606C29.1818 20.9636 28.8898 21.0354 28.5925 21.0748C27.9562 21.1555 27.3098 21.0895 26.7033 20.8818C26.4762 21.4256 26.2495 21.9694 26.0232 22.5132C26.0086 22.8427 25.9941 23.1721 25.9795 23.5013Z" fill="white"/>
</mask>
<g mask="url(#mask0_1909_716)">
<path d="M30.8364 0H19.1475V67.3454H30.8364V0Z" fill="url(#paint9_linear_1909_716)"/>
</g>
<path d="M43.693 15.595C43.6258 14.98 43.5012 13.4698 42.4068 12.2887C41.9082 11.7504 41.267 11.4594 40.0338 10.7873C39.0006 10.2234 38.1205 9.75408 36.8168 9.49686C35.8352 9.30631 34.8289 9.27619 33.8375 9.40768C34.1655 9.40768 36.9108 9.44412 38.396 11.5676C38.8389 12.2112 39.1182 12.952 39.21 13.7265C39.4625 13.8456 40.9593 14.5814 41.4294 16.2639C41.6118 16.9313 41.6118 17.6351 41.4294 18.3026C41.0636 17.6988 40.6432 17.1296 40.1732 16.6021C39.8523 16.2448 39.512 15.9053 39.1537 15.5852C38.68 15.1511 38.1827 14.7431 37.6641 14.3633L39.5866 14.7097C39.0847 14.3344 38.5614 13.9881 38.0194 13.6727C37.7275 13.503 37.5083 13.3877 37.3798 13.3198C36.7544 12.9897 35.8563 12.5106 34.47 11.7623C35.1683 11.588 35.8932 11.5449 36.6074 11.6351C36.0555 11.4608 35.4897 11.3334 34.9161 11.2544C33.3899 11.0496 31.8373 11.1784 30.3663 11.6318C30.6933 11.4305 30.9966 11.1933 31.2705 10.9249C31.4706 10.7282 31.6548 10.5162 31.8215 10.2908C32.2826 9.67862 32.6302 8.98954 32.8481 8.25592C31.5651 9.90417 30.4751 10.3321 29.683 10.3865C29.2785 10.4148 28.5821 10.3724 27.7085 10.7063C27.3007 10.8629 26.9777 11.0124 26.7246 11.3724C26.5657 11.6043 26.428 11.8498 26.3129 12.106C26.2113 12.3235 26.1539 12.541 25.927 12.6596C25.6373 12.8108 25.2453 12.6922 24.9764 12.5454C24.3204 12.1876 24.1788 11.3833 24.1274 11.0935C23.9481 10.0809 24.4084 9.25542 24.5915 8.96286C24.1638 9.154 23.7825 9.43463 23.4736 9.78562C23.1168 10.2004 22.8677 10.696 22.7482 11.2289C22.5449 12.0522 22.7739 12.3252 22.6799 13.2159C22.6406 13.5895 22.5329 14.3144 22.1404 14.9898C21.2734 16.4808 20.0019 16.1426 18.8862 17.6489C18.4625 18.221 18.7676 18.1052 17.865 19.8208C17.4775 20.5571 17.1905 21.3473 16.7548 22.0564C16.4115 22.616 16.3273 23.1233 16.4842 23.7628C16.6988 24.6121 16.593 25.5102 16.1868 26.2871C15.8736 26.8951 15.3483 26.9729 14.859 26.4959C14.8044 26.4416 14.7437 26.3872 14.6748 26.3257C14.8133 27.0983 14.8737 27.8828 14.8552 28.6673C14.8552 28.7658 14.8492 28.8626 14.8448 28.9588C14.9691 28.9588 15.0966 28.9559 15.2275 28.9501C16.2226 28.8875 17.1907 28.6018 18.0591 28.1143C17.9432 28.0893 17.8503 28.0773 17.7628 28.049C17.3638 27.9223 17.2932 27.6309 17.618 27.3687C17.7842 27.2339 17.9745 27.1313 18.1788 27.0664C18.4975 26.958 18.8053 26.8204 19.0983 26.6553C18.9953 26.6184 18.8967 26.5705 18.8042 26.5123C18.6325 26.4035 18.38 26.2442 18.3045 25.9614C18.2291 25.6786 18.3559 25.3964 18.4598 25.2354C18.5434 25.106 18.6631 24.8667 19.1158 24.4529C19.7307 23.8683 20.462 23.4185 21.2625 23.1326C21.0329 23.7106 21.034 24.1419 21.0826 24.4377C21.1132 24.6215 21.1843 24.8869 21.2466 25.3795C21.2707 25.5485 21.2816 25.719 21.2794 25.8896C21.2794 26.4019 21.0744 26.8113 20.6087 27.043C20.2408 27.2257 19.8477 27.3595 19.4755 27.5112C20.1202 27.8528 20.855 27.9891 21.5802 27.9015C22.3054 27.814 22.986 27.5069 23.5299 27.0218C23.4178 26.9819 23.3123 26.9252 23.2173 26.8538C23.0372 26.7138 22.8992 26.5274 22.8182 26.3149C22.6695 25.9554 22.7018 25.6237 22.722 25.4372C22.8543 24.2408 22.9204 23.6459 23.202 23.2239C23.6027 22.6225 24.1526 22.3636 24.7167 22.0983C25.5848 21.6893 26.0746 21.4691 26.5906 21.4544C26.4266 21.2913 26.2113 20.9237 25.3793 20.8388C25.0088 20.8024 24.6349 20.8506 24.286 20.9797C24.4191 20.8256 24.5654 20.6833 24.7233 20.5544C25.0018 20.3147 25.3212 20.1263 25.6662 19.9981C26.0867 19.8505 26.536 19.803 26.9782 19.8595L26.2271 19.3728C26.5464 18.7248 27.0128 18.1596 27.5894 17.7218C27.8933 17.4939 29.1314 16.5798 30.8408 16.7854C31.1611 16.8234 32.6398 17.0377 33.5292 18.1992C33.8102 18.5663 33.9556 18.9274 34.1437 19.3956C34.4492 20.1569 34.5356 20.7393 34.6324 21.3897C34.6324 21.3897 34.7712 22.3256 34.6072 22.8438C34.57 22.9613 34.5241 23.0923 34.5241 23.0923C34.4565 23.2296 34.403 23.3734 34.3645 23.5214C33.2772 26.2665 33.55 28.7054 33.55 28.7054C33.6254 29.3792 33.7769 29.9208 34.0802 31.004C34.4629 32.369 34.6816 32.717 34.7056 33.5555C34.7171 33.9596 34.7297 34.772 34.2913 35.6606C33.8053 36.6465 33.046 37.156 32.677 37.3969C32.513 37.5024 31.5088 38.1435 30.1799 38.23C30.1559 38.23 29.6847 38.2463 28.7411 38.2577C28.447 38.2615 28.0813 38.2681 27.6058 38.2822C27.0044 38.3007 26.7 38.3045 26.5994 38.3186C23.7098 38.7183 21.8135 41.0751 21.8321 41.0566C22.0507 40.8435 22.5225 40.4585 23.1987 40.3818C23.4616 40.3524 24.0668 40.2855 24.3259 40.6472C24.585 41.0088 24.3259 41.5564 24.2963 41.6211C24.0039 42.2247 23.3638 42.4134 22.8133 42.6543C22.8133 42.6543 21.4467 43.2525 20.3769 44.4179C19.8926 44.947 19.2229 46.1335 19.839 48.9346C19.9592 48.2831 20.1546 47.6476 20.4212 47.0406C20.6064 46.6183 20.8258 46.2117 21.0771 45.8247C20.9082 46.084 21.3177 47.0297 21.3723 47.2962C21.5006 47.9222 21.5557 48.5609 21.5363 49.1995C21.5292 49.4105 21.5134 49.6258 21.4319 49.821C21.175 50.4377 20.284 50.5198 19.8598 50.9945C19.124 51.8238 19.5411 53.2622 19.7051 53.8283C20.1036 55.2024 21.0684 55.9784 21.4669 56.2628C20.4944 55.5684 20.3545 53.7043 21.2242 52.9011C20.9252 53.1773 22.0015 55.4151 22.1535 55.7054C22.6716 56.6891 23.3784 57.5622 24.234 58.2754C25.8898 59.6491 27.9239 60.213 30.0465 60.2842C30.5467 60.3011 31.0895 60.3163 31.7958 60.2103C32.2684 60.1395 32.7337 60.0265 33.1859 59.8726H31.5012C32.6114 59.8726 33.9064 59.4827 34.9352 59.0868C36.4778 58.4919 37.6581 57.5462 38.7147 56.3058L39.0061 55.9376L37.4979 56.3727C38.5912 53.9566 39.0285 51.4611 39.1608 48.7981L40.6121 49.9543C40.489 48.6887 40.0601 47.4715 39.362 46.4065C38.5607 45.198 37.4465 44.2271 36.1367 43.5962C36.7995 44.3179 37.2095 45.2336 37.3055 46.2064C37.4033 47.2456 37.1218 48.3734 36.4981 49.2223C37.0201 49.0641 37.5318 48.8683 38.0801 48.7737C38.1774 49.4806 38.1528 50.2104 38.0801 50.9157C37.9325 52.3475 37.5608 53.7434 36.7769 54.9691C36.0208 56.1503 34.8089 57.1911 33.4423 57.6011C32.7721 57.8029 29.3676 58.475 26.6748 56.1601C25.9818 55.5481 25.4404 54.785 25.0928 53.9305C23.8164 50.7977 25.7586 47.8302 25.9658 47.5278C27.1646 45.7594 28.8494 45.0187 29.5524 44.7207C30.3754 44.3724 31.2472 44.1512 32.1375 44.0649C31.247 45.0746 30.1003 45.8277 28.8171 46.2456C30.1558 46.0256 31.4388 45.5494 32.595 44.8431C34.0163 43.9643 35.1435 42.9942 36.8867 41.3726C37.4525 40.8457 37.9079 40.3976 38.2145 40.0892C39.8747 39.1245 40.9139 38.0353 41.4988 37.3202C42.0064 36.7157 42.4463 36.058 42.8108 35.3587C43.3082 34.3979 43.3213 33.9993 43.8013 33.1602C44.2812 32.3211 44.4184 32.4532 45.2603 31.3167C47.097 28.8321 47.0068 27.4209 46.9505 26.9712C46.1573 20.9715 44.2282 20.4707 43.693 15.595Z" fill="url(#paint10_linear_1909_716)"/>
<mask id="mask1_1909_716" style="mask-type:luminance" maskUnits="userSpaceOnUse" x="14" y="8" width="33" height="53">
<path d="M43.693 15.595C43.6258 14.98 43.5012 13.4698 42.4068 12.2887C41.9082 11.7504 41.267 11.4594 40.0338 10.7873C39.0006 10.2234 38.1205 9.75408 36.8168 9.49686C35.8352 9.30631 34.8289 9.27619 33.8375 9.40768C34.1655 9.40768 36.9108 9.44412 38.396 11.5676C38.8389 12.2112 39.1182 12.952 39.21 13.7265C39.4625 13.8456 40.9593 14.5814 41.4294 16.2639C41.6118 16.9313 41.6118 17.6351 41.4294 18.3026C41.0636 17.6988 40.6432 17.1296 40.1732 16.6021C39.8523 16.2448 39.512 15.9053 39.1537 15.5852C38.68 15.1511 38.1827 14.7431 37.6641 14.3633L39.5866 14.7097C39.0847 14.3344 38.5614 13.9881 38.0194 13.6727C37.7275 13.503 37.5083 13.3877 37.3798 13.3198C36.7544 12.9897 35.8563 12.5106 34.47 11.7623C35.1683 11.588 35.8932 11.5449 36.6074 11.6351C36.0555 11.4608 35.4897 11.3334 34.9161 11.2544C33.3899 11.0496 31.8373 11.1784 30.3663 11.6318C30.6933 11.4305 30.9966 11.1933 31.2705 10.9249C31.4706 10.7282 31.6548 10.5162 31.8215 10.2908C32.2826 9.67862 32.6302 8.98954 32.8481 8.25592C31.5651 9.90417 30.4751 10.3321 29.683 10.3865C29.2785 10.4148 28.5821 10.3724 27.7085 10.7063C27.3007 10.8629 26.9777 11.0124 26.7246 11.3724C26.5657 11.6043 26.428 11.8498 26.3129 12.106C26.2113 12.3235 26.1539 12.541 25.927 12.6596C25.6373 12.8108 25.2453 12.6922 24.9764 12.5454C24.3204 12.1876 24.1788 11.3833 24.1274 11.0935C23.9481 10.0809 24.4084 9.25542 24.5915 8.96286C24.1638 9.154 23.7825 9.43463 23.4736 9.78562C23.1168 10.2004 22.8677 10.696 22.7482 11.2289C22.5449 12.0522 22.7739 12.3252 22.6799 13.2159C22.6406 13.5895 22.5329 14.3144 22.1404 14.9898C21.2734 16.4808 20.0019 16.1426 18.8862 17.6489C18.4625 18.221 18.7676 18.1052 17.865 19.8208C17.4775 20.5571 17.1905 21.3473 16.7548 22.0564C16.4115 22.616 16.3273 23.1233 16.4842 23.7628C16.6988 24.6121 16.593 25.5102 16.1868 26.2871C15.8736 26.8951 15.3483 26.9729 14.859 26.4959C14.8044 26.4416 14.7437 26.3872 14.6748 26.3257C14.8133 27.0983 14.8737 27.8828 14.8552 28.6673C14.8552 28.7658 14.8492 28.8626 14.8448 28.9588C14.9691 28.9588 15.0966 28.9559 15.2275 28.9501C16.2226 28.8875 17.1907 28.6018 18.0591 28.1143C17.9432 28.0893 17.8503 28.0773 17.7628 28.049C17.3638 27.9223 17.2932 27.6309 17.618 27.3687C17.7842 27.2339 17.9745 27.1313 18.1788 27.0664C18.4975 26.958 18.8053 26.8204 19.0983 26.6553C18.9953 26.6184 18.8967 26.5705 18.8042 26.5123C18.6325 26.4035 18.38 26.2442 18.3045 25.9614C18.2291 25.6786 18.3559 25.3964 18.4598 25.2354C18.5434 25.106 18.6631 24.8667 19.1158 24.4529C19.7307 23.8683 20.462 23.4185 21.2625 23.1326C21.0329 23.7106 21.034 24.1419 21.0826 24.4377C21.1132 24.6215 21.1843 24.8869 21.2466 25.3795C21.2707 25.5485 21.2816 25.719 21.2794 25.8896C21.2794 26.4019 21.0744 26.8113 20.6087 27.043C20.2408 27.2257 19.8477 27.3595 19.4755 27.5112C20.1202 27.8528 20.855 27.9891 21.5802 27.9015C22.3054 27.814 22.986 27.5069 23.5299 27.0218C23.4178 26.9819 23.3123 26.9252 23.2173 26.8538C23.0372 26.7138 22.8992 26.5274 22.8182 26.3149C22.6695 25.9554 22.7018 25.6237 22.722 25.4372C22.8543 24.2408 22.9204 23.6459 23.202 23.2239C23.6027 22.6225 24.1526 22.3636 24.7167 22.0983C25.5848 21.6893 26.0746 21.4691 26.5906 21.4544C26.4266 21.2913 26.2113 20.9237 25.3793 20.8388C25.0088 20.8024 24.6349 20.8506 24.286 20.9797C24.4191 20.8256 24.5654 20.6833 24.7233 20.5544C25.0018 20.3147 25.3212 20.1263 25.6662 19.9981C26.0867 19.8505 26.536 19.803 26.9782 19.8595L26.2271 19.3728C26.5464 18.7248 27.0128 18.1596 27.5894 17.7218C27.8933 17.4939 29.1314 16.5798 30.8408 16.7854C31.1611 16.8234 32.6398 17.0377 33.5292 18.1992C33.8102 18.5663 33.9556 18.9274 34.1437 19.3956C34.4492 20.1569 34.5356 20.7393 34.6324 21.3897C34.6324 21.3897 34.7712 22.3256 34.6072 22.8438C34.57 22.9613 34.5241 23.0923 34.5241 23.0923C34.4565 23.2296 34.403 23.3734 34.3645 23.5214C33.2772 26.2665 33.55 28.7054 33.55 28.7054C33.6254 29.3792 33.7769 29.9208 34.0802 31.004C34.4629 32.369 34.6816 32.717 34.7056 33.5555C34.7171 33.9596 34.7297 34.772 34.2913 35.6606C33.8053 36.6465 33.046 37.156 32.677 37.3969C32.513 37.5024 31.5088 38.1435 30.1799 38.23C30.1559 38.23 29.6847 38.2463 28.7411 38.2577C28.447 38.2615 28.0813 38.2681 27.6058 38.2822C27.0044 38.3007 26.7 38.3045 26.5994 38.3186C23.7098 38.7183 21.8135 41.0751 21.8321 41.0566C22.0507 40.8435 22.5225 40.4585 23.1987 40.3818C23.4616 40.3524 24.0668 40.2855 24.3259 40.6472C24.585 41.0088 24.3259 41.5564 24.2963 41.6211C24.0039 42.2247 23.3638 42.4134 22.8133 42.6543C22.8133 42.6543 21.4467 43.2525 20.3769 44.4179C19.8926 44.947 19.2229 46.1335 19.839 48.9346C19.9592 48.2831 20.1546 47.6476 20.4212 47.0406C20.6064 46.6183 20.8258 46.2117 21.0771 45.8247C20.9082 46.084 21.3177 47.0297 21.3723 47.2962C21.5006 47.9222 21.5557 48.5609 21.5363 49.1995C21.5292 49.4105 21.5134 49.6258 21.4319 49.821C21.175 50.4377 20.284 50.5198 19.8598 50.9945C19.124 51.8238 19.5411 53.2622 19.7051 53.8283C20.1036 55.2024 21.0684 55.9784 21.4669 56.2628C20.4944 55.5684 20.3545 53.7043 21.2242 52.9011C20.9252 53.1773 22.0015 55.4151 22.1535 55.7054C22.6716 56.6891 23.3784 57.5622 24.234 58.2754C25.8898 59.6491 27.9239 60.213 30.0465 60.2842C30.5467 60.3011 31.0895 60.3163 31.7958 60.2103C32.2684 60.1395 32.7337 60.0265 33.1859 59.8726H31.5012C32.6114 59.8726 33.9064 59.4827 34.9352 59.0868C36.4778 58.4919 37.6581 57.5462 38.7147 56.3058L39.0061 55.9376L37.4979 56.3727C38.5912 53.9566 39.0285 51.4611 39.1608 48.7981L40.6121 49.9543C40.489 48.6887 40.0601 47.4715 39.362 46.4065C38.5607 45.198 37.4465 44.2271 36.1367 43.5962C36.7995 44.3179 37.2095 45.2336 37.3055 46.2064C37.4033 47.2456 37.1218 48.3734 36.4981 49.2223C37.0201 49.0641 37.5318 48.8683 38.0801 48.7737C38.1774 49.4806 38.1528 50.2104 38.0801 50.9157C37.9325 52.3475 37.5608 53.7434 36.7769 54.9691C36.0208 56.1503 34.8089 57.1911 33.4423 57.6011C32.7721 57.8029 29.3676 58.475 26.6748 56.1601C25.9818 55.5481 25.4404 54.785 25.0928 53.9305C23.8164 50.7977 25.7586 47.8302 25.9658 47.5278C27.1646 45.7594 28.8494 45.0187 29.5524 44.7207C30.3754 44.3724 31.2472 44.1512 32.1375 44.0649C31.247 45.0746 30.1003 45.8277 28.8171 46.2456C30.1558 46.0256 31.4388 45.5494 32.595 44.8431C34.0163 43.9643 35.1435 42.9942 36.8867 41.3726C37.4525 40.8457 37.9079 40.3976 38.2145 40.0892C39.8747 39.1245 40.9139 38.0353 41.4988 37.3202C42.0064 36.7157 42.4463 36.058 42.8108 35.3587C43.3082 34.3979 43.3213 33.9993 43.8013 33.1602C44.2812 32.3211 44.4184 32.4532 45.2603 31.3167C47.097 28.8321 47.0068 27.4209 46.9505 26.9712C46.1573 20.9715 44.2282 20.4707 43.693 15.595Z" fill="white"/>
</mask>
<g mask="url(#mask1_1909_716)">
<path d="M25.8546 23.4097L15.6777 17.5647L10.4239 26.6171L20.6008 32.4621L25.8546 23.4097Z" fill="url(#paint11_linear_1909_716)"/>
<path d="M33.3723 10.12C34.1322 10.2569 34.8788 10.459 35.6037 10.7242C35.7717 10.7855 35.9384 10.8502 36.1039 10.9183C36.1973 10.957 36.1 10.9183 36.0847 10.9107L36.2362 10.9765C36.3371 11.0218 36.4373 11.0677 36.5368 11.1141C36.8732 11.2736 37.2026 11.4458 37.5251 11.6307C37.859 11.8232 38.1848 12.029 38.5026 12.2479C38.6616 12.3567 38.8169 12.4709 38.9716 12.5862C39.0514 12.6454 38.9716 12.5862 38.9585 12.5747L39.0558 12.6514C39.1421 12.7194 39.2274 12.789 39.3121 12.8592C39.9057 13.3508 40.4568 13.8911 40.9597 14.4742C41.0937 14.6303 41.2254 14.7891 41.3522 14.9517C41.2615 14.8353 41.438 15.0675 41.4616 15.1029C41.5268 15.1913 41.5907 15.2807 41.6534 15.3709C41.9049 15.7315 42.1372 16.1051 42.352 16.4884L43.7318 15.4313C41.7061 13.6124 39.5771 11.9107 37.3551 10.3348L36.4701 11.8406C37.0714 12.1702 37.6727 12.4997 38.2533 12.8657C38.8437 13.2376 39.2711 13.5416 39.7675 14.0115C39.9784 14.2132 40.1781 14.4263 40.3655 14.6499C40.5465 14.863 40.2792 14.5243 40.4448 14.7488C40.488 14.8076 40.5306 14.8663 40.5722 14.9267C40.6545 15.0456 40.7327 15.1677 40.8067 15.2932C40.887 15.4308 40.9619 15.5711 41.0303 15.7141C41.039 15.7315 41.1243 15.9316 41.0909 15.8473C41.0576 15.763 41.1341 15.9664 41.1407 15.9838C41.2445 16.283 41.3178 16.5918 41.3593 16.9055L42.8243 16.0572L41.9989 15.1137C41.7125 14.7875 41.1713 14.7967 40.8482 15.0452C40.4852 15.3242 40.4322 15.7717 40.6225 16.1703L41.9678 18.9915L43.3491 17.9349L42.4548 16.9197L42.0678 18.3771C42.1126 18.3656 42.4187 18.3178 42.1924 18.3406C42.2646 18.333 42.3367 18.3281 42.4111 18.327C42.4854 18.3259 42.5554 18.3319 42.6297 18.3325C42.732 18.3423 42.726 18.3395 42.6128 18.3249C42.6604 18.3325 42.7079 18.3406 42.7555 18.351C42.8973 18.3826 43.037 18.4233 43.1737 18.4728C42.9774 18.4048 43.2578 18.5146 43.2967 18.5353C43.3612 18.5696 43.4246 18.606 43.4863 18.6441C43.5481 18.6821 43.6077 18.7245 43.6673 18.7675C43.5071 18.6517 43.7116 18.8115 43.7422 18.8398C43.8045 18.8975 43.8641 18.9576 43.9209 19.0204C43.945 19.0476 44.0685 19.227 43.9663 19.0688C44.0597 19.2086 44.1446 19.3538 44.2205 19.5038C44.133 19.326 44.2254 19.5315 44.2363 19.5647C44.2647 19.6573 44.2879 19.7513 44.3058 19.8464L45.7713 18.9975L43.3191 16.048C42.9473 15.601 42.2132 15.7842 41.9426 16.2247C41.7114 16.5999 41.5053 16.9915 41.4452 17.4325C41.3855 17.896 41.4899 18.3657 41.7403 18.761C42.1514 19.4255 42.8391 19.8578 43.3956 20.3891C43.6263 20.6093 43.8597 20.8269 44.0822 21.0558C44.1811 21.158 44.2784 21.2624 44.3703 21.3707C44.4249 21.437 44.4856 21.5273 44.4009 21.406C44.4386 21.4604 44.4774 21.5148 44.5102 21.5691C44.5793 21.6776 44.6412 21.7904 44.6955 21.9068C44.6015 21.7078 44.683 21.8884 44.6994 21.9395C44.7196 22.002 44.7371 22.0662 44.754 22.1303C44.7639 22.1744 44.7726 22.219 44.7797 22.2636C44.7666 22.1586 44.7639 22.139 44.7704 22.2059C44.777 22.2728 44.7803 22.3533 44.7813 22.4267C44.7813 22.6039 44.7688 22.7809 44.7442 22.9564C44.6846 23.4104 45.1902 23.8476 45.6188 23.8264C46.1447 23.8031 46.4311 23.4409 46.4934 22.9564C46.5882 22.2888 46.4843 21.6082 46.1944 20.9987C45.9402 20.468 45.5215 20.0199 45.1011 19.6115C44.6092 19.128 44.0773 18.6935 43.5661 18.2302C43.5044 18.1758 43.4437 18.1171 43.3863 18.0573C43.3754 18.0453 43.2223 17.8507 43.3152 17.985C43.2026 17.8256 43.1775 17.8164 43.1512 17.6413C43.1758 17.8115 43.1993 17.5108 43.1584 17.7044C43.1649 17.6728 43.2321 17.4515 43.1758 17.5989C43.2519 17.4279 43.3434 17.2641 43.4492 17.1095L42.0722 17.2862L44.525 20.2292C44.7606 20.5131 45.2843 20.5599 45.5871 20.3657C45.932 20.1444 46.0682 19.7762 45.99 19.3809C45.6101 17.4597 43.4754 16.2149 41.5988 16.6929C40.9253 16.8648 40.7919 17.6718 41.2123 18.1503L42.1066 19.1661C42.3941 19.4924 42.9331 19.4831 43.2573 19.2341C43.6203 18.9551 43.6733 18.5081 43.4831 18.1095L42.1378 15.2877L40.7613 16.3465L41.5862 17.2927C41.83 17.5711 42.34 17.6266 42.6483 17.4287C43.0069 17.1992 43.1064 16.8468 43.0512 16.4439C42.6374 13.4214 39.8014 11.6769 37.3546 10.337C36.9528 10.1195 36.3799 10.2283 36.1552 10.6497C35.9164 11.0994 36.07 11.5595 36.4696 11.8428C38.5689 13.3337 40.5796 14.9444 42.4914 16.6668C42.8194 16.9605 43.2874 17.0083 43.6427 16.7353C43.8109 16.606 43.9264 16.4206 43.9679 16.2132C44.0094 16.0058 43.974 15.7905 43.8684 15.607C42.2285 12.6824 39.5647 10.4371 36.4554 9.19016C35.6106 8.85192 34.7335 8.60011 33.8375 8.43863C33.3881 8.35706 32.8704 8.56044 32.7589 9.04768C32.6616 9.47456 32.889 10.0325 33.3712 10.12H33.3723Z" fill="url(#paint12_linear_1909_716)"/>
<path d="M35.7466 44.3521C35.9723 47.3057 36.003 50.2708 35.8384 53.2285C35.7838 54.2008 37.3597 54.4248 37.5598 53.4601C38.2099 50.3195 38.6432 47.1383 38.8565 43.9388L37.2231 44.3787C38.4048 46.6344 39.2233 49.0606 39.6486 51.5688C39.7218 51.9951 40.2171 52.2458 40.6101 52.1931C40.8193 52.1655 41.0115 52.0636 41.1511 51.9062C41.2907 51.7488 41.3685 51.5465 41.3699 51.3366C41.3921 49.6548 40.908 48.0049 39.9798 46.599C39.4878 45.8616 38.406 46.1689 38.3464 47.039C38.1986 49.2215 37.888 51.3902 37.4171 53.527L39.1396 53.7597L39.0975 51.2436C39.0954 51.0339 39.0174 50.8319 38.8779 50.6746C38.7384 50.5174 38.5466 50.4153 38.3377 50.3871C37.9299 50.3327 37.4669 50.5856 37.3756 51.0119C37.0879 52.3552 36.907 53.7189 36.8344 55.0904C36.8104 55.5467 37.2548 55.9828 37.709 55.9605C38.2043 55.9382 38.5596 55.5798 38.5837 55.0904C38.6437 53.8751 38.8038 52.6667 39.0625 51.4774L37.3406 51.2458L37.3822 53.7619C37.3846 53.9717 37.4627 54.1736 37.6023 54.3308C37.7418 54.488 37.9336 54.5901 38.1425 54.6184C38.5514 54.6728 39.0112 54.4199 39.1041 53.9941C39.6057 51.7027 39.9384 49.378 40.0995 47.0384L38.4662 47.4783C38.673 47.7876 38.8572 48.1112 39.0172 48.4468C39.0742 48.5592 39.1236 48.6753 39.1648 48.7943C39.2307 48.9683 39.29 49.1445 39.3424 49.3229C39.4448 49.6641 39.5215 50.0123 39.572 50.3648C39.5518 50.2223 39.5851 50.504 39.5851 50.5019C39.5939 50.5943 39.601 50.6867 39.6065 50.7792C39.6168 50.9652 39.6196 51.1506 39.6168 51.336L41.3388 51.1044C40.8756 48.4493 39.9976 45.8828 38.7367 43.4978C38.5646 43.1715 38.101 42.9833 37.7468 43.097C37.3608 43.2215 37.1301 43.5391 37.1034 43.9382C36.9034 46.9818 36.4912 50.0079 35.8696 52.9946L37.5915 53.2268C37.756 50.2697 37.7253 47.3051 37.4997 44.3521C37.4647 43.8985 37.1214 43.4581 36.625 43.482C36.1801 43.5021 35.7116 43.867 35.7504 44.3521H35.7466Z" fill="url(#paint13_linear_1909_716)"/>
<path d="M16.0284 26.3817C15.8961 26.8505 15.6671 27.3758 15.6458 27.8647C15.6157 28.5531 16.2083 29.0458 16.8834 28.9555C17.5104 28.8718 17.8001 28.2954 18.1095 27.8195L18.5244 27.1828L18.7021 26.9109L18.8201 26.7292C18.7705 26.7902 18.7085 26.84 18.6381 26.8753C18.5677 26.9106 18.4906 26.9307 18.4118 26.9342L17.9696 26.8151L17.8925 26.7461L17.6667 26.3616L17.6864 26.416V25.9521C17.7491 25.8495 17.7474 25.8566 17.6815 25.9734L17.606 26.1137L17.4552 26.3943C17.3551 26.5802 17.2584 26.7689 17.1523 26.9511C17.1086 27.0267 17.0632 27.1012 17.0135 27.1735C17.0916 27.0599 16.938 27.2545 16.9304 27.2627C16.8533 27.3318 16.8457 27.3405 16.9063 27.2877L16.8336 27.3318C16.7403 27.3774 16.7325 27.3832 16.8101 27.3492C16.7697 27.3638 16.7287 27.3774 16.6877 27.3889C16.5073 27.4411 16.323 27.4791 16.1367 27.5025C16.2881 27.4824 16.0465 27.5025 16.018 27.5052C15.8907 27.5123 15.959 27.5128 16.0503 27.5292C16.1099 27.5835 16.1175 27.5879 16.0732 27.5449C16.029 27.502 16.0361 27.5079 16.088 27.5656C16.0399 27.4753 16.0355 27.4721 16.0749 27.5558L16.0519 27.4791C16.0273 27.316 16.029 27.4737 16.0339 27.3187C16.0383 27.186 16.0383 27.0533 16.0454 26.9201C16.07 26.4639 15.625 26.0277 15.1707 26.05C14.6749 26.0718 14.3201 26.4334 14.2961 26.9201C14.2682 27.447 14.3021 27.98 14.5776 28.4455C14.8826 28.9604 15.4276 29.2454 16.0219 29.2497C16.4791 29.2462 16.9321 29.1615 17.3595 28.9996C17.9029 28.7891 18.2959 28.4346 18.6026 27.9441C18.8441 27.5499 19.0653 27.1437 19.2651 26.7271C19.4471 26.3551 19.469 25.9396 19.2044 25.5992C19.0931 25.4527 18.9447 25.3382 18.7743 25.2674C18.6039 25.1966 18.4177 25.172 18.2347 25.1963C17.5869 25.2827 17.3054 25.8543 16.9845 26.3469L16.5701 26.9837C16.5007 27.0898 16.4324 27.1964 16.363 27.3018C16.3274 27.3562 16.2919 27.4106 16.2536 27.465C16.4231 27.2866 16.6164 27.2096 16.8336 27.2339L17.219 27.4617C17.285 28.0664 17.3497 28.2239 17.4131 27.9343L17.441 27.8359L17.5383 27.49L17.7197 26.8472C17.8433 26.4084 17.5672 25.8793 17.1075 25.7749C16.6478 25.6705 16.1618 25.9135 16.029 26.3839L16.0284 26.3817Z" fill="#BA2129"/>
</g>
<path d="M23.1528 25.7134C22.5695 24.6728 22.2266 23.516 22.1488 22.3271C22.0711 21.1381 22.2606 19.9469 22.7035 18.8398C23.2904 19.2415 23.9012 19.6074 24.5325 19.9356C25.318 20.3389 26.133 20.6825 26.9706 20.9634C26.7349 21.305 26.5591 21.684 26.4507 22.0841C26.3295 22.5281 26.2959 22.9913 26.3518 23.448C26.0681 23.4893 25.7822 23.5306 25.4908 23.5671C25.442 23.4718 25.3851 23.3809 25.3208 23.2952C25.1907 23.1228 24.8354 22.6573 24.3073 22.6426C23.8263 22.6285 23.4906 22.9955 23.4261 23.0662C23.1457 23.3735 23.0981 23.7237 23.0435 24.1538C22.9829 24.676 23.02 25.2047 23.1528 25.7134Z" fill="url(#paint14_linear_1909_716)"/>
<path d="M30.7993 26.826C30.7993 23.2913 30.3117 22.0694 27.6763 22.0694C30.3117 22.0694 30.7993 21.9868 30.7993 18.4537C30.7993 21.9884 31.2863 22.0694 33.9217 22.0694C31.2863 22.0694 30.7993 23.293 30.7993 26.826Z" fill="#009435"/>
<mask id="mask2_1909_716" style="mask-type:luminance" maskUnits="userSpaceOnUse" x="27" y="18" width="7" height="9">
<path d="M30.7993 26.826C30.7993 23.2913 30.3117 22.0694 27.6763 22.0694C30.3117 22.0694 30.7993 21.9868 30.7993 18.4537C30.7993 21.9884 31.2863 22.0694 33.9217 22.0694C31.2863 22.0694 30.7993 23.293 30.7993 26.826Z" fill="white"/>
</mask>
<g mask="url(#mask2_1909_716)">
<path d="M30.7217 19.4277C30.5861 20.3875 30.5309 21.5344 31.487 22.1108C32.4207 22.6736 33.4861 22.2152 34.4881 22.2739C35.0107 22.3055 35.009 21.4958 34.4881 21.4642C33.7064 21.4169 32.8547 21.7715 32.0943 21.5023C31.3192 21.2304 31.4159 20.2923 31.5083 19.6409C31.5389 19.4233 31.4537 19.2091 31.2241 19.1433C31.0338 19.0889 30.7539 19.2096 30.7233 19.4255L30.7217 19.4277Z" fill="#006900"/>
<path d="M31.3918 26.5117C31.5558 25.6895 31.4306 24.8325 31.6274 24.0184C31.7706 23.4279 32.2413 22.6965 32.9579 22.8944C33.463 23.0342 33.6784 22.2538 33.1766 22.1141C32.2604 21.8606 31.3863 22.4659 31.0239 23.2838C30.5975 24.2452 30.8096 25.2958 30.6101 26.2969C30.5089 26.8054 31.2928 27.0235 31.3945 26.5117H31.3918Z" fill="#006900"/>
<path d="M27.8172 22.17C28.6918 22.07 29.6665 22.3549 30.3864 21.6926C30.7035 21.4011 30.8275 20.977 30.8401 20.5593C30.8549 20.0857 30.6821 19.6055 30.7718 19.134C30.8685 18.625 30.0846 18.407 29.9873 18.9192C29.9064 19.3434 29.9644 19.7349 30.0076 20.1602C30.0382 20.4544 30.0748 20.8236 29.8665 21.0651C29.6834 21.2766 29.3625 21.337 29.0958 21.3505C28.6677 21.3718 28.2419 21.3119 27.8144 21.3609C27.5958 21.3859 27.4099 21.5289 27.4077 21.7655C27.4077 21.965 27.5963 22.1951 27.8144 22.17H27.8172Z" fill="#00D743"/>
<path d="M28.535 23.0026C28.9674 22.852 29.4042 23.0244 29.6879 23.3708C30.0104 23.765 30.1116 24.2979 30.1367 24.7923C30.1963 25.9815 30.1017 27.192 30.075 28.3813C30.0629 28.9023 30.8763 28.9023 30.8884 28.3813C30.9048 27.6562 30.9213 26.9326 30.9381 26.2105C30.9545 25.4954 31.0043 24.7683 30.8632 24.0625C30.6353 22.9205 29.5846 21.7785 28.3186 22.2212C27.8266 22.3919 28.0392 23.1745 28.5372 23.0015L28.535 23.0026Z" fill="#47F373"/>
</g>
<path d="M21.6722 16.955C21.4112 16.7269 21.1953 16.4526 21.0353 16.1459C20.6297 15.3601 20.7691 14.6472 20.762 13.9049C20.7571 13.2627 20.6428 12.3572 20.1399 11.2501C20.2838 11.9019 20.3444 12.5691 20.3203 13.236C20.3006 13.7385 20.2328 14.1762 20.1415 14.7586C20.0923 15.0784 20.0623 15.4112 19.9365 15.7097C19.7797 16.0828 19.5845 16.4401 19.4522 16.8234C19.3287 17.1834 19.2625 17.5847 19.35 17.9583C19.4238 18.2754 19.5621 18.5723 19.6512 18.8866C19.7094 19.094 19.7552 19.3046 19.7884 19.5174C20.2639 19.244 20.6769 18.8749 21.0009 18.4336C21.3249 17.9924 21.5527 17.4888 21.67 16.955H21.6722Z" fill="url(#paint15_linear_1909_716)"/>
<path d="M17.5513 24.0663L18.8528 22.0667C18.8304 19.8062 18.802 19.2781 18.7785 19.2781C18.755 19.2781 18.755 19.6816 18.6757 20.1689C18.6025 20.6191 18.4144 21.2635 17.8787 22.0178C17.7694 22.7004 17.6602 23.3833 17.5513 24.0663Z" fill="#F8CB4C"/>
<mask id="mask3_1909_716" style="mask-type:luminance" maskUnits="userSpaceOnUse" x="17" y="19" width="2" height="6">
<path d="M17.5513 24.0663L18.8528 22.0667C18.8304 19.8062 18.802 19.2781 18.7785 19.2781C18.755 19.2781 18.755 19.6816 18.6757 20.1689C18.6025 20.6191 18.4144 21.2635 17.8787 22.0178C17.7694 22.7004 17.6602 23.3833 17.5513 24.0663Z" fill="white"/>
</mask>
<g mask="url(#mask3_1909_716)">
<path d="M18.54 18.9654C18.6325 19.3701 18.6585 19.7869 18.6171 20.1999C18.6127 20.2363 18.6116 20.2423 18.604 20.2863C18.5963 20.3304 18.5898 20.3679 18.581 20.4081C18.5657 20.4783 18.5477 20.5473 18.5263 20.6159C18.505 20.6844 18.4826 20.7437 18.4575 20.8062C18.4509 20.8236 18.4602 20.8002 18.4607 20.7986C18.4575 20.8067 18.4542 20.8144 18.4504 20.8225C18.4465 20.8307 18.44 20.8459 18.4345 20.8573C18.4219 20.885 18.4083 20.9117 18.3941 20.94C18.3203 21.0727 18.237 21.1999 18.1448 21.3206C18.0362 21.476 17.9456 21.6431 17.8747 21.8187C17.7534 22.1075 17.6943 22.4109 17.632 22.7166C17.5325 23.2092 17.3998 23.6947 17.2346 24.1696C17.2259 24.2095 17.2329 24.2513 17.2542 24.2862C17.2754 24.3212 17.3094 24.3468 17.349 24.3576C17.3886 24.3685 17.4309 24.3638 17.4671 24.3446C17.5034 24.3254 17.5309 24.2932 17.544 24.2544C17.696 23.8197 17.82 23.3758 17.9152 22.9254C17.9813 22.6138 18.0311 22.2978 18.1453 22.0009C18.2092 21.8319 18.2929 21.6709 18.3946 21.5213C18.4882 21.3971 18.5747 21.2679 18.6537 21.1341C18.7883 20.8835 18.8784 20.6115 18.9199 20.3304C18.9926 19.8469 18.9494 19.3592 18.8489 18.8822C18.8376 18.8415 18.8104 18.8069 18.7735 18.786C18.7365 18.7652 18.6928 18.7598 18.6518 18.771C18.6108 18.7823 18.5761 18.8093 18.5551 18.846C18.5341 18.8828 18.5287 18.9263 18.54 18.9671V18.9654Z" fill="url(#paint16_linear_1909_716)"/>
</g>
<path d="M28.7729 53.4041C28.7997 54.8533 28.832 56.3351 28.8735 57.9111C28.9151 59.5028 29.7296 61.7584 30.7912 63.0907C31.1028 62.647 31.3378 62.3001 31.5729 61.9341C32.6241 60.2956 32.7635 58.4331 32.7788 56.5663C32.7872 55.5124 32.7917 54.4583 32.7925 53.4041H28.7729Z" fill="url(#paint17_linear_1909_716)"/>
<mask id="mask4_1909_716" style="mask-type:luminance" maskUnits="userSpaceOnUse" x="28" y="53" width="5" height="11">
<path d="M28.7729 53.4041C28.7997 54.8533 28.832 56.3351 28.8735 57.9111C28.9151 59.5028 29.7296 61.7584 30.7912 63.0907C31.1028 62.647 31.3378 62.3001 31.5729 61.9341C32.6241 60.2956 32.7635 58.4331 32.7788 56.5663C32.7872 55.5124 32.7917 54.4583 32.7925 53.4041H28.7729Z" fill="white"/>
</mask>
<g mask="url(#mask4_1909_716)">
<path d="M30.8358 52.6743H27.2515V64.5802H30.8358V52.6743Z" fill="#F8CB4C"/>
</g>
<path d="M38.3002 25.7075C38.8834 24.6669 39.2264 23.5102 39.3041 22.3214C39.3818 21.1325 39.1924 19.9413 38.7495 18.8344C37.4311 19.7361 35.9955 20.4555 34.4824 20.9726C34.6464 21.2065 34.6633 21.5164 34.6201 22.033C34.5687 22.6377 34.3758 23.063 34.4299 23.3485C34.7136 23.3898 35.6708 23.5247 35.9605 23.5611C36.0094 23.4659 36.0663 23.3749 36.1305 23.2892C36.2612 23.1163 36.6159 22.6508 37.1445 22.6366C37.625 22.6225 37.9607 22.9901 38.0252 23.0603C38.3056 23.3675 38.3532 23.7177 38.4078 24.1478C38.4688 24.6699 38.4323 25.1986 38.3002 25.7075Z" fill="url(#paint18_linear_1909_716)"/>
<path d="M32.0848 17.8273C32.013 17.403 31.9764 16.9736 31.9755 16.5434L31.9624 11.2957C31.9733 9.86556 31.9844 8.43538 31.9957 7.00519C32.3062 6.61257 32.6169 6.22031 32.9278 5.82842C31.7896 5.13181 31.173 4.14917 30.7909 2.94086C30.4831 4.18778 29.7769 5.13399 28.7065 5.83657L29.6397 6.99758C29.6342 7.43588 29.6289 7.874 29.6238 8.31194C29.6293 9.32158 29.6346 10.3314 29.6397 11.3414C29.6327 13.257 29.6255 15.1728 29.6178 17.0888C29.6171 17.3585 29.5988 17.6279 29.5631 17.8953C30.4066 17.9235 31.2495 17.8697 32.0848 17.8273Z" fill="url(#paint19_linear_1909_716)"/>
<mask id="mask5_1909_716" style="mask-type:luminance" maskUnits="userSpaceOnUse" x="28" y="2" width="5" height="16">
<path d="M32.0848 17.8273C32.013 17.403 31.9764 16.9736 31.9755 16.5434L31.9624 11.2957C31.9733 9.86556 31.9844 8.43538 31.9957 7.00519C32.3062 6.61257 32.6169 6.22031 32.9278 5.82842C31.7896 5.13181 31.173 4.14917 30.7909 2.94086C30.4831 4.18778 29.7769 5.13399 28.7065 5.83657L29.6397 6.99758C29.6342 7.43588 29.6289 7.874 29.6238 8.31194C29.6293 9.32158 29.6346 10.3314 29.6397 11.3414C29.6327 13.257 29.6255 15.1728 29.6178 17.0888C29.6171 17.3585 29.5988 17.6279 29.5631 17.8953C30.4066 17.9235 31.2495 17.8697 32.0848 17.8273Z" fill="white"/>
</mask>
<g mask="url(#mask5_1909_716)">
<path d="M30.8369 0.0761414H25.2212V20.1047H30.8369V0.0761414Z" fill="url(#paint20_linear_1909_716)"/>
</g>
<path d="M33.8374 9.40767C33.8374 9.30707 36.2924 9.01613 39.1208 9.33045C41.4823 9.5931 43.1955 10.1886 44.6676 10.7101C46.8303 11.478 48.9043 12.4739 50.854 13.6808C49.9511 13.3507 48.9815 13.2416 48.0273 13.3627C47.4946 13.433 46.9743 13.5759 46.4808 13.7874C48.0975 14.3922 49.5547 15.3551 50.742 16.6031C51.9292 17.8511 52.8155 19.3514 53.3336 20.9905C51.3755 19.8797 50.1925 19.5297 49.7847 19.9405C49.253 20.4781 50.0415 22.3105 52.1501 25.4377C51.7368 25.2941 50.5785 24.9543 49.6995 25.5084C48.4668 26.2849 48.0595 28.6461 49.4333 30.9464C48.0577 31.2721 46.7182 31.7334 45.4345 32.3233C42.8067 33.5394 40.4496 35.2655 38.5014 37.4001C39.4012 35.6203 40.6027 33.0906 41.8267 29.9713C43.6158 25.4111 44.5101 23.1309 44.4653 20.9525C44.3631 16.0333 41.2013 10.7617 37.1949 9.65999C35.532 9.2032 33.8374 9.49141 33.8374 9.40767Z" fill="url(#paint21_linear_1909_716)"/>
<path d="M33.4724 24.938L34.0475 25.4567L33.5129 26.7548C33.3904 26.4872 33.1849 25.9266 33.3456 25.2892C33.3764 25.1684 33.4189 25.0507 33.4724 24.938Z" fill="url(#paint22_linear_1909_716)"/>
<path d="M86.4221 12.96V13.32H85.9621C85.6288 13.32 85.3354 13.54 85.0821 13.98C84.8288 14.34 84.7021 14.8067 84.7021 15.38V22.78C84.7021 24.1 84.5088 25.1533 84.1221 25.94C83.7354 26.7267 83.1621 27.3533 82.4021 27.82C81.6421 28.2733 80.6621 28.5 79.4621 28.5C78.3021 28.4733 77.4488 28.26 76.9021 27.86C76.2088 27.46 75.7154 26.8733 75.4221 26.1C75.1554 25.4333 75.0088 24.7 74.9821 23.9V16.8C74.9554 16.36 74.8354 16.06 74.6221 15.9C74.3688 15.7267 74.1288 15.6333 73.9021 15.62H73.4421V15.26H78.4021V15.62H77.9421C77.4488 15.62 77.0954 15.7267 76.8821 15.94C76.7354 16.1667 76.6554 16.4533 76.6421 16.8V23.28C76.6421 24.9733 77.0221 26.1267 77.7821 26.74C78.3554 27.3 78.9488 27.58 79.5621 27.58C80.6821 27.58 81.6154 27.2067 82.3621 26.46C82.8421 25.5133 83.0821 24.4533 83.0821 23.28V15.3C83.0821 14.1533 83.6288 13.2867 84.7221 12.7C85.5088 12.7 86.0754 12.7867 86.4221 12.96ZM92.6841 22.74L89.3441 17.44V26.16C89.3708 27.0133 89.4508 27.54 89.5841 27.74C89.7841 28.02 90.0308 28.16 90.3241 28.16H90.6841V28.5H86.4641V28.14H86.8441C87.3908 28.1267 87.7175 27.88 87.8241 27.4V17.1C87.8241 16.5533 87.7241 16.1667 87.5241 15.94C87.3108 15.74 87.0708 15.6333 86.8041 15.62H86.4641V15.26H89.3241L93.0041 21.18L97.0841 15.26H100.144V15.56H99.7641C99.2975 15.56 98.9708 15.7267 98.7841 16.06C98.6641 16.2733 98.6041 16.7533 98.6041 17.5V29.34C98.6041 30.1533 98.6775 30.66 98.8241 30.86C99.1175 31.2733 99.5375 31.44 100.084 31.36L100.144 31.56C99.2241 31.88 98.4508 31.7667 97.8241 31.22C97.3308 30.7133 97.0841 30.0867 97.0841 29.34V17.3L93.3241 22.74H92.6841ZM99.5709 15.26H103.171L110.391 24.58V15.48C110.444 14.6267 110.818 14 111.511 13.6C112.151 13.28 112.978 13.2067 113.991 13.38V13.74H113.531C112.971 13.74 112.571 13.9067 112.331 14.24C112.184 14.48 112.111 14.9533 112.111 15.66V28.72H111.771L103.231 18.06V26.2C103.231 27.0133 103.324 27.52 103.511 27.72C103.751 28 104.131 28.14 104.651 28.14H105.111V28.5H99.7509V28.1H100.211C100.771 28.1 101.171 27.9867 101.411 27.76C101.584 27.5333 101.671 26.9667 101.671 26.06V16.86C101.538 16.5133 101.398 16.2667 101.251 16.12C101.011 15.8933 100.738 15.7533 100.431 15.7C100.244 15.6467 99.9575 15.62 99.5709 15.62V15.26ZM122.715 15.98V21.18H125.135C125.695 21.18 126.101 21.06 126.355 20.82C126.608 20.58 126.781 20.0933 126.875 19.36H127.235V23.86H126.875C126.861 23.34 126.788 22.96 126.655 22.72C126.535 22.48 126.361 22.3 126.135 22.18C125.908 22.06 125.575 22 125.135 22H122.715V29.52C122.715 30.2 122.761 30.6467 122.855 30.86C122.921 31.02 123.055 31.16 123.255 31.28C123.548 31.4267 123.848 31.5 124.155 31.5H124.635V31.86H118.955V31.5H119.415C119.961 31.5 120.361 31.34 120.615 31.02C120.761 30.82 120.835 30.32 120.835 29.52V22H119.535V21.18H120.835V17.1C120.835 16.7667 120.795 16.4933 120.715 16.28C120.648 16.1067 120.515 15.9667 120.315 15.86C120.035 15.7 119.735 15.62 119.415 15.62H118.955V15.26H128.815L128.935 18.16H128.595C128.421 17.5467 128.221 17.1 127.995 16.82C127.781 16.5267 127.508 16.3133 127.175 16.18C126.841 16.0467 126.328 15.98 125.635 15.98H122.715ZM133.615 15.98V21.22H136.535C137.295 21.22 137.802 21.1067 138.055 20.88C138.388 20.5733 138.575 20.0467 138.615 19.3H138.975V23.9H138.615C138.522 23.26 138.428 22.8467 138.335 22.66C138.228 22.4333 138.035 22.2533 137.755 22.12C137.488 21.9867 137.082 21.92 136.535 21.92H133.615V26.3C133.615 26.8867 133.642 27.2467 133.695 27.38C133.748 27.5 133.842 27.6 133.975 27.68C134.108 27.7467 134.355 27.78 134.715 27.78H136.955C137.715 27.78 138.262 27.7267 138.595 27.62C138.928 27.5133 139.255 27.3067 139.575 27C139.575 26.4133 139.388 25.76 139.015 25.04L139.995 25.06L141.275 28.5H129.855V28.14H130.315C130.635 28.14 130.935 28.0667 131.215 27.92C131.415 27.8133 131.555 27.66 131.635 27.46C131.715 27.2467 131.755 26.8133 131.755 26.16V21.92H130.355V21.24H131.755V16.92C131.755 16.5067 131.668 16.2 131.495 16C131.255 15.7467 130.862 15.62 130.315 15.62H129.855V15.26H140.055L140.215 18.16H139.835C139.688 17.4667 139.528 16.9933 139.355 16.74C139.195 16.4733 138.955 16.2667 138.635 16.12C138.368 16.0267 137.908 15.98 137.255 15.98H133.615ZM150.322 13.88V19.18H149.982C149.849 18.4733 149.642 17.9067 149.362 17.48C149.095 17.0533 148.702 16.6733 148.182 16.34C147.662 15.9933 147.122 15.82 146.562 15.82C145.922 15.82 145.395 16.0533 144.982 16.52C144.569 16.9867 144.362 17.5133 144.362 18.1C144.362 18.5533 144.495 18.9667 144.762 19.34C145.135 19.8733 146.035 20.5933 147.462 21.5C148.609 22.2467 149.389 22.82 149.802 23.22C150.229 23.6067 150.555 24.0733 150.782 24.62C151.022 25.1533 151.142 25.7133 151.142 26.3C151.142 27.42 150.775 28.3867 150.042 29.2C149.309 30.0133 148.369 30.42 147.222 30.42C146.875 30.42 146.542 30.3867 146.222 30.32C146.035 30.28 145.642 30.1467 145.042 29.92C144.455 29.6933 144.082 29.58 143.922 29.58C143.762 29.58 143.635 29.6333 143.542 29.74C143.462 29.8467 143.395 30.38 143.342 31.34H143.022V25.62H143.342C143.515 26.66 143.735 27.4067 144.002 27.86C144.269 28.3 144.675 28.6933 145.222 29.04C145.769 29.3867 146.375 29.56 147.042 29.56C147.802 29.56 148.402 29.32 148.842 28.84C149.295 28.36 149.522 27.7933 149.522 27.14C149.522 26.78 149.435 26.4133 149.262 26.04C149.089 25.6667 148.829 25.32 148.482 25C148.242 24.7867 147.589 24.3267 146.522 23.62C145.469 22.9133 144.715 22.3533 144.262 21.94C143.822 21.5133 143.482 21.0467 143.242 20.54C143.015 20.02 142.902 19.46 142.902 18.86C142.902 17.7933 143.242 16.88 143.922 16.12C144.602 15.3467 145.475 14.96 146.542 14.96C147.195 14.96 147.775 15.0867 148.282 15.34C148.709 15.5533 149.075 15.7 149.382 15.78C149.622 15.6467 149.822 15.0133 149.982 13.88H150.322ZM162.689 14.94L162.709 18.26H162.329C162.262 17.7267 162.162 17.3467 162.029 17.12C161.829 16.76 161.562 16.4933 161.229 16.32C160.895 16.1467 160.455 16.06 159.909 16.06H158.049V30.2C158.049 30.8533 158.135 31.2533 158.309 31.4C158.549 31.6533 158.862 31.78 159.249 31.78H159.709V32.22H154.489V31.78H154.969C155.369 31.7933 155.695 31.66 155.949 31.38C156.095 31.18 156.169 30.7867 156.169 30.2V16.06H154.569C153.955 16.06 153.515 16.1067 153.249 16.2C152.915 16.32 152.629 16.5467 152.389 16.88C152.149 17.2133 152.009 17.6733 151.969 18.26H151.589V14.94H151.969V15.26H162.329V14.94H162.689ZM169.091 28.14V28.5H163.431V28.14H163.891C164.438 28.14 164.838 27.98 165.091 27.66C165.251 27.4467 165.331 26.9467 165.331 26.16V17.6C165.331 16.9333 165.285 16.4933 165.191 16.28C165.125 16.1067 164.991 15.9667 164.791 15.86C164.511 15.7 164.211 15.62 163.891 15.62H163.431V15.26H169.091V15.62H168.611C168.065 15.62 167.671 15.78 167.431 16.1C167.258 16.3133 167.171 16.8133 167.171 17.6V26.16C167.171 26.8267 167.218 27.2667 167.311 27.48C167.378 27.64 167.511 27.78 167.711 27.9C167.991 28.06 168.291 28.14 168.611 28.14H169.091ZM179.291 12.82C180.825 12.5133 181.731 12.6467 182.011 13.22C182.091 13.8867 181.898 14.7667 181.431 15.86L176.711 28.5H175.911L171.551 17.34C171.325 16.7667 171.165 16.42 171.071 16.3C170.925 16.0867 170.745 15.9267 170.531 15.82C170.318 15.7133 170.038 15.6467 169.691 15.62V15.26H174.471V15.62C173.925 15.6733 173.571 15.7733 173.411 15.92C173.251 16.0667 173.171 16.2533 173.171 16.48C173.171 16.8 173.305 17.3 173.571 17.98L176.531 25.56L179.291 18.06C180.118 15.7 180.531 14.3733 180.531 14.08C180.531 13.9067 180.445 13.7333 180.271 13.56C180.111 13.3867 179.838 13.26 179.451 13.18C179.411 13.18 179.358 13.1733 179.291 13.16V12.82ZM186.213 25.22L183.573 18L181.533 23.52L186.213 25.22ZM180.853 23.28L183.893 14.96H184.193L188.133 25.98C188.453 26.86 188.739 27.4333 188.993 27.7C189.259 27.9533 189.626 28.1 190.093 28.14V28.5H185.613V28.14C186.066 28.1133 186.373 28.0267 186.533 27.88C186.693 27.7333 186.773 27.5467 186.773 27.32C186.773 27.04 186.699 26.66 186.553 26.18L186.493 26L181.313 24.14L180.573 26.16C180.386 26.6667 180.293 27.0467 180.293 27.3C180.293 27.5133 180.373 27.7 180.533 27.86C180.693 28.0067 181.053 28.1 181.613 28.14V28.5H178.033V28.14C178.499 28.0467 178.806 27.92 178.953 27.76C179.233 27.44 179.553 26.8067 179.913 25.86L180.633 23.88L178.133 22.98L179.273 22.7L180.853 23.28ZM199.474 24.48H200.194L201.454 28.48L190.714 28.5V28.14H191.194C191.741 28.14 192.128 27.96 192.354 27.6C192.488 27.3867 192.554 26.9 192.554 26.14V17.6C192.554 16.7733 192.468 16.2533 192.294 16.04C192.054 15.76 191.688 15.62 191.194 15.62H190.714V15.26H196.534V15.62H196.014C195.668 15.62 195.234 15.74 194.714 15.98C194.488 16.2867 194.374 16.7667 194.374 17.42V26.14C194.374 26.6867 194.428 27.06 194.534 27.26C194.614 27.3933 194.728 27.4933 194.874 27.56C195.034 27.6267 195.528 27.66 196.354 27.66H197.294C198.281 27.66 198.968 27.5867 199.354 27.44C199.754 27.2933 199.954 27.02 199.954 26.62C199.954 26.2067 199.794 25.4933 199.474 24.48ZM111.542 44.74L108.202 39.44V48.16C108.228 49.0133 108.308 49.54 108.442 49.74C108.642 50.02 108.888 50.16 109.182 50.16H109.542V50.5H105.322V50.14H105.702C106.248 50.1267 106.575 49.88 106.682 49.4V39.1C106.682 38.5533 106.582 38.1667 106.382 37.94C106.168 37.74 105.928 37.6333 105.662 37.62H105.322V37.26H108.182L111.862 43.18L115.942 37.26H119.002V37.56H118.622C118.155 37.56 117.828 37.7267 117.642 38.06C117.522 38.2733 117.462 38.7533 117.462 39.5V51.34C117.462 52.1533 117.535 52.66 117.682 52.86C117.975 53.2733 118.395 53.44 118.942 53.36L119.002 53.56C118.082 53.88 117.308 53.7667 116.682 53.22C116.188 52.7133 115.942 52.0867 115.942 51.34V39.3L112.182 44.74H111.542ZM125.428 44.74L122.088 39.44V48.16C122.115 49.0133 122.195 49.54 122.328 49.74C122.528 50.02 122.775 50.16 123.068 50.16H123.428V50.5H119.208V50.14H119.588C120.135 50.1267 120.462 49.88 120.568 49.4V39.1C120.568 38.5533 120.468 38.1667 120.268 37.94C120.055 37.74 119.815 37.6333 119.548 37.62H119.208V37.26H122.068L125.748 43.18L129.828 37.26H132.888V37.56H132.508C132.042 37.56 131.715 37.7267 131.528 38.06C131.408 38.2733 131.348 38.7533 131.348 39.5V51.34C131.348 52.1533 131.422 52.66 131.568 52.86C131.862 53.2733 132.282 53.44 132.828 53.36L132.888 53.56C131.968 53.88 131.195 53.7667 130.568 53.22C130.075 52.7133 129.828 52.0867 129.828 51.34V39.3L126.068 44.74H125.428ZM139.795 43.44L143.815 50.42C144.495 51.5933 144.995 52.3333 145.315 52.64C145.648 52.9467 146.068 53.12 146.575 53.16V53.58C145.002 53.58 143.955 53.3 143.435 52.74C142.928 52.1 142.542 51.5533 142.275 51.1L138.815 44.98L136.475 48.4C136.275 48.68 136.148 48.8867 136.095 49.02C136.042 49.14 136.015 49.2667 136.015 49.4C136.015 49.6133 136.088 49.7867 136.235 49.92C136.395 50.0533 136.688 50.1333 137.115 50.16V50.52H132.755V50.16C133.035 50.12 133.282 50.0533 133.495 49.96C133.842 49.7867 134.168 49.56 134.475 49.28C134.795 48.9867 135.155 48.5467 135.555 47.96L138.235 44L135.995 40.18C135.395 39.1533 134.882 38.48 134.455 38.16C134.028 37.8267 133.535 37.6533 132.975 37.64V37.26H138.235V37.64C137.795 37.6533 137.488 37.74 137.315 37.9C137.155 38.0467 137.075 38.2133 137.075 38.4C137.075 38.64 137.208 38.9867 137.475 39.44L139.215 42.48L141.255 39.5C141.495 39.1533 141.635 38.9133 141.675 38.78C141.728 38.6467 141.755 38.5133 141.755 38.38C141.755 38.2467 141.722 38.1267 141.655 38.02C141.575 37.8867 141.468 37.7933 141.335 37.74C141.202 37.6733 140.935 37.64 140.535 37.64V37.26H145.255V37.64C144.935 37.6533 144.682 37.7133 144.495 37.82C144.175 37.9667 143.868 38.1267 143.575 38.3C143.295 38.46 142.915 38.88 142.435 39.56L139.795 43.44ZM152.998 43.44L157.018 50.42C157.698 51.5933 158.198 52.3333 158.518 52.64C158.851 52.9467 159.271 53.12 159.778 53.16V53.58C158.205 53.58 157.158 53.3 156.638 52.74C156.131 52.1 155.745 51.5533 155.478 51.1L152.018 44.98L149.678 48.4C149.478 48.68 149.351 48.8867 149.298 49.02C149.245 49.14 149.218 49.2667 149.218 49.4C149.218 49.6133 149.291 49.7867 149.438 49.92C149.598 50.0533 149.891 50.1333 150.318 50.16V50.52H145.958V50.16C146.238 50.12 146.485 50.0533 146.698 49.96C147.045 49.7867 147.371 49.56 147.678 49.28C147.998 48.9867 148.358 48.5467 148.758 47.96L151.438 44L149.198 40.18C148.598 39.1533 148.085 38.48 147.658 38.16C147.231 37.8267 146.738 37.6533 146.178 37.64V37.26H151.438V37.64C150.998 37.6533 150.691 37.74 150.518 37.9C150.358 38.0467 150.278 38.2133 150.278 38.4C150.278 38.64 150.411 38.9867 150.678 39.44L152.418 42.48L154.458 39.5C154.698 39.1533 154.838 38.9133 154.878 38.78C154.931 38.6467 154.958 38.5133 154.958 38.38C154.958 38.2467 154.925 38.1267 154.858 38.02C154.778 37.8867 154.671 37.7933 154.538 37.74C154.405 37.6733 154.138 37.64 153.738 37.64V37.26H158.458V37.64C158.138 37.6533 157.885 37.7133 157.698 37.82C157.378 37.9667 157.071 38.1267 156.778 38.3C156.498 38.46 156.118 38.88 155.638 39.56L152.998 43.44ZM168.461 34.82C169.995 34.5133 170.901 34.6467 171.181 35.22C171.261 35.8867 171.068 36.7667 170.601 37.86L165.881 50.5H165.081L160.721 39.34C160.495 38.7667 160.335 38.42 160.241 38.3C160.095 38.0867 159.915 37.9267 159.701 37.82C159.488 37.7133 159.208 37.6467 158.861 37.62V37.26H163.641V37.62C163.095 37.6733 162.741 37.7733 162.581 37.92C162.421 38.0667 162.341 38.2533 162.341 38.48C162.341 38.8 162.475 39.3 162.741 39.98L165.701 47.56L168.461 40.06C169.288 37.7 169.701 36.3733 169.701 36.08C169.701 35.9067 169.615 35.7333 169.441 35.56C169.281 35.3867 169.008 35.26 168.621 35.18C168.581 35.18 168.528 35.1733 168.461 35.16V34.82Z" fill="black"/>
<defs>
<linearGradient id="paint0_linear_1909_716" x1="55.0015" y1="46.0275" x2="43.6105" y2="54.9867" gradientUnits="userSpaceOnUse">
<stop stop-color="#281F65"/>
<stop offset="1" stop-color="#1E74D0"/>
</linearGradient>
<linearGradient id="paint1_linear_1909_716" x1="54.6751" y1="36.0358" x2="43.6704" y2="47.0981" gradientUnits="userSpaceOnUse">
<stop stop-color="#281F65"/>
<stop offset="1" stop-color="#1E74D0"/>
</linearGradient>
<linearGradient id="paint2_linear_1909_716" x1="49.3997" y1="45.494" x2="56.8866" y2="41.2368" gradientUnits="userSpaceOnUse">
<stop stop-color="#281F65"/>
<stop offset="1" stop-color="#1E74D0"/>
</linearGradient>
<linearGradient id="paint3_linear_1909_716" x1="2.32031" y1="52.6053" x2="17.996" y2="52.6053" gradientUnits="userSpaceOnUse">
<stop stop-color="#281F65"/>
<stop offset="1" stop-color="#1E74D0"/>
</linearGradient>
<linearGradient id="paint4_linear_1909_716" x1="3.49414" y1="43.5978" x2="19.1392" y2="43.5978" gradientUnits="userSpaceOnUse">
<stop stop-color="#281F65"/>
<stop offset="1" stop-color="#1E74D0"/>
</linearGradient>
<linearGradient id="paint5_linear_1909_716" x1="7.50066" y1="47.5131" x2="5.67023" y2="39.2466" gradientUnits="userSpaceOnUse">
<stop stop-color="#281F65"/>
<stop offset="1" stop-color="#1E74D0"/>
</linearGradient>
<linearGradient id="paint6_linear_1909_716" x1="44.0891" y1="27.1453" x2="18.3878" y2="28.3773" gradientUnits="userSpaceOnUse">
<stop offset="0.46" stop-color="#BA2129"/>
<stop offset="0.53" stop-color="#B12128"/>
<stop offset="0.64" stop-color="#982127"/>
<stop offset="0.78" stop-color="#6F2025"/>
<stop offset="0.95" stop-color="#371F21"/>
<stop offset="1" stop-color="#241F20"/>
</linearGradient>
<linearGradient id="paint7_linear_1909_716" x1="14.2223" y1="15.5343" x2="18.2957" y2="20.0526" gradientUnits="userSpaceOnUse">
<stop offset="0.07" stop-color="#241F20"/>
<stop offset="0.29" stop-color="#431F22"/>
<stop offset="0.76" stop-color="#902026"/>
<stop offset="1" stop-color="#BA2129"/>
</linearGradient>
<linearGradient id="paint8_linear_1909_716" x1="32.724" y1="6.66151" x2="32.0619" y2="53.4379" gradientUnits="userSpaceOnUse">
<stop stop-color="#F9CC4C"/>
<stop offset="0.22" stop-color="#F2A13E"/>
<stop offset="0.45" stop-color="#EB7B31"/>
<stop offset="0.67" stop-color="#E76028"/>
<stop offset="0.86" stop-color="#E44F23"/>
<stop offset="1" stop-color="#E34921"/>
</linearGradient>
<linearGradient id="paint9_linear_1909_716" x1="25.4159" y1="4.06869" x2="24.6726" y2="56.5697" gradientUnits="userSpaceOnUse">
<stop offset="0.21" stop-color="#E34921"/>
<stop offset="0.32" stop-color="#EA722E"/>
<stop offset="0.44" stop-color="#F0993B"/>
<stop offset="0.55" stop-color="#F5B544"/>
<stop offset="0.64" stop-color="#F8C64A"/>
<stop offset="0.71" stop-color="#F9CC4C"/>
</linearGradient>
<linearGradient id="paint10_linear_1909_716" x1="16.2032" y1="29.1323" x2="48.0379" y2="40.3251" gradientUnits="userSpaceOnUse">
<stop offset="0.37" stop-color="#BA2129"/>
<stop offset="0.51" stop-color="#922027"/>
<stop offset="0.79" stop-color="#431F22"/>
<stop offset="0.93" stop-color="#241F20"/>
</linearGradient>
<linearGradient id="paint11_linear_1909_716" x1="14.0773" y1="20.3201" x2="23.7989" y2="31.6721" gradientUnits="userSpaceOnUse">
<stop offset="0.37" stop-color="#BA2129"/>
<stop offset="0.42" stop-color="#B42129"/>
<stop offset="0.5" stop-color="#A42128"/>
<stop offset="0.59" stop-color="#892026"/>
<stop offset="0.68" stop-color="#632024"/>
<stop offset="0.78" stop-color="#331F21"/>
<stop offset="0.8" stop-color="#241F20"/>
</linearGradient>
<linearGradient id="paint12_linear_1909_716" x1="34.7214" y1="8.25809" x2="46.6298" y2="22.1642" gradientUnits="userSpaceOnUse">
<stop offset="0.37" stop-color="#BA2129"/>
<stop offset="0.42" stop-color="#B42129"/>
<stop offset="0.5" stop-color="#A42128"/>
<stop offset="0.59" stop-color="#892026"/>
<stop offset="0.68" stop-color="#632024"/>
<stop offset="0.78" stop-color="#331F21"/>
<stop offset="0.8" stop-color="#241F20"/>
</linearGradient>
<linearGradient id="paint13_linear_1909_716" x1="34.7309" y1="45.9106" x2="40.5623" y2="52.7197" gradientUnits="userSpaceOnUse">
<stop offset="0.37" stop-color="#BA2129"/>
<stop offset="0.42" stop-color="#B42129"/>
<stop offset="0.5" stop-color="#A42128"/>
<stop offset="0.59" stop-color="#892026"/>
<stop offset="0.68" stop-color="#632024"/>
<stop offset="0.78" stop-color="#331F21"/>
<stop offset="0.8" stop-color="#241F20"/>
</linearGradient>
<linearGradient id="paint14_linear_1909_716" x1="23.0249" y1="11.3512" x2="27.0191" y2="38.6607" gradientUnits="userSpaceOnUse">
<stop stop-color="#E34921"/>
<stop offset="0.66" stop-color="#F19F3D"/>
<stop offset="1" stop-color="#F9CC4C"/>
</linearGradient>
<linearGradient id="paint15_linear_1909_716" x1="17.1574" y1="13.7017" x2="23.1214" y2="19.2802" gradientUnits="userSpaceOnUse">
<stop offset="0.07" stop-color="#241F20"/>
<stop offset="0.25" stop-color="#431F22"/>
<stop offset="0.64" stop-color="#902026"/>
<stop offset="0.83" stop-color="#BA2129"/>
</linearGradient>
<linearGradient id="paint16_linear_1909_716" x1="17.3139" y1="21.5681" x2="18.8784" y2="21.5681" gradientUnits="userSpaceOnUse">
<stop stop-color="#BA2129"/>
<stop offset="0.23" stop-color="#CD5433"/>
<stop offset="0.48" stop-color="#E0873E"/>
<stop offset="0.71" stop-color="#EDAD46"/>
<stop offset="0.89" stop-color="#F6C44A"/>
<stop offset="1" stop-color="#F9CC4C"/>
</linearGradient>
<linearGradient id="paint17_linear_1909_716" x1="31.0344" y1="36.9472" x2="30.7926" y2="54.0039" gradientUnits="userSpaceOnUse">
<stop offset="0.16" stop-color="#F9CC4C"/>
<stop offset="0.36" stop-color="#F3A640"/>
<stop offset="0.65" stop-color="#EA742F"/>
<stop offset="0.88" stop-color="#E55525"/>
<stop offset="1" stop-color="#E34921"/>
</linearGradient>
<linearGradient id="paint18_linear_1909_716" x1="36.5203" y1="11.0201" x2="37.3561" y2="38.6044" gradientUnits="userSpaceOnUse">
<stop stop-color="#F9CC4C"/>
<stop offset="0.3" stop-color="#F19B3C"/>
<stop offset="0.61" stop-color="#E96F2D"/>
<stop offset="0.86" stop-color="#E55324"/>
<stop offset="1" stop-color="#E34921"/>
</linearGradient>
<linearGradient id="paint19_linear_1909_716" x1="30.5088" y1="10.5388" x2="29.8115" y2="21.3048" gradientUnits="userSpaceOnUse">
<stop offset="0.16" stop-color="#F9CC4C"/>
<stop offset="0.31" stop-color="#F8C84B"/>
<stop offset="0.46" stop-color="#F6BC47"/>
<stop offset="0.6" stop-color="#F3A840"/>
<stop offset="0.75" stop-color="#EE8C37"/>
<stop offset="0.89" stop-color="#E8692B"/>
<stop offset="1" stop-color="#E34921"/>
</linearGradient>
<linearGradient id="paint20_linear_1909_716" x1="28.02" y1="10.2245" x2="26.6243" y2="31.7658" gradientUnits="userSpaceOnUse">
<stop offset="0.23" stop-color="#E34921"/>
<stop offset="0.36" stop-color="#E75E28"/>
<stop offset="0.61" stop-color="#F0953A"/>
<stop offset="0.84" stop-color="#F9CC4C"/>
</linearGradient>
<linearGradient id="paint21_linear_1909_716" x1="31.6371" y1="20.5936" x2="53.5807" y2="28.3087" gradientUnits="userSpaceOnUse">
<stop offset="0.37" stop-color="#BA2129"/>
<stop offset="0.51" stop-color="#922027"/>
<stop offset="0.79" stop-color="#431F22"/>
<stop offset="0.93" stop-color="#241F20"/>
</linearGradient>
<linearGradient id="paint22_linear_1909_716" x1="33.8283" y1="14.3192" x2="33.428" y2="42.5962" gradientUnits="userSpaceOnUse">
<stop stop-color="#F9CC4C"/>
<stop offset="0.23" stop-color="#F19F3D"/>
<stop offset="0.46" stop-color="#EB7A31"/>
<stop offset="0.67" stop-color="#E75F28"/>
<stop offset="0.86" stop-color="#E44F23"/>
<stop offset="1" stop-color="#E34921"/>
</linearGradient>
</defs>
</svg>
