<svg width="216" height="218" viewBox="0 0 216 218" fill="none" xmlns="http://www.w3.org/2000/svg">
<circle cx="108" cy="108" r="108" fill="url(#paint0_linear_1001_1930)"/>
<g filter="url(#filter0_d_1001_1930)">
<ellipse cx="108.189" cy="51.1945" rx="7.81786" ry="11.0963" fill="#D7B9FF"/>
<g filter="url(#filter1_i_1001_1930)">
<ellipse cx="108.189" cy="51.1943" rx="5.54816" ry="7.81786" fill="#6F07F7"/>
</g>
<g filter="url(#filter2_d_1001_1930)">
<path d="M108.19 176.028C142.661 176.028 170.606 148.083 170.606 113.611C170.606 79.1395 142.661 51.1946 108.19 51.1946C73.7177 51.1946 45.7727 79.1395 45.7727 113.611C45.7727 148.083 73.7177 176.028 108.19 176.028Z" fill="url(#paint1_linear_1001_1930)"/>
</g>
<g filter="url(#filter3_i_1001_1930)">
<path d="M108.189 163.293C135.628 163.293 157.871 141.05 157.871 113.611C157.871 86.1732 135.628 63.9302 108.189 63.9302C80.7511 63.9302 58.5081 86.1732 58.5081 113.611C58.5081 141.05 80.7511 163.293 108.189 163.293Z" fill="#6F07F7"/>
</g>
<g filter="url(#filter4_d_1001_1930)">
<path d="M108.631 149.296C128.304 149.296 144.252 133.32 144.252 113.612C144.252 93.9034 128.304 77.9268 108.631 77.9268C88.9574 77.9268 73.009 93.9034 73.009 113.612C73.009 133.32 88.9574 149.296 108.631 149.296Z" fill="url(#paint2_linear_1001_1930)"/>
</g>
<g filter="url(#filter5_d_1001_1930)">
<path d="M144.468 73.9253C132.513 82.1571 120.647 90.4409 108.694 98.6719L115.181 102.404C124.943 92.911 134.705 83.4181 144.468 73.9253Z" fill="#955FDB"/>
</g>
<g filter="url(#filter6_d_1001_1930)">
<path d="M74.9107 73.3213C82.8008 85.5049 90.7454 97.601 98.6347 109.782L102.549 103.403C93.336 93.3764 84.1234 83.3491 74.9107 73.3213Z" fill="#955FDB"/>
</g>
<g filter="url(#filter7_d_1001_1930)">
<path d="M74.9392 73.3042C84.1509 83.332 93.3635 93.3594 102.577 103.386L108.915 100.442C97.5905 91.3973 86.2652 82.3514 74.9392 73.3042Z" fill="#C5A6EE"/>
</g>
<path d="M108.386 46.0247C105.383 64.168 102.375 82.3096 99.363 100.45L108.273 109.858L116.957 100.45C114.1 82.3096 111.243 64.168 108.386 46.0247Z" fill="#4D00B3"/>
<path d="M108.473 46.0247C105.465 64.168 102.457 82.3096 99.45 100.45L108.638 97.7903C108.583 80.5355 108.528 63.2803 108.473 46.0247Z" fill="#A268EE"/>
<g filter="url(#filter8_d_1001_1930)">
<path d="M144.486 73.9531C134.723 83.445 124.961 92.9379 115.198 102.432L118.321 108.684C127.042 97.1076 135.763 85.5307 144.486 73.9531Z" fill="#C5A6EE"/>
</g>
<path d="M108.473 46.0247C108.526 63.2794 108.582 80.5346 108.638 97.7903L117.043 100.45C114.186 82.3096 111.329 64.168 108.473 46.0247Z" fill="#DABDFF"/>
<path d="M108.386 46.0247C105.383 64.168 102.375 82.3096 99.363 100.45L108.273 109.858L116.957 100.45C114.1 82.3096 111.243 64.168 108.386 46.0247Z" fill="#59259E"/>
<g filter="url(#filter9_d_1001_1930)">
<path d="M108.4 45.5203C105.345 63.8477 102.291 82.1734 99.2371 100.497L108.568 97.8112C108.512 80.3813 108.456 62.951 108.4 45.5203Z" fill="#A268EE"/>
</g>
<path d="M141.865 145.201C133.975 133.017 126.031 120.921 118.141 108.74L114.227 115.119C123.44 125.146 132.653 135.173 141.865 145.201Z" fill="#955FDB"/>
<g filter="url(#filter10_d_1001_1930)">
<path d="M141.837 145.218C132.625 135.19 123.413 125.163 114.199 115.136L107.861 118.08C119.186 127.125 130.511 136.171 141.837 145.218Z" fill="#C5A6EE"/>
</g>
<g filter="url(#filter11_d_1001_1930)">
<path d="M74.6922 144.22C82.5823 132.036 90.5269 119.94 98.4162 107.759L102.33 114.137C93.1175 124.164 83.9049 134.192 74.6922 144.22Z" fill="#955FDB"/>
</g>
<g filter="url(#filter12_d_1001_1930)">
<path d="M74.7209 144.237C83.9326 134.209 93.1453 124.181 102.359 114.154L108.697 117.099C97.3723 126.143 86.0469 135.189 74.7209 144.237Z" fill="#C5A6EE"/>
</g>
<g filter="url(#filter13_d_1001_1930)">
<path d="M108.442 45.5203C108.496 62.9501 108.552 80.3805 108.609 97.8112L117.142 100.497C114.242 82.1735 111.341 63.8477 108.442 45.5203Z" fill="#DABDFF"/>
</g>
<path d="M171.266 109.395C153.123 106.391 134.981 103.384 116.841 100.372L107.433 109.281L116.841 117.966C134.981 115.108 153.123 112.251 171.266 109.395Z" fill="#6C34B5"/>
<g filter="url(#filter14_d_1001_1930)">
<path d="M171.77 109.409C153.443 106.353 135.151 103.425 116.827 100.372L119.479 109.576C136.909 109.52 154.34 109.464 171.77 109.409Z" fill="#A268EE"/>
</g>
<g filter="url(#filter15_d_1001_1930)">
<path d="M171.77 109.45C154.34 109.505 136.91 109.561 119.479 109.618L116.793 118.151C135.117 115.25 153.443 112.35 171.77 109.45Z" fill="#DABDFF"/>
</g>
<path d="M44.8899 108.875C63.0332 111.879 81.1749 114.887 99.3148 117.899L108.723 108.989L99.3148 100.305C81.1749 103.162 63.0332 106.019 44.8899 108.875Z" fill="#6C34B5"/>
<g filter="url(#filter16_d_1001_1930)">
<path d="M44.3853 108.862C62.7127 111.917 81.0044 114.845 99.3284 117.899L96.6762 108.694C79.2463 108.75 61.816 108.806 44.3853 108.862Z" fill="#A268EE"/>
</g>
<path d="M107.867 172.274C110.87 154.131 113.878 135.989 116.89 117.849L108.189 108.442L99.2959 117.849C102.153 135.989 105.01 154.131 107.867 172.274Z" fill="#59259E"/>
<g filter="url(#filter17_d_1001_1930)">
<path d="M107.853 172.779C110.908 154.451 113.836 136.16 116.89 117.836L107.685 120.488C107.741 137.918 107.797 155.348 107.853 172.779Z" fill="#A268EE"/>
</g>
<g filter="url(#filter18_d_1001_1930)">
<path d="M107.811 172.779C107.757 155.349 107.701 137.919 107.644 120.488L99.1108 117.802C102.011 136.126 104.912 154.451 107.811 172.779Z" fill="#DABDFF"/>
</g>
<g filter="url(#filter19_d_1001_1930)">
<path d="M44.3853 108.82C61.8151 108.765 79.2454 108.709 96.6762 108.652L99.3625 100.119C81.0384 103.02 62.7127 105.92 44.3853 108.82Z" fill="#DABDFF"/>
</g>
</g>
<g filter="url(#filter20_d_1001_1930)">
<g filter="url(#filter21_d_1001_1930)">
<path d="M205.03 180.65C204.635 180.478 200.056 178.397 199.183 173.533C198.527 169.868 200.231 166.107 203.548 163.923C201.93 164.237 199.262 164.783 195.994 165.568C182.511 168.815 175.141 170.687 170.802 176.577C169.958 177.729 168.716 179.719 167.958 182.748L178.896 181.177C178.843 182.853 178.839 184.6 178.896 186.414C179.044 191.059 179.582 195.683 180.504 200.238L199.556 196.171C198.897 195.563 196.517 193.219 196.511 189.848C196.507 185.794 199.932 181.887 205.03 180.65Z" fill="#DABDFF"/>
</g>
<g filter="url(#filter22_d_1001_1930)">
<path d="M10.9705 180.65C11.3655 180.478 15.945 178.397 16.8169 173.533C17.474 169.868 15.769 166.107 12.4522 163.923C14.0703 164.237 16.7341 164.783 20.0058 165.568C33.4896 168.815 40.866 170.687 45.1992 176.577C46.0438 177.729 47.2857 179.719 48.0423 182.748L37.1049 181.177C37.1584 182.853 37.1626 184.6 37.1049 186.414C36.956 191.059 36.4183 195.683 35.4974 200.238L16.4449 196.171C17.103 195.563 19.4839 193.219 19.4891 189.848C19.4965 185.794 16.0676 181.887 10.9705 180.65Z" fill="#DABDFF"/>
</g>
<g filter="url(#filter23_d_1001_1930)">
<path d="M179.833 180.109C179.833 180.109 182.032 180.303 182.032 181.817C182.025 189.849 181.984 198.039 182.08 206.227C182.102 208.038 181.008 208.441 179.681 208.69C170.836 210.351 162.042 212.443 153.116 213.497C127.174 216.559 101.14 216.589 75.0817 214.789C60.4512 213.776 43.9502 211.186 35.165 208.336C34.8076 208.227 34.4943 208.006 34.2705 207.708C34.0467 207.409 33.9238 207.047 33.9197 206.674V181.831C34.4975 181.086 35.2538 180.497 36.1191 180.12C38.04 179.307 40.0006 179.863 40.4279 179.972C44.7514 181.061 88.5622 185.798 111.028 185.151C127.103 184.689 173.435 180.285 176.913 179.808C177.254 179.761 178.506 179.571 179.833 180.109Z" fill="#DABDFF"/>
</g>
<path d="M74.073 206.832C72.6405 207.928 70.6684 208.358 68.1718 208.093C66.4216 207.909 64.7672 207.038 63.2326 205.484C61.804 204.028 61.2832 201.863 61.6464 199C61.954 196.582 62.93 194.697 64.5503 193.341C66.1706 191.986 67.9776 191.419 69.9989 191.633C71.5183 191.79 72.6885 192.263 73.5144 193.051C74.2457 193.818 74.5786 194.593 74.5067 195.38C74.4837 195.772 74.3208 196.142 74.0478 196.424C73.7086 196.699 73.2206 196.802 72.5838 196.746C71.947 196.689 71.5536 196.26 71.449 195.485C71.5212 194.781 71.7734 194.388 72.2055 194.306C72.2198 194.015 71.9819 193.698 71.4918 193.356C70.8802 192.859 70.1337 192.555 69.3482 192.485C68.3559 192.379 67.3307 192.76 66.245 193.62C64.9513 194.816 64.1657 196.446 63.9161 198.525C63.5807 201.307 63.9816 203.391 65.1417 204.787C66.3245 206.22 67.7897 207.031 69.5235 207.209C71.1526 207.375 72.5813 207.135 73.7956 206.494C73.8927 206.606 73.9797 206.72 74.073 206.832Z" fill="#5101BA"/>
<path d="M83.3207 192.435C84.6056 192.523 85.9183 193.23 87.2788 194.558C88.5083 196.226 89.0971 197.836 89.0164 199.403C88.9481 201.094 88.3895 202.73 87.4087 204.11C86.6875 205.154 85.4379 205.91 83.6612 206.365C83.1124 206.482 82.551 206.529 81.9904 206.504C79.2744 206.315 77.3842 204.676 76.3616 201.624C76.1482 200.66 76.0882 199.668 76.1838 198.685C76.3654 196.582 77.2972 194.927 78.944 193.695C79.5088 193.397 80.1372 193.238 80.7762 193.233C81.5668 192.639 82.4129 192.373 83.3207 192.435ZM81.2604 194.124C81.2738 194.695 81.547 195.118 82.08 195.394C82.4288 195.252 82.6949 195.187 82.8781 195.2C83.201 195.222 83.3834 195.449 83.4254 195.883C83.3783 196.158 83.0328 196.343 82.3889 196.437C81.4146 196.365 80.8888 195.611 80.8115 194.175C80.3659 194.281 79.9393 194.596 79.5316 195.12C78.8415 196.377 78.432 197.769 78.3312 199.199C78.1408 201.562 78.6489 203.456 79.8809 204.874C80.5223 205.423 81.1986 205.722 81.9097 205.77C83.2716 205.865 84.4102 205.374 85.3143 204.304C86.1807 202.994 86.6802 201.476 86.7606 199.908C86.8567 198.336 86.5612 196.765 85.9006 195.335C85.1655 194.165 84.1807 193.54 82.9349 193.453C81.9413 193.383 81.3827 193.605 81.2604 194.124Z" fill="#5101BA"/>
<path d="M103.536 191.204V191.582H103.056C102.708 191.577 102.398 191.802 102.126 192.256C101.855 192.625 101.714 193.109 101.704 193.704L101.578 201.396C101.554 202.769 101.327 203.862 100.895 204.675C100.46 205.483 99.7958 206.144 98.9855 206.574C98.1469 207.031 97.0713 207.243 95.7637 207.204C94.5028 207.136 93.5785 206.878 93.001 206.439C92.2796 206.014 91.7364 205.342 91.4715 204.547C91.2061 203.808 91.0779 203.026 91.0932 202.24C91.2042 199.779 91.3155 197.32 91.4273 194.861C91.4198 194.403 91.3076 194.086 91.0907 193.909C90.8772 193.735 90.6205 193.622 90.348 193.582L89.8638 193.556L89.8827 193.177C91.6177 193.261 93.3528 193.335 95.0879 193.399C95.0879 193.525 95.079 193.652 95.074 193.778L94.5911 193.76C94.0728 193.741 93.697 193.837 93.465 194.05C93.2898 194.312 93.1899 194.618 93.1763 194.933L92.9039 201.664C92.8316 203.424 93.1952 204.639 93.9946 205.309C94.5948 205.913 95.2291 206.227 95.8974 206.248C97.1155 206.288 98.1394 205.928 98.9691 205.168C99.5215 204.159 99.814 203.028 99.8202 201.878C99.8807 199.111 99.9404 196.345 99.9993 193.578C100.026 192.387 100.618 191.499 101.765 190.908C102.587 190.922 103.177 191.019 103.536 191.204Z" fill="#5101BA"/>
<path d="M103.777 193.599C105.038 193.612 106.299 193.62 107.56 193.621C110.082 196.854 112.676 200.06 115.34 203.239C115.276 200.084 115.212 196.929 115.146 193.774C115.184 192.886 115.562 192.226 116.281 191.793C116.942 191.444 117.802 191.347 118.866 191.493L118.877 191.871L118.397 191.886C117.811 191.903 117.398 192.088 117.156 192.441C117.008 192.693 116.944 193.188 116.963 193.924L117.31 207.506L116.939 207.515C113.745 203.9 110.641 200.243 107.627 196.544V205.012C107.627 205.858 107.729 206.385 107.932 206.593C108.194 206.884 108.607 207.029 109.173 207.028H109.677C109.677 207.154 109.677 207.28 109.677 207.406C107.729 207.416 105.781 207.411 103.834 207.39V206.974H104.339C104.949 206.98 105.385 206.866 105.647 206.631C105.837 206.395 105.935 205.807 105.94 204.865C105.955 201.675 105.971 198.485 105.987 195.295C105.893 195.006 105.742 194.739 105.543 194.509C105.306 194.278 105.006 194.122 104.68 194.06C104.384 193.992 104.081 193.961 103.777 193.968V193.599Z" fill="#5101BA"/>
<path d="M133.031 207.498C131.79 208.804 129.909 209.538 127.407 209.669C125.65 209.761 123.876 209.165 122.126 207.867C120.487 206.653 119.636 204.596 119.545 201.713C119.468 199.273 120.135 197.262 121.52 195.669C122.904 194.076 124.598 193.233 126.625 193.126C128.148 193.051 129.374 193.326 130.32 193.976C131.162 194.619 131.613 195.331 131.665 196.119C131.704 196.51 131.601 196.901 131.375 197.222C131.083 197.546 130.621 197.728 129.988 197.768C129.335 197.809 128.895 197.453 128.668 196.7C128.628 195.994 128.815 195.566 129.229 195.417C129.197 195.127 128.912 194.853 128.377 194.592C127.697 194.198 126.916 194.015 126.132 194.068C125.136 194.118 124.179 194.655 123.25 195.682C122.151 197.061 121.633 198.794 121.712 200.887C121.817 203.686 122.542 205.687 123.904 206.877C125.291 208.108 126.868 208.679 128.606 208.582C130.24 208.492 131.608 208.033 132.709 207.205L133.031 207.498Z" fill="#5101BA"/>
<path d="M140.786 205.555L140.82 205.933C138.769 206.116 136.716 206.281 134.663 206.429L134.636 206.051L135.141 206.014C135.734 205.971 136.157 205.771 136.401 205.418C136.558 205.183 136.604 204.658 136.54 203.843C136.311 200.884 136.08 197.924 135.849 194.964C135.796 194.273 135.71 193.821 135.597 193.606C135.5 193.421 135.339 193.277 135.143 193.203C134.843 193.061 134.512 193 134.181 193.025L133.698 193.06L133.672 192.682C135.649 192.538 137.624 192.379 139.598 192.204C139.609 192.33 139.619 192.456 139.631 192.582L139.126 192.627C138.553 192.677 138.155 192.879 137.931 193.231C137.769 193.466 137.721 193.992 137.787 194.808C138.034 197.766 138.281 200.724 138.526 203.682C138.584 204.373 138.673 204.825 138.792 205.038C138.901 205.219 139.066 205.359 139.263 205.436C139.576 205.576 139.92 205.633 140.261 205.602L140.786 205.555Z" fill="#5101BA"/>
<path d="M151.916 200.563L152.688 200.469C153.307 201.791 153.931 203.11 154.56 204.429C150.681 204.925 146.796 205.361 142.907 205.736C142.894 205.61 142.883 205.484 142.871 205.364L143.392 205.314C143.985 205.257 144.387 205.029 144.595 204.632C144.717 204.397 144.739 203.886 144.661 203.1C144.367 200.152 144.072 197.205 143.778 194.259C143.694 193.404 143.549 192.875 143.343 192.672C143.063 192.407 142.665 192.3 142.148 192.35L141.643 192.398C141.632 192.272 141.621 192.146 141.608 192.02C143.639 191.828 145.668 191.618 147.696 191.389L147.737 191.767L147.194 191.828C146.831 191.868 146.39 192.041 145.873 192.347C145.668 192.69 145.602 193.199 145.673 193.874C145.989 196.882 146.306 199.89 146.624 202.897C146.684 203.462 146.782 203.841 146.919 204.031C147.024 204.163 147.168 204.258 147.33 204.303C147.504 204.353 148.038 204.332 148.934 204.232L149.952 204.117C151.019 203.995 151.757 203.832 152.165 203.628C152.572 203.424 152.751 203.114 152.702 202.7C152.649 202.28 152.387 201.568 151.916 200.563Z" fill="#5101BA"/>
</g>
<g filter="url(#filter24_d_1001_1930)">
<g filter="url(#filter25_d_1001_1930)">
<path d="M205.03 35.3507C204.635 35.5224 200.056 37.6034 199.183 42.4671C198.527 46.1327 200.231 49.8935 203.548 52.0771C201.93 51.763 199.262 51.2173 195.994 50.4318C182.511 47.1852 175.141 45.3137 170.802 39.4236C169.958 38.2716 168.716 36.2817 167.958 33.2519L178.896 34.8228C178.843 33.1471 178.839 31.4002 178.896 29.5863C179.044 24.9413 179.582 20.317 180.504 15.7619L199.556 19.8296C198.897 20.4371 196.517 22.7809 196.511 26.1522C196.507 30.2063 199.932 34.1128 205.03 35.3507Z" fill="#DABDFF"/>
</g>
<g filter="url(#filter26_d_1001_1930)">
<path d="M10.9705 35.3507C11.3655 35.5224 15.945 37.6034 16.8169 42.4671C17.474 46.1327 15.769 49.8935 12.4522 52.0771C14.0703 51.763 16.7341 51.2173 20.0058 50.4318C33.4896 47.1852 40.866 45.3137 45.1992 39.4236C46.0438 38.2716 47.2857 36.2817 48.0423 33.2519L37.1049 34.8228C37.1584 33.1471 37.1626 31.4002 37.1049 29.5863C36.956 24.9414 36.4183 20.3171 35.4974 15.7619L16.4449 19.8296C17.103 20.4371 19.4839 22.7809 19.4891 26.1522C19.4965 30.2063 16.0676 34.1128 10.9705 35.3507Z" fill="#DABDFF"/>
</g>
<g filter="url(#filter27_d_1001_1930)">
<path d="M179.833 35.8907C179.833 35.8907 182.032 35.6974 182.032 34.183C182.025 26.1512 181.984 17.9616 182.08 9.77301C182.102 7.9618 181.008 7.55943 179.681 7.31069C170.836 5.64894 162.042 3.55764 153.116 2.5031C127.174 -0.55912 101.14 -0.588383 75.0817 1.21133C60.4512 2.22405 43.9502 4.81388 35.165 7.66394C34.8076 7.7736 34.4943 7.99376 34.2705 8.29263C34.0467 8.59151 33.9238 8.95364 33.9197 9.32674V34.1694C34.4975 34.9147 35.2538 35.5031 36.1191 35.8803C38.04 36.6934 40.0006 36.1374 40.4279 36.0287C44.7514 34.9397 88.5622 30.2021 111.028 30.8491C127.103 31.311 173.435 35.7152 176.913 36.1917C177.254 36.2388 178.506 36.429 179.833 35.8907Z" fill="#DABDFF"/>
</g>
<path d="M97.0616 14.1228C98.2974 14.3611 99.1737 14.6965 99.697 15.1139C100.051 15.3726 100.342 15.7086 100.548 16.0963C100.753 16.4841 100.867 16.9135 100.882 17.352C100.901 18.0618 100.69 18.7585 100.28 19.338C99.8375 19.9914 99.2143 20.5015 98.4865 20.8058C97.7299 21.1488 96.5472 21.3694 94.9559 21.5018C92.7139 21.6868 90.4753 21.9209 88.2401 22.2042C88.2249 22.0781 88.2085 21.952 88.1934 21.8259L88.723 21.7603C89.3169 21.6872 89.7192 21.4602 89.9348 21.0718C90.0718 20.8104 90.0979 20.3014 90.013 19.5448C89.6767 16.5959 89.3434 13.6465 89.013 10.6968C88.9189 9.85615 88.7507 9.33075 88.5086 9.12059C88.1846 8.8684 87.7231 8.77131 87.1216 8.84445L86.5479 8.91632C86.5327 8.79023 86.5164 8.66413 86.5012 8.54434C87.9656 8.36024 89.4312 8.19212 90.8981 8.03996C90.9284 8.33755 90.9574 8.63387 90.9877 8.93019C92.1225 8.2455 93.5524 7.82812 95.261 7.70077C96.8372 7.58602 98.0565 8.01601 98.9026 8.97054C99.2001 9.23575 99.4414 9.5578 99.6125 9.91771C99.7836 10.2776 99.8809 10.6681 99.8988 11.0662C99.9311 11.7434 99.7164 12.4092 99.2948 12.94C98.8648 13.5112 98.1171 13.9021 97.0616 14.1228ZM91.6068 14.8302C92.3771 14.4004 93.2289 14.1366 94.1072 14.0559C95.3682 13.95 96.2609 13.5679 96.8006 12.8921C97.3403 12.2162 97.5748 11.6248 97.5433 11.1129C97.4929 10.3097 97.0881 9.64641 96.3164 9.12942C95.5498 8.68178 94.8298 8.48634 94.1514 8.54056C92.8791 8.64396 91.8602 9.07898 91.1049 9.81916C91.2731 11.4895 91.4403 13.1598 91.6068 14.8302ZM92.1994 20.7566C93.0069 20.855 93.8224 20.8706 94.6331 20.8033C95.9117 20.6961 96.8649 20.3556 97.5005 19.763C98.136 19.1703 98.4361 18.4718 98.3831 17.6547C98.3364 17.0474 98.1942 16.4512 97.962 15.8881C97.7098 15.2442 97.2958 14.8369 96.7199 14.6662C96.1298 14.4847 95.2635 14.4355 94.1262 14.5313C93.2501 14.5988 92.4034 14.8774 91.6585 15.3434L92.1994 20.7566Z" fill="#5101BA"/>
<path d="M106.539 14.5174C106.56 16.909 106.581 19.3014 106.602 21.6947C106.611 22.5546 106.713 23.088 106.91 23.2948C107.177 23.5974 107.568 23.7488 108.084 23.7488H108.627C108.627 23.8749 108.627 24.0009 108.627 24.127C106.654 24.1195 104.681 24.1493 102.707 24.2166C102.707 24.0905 102.698 23.9644 102.695 23.8383L103.217 23.8206C103.802 23.803 104.214 23.5987 104.457 23.2053C104.591 22.9935 104.651 22.5004 104.635 21.7237C104.551 17.7029 104.464 13.6814 104.375 9.65895C104.358 8.79899 104.247 8.26056 104.042 8.04368C103.744 7.75871 103.301 7.62379 102.716 7.6427L102.143 7.66288C102.143 7.53678 102.135 7.41069 102.131 7.28459C104 7.21986 105.872 7.1875 107.746 7.1875C109.118 7.1875 110.197 7.32873 110.978 7.59857C111.735 7.85425 112.409 8.31258 112.925 8.92382C113.438 9.52703 113.7 10.3054 113.653 11.0964C113.616 12.2199 113.183 13.1139 112.371 13.8049C111.559 14.4959 110.446 14.8213 109.017 14.8137C108.632 14.8104 108.248 14.7852 107.867 14.738C107.455 14.6842 107.012 14.6107 106.539 14.5174ZM106.539 13.9348C106.924 14.0004 107.265 14.0508 107.562 14.0849C107.819 14.1167 108.079 14.134 108.338 14.1366C108.7 14.1392 109.058 14.0691 109.391 13.9304C109.725 13.7918 110.027 13.5874 110.28 13.3296C110.838 12.7899 111.129 12.0926 111.145 11.2326C111.161 10.6536 111.034 10.0796 110.777 9.5606C110.534 9.05919 110.136 8.64934 109.642 8.3917C109.12 8.12387 108.54 7.98875 107.954 7.99829C107.457 8.01611 106.964 8.08841 106.482 8.21391C106.5 10.1205 106.517 12.0274 106.534 13.9348H106.539Z" fill="#5101BA"/>
<path d="M119.084 13.9475C121.078 14.0812 123.069 14.2493 125.057 14.4519C125.194 13.1481 125.329 11.8451 125.463 10.5429C125.538 9.83933 125.547 9.37404 125.494 9.14455C125.425 8.94342 125.286 8.77353 125.103 8.66539C124.856 8.47777 124.562 8.36212 124.253 8.33124L123.77 8.28585C123.781 8.15975 123.793 8.03366 123.805 7.91387C125.703 8.08956 127.598 8.29677 129.492 8.53551C129.477 8.66161 129.461 8.7877 129.446 8.90749L128.964 8.84697C128.658 8.8099 128.348 8.85337 128.065 8.97306C127.958 9.00954 127.859 9.06814 127.776 9.14504C127.694 9.22194 127.628 9.31543 127.583 9.41944C127.489 9.63127 127.403 10.0764 127.331 10.751L126.881 14.6599C127.398 14.7188 127.915 14.7806 128.432 14.8453C128.4 15.0975 128.367 15.3497 128.336 15.6094C127.821 15.5455 127.307 15.4837 126.792 15.4241C126.634 16.8103 126.474 18.1973 126.315 19.5852C126.288 19.7567 126.26 19.9282 126.234 20.0996C126.192 20.3866 126.203 20.6788 126.264 20.9621C126.313 21.1506 126.422 21.3177 126.576 21.4375C126.801 21.6212 127.074 21.7387 127.362 21.7767L127.809 21.8322C127.792 21.9583 127.777 22.0844 127.761 22.2105C126.02 21.9911 124.276 21.8002 122.53 21.638L122.565 21.2597L123.011 21.3026C123.506 21.3492 123.885 21.2206 124.146 20.913C124.324 20.7074 124.456 20.1993 124.542 19.3847L124.973 15.2236C122.993 15.0185 121.011 14.8503 119.028 14.7192C118.933 16.1104 118.84 17.5013 118.746 18.8917C118.714 19.5852 118.733 20.045 118.804 20.2711C118.875 20.4564 118.997 20.6173 119.157 20.7339C119.392 20.9147 119.675 21.0226 119.971 21.0441L120.417 21.0781C120.407 21.2042 120.397 21.3303 120.388 21.4564C118.64 21.3177 116.892 21.2089 115.141 21.1298C115.141 21.0037 115.153 20.8776 115.158 20.7516L115.584 20.7705C116.095 20.7957 116.473 20.6486 116.719 20.3291C116.887 20.1173 116.995 19.6024 117.043 18.7845C117.121 17.3924 117.2 16.0007 117.279 14.6095C116.689 14.5754 116.097 14.5464 115.513 14.5187C115.525 14.2665 115.537 14.0055 115.549 13.7495C116.142 13.7773 116.735 13.8075 117.328 13.8403L117.551 9.91499C117.591 9.20886 117.563 8.74189 117.469 8.51408C117.409 8.32024 117.277 8.15657 117.101 8.05635C116.84 7.87828 116.534 7.77614 116.218 7.76129L115.757 7.73986C115.757 7.61376 115.768 7.48767 115.774 7.36157C117.677 7.44564 119.578 7.56332 121.479 7.71464C121.469 7.84073 121.459 7.96683 121.45 8.09292L120.966 8.05635C120.651 8.02825 120.335 8.08348 120.049 8.21649C119.843 8.31059 119.679 8.47712 119.589 8.6843C119.49 8.90035 119.41 9.34672 119.349 10.0234C119.26 11.3272 119.172 12.6353 119.084 13.9475Z" fill="#5101BA"/>
</g>
<defs>
<filter id="filter0_d_1001_1930" x="44.3853" y="40.0981" width="131.294" height="139.839" filterUnits="userSpaceOnUse" color-interpolation-filters="sRGB">
<feFlood flood-opacity="0" result="BackgroundImageFix"/>
<feColorMatrix in="SourceAlpha" type="matrix" values="0 0 0 0 0 0 0 0 0 0 0 0 0 0 0 0 0 0 127 0" result="hardAlpha"/>
<feOffset dx="3.40455" dy="3.40455"/>
<feGaussianBlur stdDeviation="0.252189"/>
<feComposite in2="hardAlpha" operator="out"/>
<feColorMatrix type="matrix" values="0 0 0 0 0 0 0 0 0 0 0 0 0 0 0 0 0 0 0.25 0"/>
<feBlend mode="normal" in2="BackgroundImageFix" result="effect1_dropShadow_1001_1930"/>
<feBlend mode="normal" in="SourceGraphic" in2="effect1_dropShadow_1001_1930" result="shape"/>
</filter>
<filter id="filter1_i_1001_1930" x="102.641" y="43.3765" width="11.0963" height="16.1401" filterUnits="userSpaceOnUse" color-interpolation-filters="sRGB">
<feFlood flood-opacity="0" result="BackgroundImageFix"/>
<feBlend mode="normal" in="SourceGraphic" in2="BackgroundImageFix" result="shape"/>
<feColorMatrix in="SourceAlpha" type="matrix" values="0 0 0 0 0 0 0 0 0 0 0 0 0 0 0 0 0 0 127 0" result="hardAlpha"/>
<feOffset dy="0.504378"/>
<feGaussianBlur stdDeviation="0.252189"/>
<feComposite in2="hardAlpha" operator="arithmetic" k2="-1" k3="1"/>
<feColorMatrix type="matrix" values="0 0 0 0 0 0 0 0 0 0 0 0 0 0 0 0 0 0 0.25 0"/>
<feBlend mode="normal" in2="shape" result="effect1_innerShadow_1001_1930"/>
</filter>
<filter id="filter2_d_1001_1930" x="45.2683" y="51.1946" width="125.842" height="125.842" filterUnits="userSpaceOnUse" color-interpolation-filters="sRGB">
<feFlood flood-opacity="0" result="BackgroundImageFix"/>
<feColorMatrix in="SourceAlpha" type="matrix" values="0 0 0 0 0 0 0 0 0 0 0 0 0 0 0 0 0 0 127 0" result="hardAlpha"/>
<feOffset dy="0.504378"/>
<feGaussianBlur stdDeviation="0.252189"/>
<feComposite in2="hardAlpha" operator="out"/>
<feColorMatrix type="matrix" values="0 0 0 0 0 0 0 0 0 0 0 0 0 0 0 0 0 0 0.25 0"/>
<feBlend mode="normal" in2="BackgroundImageFix" result="effect1_dropShadow_1001_1930"/>
<feBlend mode="normal" in="SourceGraphic" in2="effect1_dropShadow_1001_1930" result="shape"/>
</filter>
<filter id="filter3_i_1001_1930" x="58.5081" y="63.9302" width="99.3625" height="99.8669" filterUnits="userSpaceOnUse" color-interpolation-filters="sRGB">
<feFlood flood-opacity="0" result="BackgroundImageFix"/>
<feBlend mode="normal" in="SourceGraphic" in2="BackgroundImageFix" result="shape"/>
<feColorMatrix in="SourceAlpha" type="matrix" values="0 0 0 0 0 0 0 0 0 0 0 0 0 0 0 0 0 0 127 0" result="hardAlpha"/>
<feOffset dy="0.504378"/>
<feGaussianBlur stdDeviation="0.252189"/>
<feComposite in2="hardAlpha" operator="arithmetic" k2="-1" k3="1"/>
<feColorMatrix type="matrix" values="0 0 0 0 0 0 0 0 0 0 0 0 0 0 0 0 0 0 0.25 0"/>
<feBlend mode="normal" in2="shape" result="effect1_innerShadow_1001_1930"/>
</filter>
<filter id="filter4_d_1001_1930" x="72.5047" y="77.9268" width="72.2522" height="72.3784" filterUnits="userSpaceOnUse" color-interpolation-filters="sRGB">
<feFlood flood-opacity="0" result="BackgroundImageFix"/>
<feColorMatrix in="SourceAlpha" type="matrix" values="0 0 0 0 0 0 0 0 0 0 0 0 0 0 0 0 0 0 127 0" result="hardAlpha"/>
<feOffset dy="0.504378"/>
<feGaussianBlur stdDeviation="0.252189"/>
<feComposite in2="hardAlpha" operator="out"/>
<feColorMatrix type="matrix" values="0 0 0 0 0 0 0 0 0 0 0 0 0 0 0 0 0 0 0.25 0"/>
<feBlend mode="normal" in2="BackgroundImageFix" result="effect1_dropShadow_1001_1930"/>
<feBlend mode="normal" in="SourceGraphic" in2="effect1_dropShadow_1001_1930" result="shape"/>
</filter>
<filter id="filter5_d_1001_1930" x="108.19" y="73.9253" width="36.783" height="29.4873" filterUnits="userSpaceOnUse" color-interpolation-filters="sRGB">
<feFlood flood-opacity="0" result="BackgroundImageFix"/>
<feColorMatrix in="SourceAlpha" type="matrix" values="0 0 0 0 0 0 0 0 0 0 0 0 0 0 0 0 0 0 127 0" result="hardAlpha"/>
<feOffset dy="0.504378"/>
<feGaussianBlur stdDeviation="0.252189"/>
<feComposite in2="hardAlpha" operator="out"/>
<feColorMatrix type="matrix" values="0 0 0 0 0 0 0 0 0 0 0 0 0 0 0 0 0 0 0.25 0"/>
<feBlend mode="normal" in2="BackgroundImageFix" result="effect1_dropShadow_1001_1930"/>
<feBlend mode="normal" in="SourceGraphic" in2="effect1_dropShadow_1001_1930" result="shape"/>
</filter>
<filter id="filter6_d_1001_1930" x="74.4064" y="73.3213" width="28.6467" height="37.4692" filterUnits="userSpaceOnUse" color-interpolation-filters="sRGB">
<feFlood flood-opacity="0" result="BackgroundImageFix"/>
<feColorMatrix in="SourceAlpha" type="matrix" values="0 0 0 0 0 0 0 0 0 0 0 0 0 0 0 0 0 0 127 0" result="hardAlpha"/>
<feOffset dy="0.504378"/>
<feGaussianBlur stdDeviation="0.252189"/>
<feComposite in2="hardAlpha" operator="out"/>
<feColorMatrix type="matrix" values="0 0 0 0 0 0 0 0 0 0 0 0 0 0 0 0 0 0 0.25 0"/>
<feBlend mode="normal" in2="BackgroundImageFix" result="effect1_dropShadow_1001_1930"/>
<feBlend mode="normal" in="SourceGraphic" in2="effect1_dropShadow_1001_1930" result="shape"/>
</filter>
<filter id="filter7_d_1001_1930" x="74.4348" y="73.3042" width="34.9848" height="31.0908" filterUnits="userSpaceOnUse" color-interpolation-filters="sRGB">
<feFlood flood-opacity="0" result="BackgroundImageFix"/>
<feColorMatrix in="SourceAlpha" type="matrix" values="0 0 0 0 0 0 0 0 0 0 0 0 0 0 0 0 0 0 127 0" result="hardAlpha"/>
<feOffset dy="0.504378"/>
<feGaussianBlur stdDeviation="0.252189"/>
<feComposite in2="hardAlpha" operator="out"/>
<feColorMatrix type="matrix" values="0 0 0 0 0 0 0 0 0 0 0 0 0 0 0 0 0 0 0.25 0"/>
<feBlend mode="normal" in2="BackgroundImageFix" result="effect1_dropShadow_1001_1930"/>
<feBlend mode="normal" in="SourceGraphic" in2="effect1_dropShadow_1001_1930" result="shape"/>
</filter>
<filter id="filter8_d_1001_1930" x="114.694" y="73.9531" width="30.2964" height="35.7395" filterUnits="userSpaceOnUse" color-interpolation-filters="sRGB">
<feFlood flood-opacity="0" result="BackgroundImageFix"/>
<feColorMatrix in="SourceAlpha" type="matrix" values="0 0 0 0 0 0 0 0 0 0 0 0 0 0 0 0 0 0 127 0" result="hardAlpha"/>
<feOffset dy="0.504378"/>
<feGaussianBlur stdDeviation="0.252189"/>
<feComposite in2="hardAlpha" operator="out"/>
<feColorMatrix type="matrix" values="0 0 0 0 0 0 0 0 0 0 0 0 0 0 0 0 0 0 0.25 0"/>
<feBlend mode="normal" in2="BackgroundImageFix" result="effect1_dropShadow_1001_1930"/>
<feBlend mode="normal" in="SourceGraphic" in2="effect1_dropShadow_1001_1930" result="shape"/>
</filter>
<filter id="filter9_d_1001_1930" x="98.7327" y="45.5203" width="10.3398" height="55.9861" filterUnits="userSpaceOnUse" color-interpolation-filters="sRGB">
<feFlood flood-opacity="0" result="BackgroundImageFix"/>
<feColorMatrix in="SourceAlpha" type="matrix" values="0 0 0 0 0 0 0 0 0 0 0 0 0 0 0 0 0 0 127 0" result="hardAlpha"/>
<feOffset dy="0.504378"/>
<feGaussianBlur stdDeviation="0.252189"/>
<feComposite in2="hardAlpha" operator="out"/>
<feColorMatrix type="matrix" values="0 0 0 0 0 0 0 0 0 0 0 0 0 0 0 0 0 0 0.25 0"/>
<feBlend mode="normal" in2="BackgroundImageFix" result="effect1_dropShadow_1001_1930"/>
<feBlend mode="normal" in="SourceGraphic" in2="effect1_dropShadow_1001_1930" result="shape"/>
</filter>
<filter id="filter10_d_1001_1930" x="107.357" y="115.136" width="34.9848" height="31.0908" filterUnits="userSpaceOnUse" color-interpolation-filters="sRGB">
<feFlood flood-opacity="0" result="BackgroundImageFix"/>
<feColorMatrix in="SourceAlpha" type="matrix" values="0 0 0 0 0 0 0 0 0 0 0 0 0 0 0 0 0 0 127 0" result="hardAlpha"/>
<feOffset dy="0.504378"/>
<feGaussianBlur stdDeviation="0.252189"/>
<feComposite in2="hardAlpha" operator="out"/>
<feColorMatrix type="matrix" values="0 0 0 0 0 0 0 0 0 0 0 0 0 0 0 0 0 0 0.25 0"/>
<feBlend mode="normal" in2="BackgroundImageFix" result="effect1_dropShadow_1001_1930"/>
<feBlend mode="normal" in="SourceGraphic" in2="effect1_dropShadow_1001_1930" result="shape"/>
</filter>
<filter id="filter11_d_1001_1930" x="73.8096" y="107.759" width="28.6467" height="37.4692" filterUnits="userSpaceOnUse" color-interpolation-filters="sRGB">
<feFlood flood-opacity="0" result="BackgroundImageFix"/>
<feColorMatrix in="SourceAlpha" type="matrix" values="0 0 0 0 0 0 0 0 0 0 0 0 0 0 0 0 0 0 127 0" result="hardAlpha"/>
<feOffset dx="-0.378284" dy="0.504378"/>
<feGaussianBlur stdDeviation="0.252189"/>
<feComposite in2="hardAlpha" operator="out"/>
<feColorMatrix type="matrix" values="0 0 0 0 0 0 0 0 0 0 0 0 0 0 0 0 0 0 0.25 0"/>
<feBlend mode="normal" in2="BackgroundImageFix" result="effect1_dropShadow_1001_1930"/>
<feBlend mode="normal" in="SourceGraphic" in2="effect1_dropShadow_1001_1930" result="shape"/>
</filter>
<filter id="filter12_d_1001_1930" x="74.2166" y="114.155" width="34.9848" height="31.0908" filterUnits="userSpaceOnUse" color-interpolation-filters="sRGB">
<feFlood flood-opacity="0" result="BackgroundImageFix"/>
<feColorMatrix in="SourceAlpha" type="matrix" values="0 0 0 0 0 0 0 0 0 0 0 0 0 0 0 0 0 0 127 0" result="hardAlpha"/>
<feOffset dy="0.504378"/>
<feGaussianBlur stdDeviation="0.252189"/>
<feComposite in2="hardAlpha" operator="out"/>
<feColorMatrix type="matrix" values="0 0 0 0 0 0 0 0 0 0 0 0 0 0 0 0 0 0 0.25 0"/>
<feBlend mode="normal" in2="BackgroundImageFix" result="effect1_dropShadow_1001_1930"/>
<feBlend mode="normal" in="SourceGraphic" in2="effect1_dropShadow_1001_1930" result="shape"/>
</filter>
<filter id="filter13_d_1001_1930" x="107.937" y="45.5203" width="9.70932" height="55.9861" filterUnits="userSpaceOnUse" color-interpolation-filters="sRGB">
<feFlood flood-opacity="0" result="BackgroundImageFix"/>
<feColorMatrix in="SourceAlpha" type="matrix" values="0 0 0 0 0 0 0 0 0 0 0 0 0 0 0 0 0 0 127 0" result="hardAlpha"/>
<feOffset dy="0.504378"/>
<feGaussianBlur stdDeviation="0.252189"/>
<feComposite in2="hardAlpha" operator="out"/>
<feColorMatrix type="matrix" values="0 0 0 0 0 0 0 0 0 0 0 0 0 0 0 0 0 0 0.25 0"/>
<feBlend mode="normal" in2="BackgroundImageFix" result="effect1_dropShadow_1001_1930"/>
<feBlend mode="normal" in="SourceGraphic" in2="effect1_dropShadow_1001_1930" result="shape"/>
</filter>
<filter id="filter14_d_1001_1930" x="116.323" y="99.2367" width="55.952" height="10.3397" filterUnits="userSpaceOnUse" color-interpolation-filters="sRGB">
<feFlood flood-opacity="0" result="BackgroundImageFix"/>
<feColorMatrix in="SourceAlpha" type="matrix" values="0 0 0 0 0 0 0 0 0 0 0 0 0 0 0 0 0 0 127 0" result="hardAlpha"/>
<feOffset dy="-0.630473"/>
<feGaussianBlur stdDeviation="0.252189"/>
<feComposite in2="hardAlpha" operator="out"/>
<feColorMatrix type="matrix" values="0 0 0 0 0 0 0 0 0 0 0 0 0 0 0 0 0 0 0.25 0"/>
<feBlend mode="normal" in2="BackgroundImageFix" result="effect1_dropShadow_1001_1930"/>
<feBlend mode="normal" in="SourceGraphic" in2="effect1_dropShadow_1001_1930" result="shape"/>
</filter>
<filter id="filter15_d_1001_1930" x="116.289" y="109.45" width="55.9861" height="9.7092" filterUnits="userSpaceOnUse" color-interpolation-filters="sRGB">
<feFlood flood-opacity="0" result="BackgroundImageFix"/>
<feColorMatrix in="SourceAlpha" type="matrix" values="0 0 0 0 0 0 0 0 0 0 0 0 0 0 0 0 0 0 127 0" result="hardAlpha"/>
<feOffset dy="0.504378"/>
<feGaussianBlur stdDeviation="0.252189"/>
<feComposite in2="hardAlpha" operator="out"/>
<feColorMatrix type="matrix" values="0 0 0 0 0 0 0 0 0 0 0 0 0 0 0 0 0 0 0.25 0"/>
<feBlend mode="normal" in2="BackgroundImageFix" result="effect1_dropShadow_1001_1930"/>
<feBlend mode="normal" in="SourceGraphic" in2="effect1_dropShadow_1001_1930" result="shape"/>
</filter>
<filter id="filter16_d_1001_1930" x="43.8809" y="108.694" width="55.952" height="10.2136" filterUnits="userSpaceOnUse" color-interpolation-filters="sRGB">
<feFlood flood-opacity="0" result="BackgroundImageFix"/>
<feColorMatrix in="SourceAlpha" type="matrix" values="0 0 0 0 0 0 0 0 0 0 0 0 0 0 0 0 0 0 127 0" result="hardAlpha"/>
<feOffset dy="0.504378"/>
<feGaussianBlur stdDeviation="0.252189"/>
<feComposite in2="hardAlpha" operator="out"/>
<feColorMatrix type="matrix" values="0 0 0 0 0 0 0 0 0 0 0 0 0 0 0 0 0 0 0.25 0"/>
<feBlend mode="normal" in2="BackgroundImageFix" result="effect1_dropShadow_1001_1930"/>
<feBlend mode="normal" in="SourceGraphic" in2="effect1_dropShadow_1001_1930" result="shape"/>
</filter>
<filter id="filter17_d_1001_1930" x="107.181" y="117.836" width="10.2137" height="55.9519" filterUnits="userSpaceOnUse" color-interpolation-filters="sRGB">
<feFlood flood-opacity="0" result="BackgroundImageFix"/>
<feColorMatrix in="SourceAlpha" type="matrix" values="0 0 0 0 0 0 0 0 0 0 0 0 0 0 0 0 0 0 127 0" result="hardAlpha"/>
<feOffset dy="0.504378"/>
<feGaussianBlur stdDeviation="0.252189"/>
<feComposite in2="hardAlpha" operator="out"/>
<feColorMatrix type="matrix" values="0 0 0 0 0 0 0 0 0 0 0 0 0 0 0 0 0 0 0.25 0"/>
<feBlend mode="normal" in2="BackgroundImageFix" result="effect1_dropShadow_1001_1930"/>
<feBlend mode="normal" in="SourceGraphic" in2="effect1_dropShadow_1001_1930" result="shape"/>
</filter>
<filter id="filter18_d_1001_1930" x="98.6063" y="117.802" width="9.70932" height="55.9861" filterUnits="userSpaceOnUse" color-interpolation-filters="sRGB">
<feFlood flood-opacity="0" result="BackgroundImageFix"/>
<feColorMatrix in="SourceAlpha" type="matrix" values="0 0 0 0 0 0 0 0 0 0 0 0 0 0 0 0 0 0 127 0" result="hardAlpha"/>
<feOffset dy="0.504378"/>
<feGaussianBlur stdDeviation="0.252189"/>
<feComposite in2="hardAlpha" operator="out"/>
<feColorMatrix type="matrix" values="0 0 0 0 0 0 0 0 0 0 0 0 0 0 0 0 0 0 0.25 0"/>
<feBlend mode="normal" in2="BackgroundImageFix" result="effect1_dropShadow_1001_1930"/>
<feBlend mode="normal" in="SourceGraphic" in2="effect1_dropShadow_1001_1930" result="shape"/>
</filter>
<filter id="filter19_d_1001_1930" x="43.8809" y="98.9845" width="55.9861" height="9.83529" filterUnits="userSpaceOnUse" color-interpolation-filters="sRGB">
<feFlood flood-opacity="0" result="BackgroundImageFix"/>
<feColorMatrix in="SourceAlpha" type="matrix" values="0 0 0 0 0 0 0 0 0 0 0 0 0 0 0 0 0 0 127 0" result="hardAlpha"/>
<feOffset dy="-0.630473"/>
<feGaussianBlur stdDeviation="0.252189"/>
<feComposite in2="hardAlpha" operator="out"/>
<feColorMatrix type="matrix" values="0 0 0 0 0 0 0 0 0 0 0 0 0 0 0 0 0 0 0.25 0"/>
<feBlend mode="normal" in2="BackgroundImageFix" result="effect1_dropShadow_1001_1930"/>
<feBlend mode="normal" in="SourceGraphic" in2="effect1_dropShadow_1001_1930" result="shape"/>
</filter>
<filter id="filter20_d_1001_1930" x="10.4661" y="163.923" width="195.068" height="53.0861" filterUnits="userSpaceOnUse" color-interpolation-filters="sRGB">
<feFlood flood-opacity="0" result="BackgroundImageFix"/>
<feColorMatrix in="SourceAlpha" type="matrix" values="0 0 0 0 0 0 0 0 0 0 0 0 0 0 0 0 0 0 127 0" result="hardAlpha"/>
<feOffset dy="0.504378"/>
<feGaussianBlur stdDeviation="0.252189"/>
<feComposite in2="hardAlpha" operator="out"/>
<feColorMatrix type="matrix" values="0 0 0 0 0 0 0 0 0 0 0 0 0 0 0 0 0 0 0.25 0"/>
<feBlend mode="normal" in2="BackgroundImageFix" result="effect1_dropShadow_1001_1930"/>
<feBlend mode="normal" in="SourceGraphic" in2="effect1_dropShadow_1001_1930" result="shape"/>
</filter>
<filter id="filter21_d_1001_1930" x="167.832" y="163.923" width="38.0805" height="37.45" filterUnits="userSpaceOnUse" color-interpolation-filters="sRGB">
<feFlood flood-opacity="0" result="BackgroundImageFix"/>
<feColorMatrix in="SourceAlpha" type="matrix" values="0 0 0 0 0 0 0 0 0 0 0 0 0 0 0 0 0 0 127 0" result="hardAlpha"/>
<feOffset dx="0.378284" dy="0.630473"/>
<feGaussianBlur stdDeviation="0.252189"/>
<feComposite in2="hardAlpha" operator="out"/>
<feColorMatrix type="matrix" values="0 0 0 0 0 0 0 0 0 0 0 0 0 0 0 0 0 0 0.25 0"/>
<feBlend mode="normal" in2="BackgroundImageFix" result="effect1_dropShadow_1001_1930"/>
<feBlend mode="normal" in="SourceGraphic" in2="effect1_dropShadow_1001_1930" result="shape"/>
</filter>
<filter id="filter22_d_1001_1930" x="10.8444" y="163.923" width="38.0805" height="37.45" filterUnits="userSpaceOnUse" color-interpolation-filters="sRGB">
<feFlood flood-opacity="0" result="BackgroundImageFix"/>
<feColorMatrix in="SourceAlpha" type="matrix" values="0 0 0 0 0 0 0 0 0 0 0 0 0 0 0 0 0 0 127 0" result="hardAlpha"/>
<feOffset dx="0.378284" dy="0.630473"/>
<feGaussianBlur stdDeviation="0.252189"/>
<feComposite in2="hardAlpha" operator="out"/>
<feColorMatrix type="matrix" values="0 0 0 0 0 0 0 0 0 0 0 0 0 0 0 0 0 0 0.25 0"/>
<feBlend mode="normal" in2="BackgroundImageFix" result="effect1_dropShadow_1001_1930"/>
<feBlend mode="normal" in="SourceGraphic" in2="effect1_dropShadow_1001_1930" result="shape"/>
</filter>
<filter id="filter23_d_1001_1930" x="33.9197" y="179.685" width="149.548" height="38.0808" filterUnits="userSpaceOnUse" color-interpolation-filters="sRGB">
<feFlood flood-opacity="0" result="BackgroundImageFix"/>
<feColorMatrix in="SourceAlpha" type="matrix" values="0 0 0 0 0 0 0 0 0 0 0 0 0 0 0 0 0 0 127 0" result="hardAlpha"/>
<feOffset dx="0.882662" dy="1.26095"/>
<feGaussianBlur stdDeviation="0.252189"/>
<feComposite in2="hardAlpha" operator="out"/>
<feColorMatrix type="matrix" values="0 0 0 0 0 0 0 0 0 0 0 0 0 0 0 0 0 0 0.25 0"/>
<feBlend mode="normal" in2="BackgroundImageFix" result="effect1_dropShadow_1001_1930"/>
<feBlend mode="normal" in="SourceGraphic" in2="effect1_dropShadow_1001_1930" result="shape"/>
</filter>
<filter id="filter24_d_1001_1930" x="10.4661" y="0" width="195.068" height="53.0859" filterUnits="userSpaceOnUse" color-interpolation-filters="sRGB">
<feFlood flood-opacity="0" result="BackgroundImageFix"/>
<feColorMatrix in="SourceAlpha" type="matrix" values="0 0 0 0 0 0 0 0 0 0 0 0 0 0 0 0 0 0 127 0" result="hardAlpha"/>
<feOffset dy="0.504378"/>
<feGaussianBlur stdDeviation="0.252189"/>
<feComposite in2="hardAlpha" operator="out"/>
<feColorMatrix type="matrix" values="0 0 0 0 0 0 0 0 0 0 0 0 0 0 0 0 0 0 0.25 0"/>
<feBlend mode="normal" in2="BackgroundImageFix" result="effect1_dropShadow_1001_1930"/>
<feBlend mode="normal" in="SourceGraphic" in2="effect1_dropShadow_1001_1930" result="shape"/>
</filter>
<filter id="filter25_d_1001_1930" x="167.832" y="15.762" width="38.0805" height="37.45" filterUnits="userSpaceOnUse" color-interpolation-filters="sRGB">
<feFlood flood-opacity="0" result="BackgroundImageFix"/>
<feColorMatrix in="SourceAlpha" type="matrix" values="0 0 0 0 0 0 0 0 0 0 0 0 0 0 0 0 0 0 127 0" result="hardAlpha"/>
<feOffset dx="0.378284" dy="0.630473"/>
<feGaussianBlur stdDeviation="0.252189"/>
<feComposite in2="hardAlpha" operator="out"/>
<feColorMatrix type="matrix" values="0 0 0 0 0 0 0 0 0 0 0 0 0 0 0 0 0 0 0.25 0"/>
<feBlend mode="normal" in2="BackgroundImageFix" result="effect1_dropShadow_1001_1930"/>
<feBlend mode="normal" in="SourceGraphic" in2="effect1_dropShadow_1001_1930" result="shape"/>
</filter>
<filter id="filter26_d_1001_1930" x="10.8444" y="15.762" width="38.0805" height="37.45" filterUnits="userSpaceOnUse" color-interpolation-filters="sRGB">
<feFlood flood-opacity="0" result="BackgroundImageFix"/>
<feColorMatrix in="SourceAlpha" type="matrix" values="0 0 0 0 0 0 0 0 0 0 0 0 0 0 0 0 0 0 127 0" result="hardAlpha"/>
<feOffset dx="0.378284" dy="0.630473"/>
<feGaussianBlur stdDeviation="0.252189"/>
<feComposite in2="hardAlpha" operator="out"/>
<feColorMatrix type="matrix" values="0 0 0 0 0 0 0 0 0 0 0 0 0 0 0 0 0 0 0.25 0"/>
<feBlend mode="normal" in2="BackgroundImageFix" result="effect1_dropShadow_1001_1930"/>
<feBlend mode="normal" in="SourceGraphic" in2="effect1_dropShadow_1001_1930" result="shape"/>
</filter>
<filter id="filter27_d_1001_1930" x="33.9197" y="0" width="149.548" height="38.0805" filterUnits="userSpaceOnUse" color-interpolation-filters="sRGB">
<feFlood flood-opacity="0" result="BackgroundImageFix"/>
<feColorMatrix in="SourceAlpha" type="matrix" values="0 0 0 0 0 0 0 0 0 0 0 0 0 0 0 0 0 0 127 0" result="hardAlpha"/>
<feOffset dx="0.882662" dy="1.26095"/>
<feGaussianBlur stdDeviation="0.252189"/>
<feComposite in2="hardAlpha" operator="out"/>
<feColorMatrix type="matrix" values="0 0 0 0 0 0 0 0 0 0 0 0 0 0 0 0 0 0 0.25 0"/>
<feBlend mode="normal" in2="BackgroundImageFix" result="effect1_dropShadow_1001_1930"/>
<feBlend mode="normal" in="SourceGraphic" in2="effect1_dropShadow_1001_1930" result="shape"/>
</filter>
<linearGradient id="paint0_linear_1001_1930" x1="108" y1="0" x2="108" y2="216" gradientUnits="userSpaceOnUse">
<stop stop-color="#6F07F7"/>
<stop offset="1" stop-color="#A268EE"/>
</linearGradient>
<linearGradient id="paint1_linear_1001_1930" x1="118.214" y1="91.0405" x2="131.895" y2="188.89" gradientUnits="userSpaceOnUse">
<stop offset="0.0145996" stop-color="#D7B9FF"/>
<stop offset="1" stop-color="#9D51FF"/>
</linearGradient>
<linearGradient id="paint2_linear_1001_1930" x1="108.631" y1="77.9268" x2="154.403" y2="296.575" gradientUnits="userSpaceOnUse">
<stop stop-color="#D7B9FF"/>
<stop offset="1" stop-color="#6F07F7"/>
</linearGradient>
</defs>
</svg>
