<svg width="676" height="75" viewBox="0 0 676 75" fill="none" xmlns="http://www.w3.org/2000/svg">
<path d="M48.7123 2.725V4.075H46.9873C45.7373 4.075 44.6373 4.9 43.6873 6.55C42.7373 7.9 42.2623 9.65 42.2623 11.8V39.55C42.2623 44.5 41.5373 48.45 40.0873 51.4C38.6373 54.35 36.4873 56.7 33.6373 58.45C30.7873 60.15 27.1123 61 22.6123 61C18.2623 60.9 15.0623 60.1 13.0123 58.6C10.4123 57.1 8.5623 54.9 7.4623 52C6.4623 49.5 5.9123 46.75 5.8123 43.75V17.125C5.7123 15.475 5.2623 14.35 4.4623 13.75C3.5123 13.1 2.6123 12.75 1.7623 12.7H0.0373045V11.35H18.6373V12.7H16.9123C15.0623 12.7 13.7373 13.1 12.9373 13.9C12.3873 14.75 12.0873 15.825 12.0373 17.125V41.425C12.0373 47.775 13.4623 52.1 16.3123 54.4C18.4623 56.5 20.6873 57.55 22.9873 57.55C27.1873 57.55 30.6873 56.15 33.4873 53.35C35.2873 49.8 36.1873 45.825 36.1873 41.425V11.5C36.1873 7.2 38.2373 3.95 42.3373 1.75C45.2873 1.75 47.4123 2.075 48.7123 2.725ZM74.4449 39.4L61.9199 19.525V52.225C62.0199 55.425 62.3199 57.4 62.8199 58.15C63.5699 59.2 64.4949 59.725 65.5949 59.725H66.9449V61H51.1199V59.65H52.5449C54.5949 59.6 55.8199 58.675 56.2199 56.875V18.25C56.2199 16.2 55.8449 14.75 55.0949 13.9C54.2949 13.15 53.3949 12.75 52.3949 12.7H51.1199V11.35H61.8449L75.6449 33.55L90.9449 11.35H102.42V12.475H100.995C99.2449 12.475 98.0199 13.1 97.3199 14.35C96.8699 15.15 96.6449 16.95 96.6449 19.75V64.15C96.6449 67.2 96.9199 69.1 97.4699 69.85C98.5699 71.4 100.145 72.025 102.195 71.725L102.42 72.475C98.9699 73.675 96.0699 73.25 93.7199 71.2C91.8699 69.3 90.9449 66.95 90.9449 64.15V19L76.8449 39.4H74.4449ZM102.52 11.35H116.02L143.095 46.3V12.175C143.295 8.975 144.695 6.625 147.295 5.125C149.695 3.925 152.795 3.65 156.595 4.3V5.65H154.87C152.77 5.65 151.27 6.275 150.37 7.525C149.82 8.425 149.545 10.2 149.545 12.85V61.825H148.27L116.245 21.85V52.375C116.245 55.425 116.595 57.325 117.295 58.075C118.195 59.125 119.62 59.65 121.57 59.65H123.295V61H103.195V59.5H104.92C107.02 59.5 108.52 59.075 109.42 58.225C110.07 57.375 110.395 55.25 110.395 51.85V17.35C109.895 16.05 109.37 15.125 108.82 14.575C107.92 13.725 106.895 13.2 105.745 13C105.045 12.8 103.97 12.7 102.52 12.7V11.35ZM193.81 14.05V33.55H202.885C204.985 33.55 206.51 33.1 207.46 32.2C208.41 31.3 209.06 29.475 209.41 26.725H210.76V43.6H209.41C209.36 41.65 209.085 40.225 208.585 39.325C208.135 38.425 207.485 37.75 206.635 37.3C205.785 36.85 204.535 36.625 202.885 36.625H193.81V64.825C193.81 67.375 193.985 69.05 194.335 69.85C194.585 70.45 195.085 70.975 195.835 71.425C196.935 71.975 198.06 72.25 199.21 72.25H201.01V73.6H179.71V72.25H181.435C183.485 72.25 184.985 71.65 185.935 70.45C186.485 69.7 186.76 67.825 186.76 64.825V36.625H181.885V33.55H186.76V18.25C186.76 17 186.61 15.975 186.31 15.175C186.06 14.525 185.56 14 184.81 13.6C183.76 13 182.635 12.7 181.435 12.7H179.71V11.35H216.685L217.135 22.225H215.86C215.21 19.925 214.46 18.25 213.61 17.2C212.81 16.1 211.785 15.3 210.535 14.8C209.285 14.3 207.36 14.05 204.76 14.05H193.81ZM236.936 14.05V33.7H247.886C250.736 33.7 252.636 33.275 253.586 32.425C254.836 31.275 255.536 29.3 255.686 26.5H257.036V43.75H255.686C255.336 41.35 254.986 39.8 254.636 39.1C254.236 38.25 253.511 37.575 252.461 37.075C251.461 36.575 249.936 36.325 247.886 36.325H236.936V52.75C236.936 54.95 237.036 56.3 237.236 56.8C237.436 57.25 237.786 57.625 238.286 57.925C238.786 58.175 239.711 58.3 241.061 58.3H249.461C252.311 58.3 254.361 58.1 255.611 57.7C256.861 57.3 258.086 56.525 259.286 55.375C259.286 53.175 258.586 50.725 257.186 48.025L260.861 48.1L265.661 61H222.836V59.65H224.561C225.761 59.65 226.886 59.375 227.936 58.825C228.686 58.425 229.211 57.85 229.511 57.1C229.811 56.3 229.961 54.675 229.961 52.225V36.325H224.711V33.775H229.961V17.575C229.961 16.025 229.636 14.875 228.986 14.125C228.086 13.175 226.611 12.7 224.561 12.7H222.836V11.35H261.086L261.686 22.225H260.261C259.711 19.625 259.111 17.85 258.461 16.9C257.861 15.9 256.961 15.125 255.761 14.575C254.761 14.225 253.036 14.05 250.586 14.05H236.936ZM301.837 6.175V26.05H300.562C300.062 23.4 299.287 21.275 298.237 19.675C297.237 18.075 295.762 16.65 293.812 15.4C291.862 14.1 289.837 13.45 287.737 13.45C285.337 13.45 283.362 14.325 281.812 16.075C280.262 17.825 279.487 19.8 279.487 22C279.487 23.7 279.987 25.25 280.987 26.65C282.387 28.65 285.762 31.35 291.112 34.75C295.412 37.55 298.337 39.7 299.887 41.2C301.487 42.65 302.712 44.4 303.562 46.45C304.462 48.45 304.912 50.55 304.912 52.75C304.912 56.95 303.537 60.575 300.787 63.625C298.037 66.675 294.512 68.2 290.212 68.2C288.912 68.2 287.662 68.075 286.462 67.825C285.762 67.675 284.287 67.175 282.037 66.325C279.837 65.475 278.437 65.05 277.837 65.05C277.237 65.05 276.762 65.25 276.412 65.65C276.112 66.05 275.862 68.05 275.662 71.65H274.462V50.2H275.662C276.312 54.1 277.137 56.9 278.137 58.6C279.137 60.25 280.662 61.725 282.712 63.025C284.762 64.325 287.037 64.975 289.537 64.975C292.387 64.975 294.637 64.075 296.287 62.275C297.987 60.475 298.837 58.35 298.837 55.9C298.837 54.55 298.512 53.175 297.862 51.775C297.212 50.375 296.237 49.075 294.937 47.875C294.037 47.075 291.587 45.35 287.587 42.7C283.637 40.05 280.812 37.95 279.112 36.4C277.462 34.8 276.187 33.05 275.287 31.15C274.437 29.2 274.012 27.1 274.012 24.85C274.012 20.85 275.287 17.425 277.837 14.575C280.387 11.675 283.662 10.225 287.662 10.225C290.112 10.225 292.287 10.7 294.187 11.65C295.787 12.45 297.162 13 298.312 13.3C299.212 12.8 299.962 10.425 300.562 6.175H301.837ZM350.462 10.15L350.537 22.6H349.112C348.862 20.6 348.487 19.175 347.987 18.325C347.237 16.975 346.237 15.975 344.987 15.325C343.737 14.675 342.087 14.35 340.037 14.35H333.062V67.375C333.062 69.825 333.387 71.325 334.037 71.875C334.937 72.825 336.112 73.3 337.562 73.3H339.287V74.95H319.712V73.3H321.512C323.012 73.35 324.237 72.85 325.187 71.8C325.737 71.05 326.012 69.575 326.012 67.375V14.35H320.012C317.712 14.35 316.062 14.525 315.062 14.875C313.812 15.325 312.737 16.175 311.837 17.425C310.937 18.675 310.412 20.4 310.262 22.6H308.837V10.15H310.262V11.35H349.112V10.15H350.462ZM376.721 59.65V61H355.496V59.65H357.221C359.271 59.65 360.771 59.05 361.721 57.85C362.321 57.05 362.621 55.175 362.621 52.225V20.125C362.621 17.625 362.446 15.975 362.096 15.175C361.846 14.525 361.346 14 360.596 13.6C359.546 13 358.421 12.7 357.221 12.7H355.496V11.35H376.721V12.7H374.921C372.871 12.7 371.396 13.3 370.496 14.5C369.846 15.3 369.521 17.175 369.521 20.125V52.225C369.521 54.725 369.696 56.375 370.046 57.175C370.296 57.775 370.796 58.3 371.546 58.75C372.596 59.35 373.721 59.65 374.921 59.65H376.721ZM417.222 2.2C422.972 1.05 426.372 1.55 427.422 3.7C427.722 6.2 426.997 9.5 425.247 13.6L407.547 61H404.547L388.197 19.15C387.347 17 386.747 15.7 386.397 15.25C385.847 14.45 385.172 13.85 384.372 13.45C383.572 13.05 382.522 12.8 381.222 12.7V11.35H399.147V12.7C397.097 12.9 395.772 13.275 395.172 13.825C394.572 14.375 394.272 15.075 394.272 15.925C394.272 17.125 394.772 19 395.772 21.55L406.872 49.975L417.222 21.85C420.322 13 421.872 8.025 421.872 6.925C421.872 6.275 421.547 5.625 420.897 4.975C420.297 4.325 419.272 3.85 417.822 3.55C417.672 3.55 417.472 3.525 417.222 3.475V2.2ZM445.427 48.7L435.527 21.625L427.877 42.325L445.427 48.7ZM425.327 41.425L436.727 10.225H437.852L452.627 51.55C453.827 54.85 454.902 57 455.852 58C456.852 58.95 458.227 59.5 459.977 59.65V61H443.177V59.65C444.877 59.55 446.027 59.225 446.627 58.675C447.227 58.125 447.527 57.425 447.527 56.575C447.527 55.525 447.252 54.1 446.702 52.3L446.477 51.625L427.052 44.65L424.277 52.225C423.577 54.125 423.227 55.55 423.227 56.5C423.227 57.3 423.527 58 424.127 58.6C424.727 59.15 426.077 59.5 428.177 59.65V61H414.752V59.65C416.502 59.3 417.652 58.825 418.202 58.225C419.252 57.025 420.452 54.65 421.802 51.1L424.502 43.675L415.127 40.3L419.402 39.25L425.327 41.425ZM497.409 45.925H500.109L504.834 60.925L464.559 61V59.65H466.359C468.409 59.65 469.859 58.975 470.709 57.625C471.209 56.825 471.459 55 471.459 52.15V20.125C471.459 17.025 471.134 15.075 470.484 14.275C469.584 13.225 468.209 12.7 466.359 12.7H464.559V11.35H486.384V12.7H484.434C483.134 12.7 481.509 13.15 479.559 14.05C478.709 15.2 478.284 17 478.284 19.45V52.15C478.284 54.2 478.484 55.6 478.884 56.35C479.184 56.85 479.609 57.225 480.159 57.475C480.759 57.725 482.609 57.85 485.709 57.85H489.234C492.934 57.85 495.509 57.575 496.959 57.025C498.459 56.475 499.209 55.45 499.209 53.95C499.209 52.4 498.609 49.725 497.409 45.925ZM560.576 51.475L557.126 61H527.801V59.65C536.401 51.8 542.451 45.375 545.951 40.375C549.501 35.375 551.276 30.825 551.276 26.725C551.276 23.575 550.301 21 548.351 19C546.451 16.95 544.151 15.925 541.451 15.925C539.001 15.925 536.801 16.65 534.851 18.1C532.951 19.5 531.526 21.575 530.576 24.325H529.226C529.826 19.825 531.376 16.375 533.876 13.975C536.426 11.525 539.601 10.3 543.401 10.3C547.451 10.3 550.801 11.6 553.451 14.2C556.151 16.8 557.501 19.85 557.501 23.35C557.501 25.85 556.926 28.375 555.776 30.925C553.976 34.875 551.051 39.05 547.001 43.45C540.901 50.1 537.101 54.1 535.601 55.45H548.576C551.226 55.45 553.076 55.35 554.126 55.15C555.176 54.95 556.126 54.575 556.976 54.025C557.826 53.425 558.576 52.575 559.226 51.475H560.576ZM568.676 36.475C568.676 30.825 569.526 25.95 571.226 21.85C572.926 17.75 575.201 14.7 578.051 12.7C580.251 11.1 582.526 10.3 584.876 10.3C588.676 10.3 592.101 12.25 595.151 16.15C598.901 20.95 600.776 27.475 600.776 35.725C600.776 41.475 599.951 46.375 598.301 50.425C596.651 54.425 594.526 57.35 591.926 59.2C589.376 61 586.901 61.9 584.501 61.9C579.751 61.9 575.801 59.1 572.651 53.5C570.001 48.8 568.676 43.125 568.676 36.475ZM576.476 38.35C577.426 45.15 579.026 50.55 581.276 54.55C583.226 57.95 585.551 59.45 588.251 59.05C589.601 58.85 590.876 58.075 592.076 56.725C593.326 55.375 594.101 53.25 594.401 50.35C594.951 46.05 594.676 40.1 593.576 32.5C592.726 26.9 591.451 22.325 589.751 18.775C588.501 16.125 587.101 14.325 585.551 13.375C584.451 12.675 583.176 12.425 581.726 12.625C580.076 12.875 578.726 13.825 577.676 15.475C576.226 17.775 575.501 21.125 575.501 25.525C575.501 29.925 575.826 34.2 576.476 38.35ZM640.076 51.475L636.626 61H607.301V59.65C615.901 51.8 621.951 45.375 625.451 40.375C629.001 35.375 630.776 30.825 630.776 26.725C630.776 23.575 629.801 21 627.851 19C625.951 16.95 623.651 15.925 620.951 15.925C618.501 15.925 616.301 16.65 614.351 18.1C612.451 19.5 611.026 21.575 610.076 24.325H608.726C609.326 19.825 610.876 16.375 613.376 13.975C615.926 11.525 619.101 10.3 622.901 10.3C626.951 10.3 630.301 11.6 632.951 14.2C635.651 16.8 637.001 19.85 637.001 23.35C637.001 25.85 636.426 28.375 635.276 30.925C633.476 34.875 630.551 39.05 626.501 43.45C620.401 50.1 616.601 54.1 615.101 55.45H628.076C630.726 55.45 632.576 55.35 633.626 55.15C634.676 54.95 635.626 54.575 636.476 54.025C637.326 53.425 638.076 52.575 638.726 51.475H640.076ZM675.776 11.65L672.926 17.875H658.001L654.701 24.55C661.201 25.5 666.351 27.9 670.151 31.75C673.351 35.05 674.951 38.95 674.951 43.45C674.951 46.05 674.426 48.475 673.376 50.725C672.326 52.925 671.001 54.825 669.401 56.425C667.801 57.975 666.001 59.225 664.001 60.175C661.201 61.525 658.326 62.2 655.376 62.2C652.376 62.2 650.201 61.7 648.851 60.7C647.501 59.65 646.826 58.525 646.826 57.325C646.826 56.625 647.101 56.025 647.651 55.525C648.201 54.975 648.926 54.7 649.826 54.7C650.426 54.7 650.951 54.8 651.401 55C651.901 55.2 652.726 55.7 653.876 56.5C655.726 57.75 657.576 58.375 659.426 58.375C662.326 58.375 664.851 57.3 667.001 55.15C669.151 53 670.226 50.375 670.226 47.275C670.226 44.275 669.251 41.475 667.301 38.875C665.401 36.275 662.751 34.275 659.351 32.875C656.701 31.775 653.076 31.125 648.476 30.925L658.001 11.65H675.776Z" fill="white"/>
</svg>
