<svg width="360" height="286" viewBox="0 0 360 286" fill="none" xmlns="http://www.w3.org/2000/svg">
<g filter="url(#filter0_d_1099_2758)">
<path d="M246.639 214.142L251.214 220.578C243.577 220.945 238.917 218.293 236.168 211.857C234.166 206.663 230.235 202.444 225.195 200.079C214.583 195.027 204.126 189.627 193.679 184.41C193.386 187.52 192.812 191.014 192.864 194.458C192.865 195.364 194.443 196.792 195.519 197.063C201.147 198.453 206.456 200.214 209.222 206.065C209.615 206.794 211.323 207.664 211.96 207.388C216.248 205.53 217.791 208.392 219.427 211.325C222.299 216.612 226.514 221.049 231.648 224.189C234.29 225.957 236.439 228.369 237.892 231.196L230.478 227.706L229.553 229.233L236.909 234.114C233.839 240.944 230.117 241.943 225.291 236.848C222.205 233.748 219.583 230.219 217.508 226.369C212.809 216.992 204.624 213.652 195.109 212.278C190.938 211.684 186.608 211.883 182.568 210.854C180.078 210.154 177.945 208.538 176.6 206.33C168.894 191.353 159.814 177.482 146.737 166.583C145.329 165.604 143.834 164.755 142.272 164.047L140.621 165.522C142.242 168.53 143.514 171.814 145.586 174.468C147.658 177.122 150.421 178.984 152.385 182.094C149.112 180.928 145.778 179.916 142.574 178.59C135.327 175.633 127.425 174.643 119.67 175.719C117.141 175.949 114.735 176.913 112.747 178.493C110.759 180.074 109.277 182.2 108.483 184.611C105.689 192.054 106.226 199.56 108.319 207.057C108.823 208.876 109.409 210.661 110.019 212.676L81.8836 197.53C73.4663 206.058 79.1574 217.111 76.3834 227.795C72.796 222.165 70.1441 217.059 66.6036 212.687C62.3605 207.223 57.5647 202.211 52.2921 197.731C46.5729 193.073 41.1006 194.397 36.2742 200.205C35.606 201.018 34.8244 201.826 33.9392 202.812C28.5516 196.737 26.9966 189.436 25.3584 182.269C22.631 170.371 17.0244 159.803 10.5463 149.671C9.63595 148.249 7.01254 147.816 5.09362 147.191C4.01509 146.833 2.77828 147.002 1.45963 146.341C6.13555 142.132 12.2326 139.85 18.5223 139.955C23.5494 140.043 28.5726 140.432 33.5958 140.39C36.3056 140.367 39.3967 140.415 41.6612 139.217C48.2917 135.71 54.4331 136.757 60.6846 139.857C62.9894 140.992 65.2659 142.198 67.5417 143.382L68.5001 140.93L63.8442 137.999C66.4262 136.142 69.1076 134.428 71.8765 132.863C72.6225 132.461 74.2011 133.501 75.3198 134.037C77.0534 134.872 78.6498 136.356 80.4447 136.627C83.1327 137.036 84.5424 137.825 84.5498 140.795C84.557 141.61 85.9984 142.867 86.9912 143.129C91.5092 144.439 96.1129 145.435 100.769 146.109C103.174 146.302 105.581 145.747 107.658 144.519C113.399 141.127 114.057 138.406 110.649 132.635C108.754 129.626 106.619 126.776 104.263 124.112C97.5196 116.048 90.7078 108.034 83.8279 100.073C81.7863 97.701 79.4174 95.6051 77.2016 93.3824L75.6429 94.2888L78.1419 101.677L77.5258 102.197L68.0326 93.8012C67.2968 86.6455 67.1669 86.5275 60.7685 91.0814C60.8148 90.0912 60.9512 89.1072 61.1761 88.1416C63.5057 81.6228 62.2304 76.2174 56.8937 71.5301C55.6358 70.4278 54.726 66.7273 55.4206 66.0655C56.8394 64.7149 59.4377 64.1771 61.5749 64.0979C64.6522 63.9766 67.7446 64.7869 70.8132 64.8139C74.2473 64.8209 77.2269 64.9291 80.2726 67.3569C83.3182 69.7847 87.5301 70.8653 91.0711 72.8161C92.8746 73.8014 94.3351 75.4027 95.9526 76.7204L95.3128 77.8945L88.9987 77.9025C94.5353 84.4393 99.3608 90.8064 104.893 96.4721C109.738 101.422 115.025 105.919 120.688 109.909C123.101 111.616 126.783 111.877 129.94 112.088C131.385 112.183 134.341 110.214 134.227 109.778C133.624 107.272 132.526 104.913 130.997 102.839C130.231 101.869 128.019 102.055 125.488 101.506C128.925 97.8847 135.442 97.3912 134.228 90.847L138.135 94.5244C139.854 92.2933 140.97 88.5737 144.881 91.8067C144.166 92.9222 143.438 94.0772 142.495 95.5918L147.253 96.8645C147.305 100.574 140.99 102.285 143.944 107.007C153.476 106.359 162.213 103.044 170.499 98.7893C175.862 96.0316 178.801 90.9097 179.185 84.9085C179.652 77.7678 179.646 70.363 175.583 64.1596C170.955 57.1113 170.68 49.1878 169.727 41.3636C169.741 40.6706 169.902 39.9883 170.2 39.3623C170.498 38.7364 170.926 38.1812 171.456 37.7339C184.165 27.4355 196.873 17.137 209.799 7.11929C213.15 4.52841 217.307 2.96233 221.115 0.910519C221.399 1.37829 221.633 1.87475 221.813 2.39168C217.391 6.27893 219.814 9.17464 223.051 12.1628C231.139 19.6138 240.228 24.8993 251.415 25.7815C256.713 26.1882 262.013 26.4947 267.297 27.0194C268.175 27.0881 268.928 28.0753 269.721 28.6432C268.927 29.4724 268.033 30.1995 267.059 30.8077C263.032 32.6572 258.164 33.5004 255.019 36.2679C245.524 44.6244 244.7 58.8021 252.543 68.8393C255.079 72.1279 258.209 75.041 261.001 78.1692C262.038 79.3132 262.956 80.5437 263.934 81.7418L263.33 83.1064C260.314 82.5202 257.315 81.9248 254.282 81.3478C249.989 80.5877 245.707 79.5005 241.38 79.2337C232.937 78.7196 229.445 83.2662 232.612 91.1351C234.954 96.917 238.435 102.228 241.414 107.755L240.422 108.831L236.003 106.79C227.163 102.707 218.139 101.423 208.642 104.683C205.679 105.58 203.006 107.246 200.895 109.51C198.784 111.774 197.31 114.556 196.623 117.574C195.28 122.886 194.905 128.451 194.084 133.869L192.602 144.178C187.258 133.07 176.174 134.598 169.266 128.391L167.713 130.334C169.767 132.544 171.513 135.208 173.942 136.862C176.977 138.942 180.552 140.277 183.958 141.792C190.353 144.604 195.868 148.267 199.933 154.126C202.711 158.069 208.376 159.527 209.418 165.28C209.597 166.289 212.956 166.69 215.226 167.557C213.957 170.663 216.083 171.816 219.019 173.651C225.3 177.564 230.792 182.787 236.893 186.941C256.95 200.69 277.046 214.386 297.345 227.784C312.905 238.053 328.836 247.801 342.149 261.027C347.411 266.252 352.005 272.169 356.767 277.885C357.685 278.993 357.937 280.671 357.543 282.796C353.603 279.59 349.45 276.587 345.712 273.161C329.703 258.568 311.593 246.81 293.035 235.802C283.708 230.301 273.955 225.406 264.203 220.699C258.644 218.022 252.601 216.336 246.639 214.142Z" fill="url(#paint0_linear_1099_2758)"/>
</g>
<defs>
<filter id="filter0_d_1099_2758" x="0.159595" y="0.610156" width="358.863" height="284.486" filterUnits="userSpaceOnUse" color-interpolation-filters="sRGB">
<feFlood flood-opacity="0" result="BackgroundImageFix"/>
<feColorMatrix in="SourceAlpha" type="matrix" values="0 0 0 0 0 0 0 0 0 0 0 0 0 0 0 0 0 0 127 0" result="hardAlpha"/>
<feOffset dy="1"/>
<feGaussianBlur stdDeviation="0.65"/>
<feComposite in2="hardAlpha" operator="out"/>
<feColorMatrix type="matrix" values="0 0 0 0 0 0 0 0 0 0 0 0 0 0 0 0 0 0 0.46 0"/>
<feBlend mode="normal" in2="BackgroundImageFix" result="effect1_dropShadow_1099_2758"/>
<feBlend mode="normal" in="SourceGraphic" in2="effect1_dropShadow_1099_2758" result="shape"/>
</filter>
<linearGradient id="paint0_linear_1099_2758" x1="126.891" y1="64.1749" x2="257.247" y2="187.734" gradientUnits="userSpaceOnUse">
<stop stop-color="#FFF5D1"/>
<stop offset="1" stop-color="#FFC626"/>
</linearGradient>
</defs>
</svg>
